<?xml version="1.0" encoding="UTF-8" standalone="no"?>
<!-- Created with Inkscape (http://www.inkscape.org/) -->

<svg
   width="500mm"
   height="79mm"
   viewBox="0 0 500 79"
   version="1.1"
   id="svg5"
   sodipodi:docname="KrishnaBansuri.svg"
   inkscape:version="1.1.1 (3bf5ae0d25, 2021-09-20)"
   inkscape:export-filename="C:\Users\Manveer Chauhan\Documents\Inkscape\KrishnaHairSmall.png"
   inkscape:export-xdpi="96"
   inkscape:export-ydpi="96"
   xmlns:inkscape="http://www.inkscape.org/namespaces/inkscape"
   xmlns:sodipodi="http://sodipodi.sourceforge.net/DTD/sodipodi-0.dtd"
   xmlns="http://www.w3.org/2000/svg"
   xmlns:svg="http://www.w3.org/2000/svg">
  <sodipodi:namedview
     id="namedview7"
     pagecolor="#ffffff"
     bordercolor="#999999"
     borderopacity="1"
     inkscape:pageshadow="0"
     inkscape:pageopacity="0"
     inkscape:pagecheckerboard="0"
     inkscape:document-units="mm"
     showgrid="false"
     inkscape:zoom="0.7071068"
     inkscape:cx="778.74399"
     inkscape:cy="317.60789"
     inkscape:window-width="1920"
     inkscape:window-height="1001"
     inkscape:window-x="-9"
     inkscape:window-y="-9"
     inkscape:window-maximized="1"
     inkscape:current-layer="layer2"
     height="84mm" />
  <defs
     id="defs2">
    <linearGradient
       id="linearGradient4130"
       inkscape:swatch="solid">
      <stop
         style="stop-color:#000000;stop-opacity:1;"
         offset="0"
         id="stop4128" />
    </linearGradient>
    <inkscape:path-effect
       effect="fill_between_many"
       method="originald"
       linkedpaths="#path9996,0,1|#path9998,0,1|#path10000,0,1|#path10002,0,1|#path10004,0,1|#path10008,0,1|#path10010,0,1"
       id="path-effect34"
       is_visible="true"
       lpeversion="0"
       join="true"
       close="true"
       autoreverse="true"
       applied="false" />
    <inkscape:path-effect
       effect="fill_between_many"
       method="originald"
       linkedpaths="#path248,0,1|#path250,0,1|#path252,0,1|#path254,0,1|#path256,0,1|#path258,0,1|#path260,0,1|#path262,0,1|#path381,0,1|#path383,0,1"
       id="path-effect465"
       is_visible="true"
       lpeversion="0"
       join="true"
       close="true"
       autoreverse="true"
       applied="false" />
    <inkscape:path-effect
       effect="fill_between_many"
       method="originald"
       linkedpaths="#path896,0,1|#path898,0,1|#path900,0,1|#path902,0,1|#path904,0,1|#path906,0,1|#path1187,0,1|#path1384,0,1|#path1388,0,1"
       id="path-effect1470"
       is_visible="true"
       lpeversion="0"
       join="true"
       close="true"
       autoreverse="true"
       applied="false" />
    <inkscape:path-effect
       effect="fill_between_many"
       method="originald"
       linkedpaths="#path1334,0,1|#path1336,0,1|#path1338,0,1"
       id="path-effect2325"
       is_visible="true"
       lpeversion="0"
       join="true"
       close="true"
       autoreverse="true"
       applied="false" />
    <inkscape:path-effect
       effect="fill_between_many"
       method="originald"
       linkedpaths="#path1533,0,1|#path1535,0,1|#path1537,0,1|#path1539,0,1|#path1541,0,1"
       id="path-effect12328"
       is_visible="true"
       lpeversion="0"
       join="true"
       close="true"
       autoreverse="true"
       applied="false" />
    <clipPath
       clipPathUnits="userSpaceOnUse"
       id="clipPath22175">
      <path
         id="path22177"
         style="fill:#ff0000;fill-opacity:1;fill-rule:nonzero;stroke:none;stroke-width:4.4482e-07"
         d="m -507.14844,70.492188 v 5.960937 h 18.43164 v -5.960937 z m 0.38282,2.103515 c 0.0297,-0.0031 0.0523,0.01176 0.0684,0.0332 h 0.002 c 0.0683,0.01447 0.0899,0.09073 0.0273,0.15625 -7.7e-4,0.0011 -9.5e-4,0.0028 -0.002,0.0039 -0.002,0.003 -0.005,0.0048 -0.008,0.0078 -0.0112,0.01381 -0.025,0.02795 -0.043,0.04102 -0.004,0.0038 -0.01,0.0062 -0.0137,0.0098 -0.0113,0.0087 -0.0239,0.01865 -0.0351,0.02734 -0.0127,0.0096 -0.0273,0.01786 -0.041,0.02734 -0.007,0.009 -0.0133,0.01869 -0.0215,0.02734 -0.0387,0.04582 -0.0801,0.06312 -0.11524,0.06445 -0.003,7.59e-4 -0.005,0.0014 -0.008,0.002 -10e-4,-5.3e-5 -0.003,1.1e-4 -0.004,0 -0.0906,0.01717 -0.14901,-0.08114 -0.0586,-0.179688 0,0 0.002,-0.002 0.002,-0.002 0.009,-0.03243 0.0376,-0.066 0.0918,-0.08984 0.004,-0.0026 0.0118,-0.0066 0.0156,-0.0098 0.0116,-0.01513 0.0235,-0.02982 0.0352,-0.04492 0.0322,-0.04336 0.0678,-0.06646 0.0996,-0.07227 0.003,-4.63e-4 0.005,-0.0017 0.008,-0.002 z m 6.38476,0.820313 c 0.36046,-0.01297 0.37573,0.358164 0.008,0.380859 -0.0287,0.0017 -0.0557,0.0041 -0.0859,0.0059 -0.199,0.01236 -0.3969,0.02319 -0.59571,0.03906 -0.19997,0.01644 -0.40005,0.0351 -0.59961,0.05664 -0.10431,0.01206 -0.20969,0.02338 -0.3125,0.04492 -0.0166,0.0034 -0.0318,0.0064 -0.0469,0.01172 -0.35868,0.143486 -0.49754,-0.239628 -0.13281,-0.367187 0.034,-0.0121 0.0714,-0.01897 0.10546,-0.02539 0.045,-0.008 0.0136,-0.0011 0.0703,-0.0098 0.0147,-0.0023 0.0298,-0.0059 0.0449,-0.0078 0.023,-0.003 0.0476,-0.0053 0.0703,-0.0078 0.0941,-0.01058 0.0585,-0.0058 0.16016,-0.01563 0.20262,-0.01977 0.40446,-0.03844 0.60742,-0.05469 0.20077,-0.01625 0.40255,-0.02936 0.60351,-0.04297 0.0287,-0.0023 0.0557,-0.0039 0.0859,-0.0059 0.006,-4.02e-4 0.0119,-0.0017 0.0176,-0.002 z m -3.90625,1.021484 c 0.006,-3.9e-4 0.0117,10e-7 0.0176,0 0.2281,-4.3e-5 0.28742,0.268051 -0.006,0.394531 -0.0208,0.0091 -0.0398,0.01903 -0.0625,0.02734 -0.0514,0.0203 -0.10491,0.03957 -0.1582,0.05469 -0.0601,0.0178 -0.12079,0.03327 -0.18164,0.04688 -0.01,0.0022 -0.0196,0.0037 -0.0293,0.0059 -0.0109,0.007 -0.0238,0.01254 -0.0332,0.01953 -0.0181,0.01285 -0.0418,0.02243 -0.0645,0.02734 -0.008,0.0015 -0.012,0.0023 -0.0195,0.0039 -0.0136,0.0034 -0.0259,0.0061 -0.041,0.0098 -0.0197,0.0049 -0.0338,0.0095 -0.0527,0.01367 -0.02,0.0049 -0.0416,0.01016 -0.0605,0.01367 -0.0204,0.0034 -0.0416,0.0073 -0.0605,0.0098 -0.0219,0.0028 -0.0437,0.005 -0.0664,0.0059 -0.0208,8.09e-4 -0.0398,8.32e-4 -0.0625,0 -0.0178,-5.5e-4 -0.0377,-0.0011 -0.0566,-0.002 -0.0219,-8.73e-4 -0.0418,-0.0036 -0.0645,-0.0059 -0.0116,-0.0012 -0.0234,-0.003 -0.0352,-0.0039 -0.005,-4.06e-4 -0.0104,4.68e-4 -0.0156,0 -0.008,9.4e-5 -0.012,-1.14e-4 -0.0195,0 -0.008,1.17e-4 -0.01,0.0018 -0.0176,0.002 -0.004,1.55e-4 -0.0118,-2.38e-4 -0.0156,0 -0.008,2.19e-4 -0.0118,-3.21e-4 -0.0156,0 -0.004,3.59e-4 -0.0118,0.0015 -0.0156,0.002 -0.008,8.05e-4 -0.0178,0.0017 -0.0254,0.002 -0.008,1.93e-4 -0.0118,-2.87e-4 -0.0156,0 -0.004,3.02e-4 -0.0119,0.0016 -0.0156,0.002 -0.0113,8.05e-4 -0.018,0.0018 -0.0293,0.002 -0.008,1.82e-4 -0.012,-2.45e-4 -0.0195,0 -0.008,2.54e-4 -0.012,-3.17e-4 -0.0195,0 -0.0113,5.67e-4 -0.0219,0.002 -0.0332,0.002 -0.008,2.7e-5 -0.012,-1.8e-5 -0.0195,0 -0.10447,0.0018 -0.18052,-0.0264 -0.22852,-0.06836 -0.2966,-0.03089 -0.30497,-0.329283 -0.0254,-0.375 0.0116,-0.0054 0.0259,-0.0098 0.041,-0.01172 0.0199,-0.0026 0.0429,-0.0012 0.0684,0.0039 0.0291,-0.0033 0.0602,-0.003 0.0957,0.002 0.004,2.5e-4 0.007,-2.5e-4 0.0117,0 0.0113,5.86e-4 0.0238,0.0029 0.0351,0.0039 0.008,7.79e-4 0.0178,0.0012 0.0254,0.002 0.0113,8.51e-4 0.024,0.0024 0.0351,0.0039 0.008,8.7e-4 0.01,0.0012 0.0176,0.002 0.0113,0.0011 0.0238,0.0035 0.0352,0.0059 0.004,0.0011 0.01,0.0029 0.0137,0.0039 0.0122,2.26e-4 0.0249,-9e-5 0.0371,0 0.0731,5.41e-4 0.14593,-0.0013 0.21875,-0.0039 h 0.002 c 0.002,-5.45e-4 0.004,-0.0014 0.006,-0.002 0.0865,-0.02135 0.17202,-0.0414 0.25781,-0.06445 0.0533,-0.01372 0.10724,-0.02514 0.16016,-0.04102 0.008,-0.0019 0.012,-0.0041 0.0195,-0.0059 0.0265,-0.0073 0.0199,-0.0062 0.0312,-0.0078 l -0.002,-0.002 c 0.006,-9.12e-4 0.0119,-0.0015 0.0176,-0.002 0.0523,-0.0045 0.0902,0.0093 0.11329,0.03125 0.003,-7.65e-4 0.005,-0.0012 0.008,-0.002 0.0423,-0.01232 0.0842,-0.02829 0.125,-0.04492 0.017,-0.0068 0.0357,-0.01395 0.0508,-0.02148 0.0529,-0.02338 0.1016,-0.03633 0.14453,-0.03906 z m 8.22656,0.445312 c 0.0238,-0.0014 0.051,0.0039 0.082,0.01563 0.0144,0.0053 0.0259,0.0096 0.041,0.01562 0.0197,0.0083 0.0358,0.01789 0.0547,0.02734 0.0178,0.0094 0.0357,0.01909 0.0508,0.0293 0.0144,0.0098 0.0337,0.02105 0.0488,0.03125 0.017,0.0094 0.0318,0.01947 0.0469,0.0293 0.014,0.0083 0.0259,0.0143 0.041,0.02148 0.0136,0.0068 0.0239,0.01386 0.0391,0.01953 0.0144,0.006 0.0298,0.01191 0.0449,0.01758 0.0163,0.006 0.0318,0.01153 0.0469,0.01758 0.0132,0.0053 0.0279,0.01191 0.043,0.01758 0.0113,0.0049 0.0258,0.01 0.0371,0.01563 0.008,0.0042 0.0198,0.0079 0.0274,0.01172 0.008,0.0042 0.0198,0.0072 0.0273,0.01172 0.008,0.0038 0.0139,0.0081 0.0215,0.01172 0.008,0.0038 0.0159,0.0082 0.0234,0.01172 0.0113,0.0049 0.0219,0.0096 0.0332,0.01563 0.0151,0.0072 0.0259,0.01512 0.041,0.02344 0.0163,0.0094 0.0318,0.01903 0.0469,0.02734 0.0249,0.01323 0.0517,0.02382 0.0781,0.03516 0.0329,0.01399 0.0655,0.03025 0.0957,0.04688 0.0336,0.01686 0.0635,0.03825 0.0937,0.06055 0.0306,0.02366 0.0616,0.04808 0.0918,0.07227 0.004,0.0038 0.01,0.0076 0.0137,0.01172 0.15041,0.119319 0.0317,0.271625 -0.11915,0.152343 -0.004,-0.0045 -0.0118,-0.0095 -0.0156,-0.01367 -0.0287,-0.0229 -0.0557,-0.04568 -0.0859,-0.06836 -0.0212,-0.01602 -0.0457,-0.03087 -0.0684,-0.04297 -0.0276,-0.01451 -0.0537,-0.02892 -0.084,-0.04102 -0.0299,-0.01293 -0.0577,-0.0259 -0.0879,-0.04102 -0.0197,-0.0098 -0.0397,-0.01953 -0.0586,-0.03125 -0.0113,-0.0057 -0.0179,-0.01266 -0.0293,-0.01758 -0.008,-0.0042 -0.0198,-0.0079 -0.0273,-0.01172 -0.0113,-0.0042 -0.0217,-0.0091 -0.0293,-0.01367 -0.008,-0.0042 -0.0198,-0.0076 -0.0274,-0.01172 -0.008,-0.0034 -0.0139,-0.0063 -0.0215,-0.0098 -0.008,-0.0042 -0.0198,-0.0091 -0.0274,-0.01367 -0.0113,-0.0042 -0.0199,-0.0079 -0.0312,-0.01172 -0.014,-0.0053 -0.0239,-0.01071 -0.0391,-0.01563 -0.017,-0.006 -0.0318,-0.01153 -0.0469,-0.01758 -0.0178,-0.0064 -0.0376,-0.01393 -0.0527,-0.02148 -0.0189,-0.0079 -0.0338,-0.01437 -0.0527,-0.02344 -0.0178,-0.0094 -0.0376,-0.01871 -0.0527,-0.0293 -0.0178,-0.0098 -0.0317,-0.02142 -0.0469,-0.03125 -0.0163,-0.0094 -0.0318,-0.01752 -0.0469,-0.02734 -0.014,-0.0087 -0.0298,-0.01708 -0.0449,-0.02539 -0.0136,-0.0072 -0.0239,-0.01348 -0.0391,-0.01953 -0.0113,-0.0045 -0.0199,-0.01004 -0.0312,-0.01367 h 0.01 c -0.15085,-0.05274 -0.12856,-0.190467 -0.0137,-0.197266 z" />
    </clipPath>
    <clipPath
       clipPathUnits="userSpaceOnUse"
       id="clipPath22716">
      <path
         id="path22718"
         style="fill:#ff0000;fill-opacity:1;fill-rule:nonzero;stroke:none;stroke-width:0.264583"
         d="m -123.68702,20.610628 v 1.865003 h 4.58783 v -0.07906 c -0.003,0.0043 -0.007,0.0083 -0.01,0.0124 -0.0332,0.03839 -0.073,0.0042 -0.0388,-0.03359 0.003,-0.0038 0.006,-0.0078 0.009,-0.01188 0.009,-0.01327 0.0168,-0.02679 0.0248,-0.04083 0.002,-0.0033 0.003,-0.0069 0.005,-0.01033 0.002,-0.0039 0.003,-0.0079 0.005,-0.01188 8e-5,-6.62e-4 5.3e-4,-0.0014 5.3e-4,-0.0021 0.001,-0.0059 0.002,-0.01167 0.002,-0.01757 2.4e-4,-0.0067 7.9e-4,-0.01345 10e-4,-0.02015 1.1e-4,-0.0026 -4e-5,-0.0052 0,-0.0078 v -0.0078 -1.634525 h -2.58537 c -0.007,0.02208 -0.0345,0.03967 -0.0796,0.03462 -0.006,-6.09e-4 -0.0121,-0.0014 -0.0181,-0.0021 -0.0221,-0.0026 -0.0444,-0.0053 -0.0662,-0.0083 -2.4e-4,-4.5e-5 -7.9e-4,4.6e-5 -0.001,0 -0.005,-4.76e-4 -0.011,-8.47e-4 -0.016,-0.001 -0.006,-3.44e-4 -0.0105,-8.2e-4 -0.0165,-10e-4 -0.006,-4.23e-4 -0.0126,-8.73e-4 -0.0186,-0.001 -0.008,-2.91e-4 -0.0152,-0.001 -0.0233,-0.001 -0.009,1.8e-5 -0.0189,6.62e-4 -0.0279,0.001 -0.01,5.03e-4 -0.0194,0.0011 -0.0284,0.0016 -0.004,1.15e-4 -0.009,6.7e-5 -0.0129,0 -0.006,-8.7e-5 -0.0106,-7.14e-4 -0.015,-0.0021 -0.006,7.14e-4 -0.0128,0.0013 -0.0191,0.0021 -0.0352,0.0042 -0.0706,0.0083 -0.10594,0.01137 -0.012,8.74e-4 -0.0242,0.0024 -0.0362,5.3e-4 v -5.3e-4 c -0.012,-0.0019 -0.0223,-0.0052 -0.031,-0.0093 -0.002,4.76e-4 -0.003,5.82e-4 -0.005,0.0016 -0.0309,0.0097 -0.0553,0.0063 -0.0708,-0.0036 -2.5e-4,1.8e-5 -8e-4,-1.5e-5 -0.001,0 h -5.3e-4 c -0.0338,0.0015 -0.0563,-0.0085 -0.0677,-0.02274 z m 1.2516,0.941545 h 5.3e-4 c 0.003,-2.65e-4 0.007,-2.92e-4 0.0108,0 0.01,6.87e-4 0.0194,0.0016 0.0284,0.0026 0.0104,0.0011 0.0206,0.002 0.031,0.0036 0.006,9e-4 0.0126,0.0021 0.0186,0.0026 0.005,2.91e-4 0.009,3.97e-4 0.0145,5.29e-4 0.005,1.29e-4 0.01,2.52e-4 0.015,5.3e-4 0.004,2.09e-4 0.008,7.67e-4 0.0124,0.001 0.004,3.18e-4 0.009,6.88e-4 0.0129,0.001 0.004,5.03e-4 0.009,8.2e-4 0.0145,0.0016 0.004,4.77e-4 0.008,8.73e-4 0.0119,0.0016 0.0106,0.0015 0.0187,0.0049 0.0243,0.0093 7.9e-4,9.1e-5 0.002,-1.09e-4 0.003,0 0.005,6.88e-4 0.011,0.0015 0.016,0.0021 0.003,2.35e-4 0.005,5.03e-4 0.008,5.29e-4 h 5.3e-4 c 0.0511,2e-5 0.0511,0.05238 0,0.05168 -0.004,-5.9e-5 -0.009,-7.14e-4 -0.0129,-0.001 -0.006,-6.08e-4 -0.0116,-0.0013 -0.0176,-0.0021 -0.006,-7.15e-4 -0.0116,-0.0011 -0.0176,-0.0016 -0.007,-5.03e-4 -0.0142,-7.15e-4 -0.0212,-0.001 -0.006,-3.97e-4 -0.0131,-0.0011 -0.0191,-0.0016 -0.005,-2.91e-4 -0.0115,-2.41e-4 -0.0165,-5.29e-4 -0.005,-1.98e-4 -0.009,-3.71e-4 -0.0134,-5.3e-4 -0.004,-10e-5 -0.009,-2.91e-4 -0.0129,-5.29e-4 -0.004,-2.08e-4 -0.007,-2.06e-4 -0.0114,-5.29e-4 -0.005,-3.97e-4 -0.009,-0.0012 -0.015,-0.0021 -0.007,-0.0013 -0.0122,-0.0027 -0.0191,-0.0041 -0.001,-2.91e-4 -0.003,-1.86e-4 -0.004,-5.29e-4 -0.01,-0.0021 -0.017,-0.0059 -0.0222,-0.01034 -0.004,-3.7e-4 -0.008,-7.94e-4 -0.0114,-0.001 -0.0348,-0.0026 -0.0436,-0.02771 -0.0294,-0.04186 0.005,-0.0041 0.0122,-0.0082 0.0212,-0.0093 z" />
    </clipPath>
    <inkscape:path-effect
       effect="fill_between_many"
       method="originald"
       linkedpaths="#path26460,0,1|#path26577,0,1|#path26579,0,1|#path26581,0,1"
       id="path-effect32523"
       is_visible="true"
       lpeversion="0"
       join="true"
       close="true"
       autoreverse="true"
       applied="false" />
    <inkscape:path-effect
       effect="fill_between_many"
       method="originald"
       linkedpaths="#path83,0,1|#path900,0,1"
       id="path-effect5607"
       is_visible="true"
       lpeversion="0"
       join="true"
       close="true"
       autoreverse="true"
       applied="false" />
    <inkscape:path-effect
       effect="fill_between_many"
       method="originald"
       linkedpaths="#path8921,0,1"
       id="path-effect9944"
       is_visible="true"
       lpeversion="0"
       join="true"
       close="true"
       autoreverse="true"
       applied="false" />
    <clipPath
       clipPathUnits="userSpaceOnUse"
       id="clipPath1877">
      <path
         id="path1879"
         style="fill:#ff0000;fill-opacity:1;fill-rule:nonzero;stroke:none;stroke-width:0.264583"
         d="m 71.076799,121.11715 -0.790133,0.001 v 1.41852 h 0.966867 v -1.14257 c -0.0077,0.001 -0.01556,0.003 -0.02326,0.004 -0.01011,0.002 -0.01162,-0.008 -0.0016,-0.0104 0.0083,-10e-4 0.01651,-0.003 0.02479,-0.004 v -0.26562 h -0.0677 c -0.0041,7.9e-4 -0.0079,0.002 -0.01188,0.003 -0.0043,10e-4 -0.0072,-5.2e-4 -0.0083,-0.003 -0.007,0.002 -0.01416,0.003 -0.02119,0.005 -0.01831,0.004 -0.03651,0.009 -0.05478,0.0129 -0.0029,10e-4 -0.0059,-2.6e-4 -0.0088,0.002 -0.0088,0.002 -0.01125,-0.006 -0.0052,-0.009 -0.0024,5.3e-4 -0.0048,5.3e-4 -0.0072,0.001 -0.01831,0.003 -0.03653,0.007 -0.05478,0.01 -0.0075,0.001 -0.01053,-0.004 -0.0072,-0.008 0.0011,-8e-4 0.0033,-0.002 0.0052,-0.003 0.01834,-0.004 0.0369,-0.007 0.0553,-0.01 0.0033,-5.3e-4 0.0065,-10e-4 0.0098,-0.002 z" />
    </clipPath>
    <clipPath
       clipPathUnits="userSpaceOnUse"
       id="clipPath2107">
      <path
         id="path2109"
         style="fill:#ff0000;fill-opacity:1;fill-rule:nonzero;stroke:none;stroke-width:0.264583"
         d="m 71.366703,122.45919 -1.044898,10e-4 v 1.10016 h 0.98702 c 7.94e-4,-2.6e-4 0.0016,-7.9e-4 0.0026,-0.001 5.29e-4,-8e-5 7.94e-4,0 0.0016,0 0.0072,-3e-5 0.0145,2.6e-4 0.0217,5.2e-4 0.0056,2.4e-4 0.0114,5.3e-4 0.01704,5.3e-4 h 0.01498 v -0.26148 c -0.0019,-8e-5 -0.0034,-2.4e-4 -0.0052,-5.3e-4 -0.0013,-1e-4 -0.0028,1.1e-4 -0.0041,0 -0.0039,1.3e-4 -0.008,8e-5 -0.01188,0 -0.01863,0 -0.03719,-7.9e-4 -0.05581,-0.002 -0.0037,-1.6e-4 -0.0072,-2.6e-4 -0.01085,-5.3e-4 -0.0052,-1.6e-4 -0.0074,-0.003 -0.0072,-0.006 -0.0051,-5.3e-4 -0.01,-2.7e-4 -0.01498,-0.002 -0.0095,-10e-4 -0.009,-0.0105 -5.29e-4,-0.0109 5.29e-4,-1e-5 0.0013,-6e-5 0.0021,0 0.0098,10e-4 0.01958,0.003 0.02945,0.004 1.99e-4,-0.002 0.0019,-0.004 0.0047,-0.004 0.0011,-8e-5 0.0019,-2.4e-4 0.0031,0 0.0055,10e-4 0.01156,0.002 0.01704,0.002 0.01196,0.001 0.02368,0.002 0.03566,0.002 0.0061,1.1e-4 0.01246,1.9e-4 0.0186,0 z" />
    </clipPath>
    <clipPath
       clipPathUnits="userSpaceOnUse"
       id="clipPath2451">
      <path
         id="path2453"
         style="fill:#ff0000;fill-opacity:1;fill-rule:nonzero;stroke:none;stroke-width:0.264583"
         d="m 71.315027,120.43192 v 0.65888 c 0.0042,0.002 0.0043,0.007 0,0.009 v 0.27906 c 7.94e-4,5e-5 0.0019,-9e-5 0.0026,0 0.01019,10e-4 0.0088,0.0111 -0.0016,0.0103 -2.64e-4,-3e-5 -7.93e-4,2e-5 -0.0011,0 v 1.89188 c 0.01103,10e-4 0.02199,10e-4 0.03307,0.002 0.01323,2.4e-4 0.02657,-5.3e-4 0.03979,-0.001 0.0096,-10e-4 0.01934,-10e-4 0.02894,-0.002 0.01019,-5.3e-4 0.01072,0.01 5.29e-4,0.0103 -0.0097,0.001 -0.01924,0.001 -0.02894,0.002 -0.0028,1.1e-4 -0.0055,-10e-5 -0.0083,0 0.0011,0.003 -0.0011,0.007 -0.0072,0.007 -0.006,1e-4 -0.01204,-7.9e-4 -0.0181,-0.001 -0.0011,1e-5 -0.0021,1e-5 -0.0031,0 -5.3e-4,-3e-5 -0.0011,4e-5 -0.0016,0 -0.0016,-3e-5 -0.0029,3e-5 -0.0047,0 -0.01019,0 -0.02032,-10e-6 -0.03049,-5.3e-4 v 0.26149 c 0.0065,4e-5 0.01315,1.3e-4 0.01963,5.3e-4 0.02257,10e-4 0.04512,7.9e-4 0.0677,5.3e-4 0.02373,-7e-5 0.04758,-5.3e-4 0.07131,-0.001 0.0055,-1.1e-4 0.0079,0.003 0.0078,0.006 h 73.466314 v -3.13263 z m 72.704603,0.6966 c 0.003,-5.3e-4 0.006,7.9e-4 0.007,0.003 7.9e-4,0.002 -7.9e-4,0.006 -0.006,0.008 -0.006,0.002 -0.0116,0.003 -0.0176,0.005 -0.004,0.001 -0.008,0.002 -0.0119,0.002 -0.004,2.7e-4 -0.007,-7.9e-4 -0.008,-0.003 -2.6e-4,-10e-4 -5.3e-4,-0.003 5.3e-4,-0.005 0.001,-0.001 0.004,-0.002 0.006,-0.003 0.003,0 0.007,-0.001 0.0103,-0.002 0.006,-0.001 0.0116,-0.003 0.0176,-0.005 5.2e-4,-1.8e-4 0.001,-5.3e-4 0.002,-5.3e-4 z m 0.11059,0.26355 v 0.002 h 5.3e-4 5.3e-4 c 0.007,-2.4e-4 0.008,0.008 -5.3e-4,0.0103 -0.003,0.001 -0.007,0.002 -0.0114,0.003 -0.0114,0.002 -0.0227,0.005 -0.0341,0.007 -0.005,10e-4 -0.0146,0.003 -0.0196,0.004 -0.003,2.6e-4 -0.005,7.9e-4 -0.007,0.001 -7.9e-4,4e-5 -0.002,-5e-5 -0.003,0 h -5.3e-4 c -0.002,5.2e-4 -0.003,0.001 -0.005,0.002 l -5.3e-4,0.001 c -0.003,5.3e-4 -0.003,-7.9e-4 -0.005,-0.002 h -5.3e-4 c -0.001,2.2e-4 -0.002,2.3e-4 -0.003,5.3e-4 -0.002,5.3e-4 -0.002,-5.3e-4 -0.003,-0.001 -5.3e-4,9e-5 -5.3e-4,-3e-5 -0.001,0 -0.002,1.7e-4 -0.003,2.6e-4 -0.005,5.3e-4 h -5.3e-4 c -0.01,0.001 -0.0113,-0.009 -0.001,-0.0103 0.002,0 0.004,-2e-4 0.006,-5.3e-4 5.2e-4,-1.4e-4 0.001,-2.6e-4 0.002,-5.3e-4 2.7e-4,-6e-5 8e-4,6e-5 0.001,0 7.9e-4,-1.9e-4 5.3e-4,-2.5e-4 0.002,-5.3e-4 0.002,-5.3e-4 0.005,-0.002 0.007,-0.002 5.3e-4,-1.2e-4 0.001,-5.2e-4 0.002,-5.2e-4 0.001,-5.3e-4 0.002,-5.3e-4 0.004,-0.001 0,0 5.3e-4,0 5.3e-4,0 0.007,-0.002 0.014,-0.003 0.0207,-0.005 0.002,-5.3e-4 0.003,2.6e-4 0.005,-0.002 5.3e-4,-1.7e-4 0.002,-0.001 0.002,-0.001 2.6e-4,-5e-5 5.3e-4,3e-5 0.001,0 0.005,-0.001 0.009,-0.002 0.0134,-0.003 5.3e-4,-1.6e-4 0.001,-10e-4 0.002,-10e-4 10e-4,-1.1e-4 0.002,-1.7e-4 0.003,0 h 5.3e-4 c 5.3e-4,-1.6e-4 0.001,-5.3e-4 0.002,-5.3e-4 0.004,-5.3e-4 0.007,0.001 0.007,0.003 0.003,-7.9e-4 0.007,-10e-4 0.0108,-0.002 0.002,-8e-4 0.005,-8e-4 0.008,-0.002 z" />
    </clipPath>
    <clipPath
       clipPathUnits="userSpaceOnUse"
       id="clipPath3400">
      <path
         id="path3402"
         style="fill:#ff0000;fill-opacity:1;fill-rule:nonzero;stroke:none;stroke-width:0.264583"
         d="m 71.1786,119.04183 v 2.0531 c 0.01154,-0.004 0.02318,-0.008 0.03462,-0.0119 0.0099,-0.004 0.0066,-0.003 0.02066,-0.005 0.0033,-5.3e-4 0.007,-5.3e-4 0.01035,-0.001 0.0011,-1.4e-4 0.003,-0.002 0.0031,-5.3e-4 5.29e-4,0.005 -0.0029,0.0148 -0.0016,0.015 0.0028,-0.004 0.0016,-0.0107 0.0026,-0.016 0.0038,-0.003 0.008,-0.004 0.01188,-0.006 0.0021,-0.001 0.004,-0.002 0.0057,-0.002 0.01198,-0.002 0.01654,0.0111 0.0026,0.0181 -0.0039,0.002 -0.0079,0.003 -0.01188,0.005 5.29e-4,2.3e-4 7.94e-4,5.3e-4 0.0011,0.001 0.0043,-5.3e-4 0.0086,-8e-4 0.01291,-0.001 0.0013,-10e-5 0.0026,-2.1e-4 0.0036,0 h 5.29e-4 c 0.0069,-10e-4 0.01386,-10e-4 0.02066,-0.003 0.0021,-2.6e-4 0.0045,-7.9e-4 0.0067,-10e-4 0.0051,-0.001 0.0079,10e-4 0.0083,0.004 0.01024,-7.9e-4 0.01072,0.01 5.29e-4,0.0104 -0.005,2.6e-4 -0.01,5.3e-4 -0.01498,0.001 0.0024,0.003 5e-6,0.007 -0.0067,0.007 l -0.0062,5.2e-4 c -0.0132,2e-4 -0.02611,8e-4 -0.03927,10e-4 -5.29e-4,1.4e-4 -7.93e-4,5.3e-4 -0.0016,5.3e-4 -0.0087,10e-4 -0.01754,0.002 -0.02635,0.003 -0.0058,10e-4 -0.01188,10e-4 -0.01757,0.002 v -5.2e-4 c -0.0029,7.9e-4 -0.0058,10e-4 -0.0088,0.002 v 5.3e-4 c -0.0019,5.3e-4 -0.0033,7.9e-4 -0.0047,5.3e-4 -0.0021,2.6e-4 -0.0042,7.9e-4 -0.0062,0.001 v 0.25941 h 73.088562 v -2.32957 c -0.0109,-0.001 -0.0216,-0.003 -0.0326,-0.004 -2.6e-4,-4e-5 -7.9e-4,4e-5 -0.001,0 -0.001,2.7e-4 -0.002,5.3e-4 -0.003,5.3e-4 -0.008,7e-5 -0.0168,-5.3e-4 -0.0248,-10e-4 -0.0131,-0.001 -0.0262,-0.002 -0.0393,-0.002 -0.001,-4e-5 -0.002,-2.1e-4 -0.003,-5.3e-4 z m 0.07235,2.03346 c -0.0045,0.002 -7.94e-4,0.009 -5.3e-4,0.015 2.65e-4,-7e-5 7.94e-4,7e-5 0.0011,0 0.0011,-2.3e-4 0.0021,-4e-5 0.0031,0 -7.93e-4,-0.006 0.0011,-0.0169 -0.0036,-0.015 z m 72.76868,0.0527 v 5.3e-4 c 0.003,-5.3e-4 0.006,8e-4 0.007,0.003 8e-4,0.002 -0.001,0.006 -0.006,0.008 -0.006,0.002 -0.0116,0.003 -0.0176,0.005 -0.004,0.001 -0.008,0.002 -0.0119,0.002 -0.004,2.6e-4 -0.007,-8e-4 -0.008,-0.003 -2.6e-4,-10e-4 -5.3e-4,-0.003 5.3e-4,-0.005 0.001,-0.001 0.004,-0.002 0.006,-0.003 0.003,0 0.007,-5.3e-4 0.0103,-0.002 0.006,-0.001 0.0116,-0.003 0.0176,-0.005 5.3e-4,-1.8e-4 0.001,-5.3e-4 0.002,-5.3e-4 z" />
    </clipPath>
    <clipPath
       clipPathUnits="userSpaceOnUse"
       id="clipPath3410">
      <path
         id="path3412"
         style="fill:#ff0000;fill-opacity:1;fill-rule:nonzero;stroke:none;stroke-width:0.264583"
         d="m 144.18293,119.04389 v 0.2496 c 0.003,0.002 0.007,0.003 0.01,0.005 0.01,0.005 0.0194,0.009 0.0284,0.0155 0.005,0.003 0.0105,0.006 0.0155,0.01 l 0.001,-5.3e-4 c 0.003,0.002 0.003,0.004 0.003,0.006 v 5.3e-4 c 8e-4,0.001 0.002,0.002 0.002,0.003 -1.4e-4,5.3e-4 -7.9e-4,0.002 -0.002,0.003 v 5.3e-4 c -5.3e-4,0.004 -0.006,0.006 -0.0103,0 l -0.003,-0.003 c -0.004,-0.003 -0.008,-0.005 -0.0124,-0.006 -0.007,-0.002 -0.0152,-0.004 -0.0232,-0.005 -0.003,-5.3e-4 -0.005,-7.9e-4 -0.007,-10e-4 v 1.11414 h 0.76481 v -1.38854 l -0.57826,-0.003 c 0.005,0.003 0.003,0.0106 -0.006,0.009 -0.001,-2.6e-4 -0.003,-7.9e-4 -0.005,-0.001 -0.0133,-0.002 -0.0264,-0.004 -0.0398,-0.005 -0.009,-0.001 -0.0172,-0.002 -0.0258,-0.003 h -0.0103 c 0.003,0.004 -2.6e-4,0.009 -0.008,0.007 -0.002,-5.3e-4 -0.005,-7.9e-4 -0.008,-10e-4 -0.0115,-0.001 -0.0226,-0.003 -0.0341,-0.004 -8e-4,-1e-4 -0.001,9e-5 -0.002,0 -1.8e-4,-3e-5 -2.6e-4,2e-5 -5.3e-4,0 -5.3e-4,1e-4 -7.9e-4,-4e-5 -0.002,0 -0.008,6e-5 -0.0168,-5.3e-4 -0.0248,-0.001 -0.007,-5.3e-4 -0.0131,-8e-4 -0.0196,-10e-4 -0.001,-5e-5 -0.002,5e-5 -0.003,0 z m 0,0.26045 v 0.003 c 0.003,5.3e-4 0.005,5.3e-4 0.007,0.001 -5.3e-4,-2.7e-4 -5.3e-4,-5.3e-4 -0.002,-0.001 -0.002,-8e-4 -0.003,-0.002 -0.005,-0.003 z" />
    </clipPath>
    <inkscape:path-effect
       effect="fill_between_many"
       method="originald"
       linkedpaths="#path340,0,1|#path336,0,1|#path334,0,1|#path332,0,1|#path257,0,1"
       id="path-effect7178"
       is_visible="true"
       lpeversion="0"
       join="true"
       close="true"
       autoreverse="true"
       applied="false" />
    <inkscape:path-effect
       effect="fill_between_many"
       method="originald"
       linkedpaths="#path10884,0,1"
       id="path-effect11799"
       is_visible="true"
       lpeversion="0"
       join="true"
       close="true"
       autoreverse="true"
       applied="false" />
    <inkscape:path-effect
       effect="fill_between_many"
       method="originald"
       linkedpaths="#path16193,0,1|#path16195,0,1|#path16197,0,1|#path16542,0,1"
       id="path-effect19166"
       is_visible="true"
       lpeversion="0"
       join="true"
       close="true"
       autoreverse="true"
       applied="false" />
    <inkscape:path-effect
       effect="fill_between_many"
       method="originald"
       linkedpaths="#path530,0,1|#path1347,0,1|#path1349,0,1|#path1351,0,1|#path1355,0,1|#path1357,0,1|#path1359,0,1|#path1361,0,1|#path1558,0,1|#path1560,0,1|#path1562,0,1|#path1564,0,1|#path1566,0,1|#path1568,0,1|#path1570,0,1"
       id="path-effect119"
       is_visible="true"
       lpeversion="0"
       join="true"
       close="true"
       autoreverse="true"
       applied="false" />
    <inkscape:path-effect
       effect="fill_between_many"
       method="originald"
       linkedpaths="#path3750,0,1"
       id="path-effect3752"
       is_visible="true"
       lpeversion="0"
       join="true"
       close="true"
       autoreverse="true"
       applied="false" />
    <inkscape:path-effect
       effect="fill_between_many"
       method="originald"
       linkedpaths="#path10414,0,1|#path10416,0,1|#path10418,0,1"
       id="path-effect11815"
       is_visible="true"
       lpeversion="0"
       join="true"
       close="true"
       autoreverse="true"
       applied="false" />
    <clipPath
       clipPathUnits="userSpaceOnUse"
       id="clipPath24845">
      <path
         id="path24847"
         style="fill:#ff0000;fill-opacity:1;fill-rule:nonzero;stroke:none;stroke-width:0.264583"
         d="m 106.15321,58.805196 v 0.559139 c 0.009,0.0031 0.0186,0.0062 0.0279,0.0093 0.0333,0.01085 0.0668,0.02135 0.10026,0.03204 0.0525,0.01431 0.10505,0.02837 0.15761,0.04237 0.0675,0.01781 0.13518,0.03617 0.2036,0.05064 0.002,2.64e-4 0.005,0.0011 0.007,0.0016 0.006,0.0011 0.0124,0.0016 0.0186,0.0026 0.0556,0.0081 0.11112,0.01532 0.16692,0.02222 0.0265,0.0037 0.0531,0.0079 0.0791,0.01447 0.009,0.0024 0.0184,0.0053 0.0274,0.0088 0.001,5.29e-4 0.002,0.0011 0.003,0.0016 0.005,0.0011 0.01,0.0019 0.0145,0.0031 0.01,0.0026 0.0193,0.005 0.0294,0.0083 0.004,0.0013 0.007,0.0026 0.009,0.0041 0.0197,0.0021 0.0394,0.0046 0.0589,0.0078 h 5.00228 v -0.767911 z m 0,0.638204 v 0.129707 h 0.57205 c -0.0333,-0.0056 -0.0665,-0.01183 -0.0997,-0.0181 -0.0759,-0.01431 -0.15156,-0.0309 -0.22686,-0.04806 -0.0685,-0.01545 -0.13642,-0.03319 -0.20412,-0.05168 -0.0138,-0.0038 -0.0276,-0.0079 -0.0413,-0.01188 z" />
    </clipPath>
    <clipPath
       clipPathUnits="userSpaceOnUse"
       id="clipPath24855">
      <path
         id="path24857"
         style="fill:#ff0000;fill-opacity:1;fill-rule:nonzero;stroke:none;stroke-width:0.264583"
         d="m 106.15683,54.538274 v 4.801256 c 0.0258,0.0079 0.0517,0.01524 0.0775,0.02273 0.004,7.94e-4 0.007,0.0019 0.0108,0.0026 0.0587,0.01392 0.11708,0.02962 0.17518,0.04599 0.0676,0.02029 0.13604,0.03755 0.20464,0.05374 0.0789,0.01839 0.15809,0.0362 0.23719,0.05374 0.0112,0.0024 0.022,0.0053 0.0331,0.0078 0.008,0.0019 0.0144,0.005 0.0186,0.0088 7.9e-4,1.69e-4 0.001,2.01e-4 0.002,5.29e-4 0.009,0.0021 0.0137,0.0061 0.0176,0.01035 0.003,0.0011 0.006,0.0016 0.008,0.0026 0.001,5.29e-4 0.002,0.0011 0.003,0.0016 0.005,0.0011 0.01,0.0019 0.0145,0.0031 0.01,0.0026 0.0194,0.005 0.0295,0.0083 0.004,0.0013 0.007,0.0026 0.009,0.0041 0.0235,0.0024 0.047,0.0051 0.0703,0.0093 0.0102,0.0019 0.021,0.0038 0.031,0.0067 0.0393,0.0113 0.0279,0.05114 -0.0114,0.03979 -0.009,-0.0024 -0.0175,-0.0042 -0.0264,-0.0057 -0.0252,-0.0046 -0.0505,-0.0076 -0.076,-0.01034 h -5.3e-4 c -0.0476,-0.0044 -0.0951,-0.0093 -0.14263,-0.01497 -0.0727,-0.0087 -0.14461,-0.02159 -0.21652,-0.03514 -0.0759,-0.01431 -0.15156,-0.0309 -0.22686,-0.04806 -0.0685,-0.01545 -0.13643,-0.03319 -0.20412,-0.05168 -0.0126,-0.0034 -0.0252,-0.0072 -0.0377,-0.01085 v 0.390155 h 15.56701 v -5.296316 z" />
    </clipPath>
    <inkscape:path-effect
       effect="fill_between_many"
       method="originald"
       linkedpaths="#path16798,0,1|#path16802,0,1|#path24010,0,1"
       id="path-effect24974"
       is_visible="true"
       lpeversion="0"
       join="true"
       close="true"
       autoreverse="true"
       applied="false" />
    <inkscape:path-effect
       effect="fill_between_many"
       method="originald"
       linkedpaths="#path312,0,1|#path462,0,1"
       id="path-effect548"
       is_visible="true"
       lpeversion="0"
       join="true"
       close="true"
       autoreverse="true"
       applied="false" />
    <clipPath
       clipPathUnits="userSpaceOnUse"
       id="clipPath5960">
      <path
         id="path5962"
         style="fill:#ff0000;fill-opacity:1;fill-rule:nonzero;stroke:none;stroke-width:1.17692e-07"
         d="M 33.148721,17.326929 -0.31548312,214.45592 140.66754,238.3889 c -0.24345,-0.14012 -0.47992,-0.29192 -0.72018,-0.43725 -0.12117,-0.004 -0.26243,-0.0454 -0.41637,-0.13803 -0.0128,-0.008 -0.0255,-0.0165 -0.0395,-0.0245 -0.13322,0.15628 -0.42602,0.2082 -0.78478,0.0134 -0.11684,-0.0635 -0.2349,-0.12599 -0.35232,-0.18857 -0.38746,-0.201 -0.76752,-0.4146 -1.14149,-0.63952 -0.45096,-0.27322 -0.89264,-0.56225 -1.33061,-0.85586 -0.34924,-0.24058 -0.70505,-0.47171 -1.04587,-0.72432 -0.0937,-0.0692 -0.35123,-0.28639 -0.31693,-0.4203 0.0301,-0.1179 0.0806,-0.23125 0.14615,-0.33574 -0.18774,-0.11373 -0.37646,-0.22554 -0.56185,-0.34302 -0.0457,-0.0289 -0.0903,-0.057 -0.13588,-0.0865 -0.32185,-0.20593 -0.41105,-0.46374 -0.34932,-0.64965 -0.23949,-0.18282 -0.47792,-0.36696 -0.72179,-0.54451 -0.14004,-0.10116 -0.28212,-0.20058 -0.41714,-0.30853 -0.2925,-0.23376 -0.35917,-0.495 -0.28759,-0.67484 -0.18451,-0.1486 -0.37549,-0.28914 -0.54965,-0.4499 -0.24321,-0.22065 -0.48271,-0.44415 -0.72011,-0.671 -0.0618,-0.058 -0.12314,-0.11676 -0.18411,-0.17588 -0.72755,0.22843 -0.9994,-0.52982 -0.23086,-0.85737 0.0195,-0.008 0.0395,-0.0145 0.0592,-0.0216 0.0216,-0.014 0.0483,-0.0159 0.0736,-0.0251 0.0242,-0.007 0.0483,-0.0147 0.073,-0.0213 0.0967,-0.0255 0.19578,-0.0419 0.29493,-0.0569 0.14746,-0.0261 0.29697,-0.0228 0.44505,-0.008 0.0111,0.001 0.0221,0.002 0.0331,0.004 0.16496,0.0219 0.32262,0.0728 0.47609,0.1363 0.18162,0.0785 0.34533,0.19005 0.50223,0.30912 0.15224,0.11511 0.28467,0.25065 0.41303,0.39105 0.0291,0.0308 0.0579,0.0631 0.0848,0.0956 0.0394,0.0237 0.0801,0.0448 0.11892,0.0697 0.15097,0.0966 0.30012,0.19747 0.44863,0.29804 0.1753,0.11952 0.3464,0.24307 0.51811,0.36728 0.1471,0.10429 0.29497,0.20811 0.44217,0.3128 0.0193,0.0114 0.038,0.0239 0.0574,0.0355 0.34858,0.20831 0.68879,0.42893 1.03134,0.64657 0.43654,0.27677 0.88088,0.53955 1.32304,0.80703 0.49234,0.29675 0.98506,0.59442 1.47434,0.89611 0.28906,0.17858 0.57766,0.35936 0.86501,0.54107 0.27565,0.13352 0.55384,0.26212 0.82205,0.40897 0.37829,0.20847 0.75206,0.42306 1.13124,0.62986 0.36269,0.20163 0.72215,0.40822 1.07959,0.6191 0.33565,0.19396 0.67165,0.38805 1.01196,0.57395 0.27701,0.15107 0.55606,0.29803 0.84189,0.43215 0.1681,0.081 0.33695,0.16034 0.50015,0.25132 0.56601,0.3155 0.47302,0.81549 0.076,0.88259 0.3206,0.22548 0.39101,0.5016 0.24012,0.66281 l 1.63096,0.27687 33.46422,-197.129025 z" />
    </clipPath>
    <clipPath
       clipPathUnits="userSpaceOnUse"
       id="clipPath5970">
      <path
         id="path5972"
         style="fill:#ff0000;fill-opacity:1;fill-rule:nonzero;stroke:none;stroke-width:0.264583"
         d="m 119.29504,54.195141 v 15.889986 h 25.49715 V 57.776835 l -5.3e-4,-5.29e-4 c -0.0732,-0.04678 -0.14557,-0.09449 -0.21755,-0.143145 -0.0187,-0.01241 -0.0373,-0.025 -0.0558,-0.03772 -0.17967,0.0918 -0.28416,-0.09395 -0.0982,-0.213424 0.004,-0.0026 0.008,-0.0049 0.0119,-0.0072 8e-5,-7.9e-5 5.3e-4,7.9e-5 5.3e-4,0 0.013,-0.01243 0.0303,-0.02069 0.0506,-0.02479 0.0202,-0.0085 0.0411,-0.01585 0.062,-0.02273 0.0373,-0.01334 0.0765,-0.0191 0.11576,-0.0217 0.003,-1.77e-4 0.006,-5.29e-4 0.009,-5.29e-4 0.0413,-0.0016 0.0822,0.0042 0.12247,0.01291 V 54.19517 Z" />
    </clipPath>
    <clipPath
       clipPathUnits="userSpaceOnUse"
       id="clipPath5980">
      <path
         id="path5982"
         style="fill:#ff0000;fill-opacity:1;fill-rule:nonzero;stroke:none;stroke-width:0.264583"
         d="m 143.44551,55.168726 v 6.232178 h 18.75751 v -6.232178 z m 1.22421,2.136304 c 0.044,-0.0016 0.0874,0.0047 0.13022,0.01447 0.0508,0.01244 0.0985,0.03428 0.1447,0.0584 0.0448,0.02328 0.0854,0.05278 0.12505,0.08371 0.008,0.0062 0.0164,0.01294 0.0243,0.01963 0.0121,0.0047 0.0242,0.0094 0.0362,0.01447 0.0437,0.01852 0.087,0.03821 0.13022,0.05788 0.051,0.02342 0.10111,0.04808 0.15141,0.07286 0.043,0.02069 0.0862,0.04122 0.12919,0.06201 0.006,0.0021 0.0111,0.0046 0.0165,0.0067 0.10015,0.0389 0.19866,0.08139 0.29766,0.122989 0.12612,0.05287 0.25367,0.10173 0.38085,0.151929 0.14156,0.05561 0.28328,0.111435 0.42427,0.168466 0.0771,0.03126 0.15417,0.06305 0.23099,0.09508 0.0843,0.02421 0.16836,0.04941 0.25115,0.07803 0.10791,0.03762 0.21491,0.07706 0.32297,0.114208 0.10353,0.03654 0.20645,0.07451 0.30903,0.113686 0.0961,0.03573 0.19239,0.07149 0.28939,0.104904 0.079,0.02714 0.15824,0.05312 0.23874,0.07545 0.0474,0.01368 0.095,0.02692 0.1416,0.04341 0.15711,0.05564 0.15884,0.183875 0.0667,0.223243 0.16328,0.0763 0.10961,0.23395 -0.0605,0.216006 0.082,0.01995 0.16402,0.0397 0.24598,0.05943 0.071,0.01672 0.14169,0.03462 0.21239,0.05271 0.22428,0.05741 0.16595,0.283752 -0.0584,0.226343 -0.0696,-0.01781 -0.13939,-0.03523 -0.20929,-0.05168 -0.024,-0.0058 -0.0474,-0.01177 -0.0713,-0.01757 -0.009,0.08861 -0.12212,0.131752 -0.23306,0.0217 v 5.29e-4 c -0.002,0.0021 -0.004,-0.0024 -0.006,-0.0036 -0.004,-0.0026 -0.007,-0.0057 -0.0119,-0.0083 -0.0213,-0.01421 -0.0105,-0.0075 -0.0346,-0.02119 -0.0777,-0.04272 -0.15984,-0.07609 -0.24185,-0.109556 -0.0552,-0.0222 -0.11102,-0.0442 -0.1664,-0.06615 -0.0486,-0.0149 -0.0969,-0.03084 -0.14521,-0.04651 -0.0256,1.03e-4 -0.0542,-0.0041 -0.0863,-0.0155 -0.0279,-0.0099 -0.0553,-0.01955 -0.0832,-0.02946 -0.10949,-0.0394 -0.21849,-0.08022 -0.32659,-0.122989 -0.0307,0.0031 -0.0674,-0.0019 -0.10904,-0.0181 -0.004,-0.0016 -0.008,-0.003 -0.0119,-0.0047 -0.0279,0.04667 -0.10189,0.07321 -0.20412,0.03824 -0.0333,-0.0114 -0.0668,-0.02246 -0.10025,-0.03359 -0.10997,-0.03527 -0.21857,-0.07416 -0.32608,-0.116274 -0.12973,-0.0513 -0.25776,-0.107129 -0.38499,-0.16433 -0.10177,-0.04729 -0.2048,-0.09183 -0.30489,-0.142626 -0.0275,-0.01389 -0.10429,-0.05915 -0.10129,-0.0956 0.003,-0.03193 0.0114,-0.06352 0.0238,-0.09354 -0.0538,-0.0213 -0.10733,-0.04276 -0.16071,-0.06511 -0.0132,-0.0056 -0.0261,-0.01093 -0.0393,-0.01654 -0.0934,-0.03959 -0.12805,-0.103188 -0.11989,-0.154511 -0.0705,-0.03703 -0.14101,-0.07409 -0.21239,-0.109556 -0.041,-0.02019 -0.083,-0.03983 -0.12299,-0.06201 -0.0844,-0.04674 -0.11375,-0.109662 -0.10542,-0.159163 -0.0551,-0.0308 -0.10933,-0.06268 -0.16226,-0.09715 -0.0732,-0.04678 -0.14556,-0.09448 -0.21756,-0.143145 -0.0189,-0.01259 -0.0377,-0.02532 -0.0563,-0.03824 -0.18005,0.09255 -0.28489,-0.0933 -0.0987,-0.212908 0.004,-0.0026 0.008,-0.0048 0.0124,-0.0072 2e-4,-1.16e-4 2.6e-4,-5.29e-4 5.3e-4,-5.29e-4 0.014,-0.01355 0.0327,-0.0231 0.0553,-0.02687 1.7e-4,-2.6e-5 2.7e-4,2.9e-5 5.3e-4,0 0.0184,-0.0074 0.0374,-0.01392 0.0563,-0.02016 0.0373,-0.01333 0.0764,-0.0191 0.11575,-0.0217 0.003,-1.77e-4 0.006,-5.29e-4 0.009,-5.29e-4 z" />
    </clipPath>
    <clipPath
       clipPathUnits="userSpaceOnUse"
       id="clipPath8422">
      <path
         id="path8424"
         style="fill:#ff0000;fill-opacity:1;fill-rule:nonzero;stroke:none;stroke-width:0.264583"
         d="m 102.26663,54.652995 v 6.175851 c 0.003,-7.94e-4 0.006,-0.0019 0.0103,-0.0026 0.001,-1.74e-4 0.003,-2.11e-4 0.004,-5.29e-4 0.001,-5.29e-4 0.002,-7.94e-4 0.004,-0.0011 0.002,-5.29e-4 0.004,-7.94e-4 0.005,-0.0011 0.0145,-0.0011 0.0183,0.01402 0.004,0.02016 -0.001,0.0013 -0.004,0.0019 -0.007,0.0026 -2e-4,1.88e-4 -2.6e-4,2.65e-4 -5.3e-4,5.3e-4 -0.002,0.0016 -0.005,0.0032 -0.008,0.0041 -0.004,0.0011 -0.007,0.0021 -0.0108,0.0031 v 0.03152 h 18.75751 v -6.232641 z" />
    </clipPath>
    <clipPath
       clipPathUnits="userSpaceOnUse"
       id="clipPath8432">
      <path
         id="path8434"
         style="fill:#ff0000;fill-opacity:1;fill-rule:nonzero;stroke:none;stroke-width:0.264583"
         d="m 96.651982,60.467626 v 4.149619 h 8.693528 v -4.149619 z m 5.637898,0.356053 h 5.3e-4 5.3e-4 c 0.0135,-2.25e-4 0.0168,0.01418 0.003,0.02016 -1.8e-4,1.72e-4 -7.9e-4,-1.67e-4 -0.001,0 l -5.3e-4,5.29e-4 c -0.001,0.0011 -0.003,0.0019 -0.006,0.0026 -0.002,0.0016 -0.005,0.0032 -0.008,0.0041 -0.008,0.0024 -0.0168,0.0045 -0.0258,0.0067 -0.004,7.94e-4 -0.007,0.0016 -0.0103,0.0026 -5.3e-4,1.48e-4 -0.001,2.64e-4 -0.002,5.29e-4 l -0.002,5.29e-4 c -5.3e-4,1.24e-4 -0.001,5.29e-4 -0.002,5.29e-4 l -0.001,5.29e-4 -0.002,0.0011 c -0.002,0.0011 -0.005,0.0021 -0.007,0.0031 -0.002,5.3e-4 -0.002,0.0011 -0.004,0.0016 -10e-4,2.64e-4 -0.002,-1.14e-4 -0.003,0 -0.002,2.64e-4 -0.005,2.22e-4 -0.007,-5.29e-4 -7.9e-4,-2.65e-4 -0.002,-5.1e-5 -0.003,-5.29e-4 -0.006,0.0016 -0.0127,0.0029 -0.0191,0.0047 -0.002,2.62e-4 -0.003,0.0019 -0.005,0.0021 -0.0204,0.0045 -0.025,-0.01566 -0.005,-0.02016 0.002,-2.62e-4 0.003,-0.0019 0.005,-0.0021 0.0112,-0.0024 0.0229,-0.0056 0.0341,-0.0083 0.004,-0.0013 0.009,-0.0024 0.0134,-0.0036 0.002,-0.0019 0.006,-0.003 0.0109,-0.0031 h 10e-4 c 0,0 5.3e-4,0 5.3e-4,0 7.9e-4,-5.3e-4 10e-4,-0.0013 0.002,-0.0016 0.004,-0.0019 0.009,-0.0034 0.014,-0.0047 0.005,-0.0013 0.008,-0.0021 0.0124,-0.0031 0.001,-1.91e-4 0.003,-1.93e-4 0.004,-5.29e-4 5.3e-4,-2.02e-4 5.3e-4,-2.28e-4 0.002,-5.3e-4 5.3e-4,-1e-4 0.002,-5.29e-4 0.002,-5.29e-4 h 5.3e-4 c 0.002,-5.29e-4 0.003,-7.94e-4 0.004,-0.0011 z" />
    </clipPath>
    <clipPath
       clipPathUnits="userSpaceOnUse"
       id="clipPath8442">
      <path
         id="path8444"
         style="fill:#ff0000;fill-opacity:1;fill-rule:nonzero;stroke:none;stroke-width:0.264583"
         d="m 102.25991,60.412334 v 0.418062 c 10e-4,-2.64e-4 0.002,-7.93e-4 0.004,-0.0011 0.005,-0.0013 0.008,-0.0021 0.0134,-0.0031 0.001,-1.67e-4 0.002,-2.23e-4 0.004,-5.3e-4 7.9e-4,-2.64e-4 10e-4,-2.27e-4 0.002,-5.29e-4 5.3e-4,-1.27e-4 0.001,-5.29e-4 0.002,-5.29e-4 0.002,-5.29e-4 0.004,-7.94e-4 0.005,-0.0011 0.0146,-0.0011 0.0182,0.01402 0.004,0.02016 -1.6e-4,1.64e-4 -7.9e-4,-1.59e-4 -10e-4,0 l -5.3e-4,5.29e-4 c -10e-4,0.0013 -0.004,0.0019 -0.006,0.0026 -0.002,0.0016 -0.005,0.0032 -0.008,0.0041 -0.006,0.0016 -0.0113,0.0032 -0.0171,0.0047 v 0.0615 h 3.11247 v -0.504878 z" />
    </clipPath>
    <inkscape:path-effect
       effect="fill_between_many"
       method="originald"
       linkedpaths="#path6348,0,1"
       id="path-effect8526"
       is_visible="true"
       lpeversion="0"
       join="true"
       close="true"
       autoreverse="true"
       applied="false" />
    <inkscape:path-effect
       effect="fill_between_many"
       method="originald"
       linkedpaths="#path33538,0,1"
       id="path-effect33540"
       is_visible="true"
       lpeversion="0"
       join="true"
       close="true"
       autoreverse="true"
       applied="false" />
    <clipPath
       clipPathUnits="userSpaceOnUse"
       id="clipPath38985">
      <path
         id="path38987"
         style="fill:#ff0000;fill-opacity:1;fill-rule:nonzero;stroke:none;stroke-width:0.264583"
         d="m 167.58582,54.438512 -0.71242,4.092901 4.31231,0.713943 0.71243,-4.092902 z" />
    </clipPath>
    <clipPath
       clipPathUnits="userSpaceOnUse"
       id="clipPath39415">
      <path
         id="path39417"
         style="fill:#ff0000;fill-opacity:1;fill-rule:nonzero;stroke:none;stroke-width:0.264583"
         d="m 9.7373899,40.310202 c -0.023519,0.0057 -0.046031,0.0093 -0.067696,0.01188 v 0.535885 c 0.074382,0.01815 0.1281512,0.0677 0.1498616,0.130741 0.021265,-0.05816 0.041181,-0.116903 0.068213,-0.172601 0.020632,-0.04251 0.048734,-0.08086 0.077514,-0.118337 0.032461,-0.04227 0.067131,-0.08222 0.1038705,-0.119891 C 9.9258551,40.496919 9.8164552,40.40545 9.7373895,40.310197 Z m 0.044442,0.883666 c -0.010179,0.01437 -0.021974,0.02844 -0.035657,0.04237 0.010687,0.0013 0.021302,0.0026 0.032039,0.0036 6.615e-4,-0.01447 0.00188,-0.02987 0.00362,-0.04599 z" />
    </clipPath>
    <clipPath
       clipPathUnits="userSpaceOnUse"
       id="clipPath39475">
      <path
         id="path39477"
         style="fill:#ff0000;fill-opacity:1;fill-rule:nonzero;stroke:none;stroke-width:0.264583"
         d="m 109.37337,51.808863 -3.01219,17.744013 10.99907,1.867179 c -0.20983,-0.353398 -0.0245,-0.719037 0.3824,-0.767449 0.0215,-0.08478 0.0707,-0.160565 0.14616,-0.212628 0.0212,-0.01465 0.0443,-0.02642 0.0665,-0.03956 0.0164,-0.0071 0.0328,-0.01435 0.0493,-0.02152 0.23864,-0.103514 0.40366,-4.53e-4 0.42513,0.135594 0.0309,-0.0541 0.0606,-0.108981 0.0968,-0.159684 0.0275,-0.03846 0.0616,-0.07156 0.0962,-0.103695 0.0392,-0.03633 0.0808,-0.06903 0.1234,-0.100131 -0.1284,-0.104227 -0.21948,-0.212815 -0.2816,-0.320368 -0.39064,0.0282 -0.47829,-0.31948 -0.18478,-0.452266 -0.0505,-0.02586 -0.10089,-0.05244 -0.15047,-0.08006 -0.0463,-0.02681 -0.0919,-0.05466 -0.13746,-0.08256 -0.0578,3.05e-4 -0.11563,7.4e-4 -0.17348,-9.8e-5 -0.186,-0.0014 -0.37268,-0.0022 -0.55784,-0.02079 -0.0464,-0.0063 -0.0923,-0.01379 -0.13834,-0.02187 -0.39226,-0.06994 -0.41171,-0.403253 -0.14671,-0.481969 -0.14806,-0.04754 -0.29483,-0.09891 -0.4414,-0.150937 -0.16675,-0.05888 -0.33215,-0.121721 -0.49763,-0.184065 -0.16,-0.06051 -0.32046,-0.120475 -0.48022,-0.181636 -0.12944,-0.05009 -0.2588,-0.100003 -0.38891,-0.148312 -0.0188,-0.0069 -0.0374,-0.01413 -0.0562,-0.02108 -0.10261,-0.03781 -0.17309,-0.09016 -0.21671,-0.146858 -0.0862,-0.02126 -0.17258,-0.04092 -0.25979,-0.05669 -0.0764,-0.0086 -0.15261,-0.01877 -0.22861,-0.03043 -0.12463,-0.0123 -0.231,-0.03975 -0.31963,-0.07785 -0.70426,-0.275549 -0.48965,-1.077104 0.39219,-0.914646 0.0173,0.0032 0.0348,0.0054 0.0521,0.0083 0.001,8.2e-5 0.002,-1.72e-4 0.003,-3e-6 0.085,0.007 0.16901,0.01892 0.25273,0.03346 0.001,2.06e-4 0.002,4.77e-4 0.004,6.92e-4 0.004,4.19e-4 0.008,0.0011 0.0118,0.0015 0.3045,0.02947 0.61086,0.04148 0.91439,0.08185 0.097,0.01282 0.19302,0.02925 0.28974,0.04395 0.0825,0.01266 0.1651,0.02669 0.24727,0.0409 0.57511,0.100045 1.14228,0.237577 1.70645,0.387176 0.45725,0.122576 0.90977,0.261274 1.36046,0.406015 0.10693,-0.547649 0.23563,-1.09055 0.40145,-1.623828 0.15352,-0.507909 0.32803,-1.008702 0.48677,-1.515001 0.11091,-0.345145 0.21919,-0.692079 0.35243,-1.02937 0.0614,-0.139706 0.12746,-0.278388 0.2153,-0.403744 0.002,-0.0044 0.004,-0.0088 0.005,-0.01323 0.0295,-0.07266 0.0595,-0.14492 0.0864,-0.218586 0.0263,-0.07286 0.0501,-0.146656 0.0716,-0.221095 0.0168,-0.05663 0.0339,-0.11315 0.0518,-0.169418 9.6e-4,-0.05919 0.0198,-0.102039 0.0469,-0.1278 0.003,-0.0062 0.005,-0.01243 0.007,-0.01866 0.0394,-0.09994 0.10552,-0.139814 0.16004,-0.13375 0.0273,0.003 0.0516,0.0177 0.0683,0.042 0.053,-0.02818 0.10567,-0.03779 0.1525,-0.03072 0.0381,0.0059 0.0721,0.02248 0.0999,0.04788 0.0312,-0.08669 0.0655,-0.172318 0.10908,-0.253522 0.18868,-0.351595 0.44808,-0.470247 0.65554,-0.431218 0.3032,0.05705 0.49526,0.451597 0.1911,0.949193 0.004,-0.0057 0.008,-0.0104 0.007,-0.0082 -0.004,0.0191 -0.0148,0.03572 -0.0212,0.05405 -0.0104,0.02967 -0.0193,0.06003 -0.0289,0.08997 -0.0371,0.11505 -0.0541,0.16867 -0.0918,0.287383 -0.0799,0.257186 -0.15642,0.515241 -0.23248,0.773505 0.25062,-0.376993 0.50917,-0.748385 0.77196,-1.116973 0.0379,-0.05289 0.076,-0.10597 0.11398,-0.158864 0.0203,-0.02824 0.0412,-0.05322 0.062,-0.07806 l 1.37636,-8.107741 z m 13.2977,12.978507 c -0.18462,0.279932 -0.36762,0.560796 -0.54405,0.845884 -0.14431,0.241911 -0.27844,0.489631 -0.39737,0.744463 0.008,0.04917 0.0147,0.09835 0.0227,0.147468 0.0332,0.203737 0.0701,0.40704 0.10606,0.610302 0.005,0.02784 0.01,0.05541 0.0147,0.08321 0.0421,0.239324 -0.0563,0.381196 -0.17674,0.405048 7e-4,0.01724 0.002,0.03445 0.002,0.05175 0.0542,-0.02431 0.1092,-0.04113 0.16627,-0.03153 0.003,4.85e-4 0.006,0.0018 0.008,0.0024 0.005,-0.02293 0.01,-0.04602 0.0143,-0.06885 0.0241,-0.11321 0.0934,-0.158 0.15056,-0.145844 0.0572,0.01213 0.10209,0.08097 0.0787,0.194192 -0.009,0.04366 -0.0188,0.08735 -0.028,0.131003 -0.004,0.02162 -0.009,0.04323 -0.0131,0.06487 10e-4,0.0023 0.003,0.0055 0.004,0.008 0.0159,-0.0022 0.0319,-0.0044 0.0478,-0.0066 0.0101,-0.0012 0.0196,-0.0022 0.0294,-0.0034 z m -0.51931,3.074607 c -0.006,0.0025 -0.0122,0.0056 -0.0141,0.0091 0.005,-0.0023 0.009,-0.0044 0.0137,-0.0066 z m -0.10128,0.596596 c -0.031,0.01385 -0.0623,0.02714 -0.0934,0.04075 -0.001,0.0092 -0.002,0.01839 -0.004,0.0276 0.0303,0.0038 0.0572,0.01078 0.0821,0.01971 z m -3.89056,2.206164 c -6.9e-4,1.5e-4 -7.5e-4,9.46e-4 -7.9e-4,0.0015 -0.005,0.0051 0.01,0.0098 0.0147,0.01509 0.003,0.0032 0.005,0.0082 0.008,0.0103 0.002,0.0011 0.004,0.0017 0.005,0.0024 -0.003,-0.007 -0.004,-0.01111 -0.005,-0.01394 -6.5e-4,9.64e-4 -0.002,0.0015 -0.006,-0.001 -0.005,-0.0035 -0.0107,-0.01427 -0.0154,-0.01416 z m 0.199,0.04427 c -0.0126,0.01265 -0.0267,0.02465 -0.0428,0.03623 0.0104,0.0031 0.0211,0.0057 0.0316,0.0085 0.003,-0.01417 0.007,-0.02914 0.0113,-0.04474 z" />
    </clipPath>
    <clipPath
       clipPathUnits="userSpaceOnUse"
       id="clipPath39631">
      <path
         id="path39633"
         style="fill:#ff0000;fill-opacity:1;fill-rule:nonzero;stroke:none;stroke-width:0.264583"
         d="m 67.690484,30.115267 -2.674625,15.75553 c 0.05117,-0.07872 0.107387,-0.15414 0.17491,-0.22138 0.04558,-0.04261 0.08987,-0.08681 0.136993,-0.127701 0.02909,-0.02525 0.06037,-0.0479 0.09162,-0.07041 0.157203,-0.113196 0.3268,-0.210971 0.513764,-0.266068 0.193134,-0.06075 0.388696,-0.113359 0.586748,-0.155659 0.246536,-0.0529 0.495077,-0.09967 0.747359,-0.113717 0.04974,-0.0024 0.09976,-0.0056 0.149544,-0.0071 0.213359,-0.0063 0.426983,0.0059 0.639301,0.02571 0.26971,0.03051 0.537327,0.07637 0.805019,0.120932 0.0026,4.24e-4 0.0051,8.81e-4 0.0076,0.0013 0.04774,-0.07621 0.09493,-0.152732 0.139256,-0.230575 0.08474,-0.0039 0.169745,-0.01321 0.254562,-0.0113 0.04431,9.19e-4 0.08766,0.01246 0.131289,0.02014 0.105431,0.01897 0.207783,0.0547 0.308715,0.08962 0.125997,0.04581 0.250314,0.09637 0.374469,0.146911 0.09898,0.0412 0.198621,0.08092 0.300142,0.115424 0.11993,0.04046 0.241769,0.07479 0.363624,0.108902 0.110777,0.03217 0.223747,0.05629 0.336526,0.08018 0.09899,0.02169 0.198794,0.03914 0.298708,0.05594 0.08092,0.014 0.161755,0.02639 0.243028,0.03812 0.07149,0.01053 0.142912,0.02066 0.214679,0.02912 0.0923,0.01 0.184665,0.02268 0.276941,0.03287 0.09439,0.01028 0.188977,0.01966 0.283586,0.02769 0.10621,0.0082 0.212629,0.01162 0.319045,0.01642 0.125444,0.0055 0.251009,0.0091 0.376586,0.0078 0.104844,-8.27e-4 0.209226,-0.01097 0.313632,-0.01962 0.134356,-0.01197 0.269048,-0.01935 0.403864,-0.02317 0.144465,-0.0035 0.288953,-0.0011 0.433349,0.0038 0.176747,0.0069 0.353048,0.02245 0.52916,0.03846 0.155369,0.01406 0.310446,0.03177 0.465409,0.04966 0.113561,0.01337 0.227224,0.02593 0.340634,0.04054 0.113687,0.01345 0.225505,0.03721 0.336573,0.06446 0.111852,0.0268 0.21949,0.06753 0.325385,0.111847 0.520159,0.231612 0.600604,0.570225 0.496984,0.907292 0.05838,0.0032 0.116569,0.007 0.174978,0.0098 0.125098,0.0098 0.25071,0.0165 0.375501,0.02967 0.102635,0.01082 0.204773,0.02666 0.306735,0.04262 0.109864,0.01731 0.219495,0.03439 0.328434,0.05683 0.08839,0.01809 0.176075,0.04087 0.263254,0.06409 0.08386,0.02231 0.138221,0.03761 0.182757,0.05043 0.02655,-0.06987 0.05589,-0.138671 0.08108,-0.209003 0.07362,-0.208614 0.144409,-0.418133 0.20562,-0.630772 0.05518,-0.189781 0.110964,-0.379844 0.151332,-0.573425 0.03123,-0.153746 0.05604,-0.309107 0.07319,-0.465081 0.02305,-0.197529 0.04456,-0.395294 0.06864,-0.592703 0.03148,-0.235882 0.07065,-0.47071 0.121995,-0.70315 0.05723,-0.267325 0.116546,-0.53451 0.198979,-0.795441 0.06861,-0.220411 0.142441,-0.439182 0.227863,-0.653728 0.03903,-0.101785 0.07733,-0.203916 0.118835,-0.304805 0.0027,-0.02941 0.0052,-0.0588 0.0087,-0.08816 0.01893,-0.159334 0.0427,-0.318067 0.07644,-0.475011 0.03437,-0.151006 0.0755,-0.300189 0.129113,-0.445631 0.04579,-0.12624 0.09499,-0.251132 0.148948,-0.374123 0.04814,-0.108168 0.0985,-0.215318 0.157276,-0.318198 0.01617,-0.02669 0.03202,-0.05397 0.04875,-0.08031 0.06238,-0.09823 0.146446,-0.183394 0.240756,-0.251085 0.394829,-0.283368 0.757033,-0.363158 1.036545,-0.310456 0.03317,0.0062 0.0646,0.01523 0.09533,0.02509 l 1.203817,-7.091377 z m 1.655215,16.6955 c -0.25085,-0.04124 -0.501812,-0.08242 -0.752676,-0.123586 -0.23874,-0.03699 -0.47591,-0.08423 -0.716362,-0.109022 -0.171727,-0.01581 -0.34532,-0.02347 -0.517517,-0.01132 -0.165653,0.01044 -0.328587,0.04407 -0.490434,0.07923 -0.100516,0.02209 -0.200324,0.04649 -0.299353,0.07446 0.0015,4.62e-4 0.003,7.43e-4 0.0045,0.0013 0.115989,0.0421 0.02401,0.01293 0.130361,0.04414 0.191161,0.05588 0.38898,0.08611 0.586726,0.106928 0.298894,0.02994 0.599571,0.04261 0.899603,0.0547 0.467601,0.01409 0.93353,0.05263 1.399455,0.0929 0.02409,0.0022 0.04817,0.0044 0.07228,0.0065 -0.104025,-0.07417 -0.21044,-0.14518 -0.316575,-0.21623 z m -2.953587,-0.02494 c -8.19e-4,3.98e-4 -0.0023,0.0012 -0.0029,0.0017 -0.0038,0.0031 -0.0065,0.0072 -0.01014,0.01033 -0.0349,0.03001 -0.05236,0.03679 -0.01807,0.01999 -0.05376,0.06634 0.0047,-0.0075 0.02001,-0.01601 0.0019,-10e-4 0.0028,-5.97e-4 0.0025,9.56e-4 0.0012,-0.0038 0.0023,-0.0077 0.0035,-0.01145 0.002,0.0022 0.0057,0.0097 0.0057,0.0067 -8.8e-5,-0.0041 -3.71e-4,-0.0081 -5.68e-4,-0.01215 z m -0.0088,0.01791 c -0.0016,0.0049 -0.0096,0.0166 -0.0112,0.02274 -0.0013,0.0049 -2.4e-4,0.0101 -0.0015,0.01494 -0.0045,0.01775 -0.022,0.07021 -0.0163,0.05279 0.0098,-0.03007 0.01954,-0.06028 0.02899,-0.09047 z m -1.583235,0.338207 -0.121775,0.717342 0.793254,0.134661 c -0.04406,-0.0301 -0.08765,-0.06061 -0.129872,-0.09333 -0.11605,-0.10099 -0.194849,-0.158433 -0.287414,-0.279945 -0.128316,-0.168444 -0.203086,-0.308885 -0.254193,-0.478725 z m 14.976811,3.102757 c -0.100407,0.04158 -0.201262,0.08209 -0.300361,0.126701 l 0.271041,0.04601 z M 71.24732,48.858064 c -0.09603,-0.01249 -0.191836,-0.02731 -0.288141,-0.03791 -0.503002,-0.05855 -1.00701,-0.108399 -1.511503,-0.152283 -0.004,-4.02e-4 -0.0079,-5.43e-4 -0.01189,-9.46e-4 L 71.598,49.033978 c -0.10437,-0.04276 -0.245679,-0.103092 -0.350679,-0.175895 z" />
    </clipPath>
    <inkscape:path-effect
       effect="fill_between_many"
       method="originald"
       linkedpaths="#path13141,0,1"
       id="path-effect13223"
       is_visible="true"
       lpeversion="0"
       join="true"
       close="true"
       autoreverse="true"
       applied="false" />
    <inkscape:path-effect
       effect="fill_between_many"
       method="originald"
       linkedpaths="#path21450,0,1|#g40289,0,1"
       id="path-effect22106"
       is_visible="true"
       lpeversion="0"
       join="true"
       close="true"
       autoreverse="true"
       applied="false" />
    <inkscape:path-effect
       effect="fill_between_many"
       method="originald"
       linkedpaths="#path22223,0,1"
       id="path-effect22480"
       is_visible="true"
       lpeversion="0"
       join="true"
       close="true"
       autoreverse="true"
       applied="false" />
  </defs>
  <g
     inkscape:groupmode="layer"
     id="layer9"
     inkscape:label="KrishnaBansuri"
     style="display:inline">
    <path
       style="fill:#8a460f;fill-opacity:1;stroke-width:1"
       d=""
       id="path10225"
       transform="scale(0.26458333)" />
    <g
       id="g40289"
       transform="matrix(6.6736202,0,0,6.6736202,-643.91386,-499.76405)"
       style="stroke-width:0.149844"
       inkscape:label="#g40289">
      <g
         id="g12866"
         transform="matrix(0.77160297,0.08146045,-0.07259677,0.86581157,47.708569,44.897151)"
         inkscape:export-filename="C:\Users\Manveer Chauhan\Documents\Inkscape\g8915.png"
         inkscape:export-xdpi="95.152725"
         inkscape:export-ydpi="95.152725"
         clip-path="url(#clipPath39631)"
         style="stroke-width:0.182523" />
      <g
         id="g15800"
         transform="rotate(1.6994854,1160.1591,858.17514)"
         style="stroke-width:0.149844">
        <g
           id="g15551"
           transform="translate(3.8679038,-13.956771)"
           style="stroke-width:0.149844">
          <path
             d="m 76.188312,130.23248 0.359667,-7.98263 0.562679,-0.0331 -0.393178,8.0488 c 0,0 -0.214977,0.24805 -0.529168,-0.0331 z"
             id="path11801"
             style="fill:#8a460f;fill-opacity:1;stroke-width:0.149844" />
          <path
             d="m 77.716984,129.40964 -0.514284,-7.97416 0.555699,-0.0944 0.4882,8.04361 c 0,0 -0.186601,0.27003 -0.529619,0.0249 z"
             id="path15438"
             style="fill:#8a460f;fill-opacity:1;stroke-width:0.149844" />
          <circle
             style="fill:#8a460f;fill-opacity:1;stroke-width:0.00973983;stroke-miterlimit:4;stroke-dasharray:none"
             id="path15462"
             cx="76.36454"
             cy="131.2412"
             r="1.0583333" />
          <circle
             style="fill:#8a460f;fill-opacity:1;stroke-width:0.00973983;stroke-miterlimit:4;stroke-dasharray:none"
             id="circle15544"
             cx="78.074303"
             cy="130.37729"
             r="1.0583333" />
          <path
             d="m 144.57492,118.71576 c 0.61365,0.79579 0.02,1.61989 0.02,1.61989 l -74.327578,2.20561 c 0,0 -0.701853,-0.69636 -0.04822,-1.62526 z"
             id="path13225"
             style="fill:#8a460f;fill-opacity:1"
             sodipodi:nodetypes="ccccc" />
        </g>
      </g>
    </g>
  </g>
  <g
     inkscape:groupmode="layer"
     id="layer2"
     inkscape:label="Hole">
    <path
       inkscape:original-d="M 0,0"
       inkscape:path-effect="#path-effect22106"
       d="M 0,0"
       id="path22108" />
    <path
       d="M -2.0157392,3.7381614"
       id="path22482"
       inkscape:original-d="M -2.0157392,3.7381614"
       inkscape:path-effect="#path-effect22480" />
    <ellipse
       style="opacity:1;fill:#ffffff;fill-opacity:1;stroke-width:0.0264583;stroke-linecap:round;paint-order:markers fill stroke"
       id="path22586"
       cx="112.18574"
       cy="3.7521319"
       rx="6.8801336"
       ry="1.3528446" />
    <ellipse
       style="opacity:1;fill:#ffffff;fill-opacity:1;stroke-width:0.0264583;stroke-linecap:round;paint-order:markers fill stroke"
       id="ellipse22704"
       cx="155.02733"
       cy="3.7521319"
       rx="6.8801336"
       ry="1.3528446" />
    <ellipse
       style="opacity:1;fill:#ffffff;fill-opacity:1;stroke-width:0.0264583;stroke-linecap:round;paint-order:markers fill stroke"
       id="ellipse22706"
       cx="198.05672"
       cy="3.7521319"
       rx="6.8801336"
       ry="1.3528446" />
    <ellipse
       style="opacity:1;fill:#ffffff;fill-opacity:1;stroke-width:0.0264583;stroke-linecap:round;paint-order:markers fill stroke"
       id="ellipse22708"
       cx="242.01939"
       cy="3.7521319"
       rx="6.8801336"
       ry="1.3528446" />
    <ellipse
       style="opacity:1;fill:#ffffff;fill-opacity:1;stroke-width:0.0264583;stroke-linecap:round;paint-order:markers fill stroke"
       id="ellipse22710"
       cx="286.7269"
       cy="3.7521319"
       rx="6.8801336"
       ry="1.3528446" />
    <ellipse
       style="opacity:1;fill:#ffffff;fill-opacity:1;stroke-width:0.0264583;stroke-linecap:round;paint-order:markers fill stroke"
       id="ellipse22712"
       cx="333.68442"
       cy="3.7521319"
       rx="6.8801336"
       ry="1.3528446" />
    <ellipse
       style="opacity:1;fill:#ffffff;fill-opacity:1;stroke-width:0.0264583;stroke-linecap:round;paint-order:markers fill stroke"
       id="ellipse22714"
       cx="443.68753"
       cy="3.7521319"
       rx="6.8801336"
       ry="1.3528446" />
  </g>
</svg>
