<?xml version="1.0" encoding="UTF-8" standalone="no"?>
<!-- Created with Inkscape (http://www.inkscape.org/) -->

<svg
   width="120"
   height="102"
   viewBox="0 0 120 102"
   version="1.1"
   id="svg5"
   inkscape:version="1.1.1 (3bf5ae0d25, 2021-09-20)"
   sodipodi:docname="Krishna.svg"
   xmlns:inkscape="http://www.inkscape.org/namespaces/inkscape"
   xmlns:sodipodi="http://sodipodi.sourceforge.net/DTD/sodipodi-0.dtd"
   xmlns="http://www.w3.org/2000/svg"
   xmlns:svg="http://www.w3.org/2000/svg">
  <defs
     id="defs51">
    <inkscape:path-effect
       effect="fill_between_many"
       method="originald"
       linkedpaths="#path901,0,1"
       id="path-effect17933"
       is_visible="true"
       lpeversion="0"
       join="true"
       close="true"
       autoreverse="true"
       applied="false" />
  </defs>
  <sodipodi:namedview
     id="namedview49"
     pagecolor="#ffffff"
     bordercolor="#999999"
     borderopacity="1"
     inkscape:pageshadow="0"
     inkscape:pageopacity="0"
     inkscape:pagecheckerboard="0"
     showgrid="false"
     inkscape:zoom="4.7847559"
     inkscape:cx="46.50185"
     inkscape:cy="52.144771"
     inkscape:window-width="1920"
     inkscape:window-height="1001"
     inkscape:window-x="-9"
     inkscape:window-y="-9"
     inkscape:window-maximized="1"
     inkscape:current-layer="g12852"
     height="119px" />
  <g
     inkscape:label="Layer 1"
     inkscape:groupmode="layer"
     id="layer1">
    <g
       inkscape:label="Layer 1"
       id="layer1-3"
       style="display:inline;stroke-width:2.42331"
       transform="matrix(1.5376552,-0.26102912,0.26102912,1.5376552,-117.81089,6.4159569)"
       inkscape:export-filename="C:\Users\Manveer Chauhan\Documents\Inkscape\g8915.png"
       inkscape:export-xdpi="95.152725"
       inkscape:export-ydpi="95.152725">
      <path
         id="path36"
         style="fill:#fcfcfc;fill-opacity:1;stroke-width:9.15899"
         transform="matrix(0.26458333,0,0,0.26458333,82.023076,6.992209)"
         d="m 141.61914,36.099609 c -7.66357,-0.03437 -12.0625,3.402344 -12.0625,3.402344 -12.46329,0.977514 -14.41797,11.730469 -14.41797,11.730469 C 110.73987,50.499284 111.47266,55.875 111.47266,55.875 74.5715,52.942457 58.6875,75.181641 58.6875,75.181641 30.339569,97.420081 33.027344,123.8125 33.027344,123.8125 c 0,0 -0.977251,10.5093 9.77539,21.01758 0,-1e-5 3.665121,3.91017 -1.466796,13.92969 0,0 -1.710447,2.19951 7.820312,13.92968 0,0 -0.490006,15.3949 -48.87695312,39.09961 0,-1e-5 -5.62006658,8.30811 33.48046912,-1.22265 0,0 9.286093,-2.19789 16.373046,-7.57422 0,0 -2.198038,-6.11085 4.644532,-6.59961 0,0 -0.97831,-8.30749 6.841797,-3.41992 0,0 3.666503,-7.57557 3.177734,-12.21875 0,0 1.953856,-8.06585 1.220703,-14.66407 0,0 -4.154783,-2.19794 -3.666016,-9.52929 0,0 -5.37492,20.52668 -11.484374,-4.88867 0.488729,-1.71065 -6.109376,-12.4629 -6.109376,-12.4629 -3.421302,-3.42129 0.488282,-7.08789 0.488282,-7.08789 3.665688,-2.1994 6.353515,-0.24414 6.353515,-0.24414 2.932536,0.97752 9.042969,12.95313 9.042969,12.95313 -6.353839,-21.26093 6.109375,-33.96875 6.109375,-33.96875 6.353843,-11.974549 42.521487,-19.550783 42.521487,-19.550783 18.67808,-3.140562 24.2708,-10.860627 25.9375,-15.53125 -2.24693,8.20933 -8.09766,9.910156 -8.09766,9.910156 21.74967,19.305907 12.46289,43.744137 12.46289,43.744137 -4.64319,13.6852 -6.35351,28.83594 -6.35351,28.83594 3.4213,-18.32838 15.15039,-16.86133 15.15039,-16.86133 10.26402,5.86509 0.24414,15.39649 0.24414,15.39649 -2.19942,-1.46627 -10.50781,12.46289 -10.50781,12.46289 -4.73361,5.96848 -6.33119,0.0222 -6.72266,-2.01758 0.2306,4.59373 -9.89453,16.92383 -9.89453,16.92383 -1.95504,1.22189 -6.10938,20.5293 -6.10938,20.52929 10.5083,1.46628 4.64258,8.3086 4.64258,8.3086 3.91007,1.71065 1.4668,4.88672 1.4668,4.88672 8.55322,2.1994 8.06445,9.77539 8.06445,9.77539 2.93254,7.08698 11.48633,10.75195 11.48633,10.75195 3.17692,0.97752 6.10937,-3.41992 6.10937,-3.41992 1.46631,-3.91005 -0.49023,-6.10938 -0.49023,-6.10938 -13.44083,-14.41832 -11.72852,-16.61914 -11.72852,-16.61914 7.57573,-3.17692 5.61914,-5.86523 5.61914,-5.86523 -4.88757,-8.06449 -3.41992,-8.79688 -3.41992,-8.79688 5.3763,-3.4213 7.82032,-6.59765 7.82031,-6.59765 5.62069,-4.39881 2.19922,-9.77539 2.19922,-9.77539 -6.35384,-4.64319 -1.95507,-14.41797 -1.95507,-14.41797 4.64318,-3.91006 9.28515,-9.53125 9.28515,-9.53125 23.21594,-33.47985 -3.41992,-73.070314 -3.41992,-73.070314 7.57572,0.244385 4.1543,-6.841797 4.1543,-6.841797 15.15148,-9.530759 6.35351,-24.4375 6.35351,-24.4375 2.68819,-8.308868 -11.24218,-15.396484 -11.24219,-15.396484 -3.238,-1.038609 -6.15446,-1.43581 -8.70898,-1.447266 z"
         clip-path="url(#clipPath5960)" />
    </g>
    <path
       d="m 74.61406,76.015777 1.335609,-0.819683 -0.926876,-0.100756 -0.967168,0.382835 -0.100767,0.46344 z"
       id="path3754"
       style="fill:#fcfcfc;fill-opacity:1;stroke-width:3.77953" />
    <g
       id="g56"
       transform="matrix(1.443043,0.59173179,-0.59173179,1.443043,406.8844,44.194321)"
       inkscape:export-filename="C:\Users\Manveer Chauhan\Documents\Inkscape\g8915.png"
       inkscape:export-xdpi="95.152725"
       inkscape:export-ydpi="95.152725"
       style="display:inline;stroke-width:2.42331">
      <g
         id="layer3-4"
         inkscape:label="KrishnaFace"
         transform="translate(-11.200549,-47.729925)"
         style="stroke-width:2.42331">
        <path
           style="fill:#fcfcfc;fill-opacity:1;stroke-width:0.595332;stroke-miterlimit:4;stroke-dasharray:none"
           d=""
           id="path22375"
           transform="matrix(0.26458333,0,0,0.26458333,-34.494617,3.32983)" />
        <path
           style="fill:#fcfcfc;fill-opacity:1;stroke-width:0.595332;stroke-miterlimit:4;stroke-dasharray:none"
           d=""
           id="path22609"
           transform="matrix(0.26458333,0,0,0.26458333,-34.494617,3.32983)" />
        <path
           style="fill:#fcfcfc;fill-opacity:1;stroke-width:0.157514;stroke-miterlimit:4;stroke-dasharray:none"
           d="m -204.24498,133.1796 c -0.13091,-0.018 -0.2249,-0.0683 -0.28176,-0.1508 l -0.0173,-0.0251 0.0173,-0.0197 c 0.01,-0.0108 0.0183,-0.0225 0.0194,-0.0259 0.002,-0.004 0.0178,-0.005 0.0517,-0.001 0.0344,0.004 0.0675,0.003 0.10816,-0.003 0.085,-0.0112 0.16164,-0.0263 0.17844,-0.0351 0.0276,-0.0146 0.074,-0.0646 0.80718,-0.87093 0.54863,-0.60332 0.49606,-0.54103 0.69329,-0.82144 0.22522,-0.32018 0.48443,-0.61448 0.75865,-0.86136 0.27791,-0.25018 0.62315,-0.49179 0.86966,-0.60859 0.21935,-0.10394 0.66352,-0.25006 0.94248,-0.31005 0.24598,-0.0529 0.40826,-0.0729 0.62642,-0.0773 0.1839,-0.004 0.29887,0.005 0.44102,0.0332 0.17486,0.0347 0.35738,0.10861 0.47351,0.19163 0.13144,0.094 0.31365,0.30675 0.38561,0.4503 0.0459,0.0916 0.0549,0.12457 0.0577,0.21174 0.003,0.091 -0.003,0.11307 -0.0485,0.18158 -0.0471,0.0709 -0.1081,0.11589 -0.22417,0.16537 l -0.0562,0.024 -0.4531,1.9e-4 c -0.38814,1.8e-4 -0.46862,0.002 -0.56127,0.0106 -0.33856,0.0324 -0.63391,0.0777 -0.83021,0.12718 -0.14529,0.0366 -0.32656,0.10762 -0.57946,0.22693 -0.12455,0.0588 -0.43781,0.25439 -0.59313,0.37042 -0.12591,0.0941 -0.19854,0.15884 -0.33873,0.30214 -0.22968,0.23479 -0.40164,0.40583 -0.48818,0.48558 -0.34086,0.31408 -0.78175,0.64854 -1.11961,0.84935 -0.17095,0.10161 -0.19227,0.11125 -0.31489,0.14246 -0.13711,0.0349 -0.1613,0.0379 -0.32823,0.0404 -0.0868,0.001 -0.17496,4e-5 -0.19586,-0.003 z m 3.19804,-2.16063 c 0,-0.002 -0.008,0.001 -0.0175,0.006 -0.01,0.005 -0.0175,0.0104 -0.0175,0.012 0,0.002 0.008,-0.001 0.0175,-0.006 0.01,-0.005 0.0175,-0.0104 0.0175,-0.012 z m 0.15786,-0.0817 c 0,-0.002 -0.0211,0.008 -0.0468,0.0206 -0.0257,0.0129 -0.0468,0.0248 -0.0468,0.0264 0,0.002 0.0211,-0.008 0.0468,-0.0206 0.0257,-0.0129 0.0468,-0.0248 0.0468,-0.0264 z m -1.46456,-0.0203 c 0.006,-0.006 0.009,-0.0117 0.008,-0.0117 -0.002,0 -0.008,0.005 -0.0135,0.0117 -0.006,0.006 -0.009,0.0117 -0.008,0.0117 0.002,0 0.008,-0.005 0.0135,-0.0117 z m 0.0263,-0.0322 c 0.008,-0.008 0.0124,-0.0146 0.0108,-0.0146 -0.002,0 -0.009,0.007 -0.0167,0.0146 -0.008,0.008 -0.0124,0.0146 -0.0108,0.0146 0.002,0 0.009,-0.007 0.0167,-0.0146 z m 1.57272,-0.009 c 0.005,-0.003 0.006,-0.006 0.003,-0.006 -0.003,0 -0.01,0.003 -0.0146,0.006 -0.005,0.003 -0.006,0.006 -0.003,0.006 0.003,0 0.01,-0.003 0.0146,-0.006 z m 0.0559,-0.0266 c 0.0107,-0.009 0.0105,-0.009 -0.003,-0.002 -0.0179,0.009 -0.0212,0.0112 -0.0138,0.0112 0.003,0 0.0108,-0.004 0.017,-0.009 z m 0.0435,-0.0172 c 0.008,-0.005 0.012,-0.008 0.009,-0.008 -0.003,0 -0.0124,0.004 -0.0205,0.008 -0.008,0.005 -0.012,0.008 -0.009,0.008 0.003,0 0.0124,-0.004 0.0204,-0.008 z m -1.6012,-0.0307 c 0.007,-0.009 0.007,-0.01 -0.002,-0.002 -0.006,0.004 -0.0102,0.009 -0.0102,0.0102 0,0.005 0.005,0.002 0.0124,-0.008 z m 2.3012,-0.16285 c -0.002,-0.002 -0.007,-0.002 -0.0112,-5.3e-4 -0.005,0.002 -0.003,0.003 0.004,0.004 0.006,2.6e-4 0.01,-10e-4 0.008,-0.003 z m -2.03226,-0.11778 c 0.007,-0.009 0.007,-0.01 -0.002,-0.002 -0.01,0.008 -0.0128,0.0124 -0.008,0.0124 0.001,0 0.006,-0.005 0.0102,-0.0102 z m 0.0928,-0.0862 c 0.008,-0.008 0.0124,-0.0146 0.0108,-0.0146 -0.002,0 -0.009,0.007 -0.0166,0.0146 -0.008,0.008 -0.0124,0.0146 -0.0108,0.0146 0.002,0 0.009,-0.007 0.0166,-0.0146 z"
           id="path22804" />
      </g>
    </g>
    <g
       id="g337"
       transform="matrix(-1.4858514,0.47409399,0.47409399,1.4858514,-292.73883,16.689201)"
       inkscape:export-filename="C:\Users\Manveer Chauhan\Documents\Inkscape\g8915.png"
       inkscape:export-xdpi="95.152725"
       inkscape:export-ydpi="95.152725"
       style="display:inline;stroke-width:2.42331">
      <g
         id="g335"
         inkscape:label="KrishnaFace"
         transform="translate(-15.043127,-46.911053)"
         style="stroke-width:2.42331">
        <path
           style="fill:#fcfcfc;fill-opacity:1;stroke-width:0.595332;stroke-miterlimit:4;stroke-dasharray:none"
           d=""
           id="path329"
           transform="matrix(0.26458333,0,0,0.26458333,-34.494617,3.32983)" />
        <path
           style="fill:#fcfcfc;fill-opacity:1;stroke-width:0.595332;stroke-miterlimit:4;stroke-dasharray:none"
           d=""
           id="path331"
           transform="matrix(0.26458333,0,0,0.26458333,-34.494617,3.32983)" />
        <path
           style="fill:#fcfcfc;fill-opacity:1;stroke-width:0.157514;stroke-miterlimit:4;stroke-dasharray:none"
           d="m -204.24498,133.1796 c -0.13091,-0.018 -0.2249,-0.0683 -0.28176,-0.1508 l -0.0173,-0.0251 0.0173,-0.0197 c 0.01,-0.0108 0.0183,-0.0225 0.0194,-0.0259 0.002,-0.004 0.0178,-0.005 0.0517,-0.001 0.0344,0.004 0.0675,0.003 0.10816,-0.003 0.085,-0.0112 0.16164,-0.0263 0.17844,-0.0351 0.0276,-0.0146 0.074,-0.0646 0.80718,-0.87093 0.54863,-0.60332 0.49606,-0.54103 0.69329,-0.82144 0.22522,-0.32018 0.48443,-0.61448 0.75865,-0.86136 0.27791,-0.25018 0.62315,-0.49179 0.86966,-0.60859 0.21935,-0.10394 0.66352,-0.25006 0.94248,-0.31005 0.24598,-0.0529 0.40826,-0.0729 0.62642,-0.0773 0.1839,-0.004 0.29887,0.005 0.44102,0.0332 0.17486,0.0347 0.35738,0.10861 0.47351,0.19163 0.13144,0.094 0.31365,0.30675 0.38561,0.4503 0.0459,0.0916 0.0549,0.12457 0.0577,0.21174 0.003,0.091 -0.003,0.11307 -0.0485,0.18158 -0.0471,0.0709 -0.1081,0.11589 -0.22417,0.16537 l -0.0562,0.024 -0.4531,1.9e-4 c -0.38814,1.8e-4 -0.46862,0.002 -0.56127,0.0106 -0.33856,0.0324 -0.63391,0.0777 -0.83021,0.12718 -0.14529,0.0366 -0.32656,0.10762 -0.57946,0.22693 -0.12455,0.0588 -0.43781,0.25439 -0.59313,0.37042 -0.12591,0.0941 -0.19854,0.15884 -0.33873,0.30214 -0.22968,0.23479 -0.40164,0.40583 -0.48818,0.48558 -0.34086,0.31408 -0.78175,0.64854 -1.11961,0.84935 -0.17095,0.10161 -0.19227,0.11125 -0.31489,0.14246 -0.13711,0.0349 -0.1613,0.0379 -0.32823,0.0404 -0.0868,0.001 -0.17496,4e-5 -0.19586,-0.003 z m 3.19804,-2.16063 c 0,-0.002 -0.008,0.001 -0.0175,0.006 -0.01,0.005 -0.0175,0.0104 -0.0175,0.012 0,0.002 0.008,-0.001 0.0175,-0.006 0.01,-0.005 0.0175,-0.0104 0.0175,-0.012 z m 0.15786,-0.0817 c 0,-0.002 -0.0211,0.008 -0.0468,0.0206 -0.0257,0.0129 -0.0468,0.0248 -0.0468,0.0264 0,0.002 0.0211,-0.008 0.0468,-0.0206 0.0257,-0.0129 0.0468,-0.0248 0.0468,-0.0264 z m -1.46456,-0.0203 c 0.006,-0.006 0.009,-0.0117 0.008,-0.0117 -0.002,0 -0.008,0.005 -0.0135,0.0117 -0.006,0.006 -0.009,0.0117 -0.008,0.0117 0.002,0 0.008,-0.005 0.0135,-0.0117 z m 0.0263,-0.0322 c 0.008,-0.008 0.0124,-0.0146 0.0108,-0.0146 -0.002,0 -0.009,0.007 -0.0167,0.0146 -0.008,0.008 -0.0124,0.0146 -0.0108,0.0146 0.002,0 0.009,-0.007 0.0167,-0.0146 z m 1.57272,-0.009 c 0.005,-0.003 0.006,-0.006 0.003,-0.006 -0.003,0 -0.01,0.003 -0.0146,0.006 -0.005,0.003 -0.006,0.006 -0.003,0.006 0.003,0 0.01,-0.003 0.0146,-0.006 z m 0.0559,-0.0266 c 0.0107,-0.009 0.0105,-0.009 -0.003,-0.002 -0.0179,0.009 -0.0212,0.0112 -0.0138,0.0112 0.003,0 0.0108,-0.004 0.017,-0.009 z m 0.0435,-0.0172 c 0.008,-0.005 0.012,-0.008 0.009,-0.008 -0.003,0 -0.0124,0.004 -0.0205,0.008 -0.008,0.005 -0.012,0.008 -0.009,0.008 0.003,0 0.0124,-0.004 0.0204,-0.008 z m -1.6012,-0.0307 c 0.007,-0.009 0.007,-0.01 -0.002,-0.002 -0.006,0.004 -0.0102,0.009 -0.0102,0.0102 0,0.005 0.005,0.002 0.0124,-0.008 z m 2.3012,-0.16285 c -0.002,-0.002 -0.007,-0.002 -0.0112,-5.3e-4 -0.005,0.002 -0.003,0.003 0.004,0.004 0.006,2.6e-4 0.01,-10e-4 0.008,-0.003 z m -2.03226,-0.11778 c 0.007,-0.009 0.007,-0.01 -0.002,-0.002 -0.01,0.008 -0.0128,0.0124 -0.008,0.0124 0.001,0 0.006,-0.005 0.0102,-0.0102 z m 0.0928,-0.0862 c 0.008,-0.008 0.0124,-0.0146 0.0108,-0.0146 -0.002,0 -0.009,0.007 -0.0166,0.0146 -0.008,0.008 -0.0124,0.0146 -0.0108,0.0146 0.002,0 0.009,-0.007 0.0166,-0.0146 z"
           id="path333" />
      </g>
    </g>
    <path
       id="path2327"
       style="fill:#fcfcfc;fill-opacity:1;stroke-width:3.77953"
       d="m 50.148063,42.190783 c -0.01532,0.0033 -0.0278,0.0072 -0.03586,0.01073 -1.130875,0.301203 -2.571491,1.079826 -2.571491,1.079826 0,0 -0.575697,0.548793 0.763003,0.40141 0,0 0.673485,-0.365627 1.178762,-0.506973 3.98e-4,-1.27e-4 0.0012,-1.34e-4 0.0017,-2.59e-4 0.01038,-0.0035 0.02166,-0.0059 0.03212,-0.0085 0,0 8.15e-4,-1.29e-4 8.15e-4,-1.29e-4 0.05059,-0.0133 0.09999,-0.0249 0.145792,-0.03265 0.01177,-0.0032 0.02355,-0.0064 0.03522,-0.0095 0.02018,-0.0053 0.04,-0.01044 0.06042,-0.01519 0.01796,-0.0042 0.03567,-0.0074 0.05379,-0.01076 0.0048,-8.87e-4 0.01024,-0.0021 0.01504,-0.003 0.01447,-0.0026 0.02842,-0.0044 0.04299,-0.0068 0.01992,-0.0032 0.03989,-0.0064 0.05978,-0.0089 0.292209,-0.09052 1.209574,-0.304944 2.396122,0.135157 0,0 3.512945,0.297721 2.401358,-0.526522 -0.0019,-0.0012 -0.0037,-0.0023 -0.0055,-0.0036 -9.08e-4,-4.59e-4 -0.0013,-7.86e-4 -0.0019,-0.0013 l -8.7e-5,-5.6e-4 c -9.49e-4,-7.11e-4 -0.002,-0.0017 -0.0029,-0.0024 l -0.0028,-0.0018 c -9.4e-4,-6.54e-4 -0.0019,-0.0011 -0.0028,-0.0018 -9.3e-4,-5.98e-4 -0.0019,-0.0013 -0.0028,-0.0018 -9.09e-4,-4.59e-4 -0.0018,-6.94e-4 -0.0027,-0.0012 -0.0019,-0.001 -0.0037,-0.0025 -0.0055,-0.0036 l -0.0054,-0.0031 c -8.94e-4,-3.74e-4 -0.0014,-9.25e-4 -0.0019,-0.0013 l -8.9e-5,-5.6e-4 c -0.0018,-5.53e-4 -0.0039,-8.45e-4 -0.0051,-0.0014 -0.0019,-10e-4 -0.0052,-0.0018 -0.0069,-0.0028 l -8.9e-5,-5.6e-4 c -0.0022,-6.57e-4 -0.0039,-0.0012 -0.0052,-0.002 -0.0013,-2.82e-4 -0.0042,-5.57e-4 -0.0051,-8.95e-4 l -8.16e-4,1.29e-4 c -8.99e-4,-4.02e-4 -0.0018,-8.62e-4 -0.0027,-0.0012 -4.65e-4,-3e-4 -9.31e-4,-5.99e-4 -0.0018,-8.34e-4 l -9.04e-4,-4.3e-4 c -4.57e-4,-2.44e-4 -0.0044,-9.3e-5 -0.005,-3.36e-4 -4.44e-4,-1.97e-4 -0.0012,1.1e-5 -0.0018,-3.01e-4 l -9.04e-4,-4.31e-4 c -8.9e-4,-3.47e-4 -0.0018,-3.86e-4 -0.0026,-7.04e-4 -0.0013,-3.39e-4 -0.0026,-7.31e-4 -0.0035,-0.0011 -0.0034,-6.59e-4 -0.0053,-0.0014 -0.0085,-0.0021 -0.0034,-7.43e-4 -0.0053,-0.0017 -0.0086,-0.0026 -0.0035,-9.65e-4 -0.0047,-0.0028 -0.008,-0.0038 -0.0035,-9.67e-4 -0.0054,-0.0021 -0.0087,-0.0031 -0.0013,-8.42e-4 -0.0036,-0.0018 -0.0053,-0.0025 -0.0018,-3.01e-4 -0.0026,-7.03e-4 -0.0043,-0.001 -1.329531,-0.257061 -1.610671,-0.24065 -1.610675,-0.240649 -1.406537,-0.265955 -2.586168,-0.257881 -2.848881,-0.206295 z m 4.775267,0.127272 c 0.0012,1.14e-4 0.0026,2.56e-4 0.0042,4.45e-4 -0.0012,-1.42e-4 -0.0026,-3.68e-4 -0.0042,-4.45e-4 z m -0.221289,0.06087 c -0.002,10e-4 -0.0034,0.002 -0.0053,0.0031 0.0023,-0.0016 0.004,-0.0024 0.0053,-0.0031 z m -0.02524,0.01577 c -0.0011,8.93e-4 -0.0019,0.0013 -0.003,0.0022 0.0011,-7.26e-4 0.0019,-0.0013 0.003,-0.0022 z m 0.0041,0.05707 c 0.0038,6.78e-4 0.0063,0.0012 0.0093,0.0019 -0.003,-6.11e-4 -0.0055,-0.0012 -0.0093,-0.0019 z m 0.0416,0.01024 c 0.0013,3.38e-4 0.0022,7.96e-4 0.0035,0.0011 -0.0013,-3.38e-4 -0.0022,-7.68e-4 -0.0035,-0.0011 z m -0.006,0.02898 c 0.0023,0.0011 0.0048,0.0023 0.007,0.0034 -0.0023,-10e-4 -0.0048,-0.0023 -0.007,-0.0034 z"
       clip-path="url(#clipPath22175)"
       inkscape:export-filename="C:\Users\Manveer Chauhan\Documents\Inkscape\g8915.png"
       inkscape:export-xdpi="95.152725"
       inkscape:export-ydpi="95.152725" />
    <path
       d="m 64.673957,42.970743 c 0,0 1.29943,-0.333992 2.38874,-0.707021 0,0 4.632412,-0.203433 4.763705,1.188389 0,0 -0.44937,0.523554 -1.215721,0.128444 -0.766382,-0.395109 -1.220866,-0.425536 -1.220866,-0.425536 -1.569923,0.02926 -2.659516,0.255598 -2.659516,0.255598 -3.000148,0.06013 -2.056351,-0.439831 -2.056351,-0.439831 z"
       id="path12330"
       style="fill:#fcfcfc;fill-opacity:1;stroke-width:3.77954"
       clip-path="url(#clipPath22716)"
       inkscape:export-filename="C:\Users\Manveer Chauhan\Documents\Inkscape\g8915.png"
       inkscape:export-xdpi="95.152725"
       inkscape:export-ydpi="95.152725" />
    <path
       d="m 57.13898,25.772611 -0.01866,7.241936 c 0,0 -0.19162,2.475013 3.050763,2.784916 0,0 2.926471,0.18296 3.194635,-3.12197 l 0.128365,-6.771116 c -0.730175,-0.691331 -1.330497,0.01845 -1.330497,0.01845 l -0.152843,6.765805 c 0,0 0.02559,1.563414 -1.598211,1.677221 0,0 -1.819878,0.32382 -1.947741,-1.585292 l 0.02228,-6.83058 c 0,0 -0.584669,-0.88871 -1.36233,-0.141463 z"
       id="path32525"
       style="fill:#fcfcfc;fill-opacity:1;stroke-width:3.77953"
       inkscape:export-filename="C:\Users\Manveer Chauhan\Documents\Inkscape\g8915.png"
       inkscape:export-xdpi="95.152725"
       inkscape:export-ydpi="95.152725" />
    <path
       d="m 54.709669,37.486743 c 0,0 7.93691,6.000954 3.795342,14.270617 l 3.24601,0.08077 c 0,0 -0.277481,1.622391 -1.718932,1.928942 0,0 -1.924107,0.03181 -2.803594,-2.049337 0,0 5.015518,-7.683968 -2.518813,-14.23106 z"
       id="path5609"
       style="fill:#fcfcfc;fill-opacity:1;stroke-width:3.77953"
       inkscape:export-filename="C:\Users\Manveer Chauhan\Documents\Inkscape\g8915.png"
       inkscape:export-xdpi="95.152725"
       inkscape:export-ydpi="95.152725" />
    <g
       id="g8885"
       transform="matrix(1.5376552,-0.26102912,0.26102912,1.5376552,10.13749,-4.2428392)"
       inkscape:export-filename="C:\Users\Manveer Chauhan\Documents\Inkscape\g8915.png"
       inkscape:export-xdpi="95.152725"
       inkscape:export-ydpi="95.152725"
       style="stroke-width:2.42331">
      <ellipse
         style="fill:#fcfcfc;fill-opacity:1;stroke-width:0.157514;stroke-miterlimit:4;stroke-dasharray:none"
         id="path8386"
         cx="15.257963"
         cy="51.337925"
         rx="1.0914062"
         ry="1.0666015" />
      <ellipse
         style="fill:#fcfcfc;fill-opacity:1;stroke-width:0.157514;stroke-miterlimit:4;stroke-dasharray:none"
         id="ellipse8474"
         cx="14.12898"
         cy="53.05439"
         rx="1.0914062"
         ry="1.0666015" />
      <ellipse
         style="fill:#fcfcfc;fill-opacity:1;stroke-width:0.157514;stroke-miterlimit:4;stroke-dasharray:none"
         id="ellipse8476"
         cx="13.966459"
         cy="55.164196"
         rx="1.0914062"
         ry="1.0666015" />
      <ellipse
         style="fill:#fcfcfc;fill-opacity:1;stroke-width:0.157514;stroke-miterlimit:4;stroke-dasharray:none"
         id="ellipse8478"
         cx="14.56577"
         cy="57.211884"
         rx="1.0914062"
         ry="1.0666015" />
      <ellipse
         style="fill:#fcfcfc;fill-opacity:1;stroke-width:0.157514;stroke-miterlimit:4;stroke-dasharray:none"
         id="ellipse8582"
         cx="15.83223"
         cy="58.951057"
         rx="1.0914062"
         ry="1.0666015" />
      <ellipse
         style="fill:#fcfcfc;fill-opacity:1;stroke-width:0.157514;stroke-miterlimit:4;stroke-dasharray:none"
         id="ellipse8584"
         cx="17.485874"
         cy="60.267117"
         rx="1.0914062"
         ry="1.0666015" />
      <ellipse
         style="fill:#fcfcfc;fill-opacity:1;stroke-width:0.157514;stroke-miterlimit:4;stroke-dasharray:none"
         id="ellipse8586"
         cx="19.445208"
         cy="61.190315"
         rx="1.0914062"
         ry="1.0666015" />
      <ellipse
         style="fill:#fcfcfc;fill-opacity:1;stroke-width:0.157514;stroke-miterlimit:4;stroke-dasharray:none"
         id="ellipse8588"
         cx="21.56188"
         cy="61.788479"
         rx="1.0914062"
         ry="1.0666015" />
      <ellipse
         style="fill:#fcfcfc;fill-opacity:1;stroke-width:0.157514;stroke-miterlimit:4;stroke-dasharray:none"
         id="ellipse8590"
         cx="23.741844"
         cy="61.992588"
         rx="1.0914062"
         ry="1.0666015" />
      <ellipse
         style="fill:#fcfcfc;fill-opacity:1;stroke-width:0.157514;stroke-miterlimit:4;stroke-dasharray:none"
         id="ellipse8592"
         cx="25.953718"
         cy="61.817535"
         rx="1.0914062"
         ry="1.0666015" />
      <ellipse
         style="fill:#fcfcfc;fill-opacity:1;stroke-width:0.157514;stroke-miterlimit:4;stroke-dasharray:none"
         id="ellipse8594"
         cx="28.118814"
         cy="61.437191"
         rx="1.0914062"
         ry="1.0666015" />
      <ellipse
         style="fill:#fcfcfc;fill-opacity:1;stroke-width:0.157514;stroke-miterlimit:4;stroke-dasharray:none"
         id="ellipse8596"
         cx="29.827738"
         cy="60.186111"
         rx="1.0914062"
         ry="1.0666015" />
      <ellipse
         style="fill:#fcfcfc;fill-opacity:1;stroke-width:0.157514;stroke-miterlimit:4;stroke-dasharray:none"
         id="ellipse8598"
         cx="31.066801"
         cy="58.39048"
         rx="1.0914062"
         ry="1.0666015" />
      <ellipse
         style="fill:#fcfcfc;fill-opacity:1;stroke-width:0.157514;stroke-miterlimit:4;stroke-dasharray:none"
         id="ellipse8764"
         cx="31.595968"
         cy="56.472252"
         rx="1.0914062"
         ry="1.0666015" />
      <ellipse
         style="fill:#fcfcfc;fill-opacity:1;stroke-width:0.157514;stroke-miterlimit:4;stroke-dasharray:none"
         id="ellipse8766"
         cx="31.366808"
         cy="54.880737"
         rx="1.0914062"
         ry="1.0666015" />
    </g>
    <path
       id="path9946"
       style="fill:#fcfcfc;fill-opacity:1;stroke-width:3.77953"
       d="m 47.128499,56.876767 c 0.0017,0.0048 0.0048,0.0094 0.0066,0.01402 0.0017,-4.9e-5 0.0033,4.14e-4 0.0048,1.28e-4 -0.0017,-0.0048 -0.0048,-0.0094 -0.0066,-0.01402 -0.0012,-6.6e-5 -0.0032,4.13e-4 -0.0048,-1.24e-4 z m 0.0156,0.02605 c -4.14e-4,4.12e-4 -0.0017,0.0017 -0.0017,0.0017 0.0032,0.0075 0.0066,0.01402 0.0094,0.02043 4.14e-4,-4.13e-4 0.0017,-4.13e-4 0.0017,-0.0012 -0.0032,-0.0075 -0.0066,-0.01402 -0.0094,-0.02133 z m 0.537917,1.040104 c 1.93e-4,0.0066 -1.7e-5,0.01245 0.0017,0.01761 4.13e-4,0.0017 0.0032,0.0017 0.0048,0.0032 0.0012,-0.0017 0.0017,-0.0032 0.0032,-0.0048 -0.0032,-0.0048 -0.0066,-0.01083 -0.0094,-0.0156 z m 0.511534,0.644014 c -0.0017,0.0017 -0.0032,0.0033 -0.0032,0.0066 0.0032,-2.76e-4 0.0066,-0.0012 0.0094,-4.12e-4 -0.0017,-0.0017 -0.0032,-0.0033 -0.0066,-0.0048 z m 0.270045,0.179804 -4.13e-4,0.0012 c 0.0017,1.4e-4 0.0033,0.0017 0.0048,0.0017 -0.0017,-4.12e-4 -0.0032,-0.0017 -0.0032,-0.0033 z m 0.0033,0.0032 0.284881,1.67821 c 0,0 3.198856,3.433316 3.302444,4.043559 0,0 3.562392,5.882986 7.776576,5.743108 0,0 3.019588,0.21988 8.951395,-1.205657 0,0 1.797157,-0.200511 2.225052,1.08725 l 0.393344,1.084272 c 0,0 0.117435,-6.089072 0.989734,-9.271731 0,0 2.100937,-2.708905 2.74137,-7.260467 -0.0033,0.01981 -0.551912,3.639292 -2.956991,6.760785 -2.379699,3.088594 -4.61587,6.865812 -7.930991,7.062335 0,0 -7.303948,1.972374 -10.756909,-4.190774 0,0 -4.885276,-4.229146 -4.971341,-5.509703 -0.01616,-0.0066 -0.03279,-0.01245 -0.04846,-0.02114 z"
       inkscape:export-filename="C:\Users\Manveer Chauhan\Documents\Inkscape\g8915.png"
       inkscape:export-xdpi="95.152725"
       inkscape:export-ydpi="95.152725" />
    <rect
       style="fill:#fcfcfc;fill-opacity:1;stroke-width:0.297588;stroke-miterlimit:4;stroke-dasharray:none"
       id="rect32204"
       width="5.8873672"
       height="1.4734005"
       x="83.021912"
       y="137.19615"
       transform="matrix(0.50424762,-0.86355911,0.21950762,0.97561079,0,0)"
       inkscape:export-filename="C:\Users\Manveer Chauhan\Documents\Inkscape\g8915.png"
       inkscape:export-xdpi="95.152725"
       inkscape:export-ydpi="95.152725" />
    <rect
       style="fill:#fcfcfc;fill-opacity:1;stroke-width:0.297588;stroke-miterlimit:4;stroke-dasharray:none"
       id="rect38954"
       width="5.8873672"
       height="1.4734005"
       x="53.949486"
       y="127.32559"
       transform="matrix(0.25962491,-0.96570954,0.46814155,0.88365349,0,0)"
       inkscape:export-filename="C:\Users\Manveer Chauhan\Documents\Inkscape\g8915.png"
       inkscape:export-xdpi="95.152725"
       inkscape:export-ydpi="95.152725" />
    <path
       d="m 56.035374,60.229269 c 0,0 1.075898,0.164671 2.243751,-1.184283 0,0 0.656975,-0.893297 1.841875,0.146756 0,0 0.821332,-1.367314 2.334337,0.01936 0,0 1.057193,1.113031 2.096876,0.803516 -0.968398,1.202935 -2.789335,2.078641 -4.341281,1.314173 -1.733233,0.718411 -3.197604,-0.02274 -4.175558,-1.099528 z"
       id="path19168"
       style="fill:#fcfcfc;fill-opacity:1;stroke-width:3.77953"
       inkscape:export-filename="C:\Users\Manveer Chauhan\Documents\Inkscape\g8915.png"
       inkscape:export-xdpi="95.152725"
       inkscape:export-ydpi="95.152725" />
    <g
       id="g12852"
       transform="matrix(1.6906021,0,0,1.6906021,-163.44283,-10.674927)"
       style="display:inline;stroke-width:2.23561">
      <g
         id="g6190"
         style="stroke-width:2.42331"
         transform="matrix(0.92254328,0,0,0.92254328,10.236892,0.85491368)">
        <path
           d="m 142.43135,54.497657 c -2.64864,13.163394 -9.4273,12.709521 -9.4273,12.709521 -10.89303,0.957537 -11.302,-12.644598 -11.302,-12.644598 0,0 -1.30608,-1.251183 -0.80014,0.865118 0,0 -2.15775,-0.06332 -1.4725,1.552058 0,0 0.59225,1.368843 1.78347,0.334506 0,0 0.0314,1.461303 0.41295,1.869773 0,0 -1.9185,0.355554 -1.41984,1.79215 0,0 0.72602,1.386076 2.03856,0.213902 0,0 0.5393,1.285922 0.84242,1.615663 0,0 -1.71876,0.29638 -0.81471,1.888809 0,0 0.78191,1.010242 1.80968,-0.0626 0,0 0.80138,0.810628 1.77478,1.632196 0,0 -1.29797,1.339978 0.0556,2.164343 0,0 1.6193,0.688904 1.76036,-0.997217 0,0 1.20495,0.796496 2.07399,0.587779 0,0 -0.92676,1.606129 0.4806,2.041922 0,0 1.86626,0.360143 1.39631,-1.69662 0,0 1.05955,0.152681 2.24517,-0.121301 0,0 0.14305,1.979716 1.37332,1.659086 0.23364,-0.01235 1.59143,-0.353938 0.72603,-2.188437 0,0 1.2729,-0.380019 1.52055,-1.101705 0.0105,0.06374 0.23631,2.069096 1.66735,1.139266 0,0 1.411,-0.415888 0.0235,-2.478548 0.13392,-0.06129 1.05507,-0.907141 0.93502,-1.476558 0,0 0.93123,1.836712 2.05046,0.683307 0,0 1.12637,-1.586654 -0.93683,-2.267861 0,0 0.62839,-1.033215 0.76147,-1.814571 0,0 0.62615,1.415632 1.80476,0.304817 0,0 1.27136,-1.898608 -1.12818,-2.157764 0,0 0.27778,-0.936142 0.21012,-1.108301 0,0 1.34041,1.062224 1.78502,-0.529904 0,0 0.71973,-2.22667 -1.21601,-1.737395 0,0 0.12873,-0.728262 -0.44264,-0.699542 v 0 c 0,0 -0.12233,-0.50358 -0.57138,0.02871 z"
           id="path121"
           style="fill:#fcfcfc;fill-opacity:1;stroke-width:2.42331"
           clip-path="url(#clipPath5970)" />
        <path
           d="m 124.16402,60.630225 c 0,0 6.04907,1.390449 7.22624,0.761319 -0.0184,0.0032 4.18715,0.660779 7.5291,-0.198044 0.62912,0.604005 -5.77528,0.953874 -6.34141,0.846797 -0.14984,0.128241 -0.77791,0.292473 -0.8605,0.266193 0.23382,3.729702 -0.0487,3.015611 -0.0487,3.015611 0.0365,-0.267311 -0.32534,-2.067416 -0.35685,-2.101735 0.0106,-0.930197 -0.42106,-1.076038 -0.42106,-1.076038 -2.1001,0.05308 -6.72691,-1.514105 -6.72691,-1.514105 z"
           id="path11817"
           style="opacity:0.7;fill:#fcfcfc;fill-opacity:1;stroke-width:2.42331"
           sodipodi:nodetypes="cccccccccc" />
        <path
           d="m 121.02433,54.65317 c 0,0 -0.38322,4.545534 -18.7579,6.232491 0,-2e-6 16.47673,-2.80581 18.7579,-6.232491 z"
           id="path550"
           style="fill:#fcfcfc;fill-opacity:1;stroke-width:2.42331"
           clip-path="url(#clipPath8422)" />
        <path
           d="m 143.44533,55.168493 c 0,0 0.38322,4.545534 18.7579,6.232491 0,-2e-6 -16.47673,-2.80581 -18.7579,-6.232491 z"
           id="path5628"
           style="fill:#fcfcfc;fill-opacity:1;stroke-width:2.42331"
           clip-path="url(#clipPath5980)" />
      </g>
      <path
         d="m 104.5821,57.024572 c 0.0646,-0.0241 -3.64528,1.348427 -5.155504,3.419595 0,0 3.980524,-3.398011 7.993424,-3.775568 z"
         id="path8528"
         style="fill:#fcfcfc;fill-opacity:1;stroke-width:2.23561" />
      <path
         d="m 159.8762,57.499906 c -0.0646,-0.0241 3.64528,1.348427 5.15551,3.419595 0,0 -3.98053,-3.398011 -7.99342,-3.775568 z"
         id="path12631"
         style="fill:#fcfcfc;fill-opacity:1;stroke-width:2.23561" />
      <path
         d="m 99.426596,60.444167 c 0.04247,-0.0544 -2.39945,3.057607 -2.60151,5.612932 0,0 1.611805,-4.979272 4.832824,-7.402254 z"
         id="path18017"
         style="fill:#fcfcfc;fill-opacity:1;stroke-width:2.23561" />
      <path
         d="m 165.03171,60.919501 c -0.0424,-0.0544 2.39943,3.057607 2.6015,5.612932 0,0 -1.6118,-4.979272 -4.83283,-7.402254 z"
         id="path18019"
         style="fill:#fcfcfc;fill-opacity:1;stroke-width:2.23561" />
    </g>
    <path
       inkscape:original-d="M 4.646766,0.61847403"
       inkscape:path-effect="#path-effect17933"
       d="M 4.646766,0.61847403"
       id="path17935"
       style="stroke-width:0.922545" />
  </g>
</svg>
