<?xml version="1.0" encoding="UTF-8" standalone="no"?>
<!-- Created with Inkscape (http://www.inkscape.org/) -->

<svg
   width="148"
   height="113"
   viewBox="0 0 148 113"
   version="1.1"
   id="svg5"
   inkscape:version="1.1.1 (3bf5ae0d25, 2021-09-20)"
   sodipodi:docname="Krishna.svg"
   xmlns:inkscape="http://www.inkscape.org/namespaces/inkscape"
   xmlns:sodipodi="http://sodipodi.sourceforge.net/DTD/sodipodi-0.dtd"
   xmlns:xlink="http://www.w3.org/1999/xlink"
   xmlns="http://www.w3.org/2000/svg"
   xmlns:svg="http://www.w3.org/2000/svg">
  <defs
     id="defs51">
    <inkscape:path-effect
       effect="fill_between_many"
       method="originald"
       linkedpaths="#path901,0,1"
       id="path-effect17933"
       is_visible="true"
       lpeversion="0"
       join="true"
       close="true"
       autoreverse="true"
       applied="false" />
    <inkscape:path-effect
       effect="fill_between_many"
       method="originald"
       linkedpaths="#path913,0,1"
       id="path-effect995"
       is_visible="true"
       lpeversion="0"
       join="true"
       close="true"
       autoreverse="true"
       applied="false" />
    <inkscape:path-effect
       effect="fill_between_many"
       method="originald"
       linkedpaths="#path913,0,1"
       id="path-effect1463"
       is_visible="true"
       lpeversion="0"
       join="true"
       close="true"
       autoreverse="true"
       applied="false" />
    <inkscape:path-effect
       effect="fill_between_many"
       method="originald"
       linkedpaths="#path913,0,1"
       id="path-effect1467"
       is_visible="true"
       lpeversion="0"
       join="true"
       close="true"
       autoreverse="true"
       applied="false" />
    <inkscape:path-effect
       effect="fill_between_many"
       method="originald"
       linkedpaths="#path6856,0,1"
       id="path-effect6938"
       is_visible="true"
       lpeversion="0"
       join="true"
       close="true"
       autoreverse="true"
       applied="false" />
    <clipPath
       clipPathUnits="userSpaceOnUse"
       id="clipPath4398">
      <path
         id="path4400"
         style="fill:#ff0000;fill-opacity:1;fill-rule:nonzero;stroke:none"
         d="m -15.576172,-35.902344 c -10.635705,-0.500437 -18.052153,11.812975 -7.875,28.0957034 0.751734,1.2027208 1.635018,2.3160588 2.507813,3.4316406 1.221853,1.5514376 2.478224,3.0750507 3.728515,4.60351562 1.487688,1.80640918 2.919279,3.65746738 4.351563,5.50781248 0.710451,0.901368 1.398008,1.8199511 2.09375,2.7324219 5e-5,0.5519099 -0.0096,1.0963996 0.01367,1.669922 0.04498,1.108413 0.06714,2.217015 0.08594,3.326172 0.03171,1.686283 0.07715,3.372161 0.03516,5.058594 -0.04246,2.100723 -0.07914,4.203974 -0.183593,6.302734 -0.120765,2.366183 -0.284552,4.728543 -0.478516,7.089844 -0.208134,2.523676 -0.436169,5.046349 -0.722656,7.5625 -0.295198,2.587449 -0.625204,5.171348 -1.042969,7.742187 -0.446391,2.768454 -0.929775,5.532183 -1.494141,8.279297 -0.567103,2.814237 -1.161966,5.622984 -1.601562,8.460938 -0.250187,1.818993 -0.496685,3.638378 -0.488281,5.480468 0.0037,0.80338 -0.09888,1.635515 0.121093,2.408203 2.090831,7.344541 1.402057,5.897579 4.978516,10.0625 2.6724791,1.313432 5.210927,2.944487 8.0175781,3.939453 1.1249448,0.398798 2.3944486,0.337462 3.5761719,0.169922 3.9552473,-0.560758 6.4703147,-1.501648 9.4121094,-3.804687 1.2162476,-1.010962 2.3928236,-2.064371 3.5039066,-3.191406 1.298091,-1.279027 2.602506,-2.557373 3.779297,-3.951172 1.390502,-1.621158 2.745151,-3.272792 3.96875,-5.025391 1.316576,-1.974236 2.522277,-4.015287 3.488281,-6.1875 0.826416,-1.830361 1.590649,-3.687033 2.273437,-5.576172 0.723607,-2.039431 1.38367,-4.101939 1.982422,-6.18164 0.585859,-2.08794 1.132167,-4.187405 1.626953,-6.298828 0.446014,-1.931328 0.898368,-3.860401 1.330078,-5.794922 0.410859,-1.878731 0.836239,-3.757398 1.134766,-5.658204 0.270392,-1.77803 0.482705,-3.563568 0.53125,-5.363281 0.06791,-2.541107 -0.02215,-5.099372 -0.746094,-7.558593 -0.483197,-1.623762 -1.027078,-3.231734 -1.789062,-4.75 -0.641658,-1.26485 -1.326288,-2.507304 -2.142578,-3.669922 C 27.96553,12.368374 27.546092,11.715728 27.111328,11.074219 26.579281,10.264989 26.045075,9.4574581 25.509766,8.6503906 24.83697,7.6343278 24.19883,6.5947148 23.505859,5.5917969 22.746094,4.4682253 21.985266,3.3476423 21.230469,2.2207031 20.268627,0.81997005 19.296029,-0.57454818 18.316406,-1.9628906 17.141457,-3.6092983 15.95419,-5.2473465 14.724609,-6.8535156 13.329153,-8.6951226 11.939206,-10.539864 10.509766,-12.355469 8.9152728,-14.415125 7.3197904,-16.475241 5.6640625,-18.486328 4.5407084,-19.85957 3.4100387,-21.226603 2.3105469,-22.619141 2.0682311,-22.926385 1.0700804,-24.312305 1.5878906,-23.498047 -3.6592335,-31.915278 -10.05099,-35.64237 -15.576172,-35.902344 Z" />
    </clipPath>
    <clipPath
       clipPathUnits="userSpaceOnUse"
       id="clipPath4448">
      <path
         id="path4450"
         style="fill:#ff0000;fill-opacity:1;fill-rule:nonzero;stroke:none;stroke-width:0.999998"
         d="m 13.546908,49.965209 -1.904929,11.221443 19.692158,3.3429 1.904929,-11.221444 z" />
    </clipPath>
    <clipPath
       clipPathUnits="userSpaceOnUse"
       id="clipPath4480">
      <path
         id="path4482"
         style="fill:#ff0000;fill-opacity:1;fill-rule:nonzero;stroke:none"
         d="m -16.5625,-35.912109 c -10.094824,0.282672 -16.747789,12.331575 -6.888672,28.1054684 0.751734,1.2027208 1.635018,2.3160588 2.507813,3.4316406 1.221853,1.5514376 2.478224,3.0750507 3.728515,4.60351562 1.487688,1.80640918 2.919279,3.65746738 4.351563,5.50781248 0.710451,0.901368 1.398008,1.8199511 2.09375,2.7324219 5e-5,0.5519099 -0.0096,1.0963995 0.01367,1.669922 0.03098,0.763452 0.04291,1.527264 0.05859,2.291016 0.478582,-2.02646 1.0488337,-4.0327502 1.6640629,-6.0214849 0.8347268,-2.7013186 1.8445546,-5.3427131 2.9453125,-7.9453125 0.892339,-2.1013797 1.8640947,-4.1664799 2.9101562,-6.1953125 0.8757053,-1.6525067 1.7906911,-3.2834281 2.7402344,-4.8945311 0.87670885,-1.536991 1.8342692,-3.016509 2.8632812,-4.455078 0.6968659,-0.920082 1.460058,-1.785458 2.2421876,-2.632813 -0.790196,-0.964533 -1.5846639,-1.925576 -2.3574219,-2.904297 -0.2423158,-0.307244 -1.2404665,-1.693164 -0.7226563,-0.878906 -5.2471241,-8.417231 -11.6388806,-12.144323 -17.1640626,-12.404297 -0.332366,-0.01564 -0.660689,-0.01888 -0.986328,-0.0098 z m 5.414062,65.615234 c -0.05427,0.737282 -0.0879,1.475899 -0.148437,2.212891 -0.208134,2.523676 -0.436169,5.046349 -0.722656,7.5625 -0.295198,2.587449 -0.625204,5.171348 -1.042969,7.742187 -0.446391,2.768454 -0.929775,5.532183 -1.494141,8.279297 -0.567103,2.814237 -1.161966,5.622983 -1.601562,8.460938 -0.250187,1.818993 -0.496685,3.638378 -0.488281,5.480468 0.0037,0.80338 -0.09888,1.635515 0.121093,2.408203 2.090831,7.344541 1.402057,5.897579 4.978516,10.0625 2.6724791,1.313432 5.210927,2.944488 8.0175781,3.939453 1.1249448,0.398798 2.3944486,0.337462 3.5761719,0.169922 0.43242302,-0.06131 0.79097199,-0.150978 1.1914062,-0.222656 -1.44785356,-1.254111 -2.7974425,-2.643542 -4.25,-3.890625 -0.4999714,-0.853098 -1.0822057,-1.662382 -1.5,-2.558594 -2.0471231,-4.391291 -2.8070482,-9.122861 -3.4550781,-13.875 -0.552076,-4.38255 -0.8706474,-8.789903 -1.1738281,-13.195312 -0.2017119,-3.071988 -0.3874619,-6.143415 -0.5976562,-9.214844 -0.2074643,-3.031534 -0.057989,-5.752483 0.3476562,-8.193359 -0.5673071,-1.236056 -0.980867,-2.599041 -1.402344,-3.832032 -0.130158,-0.442451 -0.24758,-0.88819 -0.355469,-1.335937 z M 3.2011719,61.558594 c -0.00783,0.0018 -0.01561,0.004 -0.023437,0.0059 0,0 -0.00195,0.002 -0.00195,0.002 -0.073586,0.06163 -0.2971763,0.219906 -0.2207031,0.167969 0.083446,-0.05667 0.1640434,-0.117103 0.2460938,-0.175781 z" />
    </clipPath>
    <clipPath
       clipPathUnits="userSpaceOnUse"
       id="clipPath4549">
      <path
         id="path4551"
         style="fill:#ff0000;fill-opacity:1;fill-rule:nonzero;stroke:none;stroke-width:1.55965"
         d="m 103.31059,13.70151 c -0.18486,0.723132 -0.39663,1.438289 -0.63478,2.14557 -0.18058,0.505516 -0.36489,1.009862 -0.55752,1.510885 -0.2824,0.728346 -0.63599,1.424144 -1.0143,2.10655 -0.27629,0.502819 -0.57085,0.994552 -0.87735,1.479454 -0.333626,0.511377 -0.688841,1.006836 -1.059802,1.49167 -0.570298,0.756525 -1.234857,1.432854 -1.935057,2.06837 -0.619688,0.56176 -1.293865,1.056009 -1.980999,1.5309 -0.92845,0.644944 -1.942953,1.145117 -2.955938,1.639758 -0.936269,0.463186 -1.885226,0.900257 -2.844606,1.313164 -0.566931,0.239691 -1.144547,0.452671 -1.72392,0.659999 l -1.278057,7.528701 c 0.0017,0.41593 -0.01001,0.832359 -0.03401,1.24791 -0.0433,0.762565 -0.159176,1.518589 -0.288873,2.270341 -0.148783,0.836983 -0.379006,1.654886 -0.635532,2.464262 -0.03266,0.100518 -0.07396,0.197886 -0.107744,0.297989 l -3.442244,20.277368 38.864542,6.597563 8.23275,-48.497033 c -0.0248,-0.633289 -0.0428,-1.267071 -0.0178,-1.900688 0.0132,-0.508246 0.0232,-1.016822 0.0239,-1.525254 5e-4,-0.112801 0.003,-0.225627 0.004,-0.338446 z" />
    </clipPath>
    <clipPath
       clipPathUnits="userSpaceOnUse"
       id="clipPath4598">
      <path
         id="path4600"
         style="fill:#ff0000;fill-opacity:1;fill-rule:nonzero;stroke:none;stroke-width:921.589"
         d="m 131.34273,3.5697341e-4 c 0.0365,0.44152044659 0.0695,0.88368321659 0.0947,1.32626562659 0.0495,0.93141 0.0652,1.8644237 0.0543,2.7969418 -0.015,0.8126489 -0.0666,1.6241729 -0.13171,2.4341827 -0.0565,0.7073299 -0.14234,1.411115 -0.253,2.1118582 -0.0862,0.4876648 -0.17596,0.9748379 -0.27381,1.4602787 -0.14439,0.706054 -0.35856,1.393499 -0.59728,2.072579 -0.17366,0.49999 -0.36565,0.992716 -0.56955,1.481074 -0.22448,0.516624 -0.47107,1.022105 -0.73361,1.520353 -0.4019,0.776137 -0.90191,1.493888 -1.44064,2.18002 -0.47689,0.606617 -1.01376,1.160247 -1.56541,1.698267 -0.74487,0.72995 -1.59037,1.341512 -2.43533,1.947809 -0.78005,0.565842 -1.57568,1.109891 -2.38451,1.633571 -1.11185,0.709764 -2.27792,1.330076 -3.45083,1.931634 -0.0262,0.01339 -0.0534,0.0248 -0.0797,0.03812 0.0909,0.204849 0.18427,0.408923 0.27034,0.615766 0.12241,0.289606 0.29282,0.719311 0.47482,1.154128 0.18644,0.441096 0.36032,0.887715 0.52681,1.336663 0.18783,0.504496 0.348,1.018574 0.49793,1.535372 0.23341,0.796779 0.36507,1.616303 0.45634,2.43996 0.0784,0.700261 0.0897,1.40578 0.0878,2.109547 -0.006,0.784236 -0.0892,1.563688 -0.19756,2.33945 -0.0843,0.57334 -0.18804,1.143027 -0.30846,1.70982 -0.13669,0.648038 -0.32698,1.2823 -0.53027,1.911994 -0.17375,0.557845 -0.37588,1.106085 -0.58342,1.652056 -0.24499,0.66066 -0.52886,1.305221 -0.82718,1.943187 -0.41043,0.880779 -0.93152,1.701902 -1.47877,2.502344 -0.66135,1.009803 -1.49593,1.877126 -2.36948,2.702209 -0.89266,0.807987 -1.88871,1.490375 -2.87782,2.173088 -0.63366,0.433866 -1.26817,0.866391 -1.89582,1.308937 -2.25439,1.615518 -3.54718,1.944954 -7.13041,2.070268 -0.98283,0.03437 -2.002946,-0.28388 -2.839686,-0.800609 -0.508554,-0.314062 -0.973139,-0.688102 -1.42562,-1.079035 -0.232747,0.04148 -0.469904,0.0811 -0.720897,0.116683 -0.256129,0.03631 -0.518817,0.05785 -0.782127,0.06701 -0.08155,0.411 -0.161662,0.822277 -0.240299,1.233843 0.04981,0.40758 0.101967,0.814896 0.143255,1.223445 0.10748,1.089926 0.193212,2.18184 0.236833,3.276385 0.0522,1.335104 0.08254,2.672967 0.0012,4.007681 -0.108089,1.52202 -0.269859,3.047778 -0.679307,4.522933 -0.16034,0.560031 -0.337607,1.115407 -0.525654,1.667075 h 94.451382 v -1.022429 c -0.14951,-0.107701 -0.2987,-0.215881 -0.44825,-0.323476 -1.25935,-0.942517 -2.47904,-1.94675 -3.47972,-3.170102 -0.63392,-0.795409 -1.23988,-1.611023 -1.77567,-2.476928 -0.51108,-0.82849 -1.00235,-1.670637 -1.43371,-2.543933 -0.46067,-0.943498 -0.89745,-1.899951 -1.23615,-2.89514 -0.30991,-0.909608 -0.60039,-1.826532 -0.83065,-2.759973 -0.22462,-0.908669 -0.43228,-1.822132 -0.58457,-2.746109 -0.16796,-0.956716 -0.32838,-1.914712 -0.42977,-2.881277 -0.10793,-0.951154 -0.20182,-1.90405 -0.27958,-2.858173 -0.0468,-0.531627 -0.096,-1.062919 -0.14441,-1.594291 -0.97508,-0.767914 -1.93271,-1.558234 -2.85586,-2.389126 -0.38387,-0.35445 -0.77458,-0.701354 -1.15182,-1.062862 -1.45542,-1.394764 -2.77895,-2.919551 -4.02501,-4.50214 -1.25067,-1.581562 -2.46955,-3.187928 -3.62527,-4.840638 -1.08119,-1.53453 -2.14262,-3.08372 -3.1366,-4.676589 -0.81256,-1.282529 -1.63506,-2.558714 -2.43649,-3.84825 -0.57531,-0.933793 -1.14409,-1.871451 -1.71213,-2.80965 -0.54409,-0.910177 -1.10104,-1.815452 -1.57581,-2.764593 -0.37407,-0.747376 -0.7281,-1.503454 -1.03398,-2.281686 -0.27027,-0.717396 -0.51907,-1.442632 -0.72205,-2.182331 -0.13744,-0.528859 -0.26441,-1.058523 -0.36623,-1.595447 -0.12861,-0.6059973 -0.24856,-1.2140907 -0.3281,-1.8288131 -0.0664,-0.4643085 -0.1359,-0.9284116 -0.21372,-1.3909618 -0.13435,-0.8130068 -0.26443,-1.6274749 -0.34428,-2.4480461 -0.0997,-0.9636144 -0.19355,-1.928939 -0.22759,-2.8974514 -0.017,-0.5271838 -0.0287,-1.05524951 -0.03,-1.58273862659 z" />
    </clipPath>
    <inkscape:path-effect
       effect="fill_between_many"
       method="originald"
       linkedpaths="#path24115,0,1"
       id="path-effect24197" />
    <inkscape:path-effect
       effect="fill_between_many"
       method="originald"
       linkedpaths="#path31175,0,1"
       id="path-effect31257" />
    <inkscape:path-effect
       effect="fill_between_many"
       method="originald"
       linkedpaths="#path34687,0,1"
       id="path-effect34771" />
    <inkscape:path-effect
       effect="fill_between_many"
       method="originald"
       linkedpaths="#path41322,0,1"
       id="path-effect41324" />
    <inkscape:path-effect
       effect="fill_between_many"
       method="originald"
       linkedpaths="#path6725,0,1"
       id="path-effect6807" />
    <inkscape:path-effect
       effect="fill_between_many"
       method="originald"
       linkedpaths="#path1390,0,1|#path1558,0,1"
       id="path-effect1640" />
  </defs>
  <sodipodi:namedview
     id="namedview49"
     pagecolor="#ffffff"
     bordercolor="#999999"
     borderopacity="1"
     inkscape:pageshadow="0"
     inkscape:pageopacity="0"
     inkscape:pagecheckerboard="0"
     showgrid="false"
     inkscape:zoom="11.313708"
     inkscape:cx="95.591998"
     inkscape:cy="80.565979"
     inkscape:window-width="1920"
     inkscape:window-height="1001"
     inkscape:window-x="-9"
     inkscape:window-y="-9"
     inkscape:window-maximized="1"
     inkscape:current-layer="layer1-3"
     height="119px"
     units="px"
     showguides="true"
     inkscape:guide-bbox="true">
    <sodipodi:guide
       position="58.336309,61.778953"
       orientation="0,-1"
       id="guide974" />
    <sodipodi:guide
       position="58,50.09375"
       orientation="0,-1"
       id="guide1090" />
    <sodipodi:guide
       position="102.5,53.875"
       orientation="0,-1"
       id="guide2513" />
    <sodipodi:guide
       position="70.401319,48.343924"
       orientation="0,-1"
       id="guide3184" />
    <sodipodi:guide
       position="82.4375,55.3125"
       orientation="0,-1"
       id="guide5421" />
    <sodipodi:guide
       position="89.007066,65.977399"
       orientation="0,-1"
       id="guide1582" />
    <sodipodi:guide
       position="83.891592,82.660699"
       orientation="0,-1"
       id="guide1455" />
    <sodipodi:guide
       position="72.59375,77.703125"
       orientation="0,-1"
       id="guide1283" />
    <sodipodi:guide
       position="80.1875,64.53125"
       orientation="0,-1"
       id="guide1479" />
  </sodipodi:namedview>
  <g
     inkscape:groupmode="layer"
     id="layer3"
     inkscape:label="Bead">
    <circle
       style="fill:#7f3700;fill-opacity:1;stroke-width:240;stroke-linecap:round;paint-order:markers fill stroke"
       id="path22793"
       cx="74.708145"
       cy="15.4815"
       r="1.2801071" />
  </g>
  <g
     inkscape:label="Layer 1"
     inkscape:groupmode="layer"
     id="layer1">
    <g
       id="g21992"
       transform="translate(-0.78373906,0.75108326)">
      <circle
         style="fill:#7f3700;fill-opacity:1;stroke-width:240;stroke-linecap:round;paint-order:markers fill stroke"
         id="use21987"
         cx="93.068451"
         cy="24.614649"
         r="1.3454187" />
    </g>
    <g
       inkscape:label="Layer 1"
       id="layer1-3"
       style="display:inline;stroke-width:2.42331"
       transform="matrix(1.5376552,-0.26102912,0.26102912,1.5376552,-103.82901,14.566843)"
       inkscape:export-filename="C:\Users\Manveer Chauhan\Documents\Inkscape\g8915.png"
       inkscape:export-xdpi="95.152725"
       inkscape:export-ydpi="95.152725"
       clip-path="url(#clipPath4549)">
      <path
         id="path36"
         clip-path="url(#clipPath5960)"
         style="fill:#8a460f;fill-opacity:1;stroke-width:3.77953"
         transform="matrix(0.63212446,0.10730812,-0.10730812,0.63212446,67.195997,1.9336383)"
         d="m 83.085938,10.583984 c -0.229444,4.1e-4 -0.458303,0.0074 -0.6875,0.01758 -0.226162,0.01062 -0.453818,0.02141 -0.679688,0.03711 -0.195085,0.01437 -0.389695,0.0298 -0.583984,0.05273 -0.181428,0.02181 -0.362487,0.04763 -0.542969,0.07617 -0.137488,0.02209 -0.274958,0.04426 -0.412109,0.06836 -0.163908,0.0288 -0.319195,0.04485 -0.470704,0.05664 -0.0593,0.05459 -0.152343,0.138672 -0.152343,0.138672 C 74.553612,12.289717 74.5,16.798828 74.5,16.798828 c -1.840232,0.0055 -1.169922,2.142578 -1.169922,2.142578 -15.215325,1.355471 -20.142578,11.5 -20.142578,11.5 -9.997139,11.005261 -7.080078,21.556641 -7.080078,21.556641 0,0 0.327409,4.344406 5.427734,7.876953 0,-4e-6 3.354708,1.780945 0.365235,5.767578 0,0 -1.797058,2.240764 4.144531,5.126953 0,0 3.922984,9.255481 -17.185547,19.283203 -4e-6,10e-7 -1.71224,3.767366 13.537109,-2.810546 0,0 3.626742,-1.53419 6.138672,-4.210938 0,0 -1.316467,-2.334438 1.433594,-3.005859 0,0 -0.972196,-3.313596 2.546875,-1.865235 0,0 0.906245,-3.146687 0.933594,-5.189453 0,0 -0.197906,-3.394919 -0.951879,-6.028691 0,0 -1.891029,-1.019335 -2.198512,-4.035762 0,0 -1.017999,3.813136 -3.352215,0 -0.963925,-2.013566 -2.339059,-4.089161 -4.197035,-5.21875 -1.714852,-2.169523 -1.314627,-6.466453 1.848727,-6.466453 3.385578,0 4.769188,7.954952 4.769188,7.954952 0.290653,-4.696384 -1.019097,-9.401284 -0.937742,-12.108663 0.574711,-7.902095 9.897999,-11.215832 16.453061,-13.55757 7.382056,-2.567682 9.123011,-6.09408 9.478516,-8.109375 -0.689672,3.495048 -2.498047,4.923828 -2.498047,4.923828 10.181933,6.352257 8.289828,16.603515 8.289828,16.603515 C 89.209237,52.81607 89.25,59.125 89.25,59.125 c 1.313584,-7.903953 4.734835,-7.9375 4.734835,-7.9375 4.198276,0.03355 1.271024,6.5 1.271024,6.5 -1.305433,0.125 -2.948453,5.21875 -2.948453,5.21875 -1.513605,2.755126 -2.494228,1.273288 -3.184359,-0.0293 0.411078,1.852978 -2.855469,7.568359 -2.855469,7.568359 -0.710996,0.632138 -1.068359,8.775395 -1.068359,8.775391 4.376442,-0.129206 2.46289,3.058594 2.46289,3.058594 1.708909,0.425912 0.933594,1.886719 0.933594,1.886719 3.631674,0.30408 3.957031,3.419921 3.957031,3.419922 1.682524,2.680719 5.414063,2.695312 5.414063,2.695312 1.360003,0.178282 2.250003,-0.927734 2.250003,-0.927734 0.3265,-1.692026 -0.621097,-2.451172 -0.621097,-2.451172 -8.024987,-1.937727 -5.919922,-5.951172 -5.919922,-5.951172 2.862684,-1.815702 1.88086,-2.773438 1.88086,-2.773438 -2.545415,-2.943385 -1.998047,-3.34375 -1.998047,-3.34375 1.766263,-2.169625 2.726566,-3.22461 2.726562,-3.224609 1.982911,-2.17779 0.21875,-4.128906 0.21875,-4.128906 -2.90566,-1.450202 -2.158203,-4.574216 -2.158203,-4.574216 0.09723,-0.650107 1.269908,-2.087711 1.644336,-2.577474 1.184513,-1.54938 1.841992,-3.096354 1.841992,-3.096354 7.132879,-15.224258 -6.4375,-29.492188 -6.4375,-29.492188 3.098969,-0.423784 1.216797,-3.070312 1.216797,-3.070312 5.492063,-4.911464 0.925465,-10.343646 0.902344,-10.371094 -0.145116,-0.07819 -0.28962,-0.157481 -0.435547,-0.234375 C 92.415494,13.71847 91.749914,13.37855 91.085938,13.035156 90.385116,12.67309 89.686451,12.30463 88.988281,11.9375 c -0.138177,-0.07261 -0.275984,-0.145941 -0.414062,-0.21875 -0.178121,-0.05473 -0.361876,-0.122205 -0.552735,-0.207031 0.07059,0.03063 -0.02798,-0.0062 -0.04883,-0.01367 -0.139936,-0.05293 -0.27986,-0.107516 -0.419922,-0.160156 -0.173638,-0.06524 -0.34842,-0.128026 -0.523437,-0.189453 -0.165429,-0.05882 -0.331264,-0.115072 -0.498047,-0.169922 -0.148518,-0.0492 -0.297483,-0.09548 -0.447266,-0.140625 -0.15243,-0.04723 -0.306843,-0.0895 -0.460937,-0.13086 -0.08528,-0.02204 -0.17068,-0.04381 -0.255859,-0.06641 -0.147217,-0.0081 -0.29386,-0.01586 -0.441407,-0.02148 -0.197687,-0.0074 -0.395979,-0.01308 -0.59375,-0.01758 -0.21234,-0.0048 -0.424349,-0.0085 -0.636719,-0.01172 -0.20306,-0.0025 -0.406295,-0.0061 -0.609374,-0.0059 z"
         sodipodi:nodetypes="cccccsccccccsccscccccccccccccccccccccccccccccccccccsccccccccccccccccccccc" />
    </g>
    <g
       id="g8915"
       transform="matrix(1.414722,-0.24016024,0.24016024,1.414722,-46.541782,-24.229617)"
       inkscape:export-filename="C:\Users\Manveer Chauhan\Documents\Inkscape\g8915.png"
       inkscape:export-xdpi="95.152725"
       inkscape:export-ydpi="95.152725"
       style="stroke-width:2.63389">
      <g
         id="g24890"
         transform="matrix(0.8453332,0.091257,-0.091257,0.8453332,-18.230841,-22.437489)"
         style="stroke-width:3.0978">
        <path
           id="path2820"
           style="fill:#8a460f;fill-opacity:1;stroke-width:4.44523"
           d="m -4.0214844,-34.150391 c 1.559299,1.146947 2.625,2.990235 2.625,2.990235 0.65316463,1.630149 -0.4707031,1.115234 -0.4707031,1.115234 -0.076131,2.600933 0.8242187,5.41211 0.8242187,5.41211 -0.7334733,-0.440145 -1.1874994,-2.291016 -1.1875,-2.291016 -1.3023578,3.138486 0.5410157,5.412109 0.5410157,5.412109 -0.044892,0.289943 -0.8632813,-0.935547 -0.8632813,-0.935547 -0.6723457,2.137502 2.00976565,3.800782 2.00976565,3.800782 8.4592e-4,0.282178 -1.13085935,-0.279297 -1.13085935,-0.279297 0.1319896,0.777517 1.53913063,4.350336 7.1992187,4.707031 1.9249444,0.121308 3.4052306,0.45965 4.5292974,0.851562 0.587184,0.06068 1.167132,0.174721 1.746093,0.28711 0.671932,0.130395 1.340658,0.280873 2.007813,0.433594 0.689949,0.158295 1.376876,0.324258 2.060547,0.507812 0.277183,0.07482 0.551532,0.161152 0.826171,0.246094 -0.16907,-0.53699 -0.317086,-1.081499 -0.414062,-1.636719 -0.08901,-0.487002 -0.167376,-0.976681 -0.222656,-1.46875 -0.01412,-0.121556 -0.02555,-0.2436 -0.03906,-0.365234 -0.04421,-0.112841 -0.09064,-0.224859 -0.128906,-0.339844 -0.05417,-0.159696 -0.107827,-0.320277 -0.154297,-0.482422 -0.0388,-0.135622 -0.07485,-0.272909 -0.107422,-0.410156 -0.03221,-0.140116 -0.06089,-0.2796 -0.08203,-0.421875 -0.01768,-0.114901 -0.03641,-0.230093 -0.04883,-0.345703 -0.01244,-0.127291 -0.02244,-0.254978 -0.02734,-0.382813 -0.0043,-0.105751 -0.009,-0.212505 -0.0078,-0.318359 v -0.154297 c -1.82e-4,-0.197704 0.01292,-0.382258 0.0332,-0.558594 -0.108995,-1.007753 -0.06055,-1.640625 -0.06055,-1.640625 -0.627275,-0.646397 -0.388672,-2.851562 -0.388672,-2.851562 0.674054,-1.573134 -1.257807,-4.634766 -1.257813,-4.634766 0.21571,0.716265 -0.09961,1.900391 -0.09961,1.900391 -0.477991,-1.706943 -2.787109,-3.384766 -2.787109,-3.384766 0.17773,0.769767 -0.171875,1.486328 -0.171875,1.486328 -0.310568,-1.829476 -4.1660159,-3.197265 -4.1660159,-3.197265 0.4962157,0.151043 0.3242188,1.074218 0.3242188,1.074218 -0.2001607,-0.624791 -3.7578125,-1.904292 -3.7578125,-1.904297 -0.6921255,0.635102 -4.6269526,-1.753906 -4.6269532,-1.753906 0.76538414,0.90523 0.50585945,1.042969 0.50585942,1.042969 -0.74732202,0.03275 -3.03125002,-1.509766 -3.03125002,-1.509766 z"
           transform="matrix(0.68705333,0.11663273,-0.11663273,0.68705333,108.15388,75.740407)" />
        <a
           id="a5124"
           transform="matrix(0.88135653,0,0,0.90370922,-32.611066,11.669203)"
           style="opacity:1;fill:#ffffff;stroke-width:3.47104">
          <path
             id="path5578"
             style="opacity:1;fill:#ffffff;stroke-width:4.08621"
             inkscape:transform-center-x="0.0068682328"
             inkscape:transform-center-y="-0.35749333"
             d="m 167.88186,58.604044 c -0.73876,-0.767729 -0.91011,-1.740205 -0.45276,-2.663124 0.45736,-0.922919 1.45508,-1.377549 2.44338,-1.113396 0.98831,0.264152 1.58975,1.228595 1.67165,2.295641 0,0 0.028,0.499531 -0.47069,0.441613 -0.49868,-0.0579 -1.02114,-0.04457 -1.37659,0.120371 -0.34574,0.160439 -0.44514,0.607936 -0.78684,0.956768 -0.35095,0.358331 -1.02815,-0.03787 -1.02815,-0.03787 z"
             sodipodi:nodetypes="csscsssc" />
        </a>
        <a
           id="a22892"
           transform="matrix(0.51033534,0,0,0.56797135,30.142578,30.746418)"
           style="opacity:1;fill:#8a460f;fill-opacity:1;stroke-width:5.75385">
          <path
             id="path22890"
             style="opacity:1;fill:#8a460f;fill-opacity:1;stroke-width:6.77361"
             inkscape:transform-center-x="0.0068682328"
             inkscape:transform-center-y="-0.35749333"
             d="m 167.88186,58.604044 c -0.73876,-0.767729 -0.91011,-1.740205 -0.45276,-2.663124 0.45736,-0.922919 1.45508,-1.377549 2.44338,-1.113396 0.98831,0.264152 1.58975,1.228595 1.67165,2.295641 0,0 0.028,0.499531 -0.47069,0.441613 -0.49868,-0.0579 -1.02114,-0.04457 -1.37659,0.120371 -0.34574,0.160439 -0.44514,0.607936 -0.78684,0.956768 -0.35095,0.358331 -1.02815,-0.03787 -1.02815,-0.03787 z"
             sodipodi:nodetypes="csscsssc" />
        </a>
      </g>
    </g>
    <path
       d="m 88.595942,84.166663 1.335609,-0.819683 -0.926876,-0.100756 -0.967168,0.382835 -0.100767,0.46344 z"
       id="path3754"
       style="fill:#8a460f;fill-opacity:1;stroke-width:3.77953" />
    <g
       id="g56"
       transform="matrix(1.443043,0.59173179,-0.59173179,1.443043,420.86628,52.345207)"
       inkscape:export-filename="C:\Users\Manveer Chauhan\Documents\Inkscape\g8915.png"
       inkscape:export-xdpi="95.152725"
       inkscape:export-ydpi="95.152725"
       style="display:inline;stroke-width:2.42331">
      <g
         id="layer3-4"
         inkscape:label="KrishnaFace"
         transform="translate(-11.200549,-47.729925)"
         style="stroke-width:2.42331">
        <path
           style="fill:#8a460f;fill-opacity:1;stroke-width:0.595332;stroke-miterlimit:4;stroke-dasharray:none"
           d=""
           id="path22375"
           transform="matrix(0.26458333,0,0,0.26458333,-34.494617,3.32983)" />
        <path
           style="fill:#8a460f;fill-opacity:1;stroke-width:0.595332;stroke-miterlimit:4;stroke-dasharray:none"
           d=""
           id="path22609"
           transform="matrix(0.26458333,0,0,0.26458333,-34.494617,3.32983)" />
        <path
           style="fill:#8a460f;fill-opacity:1;stroke-width:0.157514;stroke-miterlimit:4;stroke-dasharray:none"
           d="m -204.24498,133.1796 c -0.13091,-0.018 -0.2249,-0.0683 -0.28176,-0.1508 l -0.0173,-0.0251 0.0173,-0.0197 c 0.01,-0.0108 0.0183,-0.0225 0.0194,-0.0259 0.002,-0.004 0.0178,-0.005 0.0517,-0.001 0.0344,0.004 0.0675,0.003 0.10816,-0.003 0.085,-0.0112 0.16164,-0.0263 0.17844,-0.0351 0.0276,-0.0146 0.074,-0.0646 0.80718,-0.87093 0.54863,-0.60332 0.49606,-0.54103 0.69329,-0.82144 0.22522,-0.32018 0.48443,-0.61448 0.75865,-0.86136 0.27791,-0.25018 0.62315,-0.49179 0.86966,-0.60859 0.21935,-0.10394 0.66352,-0.25006 0.94248,-0.31005 0.24598,-0.0529 0.40826,-0.0729 0.62642,-0.0773 0.1839,-0.004 0.29887,0.005 0.44102,0.0332 0.17486,0.0347 0.35738,0.10861 0.47351,0.19163 0.13144,0.094 0.31365,0.30675 0.38561,0.4503 0.0459,0.0916 0.0549,0.12457 0.0577,0.21174 0.003,0.091 -0.003,0.11307 -0.0485,0.18158 -0.0471,0.0709 -0.1081,0.11589 -0.22417,0.16537 l -0.0562,0.024 -0.4531,1.9e-4 c -0.38814,1.8e-4 -0.46862,0.002 -0.56127,0.0106 -0.33856,0.0324 -0.63391,0.0777 -0.83021,0.12718 -0.14529,0.0366 -0.32656,0.10762 -0.57946,0.22693 -0.12455,0.0588 -0.43781,0.25439 -0.59313,0.37042 -0.12591,0.0941 -0.19854,0.15884 -0.33873,0.30214 -0.22968,0.23479 -0.40164,0.40583 -0.48818,0.48558 -0.34086,0.31408 -0.78175,0.64854 -1.11961,0.84935 -0.17095,0.10161 -0.19227,0.11125 -0.31489,0.14246 -0.13711,0.0349 -0.1613,0.0379 -0.32823,0.0404 -0.0868,0.001 -0.17496,4e-5 -0.19586,-0.003 z m 3.19804,-2.16063 c 0,-0.002 -0.008,0.001 -0.0175,0.006 -0.01,0.005 -0.0175,0.0104 -0.0175,0.012 0,0.002 0.008,-0.001 0.0175,-0.006 0.01,-0.005 0.0175,-0.0104 0.0175,-0.012 z m 0.15786,-0.0817 c 0,-0.002 -0.0211,0.008 -0.0468,0.0206 -0.0257,0.0129 -0.0468,0.0248 -0.0468,0.0264 0,0.002 0.0211,-0.008 0.0468,-0.0206 0.0257,-0.0129 0.0468,-0.0248 0.0468,-0.0264 z m -1.46456,-0.0203 c 0.006,-0.006 0.009,-0.0117 0.008,-0.0117 -0.002,0 -0.008,0.005 -0.0135,0.0117 -0.006,0.006 -0.009,0.0117 -0.008,0.0117 0.002,0 0.008,-0.005 0.0135,-0.0117 z m 0.0263,-0.0322 c 0.008,-0.008 0.0124,-0.0146 0.0108,-0.0146 -0.002,0 -0.009,0.007 -0.0167,0.0146 -0.008,0.008 -0.0124,0.0146 -0.0108,0.0146 0.002,0 0.009,-0.007 0.0167,-0.0146 z m 1.57272,-0.009 c 0.005,-0.003 0.006,-0.006 0.003,-0.006 -0.003,0 -0.01,0.003 -0.0146,0.006 -0.005,0.003 -0.006,0.006 -0.003,0.006 0.003,0 0.01,-0.003 0.0146,-0.006 z m 0.0559,-0.0266 c 0.0107,-0.009 0.0105,-0.009 -0.003,-0.002 -0.0179,0.009 -0.0212,0.0112 -0.0138,0.0112 0.003,0 0.0108,-0.004 0.017,-0.009 z m 0.0435,-0.0172 c 0.008,-0.005 0.012,-0.008 0.009,-0.008 -0.003,0 -0.0124,0.004 -0.0205,0.008 -0.008,0.005 -0.012,0.008 -0.009,0.008 0.003,0 0.0124,-0.004 0.0204,-0.008 z m -1.6012,-0.0307 c 0.007,-0.009 0.007,-0.01 -0.002,-0.002 -0.006,0.004 -0.0102,0.009 -0.0102,0.0102 0,0.005 0.005,0.002 0.0124,-0.008 z m 2.3012,-0.16285 c -0.002,-0.002 -0.007,-0.002 -0.0112,-5.3e-4 -0.005,0.002 -0.003,0.003 0.004,0.004 0.006,2.6e-4 0.01,-10e-4 0.008,-0.003 z m -2.03226,-0.11778 c 0.007,-0.009 0.007,-0.01 -0.002,-0.002 -0.01,0.008 -0.0128,0.0124 -0.008,0.0124 0.001,0 0.006,-0.005 0.0102,-0.0102 z m 0.0928,-0.0862 c 0.008,-0.008 0.0124,-0.0146 0.0108,-0.0146 -0.002,0 -0.009,0.007 -0.0166,0.0146 -0.008,0.008 -0.0124,0.0146 -0.0108,0.0146 0.002,0 0.009,-0.007 0.0166,-0.0146 z"
           id="path22804" />
      </g>
    </g>
    <g
       id="g337"
       transform="matrix(-1.4367164,0.60693103,0.60693103,1.4367164,-278.61914,57.661907)"
       inkscape:export-filename="C:\Users\Manveer Chauhan\Documents\Inkscape\g8915.png"
       inkscape:export-xdpi="95.152725"
       inkscape:export-ydpi="95.152725"
       style="display:inline;stroke-width:2.42331">
      <g
         id="g335"
         inkscape:label="KrishnaFace"
         transform="translate(-15.043127,-46.911053)"
         style="stroke-width:2.42331">
        <path
           style="fill:#8a460f;fill-opacity:1;stroke-width:0.595332;stroke-miterlimit:4;stroke-dasharray:none"
           d=""
           id="path329"
           transform="matrix(0.26458333,0,0,0.26458333,-34.494617,3.32983)" />
        <path
           style="fill:#8a460f;fill-opacity:1;stroke-width:0.595332;stroke-miterlimit:4;stroke-dasharray:none"
           d=""
           id="path331"
           transform="matrix(0.26458333,0,0,0.26458333,-34.494617,3.32983)" />
        <path
           style="fill:#8a460f;fill-opacity:1;stroke-width:0.157514;stroke-miterlimit:4;stroke-dasharray:none"
           d="m -204.21626,132.94003 c -0.13091,-0.018 -0.2249,-0.0683 -0.28176,-0.1508 l -0.0173,-0.0251 0.0173,-0.0197 c 0.01,-0.0108 0.0183,-0.0225 0.0194,-0.0259 0.002,-0.004 0.0178,-0.005 0.0517,-10e-4 0.0344,0.004 0.0675,0.003 0.10816,-0.003 0.085,-0.0112 0.16164,-0.0263 0.17844,-0.0351 0.0276,-0.0146 0.074,-0.0646 0.80718,-0.87093 0.54863,-0.60332 0.49606,-0.54103 0.69329,-0.82144 0.22522,-0.32018 0.48443,-0.61448 0.75865,-0.86136 0.27791,-0.25018 0.62315,-0.49179 0.86966,-0.60859 0.21935,-0.10394 0.66352,-0.25006 0.94248,-0.31005 0.24598,-0.0529 0.40826,-0.0729 0.62642,-0.0773 0.1839,-0.004 0.29887,0.005 0.44102,0.0332 0.17486,0.0347 0.35738,0.10861 0.47351,0.19163 0.13144,0.094 0.31365,0.30675 0.38561,0.4503 0.0459,0.0916 0.0549,0.12457 0.0577,0.21174 0.003,0.091 -0.003,0.11307 -0.0485,0.18158 -0.0471,0.0709 -0.1081,0.11589 -0.22417,0.16537 l -0.0562,0.024 -0.4531,1.9e-4 c -0.38814,1.8e-4 -0.46862,0.002 -0.56127,0.0106 -0.33856,0.0324 -0.63391,0.0777 -0.83021,0.12718 -0.14529,0.0366 -0.32656,0.10762 -0.57946,0.22693 -0.12455,0.0588 -0.43781,0.25439 -0.59313,0.37042 -0.12591,0.0941 -0.19854,0.15884 -0.33873,0.30214 -0.22968,0.23479 -0.40164,0.40583 -0.48818,0.48558 -0.34086,0.31408 -0.78175,0.64854 -1.11961,0.84935 -0.17095,0.10161 -0.19227,0.11125 -0.31489,0.14246 -0.13711,0.0349 -0.1613,0.0379 -0.32823,0.0404 -0.0868,0.001 -0.17496,4e-5 -0.19586,-0.003 z m 3.19804,-2.16063 c 0,-0.002 -0.008,10e-4 -0.0175,0.006 -0.01,0.005 -0.0175,0.0104 -0.0175,0.012 0,0.002 0.008,-0.001 0.0175,-0.006 0.01,-0.005 0.0175,-0.0104 0.0175,-0.012 z m 0.15786,-0.0817 c 0,-0.002 -0.0211,0.008 -0.0468,0.0206 -0.0257,0.0129 -0.0468,0.0248 -0.0468,0.0264 0,0.002 0.0211,-0.008 0.0468,-0.0206 0.0257,-0.0129 0.0468,-0.0248 0.0468,-0.0264 z m -1.46456,-0.0203 c 0.006,-0.006 0.009,-0.0117 0.008,-0.0117 -0.002,0 -0.008,0.005 -0.0135,0.0117 -0.006,0.006 -0.009,0.0117 -0.008,0.0117 0.002,0 0.008,-0.005 0.0135,-0.0117 z m 0.0263,-0.0322 c 0.008,-0.008 0.0124,-0.0146 0.0108,-0.0146 -0.002,0 -0.009,0.007 -0.0167,0.0146 -0.008,0.008 -0.0124,0.0146 -0.0108,0.0146 0.002,0 0.009,-0.007 0.0167,-0.0146 z m 1.57272,-0.009 c 0.005,-0.003 0.006,-0.006 0.003,-0.006 -0.003,0 -0.01,0.003 -0.0146,0.006 -0.005,0.003 -0.006,0.006 -0.003,0.006 0.003,0 0.01,-0.003 0.0146,-0.006 z m 0.0559,-0.0266 c 0.0107,-0.009 0.0105,-0.009 -0.003,-0.002 -0.0179,0.009 -0.0212,0.0112 -0.0138,0.0112 0.003,0 0.0108,-0.004 0.017,-0.009 z m 0.0435,-0.0172 c 0.008,-0.005 0.012,-0.008 0.009,-0.008 -0.003,0 -0.0124,0.004 -0.0205,0.008 -0.008,0.005 -0.012,0.008 -0.009,0.008 0.003,0 0.0124,-0.004 0.0204,-0.008 z m -1.6012,-0.0307 c 0.007,-0.009 0.007,-0.01 -0.002,-0.002 -0.006,0.004 -0.0102,0.009 -0.0102,0.0102 0,0.005 0.005,0.002 0.0124,-0.008 z m 2.3012,-0.16285 c -0.002,-0.002 -0.007,-0.002 -0.0112,-5.3e-4 -0.005,0.002 -0.003,0.003 0.004,0.004 0.006,2.6e-4 0.01,-0.001 0.008,-0.003 z m -2.03226,-0.11778 c 0.007,-0.009 0.007,-0.01 -0.002,-0.002 -0.01,0.008 -0.0128,0.0124 -0.008,0.0124 0.001,0 0.006,-0.005 0.0102,-0.0102 z m 0.0928,-0.0862 c 0.008,-0.008 0.0124,-0.0146 0.0108,-0.0146 -0.002,0 -0.009,0.007 -0.0166,0.0146 -0.008,0.008 -0.0124,0.0146 -0.0108,0.0146 0.002,0 0.009,-0.007 0.0166,-0.0146 z"
           id="path333" />
      </g>
    </g>
    <path
       id="path2327"
       style="fill:#8a460f;fill-opacity:1;stroke-width:3.77953"
       d="m 64.129945,50.341669 c -0.01532,0.0033 -0.0278,0.0072 -0.03586,0.01073 -1.130875,0.301203 -2.571491,1.079826 -2.571491,1.079826 0,0 -0.575697,0.548793 0.763003,0.40141 0,0 0.673485,-0.365627 1.178762,-0.506973 3.98e-4,-1.27e-4 0.0012,-1.34e-4 0.0017,-2.59e-4 0.01038,-0.0035 0.02166,-0.0059 0.03212,-0.0085 0,0 8.15e-4,-1.29e-4 8.15e-4,-1.29e-4 0.05059,-0.0133 0.09999,-0.0249 0.145792,-0.03265 0.01177,-0.0032 0.02355,-0.0064 0.03522,-0.0095 0.02018,-0.0053 0.04,-0.01044 0.06042,-0.01519 0.01796,-0.0042 0.03567,-0.0074 0.05379,-0.01076 0.0048,-8.87e-4 0.01024,-0.0021 0.01504,-0.003 0.01447,-0.0026 0.02842,-0.0044 0.04299,-0.0068 0.01992,-0.0032 0.03989,-0.0064 0.05978,-0.0089 0.292209,-0.09052 1.209574,-0.304944 2.396122,0.135157 0,0 3.512945,0.297721 2.401358,-0.526522 -0.0019,-0.0012 -0.0037,-0.0023 -0.0055,-0.0036 -9.08e-4,-4.59e-4 -0.0013,-7.86e-4 -0.0019,-0.0013 l -8.7e-5,-5.6e-4 c -9.49e-4,-7.11e-4 -0.002,-0.0017 -0.0029,-0.0024 l -0.0028,-0.0018 c -9.4e-4,-6.54e-4 -0.0019,-0.0011 -0.0028,-0.0018 -9.3e-4,-5.98e-4 -0.0019,-0.0013 -0.0028,-0.0018 -9.09e-4,-4.59e-4 -0.0018,-6.94e-4 -0.0027,-0.0012 -0.0019,-0.001 -0.0037,-0.0025 -0.0055,-0.0036 l -0.0054,-0.0031 c -8.94e-4,-3.74e-4 -0.0014,-9.25e-4 -0.0019,-0.0013 l -8.9e-5,-5.6e-4 c -0.0018,-5.53e-4 -0.0039,-8.45e-4 -0.0051,-0.0014 -0.0019,-10e-4 -0.0052,-0.0018 -0.0069,-0.0028 l -8.9e-5,-5.6e-4 c -0.0022,-6.57e-4 -0.0039,-0.0012 -0.0052,-0.002 -0.0013,-2.82e-4 -0.0042,-5.57e-4 -0.0051,-8.95e-4 l -8.16e-4,1.29e-4 c -8.99e-4,-4.02e-4 -0.0018,-8.62e-4 -0.0027,-0.0012 -4.65e-4,-3e-4 -9.31e-4,-5.99e-4 -0.0018,-8.34e-4 l -9.04e-4,-4.3e-4 c -4.57e-4,-2.44e-4 -0.0044,-9.3e-5 -0.005,-3.36e-4 -4.44e-4,-1.97e-4 -0.0012,1.1e-5 -0.0018,-3.01e-4 l -9.04e-4,-4.31e-4 c -8.9e-4,-3.47e-4 -0.0018,-3.86e-4 -0.0026,-7.04e-4 -0.0013,-3.39e-4 -0.0026,-7.31e-4 -0.0035,-0.0011 -0.0034,-6.59e-4 -0.0053,-0.0014 -0.0085,-0.0021 -0.0034,-7.43e-4 -0.0053,-0.0017 -0.0086,-0.0026 -0.0035,-9.65e-4 -0.0047,-0.0028 -0.008,-0.0038 -0.0035,-9.67e-4 -0.0054,-0.0021 -0.0087,-0.0031 -0.0013,-8.42e-4 -0.0036,-0.0018 -0.0053,-0.0025 -0.0018,-3.01e-4 -0.0026,-7.03e-4 -0.0043,-0.001 -1.329531,-0.257061 -1.610671,-0.24065 -1.610675,-0.240649 -1.406537,-0.265955 -2.586168,-0.257881 -2.848881,-0.206295 z m 4.775267,0.127272 c 0.0012,1.14e-4 0.0026,2.56e-4 0.0042,4.45e-4 -0.0012,-1.42e-4 -0.0026,-3.68e-4 -0.0042,-4.45e-4 z m -0.221289,0.06087 c -0.002,10e-4 -0.0034,0.002 -0.0053,0.0031 0.0023,-0.0016 0.004,-0.0024 0.0053,-0.0031 z m -0.02524,0.01577 c -0.0011,8.93e-4 -0.0019,0.0013 -0.003,0.0022 0.0011,-7.26e-4 0.0019,-0.0013 0.003,-0.0022 z m 0.0041,0.05707 c 0.0038,6.78e-4 0.0063,0.0012 0.0093,0.0019 -0.003,-6.11e-4 -0.0055,-0.0012 -0.0093,-0.0019 z m 0.0416,0.01024 c 0.0013,3.38e-4 0.0022,7.96e-4 0.0035,0.0011 -0.0013,-3.38e-4 -0.0022,-7.68e-4 -0.0035,-0.0011 z m -0.006,0.02898 c 0.0023,0.0011 0.0048,0.0023 0.007,0.0034 -0.0023,-10e-4 -0.0048,-0.0023 -0.007,-0.0034 z"
       clip-path="url(#clipPath22175)"
       inkscape:export-filename="C:\Users\Manveer Chauhan\Documents\Inkscape\g8915.png"
       inkscape:export-xdpi="95.152725"
       inkscape:export-ydpi="95.152725" />
    <path
       d="m 78.655839,51.121629 c 0,0 1.29943,-0.333992 2.38874,-0.707021 0,0 4.632412,-0.203433 4.763705,1.188389 0,0 -0.44937,0.523554 -1.215721,0.128444 -0.766382,-0.395109 -1.220866,-0.425536 -1.220866,-0.425536 -1.569923,0.02926 -2.659516,0.255598 -2.659516,0.255598 -3.000148,0.06013 -2.056351,-0.439831 -2.056351,-0.439831 z"
       id="path12330"
       style="fill:#8a460f;fill-opacity:1;stroke-width:3.77954"
       clip-path="url(#clipPath22716)"
       inkscape:export-filename="C:\Users\Manveer Chauhan\Documents\Inkscape\g8915.png"
       inkscape:export-xdpi="95.152725"
       inkscape:export-ydpi="95.152725" />
    <path
       d="m 71.120862,35.253546 -0.01866,7.241936 c 0,0 -0.19162,2.475013 3.050763,2.784916 0,0 2.926471,0.18296 3.194635,-3.12197 l 0.128365,-6.861553 c -0.730175,-0.691331 -1.330497,0 -1.330497,0 l -0.152843,6.874692 c 0,0 0.02559,1.563414 -1.598211,1.677221 0,0 -1.819878,0.32382 -1.947741,-1.585292 l 0.02228,-6.966621 c 0,0 -0.584669,-0.752669 -1.36233,-0.0054 z"
       id="path32525"
       style="fill:#8a460f;fill-opacity:1;stroke-width:3.77953"
       inkscape:export-filename="C:\Users\Manveer Chauhan\Documents\Inkscape\g8915.png"
       inkscape:export-xdpi="95.152725"
       inkscape:export-ydpi="95.152725"
       sodipodi:nodetypes="cccccccccccc" />
    <path
       d="m 68.691551,45.637629 c 0,0 7.93691,6.000954 3.795342,14.270617 l 3.24601,0.08077 c 0,0 -0.277481,1.622391 -1.718932,1.928942 0,0 -1.924107,0.03181 -2.803594,-2.049337 0,0 5.015518,-7.683968 -2.518813,-14.23106 z"
       id="path5609"
       style="fill:#8a460f;fill-opacity:1;stroke-width:3.77953"
       inkscape:export-filename="C:\Users\Manveer Chauhan\Documents\Inkscape\g8915.png"
       inkscape:export-xdpi="95.152725"
       inkscape:export-ydpi="95.152725" />
    <g
       id="g8885"
       transform="matrix(1.5376552,-0.26102912,0.26102912,1.5376552,24.119372,3.9080468)"
       inkscape:export-filename="C:\Users\Manveer Chauhan\Documents\Inkscape\g8915.png"
       inkscape:export-xdpi="95.152725"
       inkscape:export-ydpi="95.152725"
       style="stroke-width:2.42331"
       clip-path="url(#clipPath4448)">
      <ellipse
         style="fill:#8a460f;fill-opacity:1;stroke-width:0.157514;stroke-miterlimit:4;stroke-dasharray:none"
         id="path8386"
         cx="15.257963"
         cy="51.337925"
         rx="1.0912678"
         ry="1.0666015" />
      <ellipse
         style="fill:#8a460f;fill-opacity:1;stroke-width:0.157514;stroke-miterlimit:4;stroke-dasharray:none"
         id="ellipse8474"
         cx="14.12898"
         cy="53.05439"
         rx="1.0914062"
         ry="1.0666015" />
      <ellipse
         style="fill:#8a460f;fill-opacity:1;stroke-width:0.157514;stroke-miterlimit:4;stroke-dasharray:none"
         id="ellipse8476"
         cx="13.966459"
         cy="55.164196"
         rx="1.0914062"
         ry="1.0666015" />
      <ellipse
         style="fill:#8a460f;fill-opacity:1;stroke-width:0.157514;stroke-miterlimit:4;stroke-dasharray:none"
         id="ellipse8478"
         cx="14.56577"
         cy="57.211884"
         rx="1.0914062"
         ry="1.0666015" />
      <ellipse
         style="fill:#8a460f;fill-opacity:1;stroke-width:0.157514;stroke-miterlimit:4;stroke-dasharray:none"
         id="ellipse8582"
         cx="15.83223"
         cy="58.951057"
         rx="1.0914062"
         ry="1.0666015" />
      <ellipse
         style="fill:#8a460f;fill-opacity:1;stroke-width:0.157514;stroke-miterlimit:4;stroke-dasharray:none"
         id="ellipse8584"
         cx="17.485874"
         cy="60.267117"
         rx="1.0914062"
         ry="1.0666015" />
      <ellipse
         style="fill:#8a460f;fill-opacity:1;stroke-width:0.157514;stroke-miterlimit:4;stroke-dasharray:none"
         id="ellipse8586"
         cx="19.445208"
         cy="61.190315"
         rx="1.0914062"
         ry="1.0666015" />
      <ellipse
         style="fill:#8a460f;fill-opacity:1;stroke-width:0.157514;stroke-miterlimit:4;stroke-dasharray:none"
         id="ellipse8588"
         cx="21.56188"
         cy="61.788479"
         rx="1.0914062"
         ry="1.0666015" />
      <ellipse
         style="fill:#8a460f;fill-opacity:1;stroke-width:0.157514;stroke-miterlimit:4;stroke-dasharray:none"
         id="ellipse8590"
         cx="23.741844"
         cy="61.992588"
         rx="1.0914062"
         ry="1.0666015" />
      <ellipse
         style="fill:#8a460f;fill-opacity:1;stroke-width:0.157514;stroke-miterlimit:4;stroke-dasharray:none"
         id="ellipse8592"
         cx="25.953718"
         cy="61.817535"
         rx="1.0914062"
         ry="1.0666015" />
      <ellipse
         style="fill:#8a460f;fill-opacity:1;stroke-width:0.157514;stroke-miterlimit:4;stroke-dasharray:none"
         id="ellipse8594"
         cx="28.118814"
         cy="61.437191"
         rx="1.0914062"
         ry="1.0666015" />
      <ellipse
         style="fill:#8a460f;fill-opacity:1;stroke-width:0.157514;stroke-miterlimit:4;stroke-dasharray:none"
         id="ellipse8596"
         cx="29.827738"
         cy="60.186111"
         rx="1.0914062"
         ry="1.0666015" />
      <ellipse
         style="fill:#8a460f;fill-opacity:1;stroke-width:0.157514;stroke-miterlimit:4;stroke-dasharray:none"
         id="ellipse8598"
         cx="31.066801"
         cy="58.39048"
         rx="1.0914062"
         ry="1.0666015" />
      <ellipse
         style="fill:#8a460f;fill-opacity:1;stroke-width:0.157514;stroke-miterlimit:4;stroke-dasharray:none"
         id="ellipse8764"
         cx="31.595968"
         cy="56.472252"
         rx="1.0914062"
         ry="1.0666015" />
      <ellipse
         style="fill:#8a460f;fill-opacity:1;stroke-width:0.157514;stroke-miterlimit:4;stroke-dasharray:none"
         id="ellipse8766"
         cx="31.366808"
         cy="54.880737"
         rx="1.0914062"
         ry="1.0666015" />
    </g>
    <path
       id="path9946"
       style="fill:#8a460f;fill-opacity:1;stroke-width:3.77953"
       d="m 61.110381,65.027653 c 0.0017,0.0048 0.0048,0.0094 0.0066,0.01402 0.0017,-4.9e-5 0.0033,4.14e-4 0.0048,1.28e-4 -0.0017,-0.0048 -0.0048,-0.0094 -0.0066,-0.01402 -0.0012,-6.6e-5 -0.0032,4.13e-4 -0.0048,-1.24e-4 z m 0.0156,0.02605 c -4.14e-4,4.12e-4 -0.0017,0.0017 -0.0017,0.0017 0.0032,0.0075 0.0066,0.01402 0.0094,0.02043 4.14e-4,-4.13e-4 0.0017,-4.13e-4 0.0017,-0.0012 -0.0032,-0.0075 -0.0066,-0.01402 -0.0094,-0.02133 z m 0.537917,1.040104 c 1.93e-4,0.0066 -1.7e-5,0.01245 0.0017,0.01761 4.13e-4,0.0017 0.0032,0.0017 0.0048,0.0032 0.0012,-0.0017 0.0017,-0.0032 0.0032,-0.0048 -0.0032,-0.0048 -0.0066,-0.01083 -0.0094,-0.0156 z m 0.511534,0.644014 c -0.0017,0.0017 -0.0032,0.0033 -0.0032,0.0066 0.0032,-2.76e-4 0.0066,-0.0012 0.0094,-4.12e-4 -0.0017,-0.0017 -0.0032,-0.0033 -0.0066,-0.0048 z m 0.270045,0.179804 -4.13e-4,0.0012 c 0.0017,1.4e-4 0.0033,0.0017 0.0048,0.0017 -0.0017,-4.12e-4 -0.0032,-0.0017 -0.0032,-0.0033 z m 0.0033,0.0032 0.284881,1.67821 c 0,0 3.198856,3.433316 3.302444,4.043559 0,0 3.562392,5.882986 7.776576,5.743108 0,0 3.019588,0.21988 8.951395,-1.205657 0,0 1.797157,-0.200511 2.225052,1.08725 l 0.393344,1.084272 c 0,0 0.117435,-6.089072 0.989734,-9.271731 0,0 2.100937,-2.708905 2.74137,-7.260467 -0.0033,0.01981 -0.551912,3.639292 -2.956991,6.760785 -2.379699,3.088594 -4.61587,6.865812 -7.930991,7.062335 0,0 -7.303948,1.972374 -10.756909,-4.190774 0,0 -4.885276,-4.229146 -4.971341,-5.509703 -0.01616,-0.0066 -0.03279,-0.01245 -0.04846,-0.02114 z"
       inkscape:export-filename="C:\Users\Manveer Chauhan\Documents\Inkscape\g8915.png"
       inkscape:export-xdpi="95.152725"
       inkscape:export-ydpi="95.152725" />
    <rect
       style="fill:#8a460f;fill-opacity:1;stroke-width:0.297588;stroke-miterlimit:4;stroke-dasharray:none"
       id="rect32204"
       width="5.8873672"
       height="1.4734005"
       x="100.41233"
       y="160.94386"
       transform="matrix(0.50424762,-0.86355911,0.21950762,0.97561079,0,0)"
       inkscape:export-filename="C:\Users\Manveer Chauhan\Documents\Inkscape\g8915.png"
       inkscape:export-xdpi="95.152725"
       inkscape:export-ydpi="95.152725" />
    <rect
       style="fill:#8a460f;fill-opacity:1;stroke-width:0.297588;stroke-miterlimit:4;stroke-dasharray:none"
       id="rect38954"
       width="5.8873672"
       height="1.4734005"
       x="66.479614"
       y="150.24333"
       transform="matrix(0.25962491,-0.96570954,0.46814155,0.88365349,0,0)"
       inkscape:export-filename="C:\Users\Manveer Chauhan\Documents\Inkscape\g8915.png"
       inkscape:export-xdpi="95.152725"
       inkscape:export-ydpi="95.152725" />
    <path
       d="m 70.017256,68.380155 c 0,0 1.075898,0.164671 2.243751,-1.184283 0,0 0.656975,-0.893297 1.841875,0.146756 0,0 0.821332,-1.367314 2.334337,0.01936 0,0 1.057193,1.113031 2.096876,0.803516 -0.968398,1.202935 -2.789335,2.078641 -4.341281,1.314173 -1.733233,0.718411 -3.197604,-0.02274 -4.175558,-1.099528 z"
       id="path19168"
       style="fill:#8a460f;fill-opacity:1;stroke-width:3.77953"
       inkscape:export-filename="C:\Users\Manveer Chauhan\Documents\Inkscape\g8915.png"
       inkscape:export-xdpi="95.152725"
       inkscape:export-ydpi="95.152725" />
    <g
       id="g12852"
       transform="matrix(1.6906021,0,0,1.6906021,-166.20849,-2.524041)"
       style="display:inline;stroke-width:2.23561"
       clip-path="url(#clipPath4598)">
      <g
         id="g6190"
         style="stroke-width:2.42331"
         transform="matrix(0.92254328,0,0,0.92254328,20.14315,0.85491368)">
        <path
           d="m 142.43135,54.497657 c -2.64864,13.163394 -9.4273,12.709521 -9.4273,12.709521 -10.89303,0.957537 -11.302,-12.644598 -11.302,-12.644598 0,0 -1.30608,-1.251183 -0.80014,0.865118 0,0 -2.15775,-0.06332 -1.4725,1.552058 0,0 0.59225,1.368843 1.78347,0.334506 0,0 0.0314,1.461303 0.41295,1.869773 0,0 -1.9185,0.355554 -1.41984,1.79215 0,0 0.72602,1.386076 2.03856,0.213902 0,0 0.5393,1.285922 0.84242,1.615663 0,0 -1.71876,0.29638 -0.81471,1.888809 0,0 0.78191,1.010242 1.80968,-0.0626 0,0 0.80138,0.810628 1.77478,1.632196 0,0 -1.29797,1.339978 0.0556,2.164343 0,0 1.6193,0.688904 1.76036,-0.997217 0,0 1.20495,0.796496 2.07399,0.587779 0,0 -0.92676,1.606129 0.4806,2.041922 0,0 1.86626,0.360143 1.39631,-1.69662 0,0 1.05955,0.152681 2.24517,-0.121301 0,0 0.14305,1.979716 1.37332,1.659086 0.23364,-0.01235 1.59143,-0.353938 0.72603,-2.188437 0,0 1.2729,-0.380019 1.52055,-1.101705 0.0105,0.06374 0.23631,2.069096 1.66735,1.139266 0,0 1.411,-0.415888 0.0235,-2.478548 0.13392,-0.06129 1.05507,-0.907141 0.93502,-1.476558 0,0 0.93123,1.836712 2.05046,0.683307 0,0 1.12637,-1.586654 -0.93683,-2.267861 0,0 0.62839,-1.033215 0.76147,-1.814571 0,0 0.62615,1.415632 1.80476,0.304817 0,0 1.27136,-1.898608 -1.12818,-2.157764 0,0 0.27778,-0.936142 0.21012,-1.108301 0,0 1.34041,1.062224 1.78502,-0.529904 0,0 0.71973,-2.22667 -1.21601,-1.737395 0,0 0.12873,-0.728262 -0.44264,-0.699542 v 0 c 0,0 -0.12233,-0.50358 -0.57138,0.02871 z"
           id="path121"
           style="fill:#8a460f;fill-opacity:1;stroke-width:2.42331"
           clip-path="url(#clipPath5970)" />
        <path
           d="m 124.16402,60.630225 c 0,0 6.04907,1.390449 7.22624,0.761319 -0.0184,0.0032 4.18715,0.660779 7.5291,-0.198044 0.62912,0.604005 -5.77528,0.953874 -6.34141,0.846797 -0.14984,0.128241 -0.77791,0.292473 -0.8605,0.266193 0.23382,3.729702 -0.0487,3.015611 -0.0487,3.015611 0.0365,-0.267311 -0.32534,-2.067416 -0.35685,-2.101735 0.0106,-0.930197 -0.42106,-1.076038 -0.42106,-1.076038 -2.1001,0.05308 -6.72691,-1.514105 -6.72691,-1.514105 z"
           id="path11817"
           style="opacity:0.7;fill:#8a460f;fill-opacity:1;stroke-width:2.42331"
           sodipodi:nodetypes="cccccccccc" />
        <path
           d="m 121.02433,54.65317 c 0,0 -0.38322,4.545534 -18.7579,6.232491 0,-2e-6 16.47673,-2.80581 18.7579,-6.232491 z"
           id="path550"
           style="fill:#8a460f;fill-opacity:1;stroke-width:2.42331"
           clip-path="url(#clipPath8422)" />
        <path
           d="m 143.44533,55.168493 c 0,0 0.38322,4.545534 18.7579,6.232491 0,-2e-6 -16.47673,-2.80581 -18.7579,-6.232491 z"
           id="path5628"
           style="fill:#8a460f;fill-opacity:1;stroke-width:2.42331"
           clip-path="url(#clipPath5980)" />
      </g>
      <path
         inkscape:original-d="M 0,0"
         inkscape:path-effect="#path-effect995"
         d="M 0,0"
         id="path997" />
      <path
         inkscape:original-d="M 0,0"
         inkscape:path-effect="#path-effect1463"
         d="M 0,0"
         id="path1465" />
      <path
         d="m 190.5132,68.151889 c -64.50605,-4.555805 -96.489785,0.434872 -96.857237,0.21401 0,0 40.310027,-3.544138 96.857237,-0.21401 z"
         id="path1469"
         sodipodi:nodetypes="ccc"
         style="fill:#8a460f;fill-opacity:1;stroke-width:2.23561" />
    </g>
    <path
       inkscape:original-d="M 18.648147,8.7693602"
       inkscape:path-effect="#path-effect17933"
       d="M 18.648147,8.7693602"
       id="path17935"
       style="stroke-width:0.922545"
       clip-path="url(#clipPath4480)" />
    <circle
       style="fill:#7f3700;fill-opacity:1;stroke-width:239.999;stroke-linecap:round;paint-order:markers fill stroke"
       id="circle22481"
       cx="91.662956"
       cy="26.167145"
       r="1.5116749" />
    <g
       id="g22485"
       transform="translate(3.5007012,0.80333249)" />
    <use
       x="0"
       y="0"
       xlink:href="#g22485"
       id="use22487"
       transform="translate(-2.4034665,-2.7430866)"
       width="100%"
       height="100%" />
    <circle
       style="fill:#7f3700;fill-opacity:1;stroke-width:239.999;stroke-linecap:round;paint-order:markers fill stroke"
       id="circle23496"
       cx="89.113693"
       cy="24.744732"
       r="1.5116749" />
    <circle
       style="fill:#7f3700;fill-opacity:1;stroke-width:239.999;stroke-linecap:round;paint-order:markers fill stroke"
       id="circle23498"
       cx="86.342758"
       cy="23.543993"
       r="1.5116749" />
    <circle
       style="fill:#7f3700;fill-opacity:1;stroke-width:239.999;stroke-linecap:round;paint-order:markers fill stroke"
       id="circle23500"
       cx="83.701134"
       cy="22.047688"
       r="1.5116749" />
    <circle
       style="fill:#7f3700;fill-opacity:1;stroke-width:239.999;stroke-linecap:round;paint-order:markers fill stroke"
       id="circle23502"
       cx="81.004089"
       cy="20.773056"
       r="1.5116749" />
    <circle
       style="fill:#7f3700;fill-opacity:1;stroke-width:239.999;stroke-linecap:round;paint-order:markers fill stroke"
       id="circle23504"
       cx="78.288574"
       cy="19.313696"
       r="1.5116749" />
    <path
       d="m 93.513673,14.298828 c 0,0 -4.658992,-6.1707489 -11.863426,-5.0623746 -7.204436,1.1083746 -7.149786,7.5629456 -7.149786,7.5629456 z"
       id="path24199"
       style="fill:#8a460f;fill-opacity:1" />
    <path
       d="m 40.124997,91.124999 c 0,0 -10.308457,2.60739 -12.779229,2.75682 0,0 -11.345772,3.24318 -15.345773,16.430691 0,0 -0.246025,0.82421 -0.349575,1.45898 l 0.287233,-0.0686 c 0,0 4.14828,-13.999761 15.67953,-17.093511 0,0 8.085087,-1.52112 12.507814,-3.48437 z"
       id="path1642"
       style="fill:#8a460f;fill-opacity:1" />
    <path
       id="path6516"
       style="fill:#8a460f;fill-opacity:1"
       d="m 108.04688,91.929688 c 4.42271,1.96325 12.50781,3.484375 12.50781,3.484374 9.79269,2.627308 14.24833,13.089138 15.37304,16.193358 0.0227,-5.1e-4 0.0459,9.1e-4 0.0684,0.004 0.0278,0.002 0.0563,0.004 0.084,0.006 0.0316,0.002 0.0623,0.004 0.0937,0.008 0.0311,0.003 0.0628,0.006 0.0937,0.01 0.0166,0.002 0.0327,0.003 0.0488,0.006 -0.0779,-0.301 -0.14453,-0.52343 -0.14453,-0.52343 -4.00003,-13.18752 -15.34571,-16.431643 -15.34571,-16.431643 -2.47077,-0.14943 -12.7793,-2.755859 -12.77929,-2.755859 z" />
  </g>
  <g
     inkscape:groupmode="layer"
     id="layer4"
     inkscape:label="Beads-A">
    <circle
       style="fill:#7f3700;fill-opacity:1;stroke-width:0.1;stroke-linecap:round;stroke-miterlimit:4;stroke-dasharray:none;paint-order:markers fill stroke"
       id="path27703"
       cx="75.720459"
       cy="17.586208"
       r="1.5701971" />
    <circle
       style="fill:#7f3700;fill-opacity:1;stroke-width:0.1;stroke-linecap:round;stroke-miterlimit:4;stroke-dasharray:none;paint-order:markers fill stroke"
       id="circle30946"
       cx="74.07888"
       cy="15.759905"
       r="1.006389" />
  </g>
  <rect
     style="fill:#ff0000;fill-opacity:1;fill-rule:nonzero;stroke:none"
     id="rect4396"
     width="0"
     height="0"
     x="18.648148"
     y="8.7693605"
     clip-path="url(#clipPath4398)" />
</svg>
