<?xml version="1.0" encoding="UTF-8" standalone="no"?>
<svg
   version="1.0"
   width="96pt"
   height="1022pt"
   viewBox="0 0 96 1022"
   preserveAspectRatio="xMidYMid meet"
   id="svg10"
   sodipodi:docname="arrow.svg"
   inkscape:version="1.1.1 (3bf5ae0d25, 2021-09-20)"
   xmlns:inkscape="http://www.inkscape.org/namespaces/inkscape"
   xmlns:sodipodi="http://sodipodi.sourceforge.net/DTD/sodipodi-0.dtd"
   xmlns="http://www.w3.org/2000/svg"
   xmlns:svg="http://www.w3.org/2000/svg">
  <defs
     id="defs14" />
  <sodipodi:namedview
     id="namedview12"
     pagecolor="#ffffff"
     bordercolor="#999999"
     borderopacity="1"
     inkscape:pageshadow="0"
     inkscape:pageopacity="0"
     inkscape:pagecheckerboard="0"
     inkscape:document-units="pt"
     showgrid="false"
     inkscape:zoom="0.21064453"
     inkscape:cx="961.33519"
     inkscape:cy="1056.2819"
     inkscape:window-width="1920"
     inkscape:window-height="1001"
     inkscape:window-x="-9"
     inkscape:window-y="-9"
     inkscape:window-maximized="1"
     inkscape:current-layer="g8" />
  <metadata
     id="metadata2">
Created by potrace 1.15, written by Peter Selinger 2001-2017
</metadata>
  <g
     transform="matrix(0.1,0,0,-0.1,0,1280)"
     fill="#8a460f"
     stroke="none"
     id="g8">
    <path
       d="m 21125.563,14002.57 c 0,-6 6,-12 13,-15 13,-4 -105,-181 -2486,-3732 l -1415,-2109.9998 -181,-3 c -99,-1 -181,-4 -181,-7 0,-2 38,-64 84,-137 l 83,-133 -111,-5 -110,-5 69,-45 c 56,-37 65,-46 47,-48 -21,-3 -22,-8 -22,-83 0,-77 1,-79 24,-79 17,0 31,-11 46,-34 l 21,-35 -99,-153 -99,-153 204,-5 205,-5 1330,-2020 c 731,-1111 1610,-2446 1953,-2968 l 624,-947 -41,-28 c -48,-31 -30,-44 23,-16 31,15 33,15 46,-2 7,-9 16,-15 19,-11 4,4 1,13 -5,21 -10,12 3,22 76,62 148,80 428,250 608,369 975,644 1870,1474 2522,2340 288,383 585,869 758,1241 l 57,121 211,6 c 225,7 351,20 373,38 24,20 16,57 -40,189 -103,243 -125,349 -133,630 -6,225 4,360 48,605 33,180 81,332 124,395 19,27 60,57 146,106 123,69 231,157 269,219 19,31 60,49 60,27 0,-17 -72,-100 -135,-156 -82,-72 -257,-205 -319,-241 -56,-33 -59,-41 -8,-19 20,8 296,122 612,251 316,130 579,239 584,244 5,4 -1,13 -15,18 -46,20 -1204,493 -1219,498 -28,9 55,-58 205,-165 141,-100 316,-255 303,-267 -5,-6 -400,12 -475,21 l -43,5 v 142 c -1,554 -103,1171 -285,1722 -86,261 -168,459.9998 -294,719.9998 -436,894 -1089,1690 -1991,2426 -547,446 -1312,921 -1857,1153 -142,60 -183,73 -183,58 z m 203,-129 c 800,-477 1397,-930 1981,-1503 752,-739 1305,-1550 1656,-2429.9998 254,-637 409,-1412 410,-2047 v -133 h -3226 -3226 l -268,190 -268,190 -565,2 -566,3 1952,2911.9998 c 1074,1602 1953,2913 1955,2913 2,0 76,-43 165,-97 z m -4283,-6281.9998 c 0,-3 -7,-14 -14,-24 -13,-17 -15,-17 -30,5 -22,31 -20,35 14,30 17,-2 30,-7 30,-11 z m 7777,-39 c 13,-26 57,-87 98,-137 42,-49 90,-118 107,-153 29,-59 31,-66 24,-145 -13,-158 -51,-301 -196,-742 -147,-445 -201,-661 -216,-856 l -7,-97 65,-11 c 36,-6 80,-11 99,-11 19,0 44,-3 55,-6 22,-6 22,-6 -8,-72 -317,-702 -762,-1375 -1352,-2042 -159,-179 -532,-557 -731,-739 -457,-419 -883,-753 -1445,-1133 -137,-93 -177,-116 -186,-106 -8,9 -3677,5580 -3879,5892 l -19,29 569,-6 570,-7 285,195 285,195 2930,-1 h 2930 z"
       id="path4" />
    <path
       d="m 895.08477,3138.0003 c 4,317 7,671 7,787 v 210 l -180,285 -180,284.9999 v 3677 c 1,2022.9998 3,3677.9998 7,3677.9998 16,0 98,-78 153,-147 66,-81 185,-255 214,-311 45.00001,-87 13,6 -133,394 -87,230 -191,506 -231,612 -40,105 -76,192 -80,192 -4,0 -33,-71 -65,-158 -33,-86 -138,-367 -235,-624 -97.999999,-258 -175.000002,-468 -172.000002,-468 8,0 29,29 157.000002,221 68,102 150,212 182,245 l 58,59 3,-30 c 1,-17 -4,-143 -11,-280 -7,-138 -9,-252 -5,-253 4,-2 8,-1538.9998 8,-3414.9998 v -3412 l -175,-267.9999 -174.999999,-268 v -761 c 0,-631 2,-759 13,-755 8,3 63.999999,39 123.999999,81 61,42 114,76 117,76 3,0 6,-51 6,-113 v -112 l 45,75 c 38,63 45,71 45,47 v -28 l 72,3 73,3 v 68 c 0,37 3,67 6,67 3,0 77,-51 165,-113 87,-62 164,-116 170,-119 8,-5 13,159 17,570 z"
       id="path6" />
  </g>
</svg>
