<?xml version="1.0" encoding="UTF-8" standalone="no"?>
<svg
   version="1.0"
   width="965.000000pt"
   height="1280.000000pt"
   viewBox="0 0 965.000000 1280.000000"
   preserveAspectRatio="xMidYMid meet"
   id="svg8"
   sodipodi:docname="Bookmark.svg"
   inkscape:version="1.1.1 (3bf5ae0d25, 2021-09-20)"
   xmlns:inkscape="http://www.inkscape.org/namespaces/inkscape"
   xmlns:sodipodi="http://sodipodi.sourceforge.net/DTD/sodipodi-0.dtd"
   xmlns="http://www.w3.org/2000/svg"
   xmlns:svg="http://www.w3.org/2000/svg">
  <defs
     id="defs12" />
  <sodipodi:namedview
     id="namedview10"
     pagecolor="#ffffff"
     bordercolor="#999999"
     borderopacity="1"
     inkscape:pageshadow="0"
     inkscape:pageopacity="0"
     inkscape:pagecheckerboard="0"
     inkscape:document-units="pt"
     showgrid="false"
     inkscape:zoom="0.42128906"
     inkscape:cx="644.45063"
     inkscape:cy="853.33333"
     inkscape:window-width="1920"
     inkscape:window-height="1001"
     inkscape:window-x="-9"
     inkscape:window-y="-9"
     inkscape:window-maximized="1"
     inkscape:current-layer="svg8" />
  <metadata
     id="metadata2">
Created by potrace 1.15, written by Peter Selinger 2001-2017
</metadata>
  <g
     transform="matrix(0.20613547,0,0,-0.10652231,-467.04348,1331.1342)"
     fill="#8a460f"
     stroke="none"
     id="g6"
     style="stroke-width:0.674844">
    <path
       d="m 2270,6499 c 0,-5022 2,-5980 14,-5977 7,2 33,19 57,40 24,20 69,57 99,82 83,69 334,274 405,331 35,28 90,73 123,100 33,28 202,167 377,310 174,143 360,296 414,340 54,44 187,153 297,243 109,90 224,183 254,208 164,137 213,176 223,180 16,6 98,-56 433,-324 677,-541 838,-669 890,-707 30,-22 178,-139 330,-260 152,-121 382,-304 511,-407 129,-104 239,-188 244,-188 5,0 9,2529 9,5995 0,3297 0,5998 0,6003 0,4 -1053,8 -2340,10 l -2340,2 z"
       id="path4"
       style="stroke-width:0.674844" />
  </g>
</svg>
