<?xml version="1.0" standalone="no"?>
<!DOCTYPE svg PUBLIC "-//W3C//DTD SVG 20010904//EN"
 "http://www.w3.org/TR/2001/REC-SVG-20010904/DTD/svg10.dtd">
<svg version="1.0" xmlns="http://www.w3.org/2000/svg"
 width="1280.000000pt" height="957.000000pt" viewBox="0 0 1280.000000 957.000000"
 preserveAspectRatio="xMidYMid meet">
<metadata>
Created by potrace 1.15, written by Peter Selinger 2001-2017
</metadata>
<g transform="translate(0.000000,957.000000) scale(0.100000,-0.100000)"
fill="#f44336" stroke="none">
<path d="M6530 9011 c-122 -31 -213 -122 -240 -240 -38 -166 76 -341 246 -377
223 -46 418 146 374 371 -24 125 -126 229 -245 249 -22 4 -47 9 -55 11 -8 1
-44 -4 -80 -14z"/>
<path d="M5712 8936 c-69 -29 -138 -98 -169 -166 -94 -206 61 -440 292 -440
221 0 372 235 284 440 -68 156 -254 232 -407 166z"/>
<path d="M7245 8921 c-162 -78 -229 -253 -156 -413 36 -78 88 -129 168 -162
82 -34 153 -34 236 -1 120 49 197 163 197 292 0 227 -242 382 -445 284z"/>
<path d="M5043 8733 c-126 -26 -216 -117 -246 -248 -27 -120 26 -248 132 -319
146 -99 352 -57 440 89 42 70 54 123 46 211 -5 60 -12 80 -46 129 -76 112
-198 164 -326 138z"/>
<path d="M8053 8726 c-80 -20 -157 -72 -198 -134 -123 -184 -15 -440 203 -483
272 -52 473 246 322 479 -47 73 -115 119 -207 138 -37 8 -68 14 -68 13 0 0
-23 -6 -52 -13z"/>
<path d="M4301 8345 c-199 -83 -255 -360 -103 -508 99 -96 234 -122 354 -68
203 91 251 351 94 510 -88 89 -227 116 -345 66z"/>
<path d="M8654 8347 c-153 -65 -225 -250 -159 -406 30 -73 104 -147 171 -173
115 -45 257 -15 343 71 154 154 104 418 -97 508 -71 31 -184 31 -258 0z"/>
<path d="M3750 7886 c-25 -7 -63 -25 -84 -39 -21 -15 -42 -27 -46 -27 -19 0
-89 -129 -99 -183 -40 -216 159 -411 375 -367 169 34 280 203 245 371 -25 125
-125 226 -247 248 -70 13 -86 13 -144 -3z"/>
<path d="M9285 7876 c-108 -26 -200 -124 -226 -239 -26 -122 31 -263 133 -329
144 -92 347 -50 438 91 115 180 27 415 -179 478 -53 16 -99 16 -166 -1z"/>
<path d="M3255 7280 c-193 -50 -292 -240 -224 -427 28 -75 103 -151 175 -175
124 -43 255 -14 340 74 125 130 126 299 3 435 -71 79 -197 119 -294 93z"/>
<path d="M9752 7255 c-113 -47 -192 -165 -192 -285 0 -236 238 -389 452 -291
242 113 237 459 -9 572 -80 37 -171 38 -251 4z"/>
<path d="M2880 6606 c-66 -18 -140 -71 -179 -130 -90 -138 -51 -337 85 -431
145 -100 342 -62 441 85 162 241 -65 553 -347 476z"/>
<path d="M10205 6610 c-11 -5 -33 -9 -48 -9 -16 -1 -55 -17 -88 -37 -195 -121
-200 -403 -10 -529 30 -19 64 -37 75 -39 12 -2 39 -8 61 -13 58 -12 155 10
214 50 28 18 64 55 85 87 96 147 59 340 -83 436 -63 43 -167 70 -206 54z"/>
<path d="M2610 5843 c-79 -38 -120 -82 -155 -163 -49 -113 -23 -245 68 -338
120 -125 323 -125 445 -1 128 128 122 334 -11 457 -26 23 -51 42 -57 42 -6 0
-30 9 -53 19 -68 31 -152 25 -237 -16z"/>
<path d="M10332 5845 c-116 -49 -192 -164 -192 -291 0 -276 332 -417 532 -226
95 91 122 223 71 347 -66 161 -251 238 -411 170z"/>
<path d="M2635 5101 c-11 -5 -31 -10 -44 -10 -14 -1 -50 -18 -81 -38 -193
-125 -196 -394 -6 -525 227 -156 537 46 487 317 -21 115 -122 225 -226 247
-73 15 -110 18 -130 9z"/>
<path d="M10443 5086 c-124 -32 -196 -111 -227 -249 -36 -159 83 -334 247
-364 217 -40 410 153 368 368 -35 177 -213 289 -388 245z"/>
<path d="M2612 4305 c-158 -66 -233 -254 -163 -407 76 -168 255 -241 413 -169
122 56 188 158 188 291 0 126 -63 227 -176 280 -80 38 -179 40 -262 5z"/>
<path d="M10435 4320 c-88 -8 -148 -35 -202 -91 -113 -118 -112 -317 1 -437
150 -160 421 -113 513 88 75 164 -3 353 -174 424 -34 14 -64 25 -65 25 -2 -1
-34 -5 -73 -9z"/>
<path d="M2875 3596 c-111 -29 -204 -127 -226 -240 -35 -170 73 -331 249 -372
211 -50 413 154 367 371 -13 63 -57 142 -100 177 -77 64 -191 90 -290 64z"/>
<path d="M10154 3591 c-54 -13 -140 -79 -175 -132 -121 -189 -17 -438 203
-484 164 -33 336 83 368 250 44 230 -163 421 -396 366z"/>
<path d="M3204 2901 c-164 -71 -237 -254 -165 -413 116 -254 469 -252 577 4
109 259 -155 521 -412 409z"/>
<path d="M9752 2896 c-117 -50 -192 -163 -192 -288 0 -226 222 -378 428 -295
163 67 242 248 177 408 -66 163 -255 244 -413 175z"/>
<path d="M3754 2326 c-141 -34 -244 -164 -244 -307 0 -196 181 -346 375 -309
335 63 337 544 2 616 -73 16 -68 16 -133 0z"/>
<path d="M9300 2316 c-167 -37 -272 -213 -231 -389 25 -106 137 -208 246 -225
226 -36 413 154 367 374 -23 114 -127 218 -241 243 -62 13 -70 13 -141 -3z"/>
<path d="M4295 1803 c-81 -34 -138 -92 -170 -170 -32 -79 -32 -138 0 -227 30
-87 78 -138 163 -177 208 -95 442 55 442 282 0 229 -227 382 -435 292z"/>
<path d="M8660 1804 c-73 -30 -150 -110 -178 -187 -75 -201 72 -416 287 -419
184 -3 321 129 321 309 0 131 -72 245 -184 294 -72 31 -173 32 -246 3z"/>
<path d="M8031 1458 c-152 -34 -263 -209 -231 -365 34 -170 197 -280 367 -249
224 41 331 298 202 486 -77 112 -201 159 -338 128z"/>
<path d="M5010 1446 c-114 -30 -212 -143 -224 -259 -29 -269 259 -452 485
-307 54 36 129 136 129 174 0 14 5 37 10 51 7 19 7 47 -1 92 -32 184 -216 299
-399 249z"/>
<path d="M7251 1226 c-76 -32 -150 -109 -178 -184 -32 -84 -30 -154 6 -234 93
-204 353 -254 510 -97 64 64 91 131 91 229 0 43 -4 81 -9 85 -5 3 -13 20 -16
37 -4 18 -29 55 -57 84 -92 98 -229 129 -347 80z"/>
<path d="M5700 1214 c-166 -75 -237 -261 -161 -419 75 -157 245 -224 404 -160
159 65 236 240 176 401 -62 166 -260 250 -419 178z"/>
<path d="M6514 1166 c-28 -7 -64 -22 -80 -33 -16 -11 -37 -22 -46 -26 -31 -11
-93 -119 -106 -182 -33 -167 76 -329 247 -368 169 -39 340 74 377 250 9 43 10
72 4 89 -6 14 -10 37 -10 51 0 14 -16 51 -35 83 -41 67 -120 121 -204 139 -63
13 -81 13 -147 -3z"/>
</g>
</svg>
