<?xml version="1.0" standalone="no"?>
<!DOCTYPE svg PUBLIC "-//W3C//DTD SVG 20010904//EN"
 "http://www.w3.org/TR/2001/REC-SVG-20010904/DTD/svg10.dtd">
<svg version="1.0" xmlns="http://www.w3.org/2000/svg"
 width="1280.000000pt" height="957.000000pt" viewBox="0 0 1280.000000 957.000000"
 preserveAspectRatio="xMidYMid meet">
<metadata>
Created by potrace 1.15, written by Peter Selinger 2001-2017
</metadata>
<g transform="translate(0.000000,957.000000) scale(0.100000,-0.100000)"
fill="#f44336" stroke="none">
<path d="M6490 9036 c-77 -18 -97 -27 -167 -80 -67 -51 -122 -120 -162 -206
-24 -52 -26 -64 -26 -205 0 -144 1 -154 33 -245 44 -124 79 -191 144 -277 73
-96 111 -138 189 -205 l66 -57 64 53 c273 228 418 529 389 806 -20 198 -153
359 -340 410 -84 23 -112 24 -190 6z"/>
<path d="M4979 8736 c-99 -22 -202 -108 -258 -215 -66 -127 -77 -237 -35 -366
82 -257 325 -482 633 -586 47 -16 92 -29 101 -29 11 0 32 33 63 98 85 180 112
313 105 520 -4 112 -8 138 -38 222 -67 192 -159 288 -331 346 -79 27 -150 29
-240 10z"/>
<path d="M7914 8721 c-170 -59 -258 -154 -323 -349 -57 -171 -51 -393 15 -602
30 -96 100 -230 120 -230 29 0 169 52 248 91 361 183 569 515 491 787 -46 159
-166 286 -302 318 -90 21 -158 17 -249 -15z"/>
<path d="M3719 7896 c-87 -18 -193 -88 -238 -155 -63 -96 -80 -147 -82 -261
-4 -151 33 -242 147 -356 129 -129 279 -205 484 -244 105 -20 263 -26 353 -14
41 6 47 10 53 37 3 17 6 87 7 156 0 289 -97 542 -272 709 -36 35 -87 75 -113
88 -102 52 -220 66 -339 40z"/>
<path d="M9168 7895 c-88 -22 -128 -47 -214 -132 -137 -135 -214 -292 -252
-516 -12 -71 -8 -355 5 -368 7 -7 62 -13 140 -16 328 -14 629 101 792 301 63
78 87 130 102 224 28 167 -37 342 -158 429 -89 65 -147 84 -258 89 -67 2 -119
-1 -157 -11z"/>
<path d="M2944 6639 c-109 -14 -227 -74 -288 -148 -123 -148 -139 -307 -49
-486 64 -125 152 -195 321 -251 103 -35 113 -36 252 -36 147 -1 221 10 355 51
88 27 225 101 225 121 0 9 -13 56 -30 104 -102 302 -335 551 -583 625 -83 25
-130 30 -203 20z"/>
<path d="M9975 6621 c-212 -73 -387 -235 -512 -477 -42 -80 -93 -220 -93 -252
0 -14 27 -31 98 -65 183 -87 308 -112 518 -104 125 4 148 8 229 37 157 57 246
129 305 245 86 169 79 321 -22 456 -71 95 -157 148 -281 175 -96 20 -150 17
-242 -15z"/>
<path d="M2610 5171 c-46 -10 -147 -63 -186 -98 -57 -50 -120 -139 -136 -189
-40 -126 -41 -137 -24 -218 21 -101 44 -143 127 -231 50 -52 89 -83 137 -107
l67 -33 160 0 160 1 100 37 c185 69 330 167 450 304 l74 85 -24 37 c-46 67
-179 192 -269 252 -172 116 -299 159 -481 164 -66 2 -136 0 -155 -4z"/>
<path d="M10245 5169 c-70 -14 -171 -47 -230 -77 -145 -72 -347 -236 -408
-332 l-19 -30 38 -47 c67 -82 156 -163 239 -218 103 -67 130 -81 245 -122 180
-65 374 -65 501 -1 80 40 186 145 222 219 85 175 40 369 -117 506 -23 20 -74
52 -115 71 -71 34 -81 36 -190 38 -64 2 -138 -1 -166 -7z"/>
<path d="M3085 3750 c-155 -13 -331 -92 -409 -183 -136 -161 -164 -377 -67
-524 69 -105 131 -153 250 -193 273 -91 606 101 801 463 39 73 100 235 100
267 0 9 -25 29 -57 46 -183 99 -399 142 -618 124z"/>
<path d="M9765 3745 c-173 -32 -395 -124 -395 -164 0 -9 13 -55 29 -102 145
-431 540 -724 852 -633 240 70 372 284 314 507 -33 128 -112 240 -213 301 -31
18 -99 48 -151 65 -80 27 -112 32 -225 36 -90 3 -156 0 -211 -10z"/>
<path d="M4035 2591 c-172 -36 -311 -99 -425 -194 -163 -134 -230 -297 -201
-488 30 -197 183 -333 388 -346 166 -11 270 33 405 169 78 80 96 106 144 202
29 61 66 156 81 211 24 90 27 118 27 272 1 94 -3 175 -7 179 -4 5 -79 9 -165
11 -123 2 -177 -2 -247 -16z"/>
<path d="M8734 2603 c-29 -4 -32 -8 -38 -50 -12 -92 -6 -262 13 -360 24 -122
50 -196 100 -289 139 -257 338 -373 572 -334 176 29 276 103 352 260 22 43 35
140 30 220 -13 253 -285 481 -650 545 -79 14 -297 18 -379 8z"/>
<path d="M5343 1905 c-374 -121 -663 -437 -663 -727 0 -207 141 -402 320 -442
87 -20 127 -20 203 0 128 33 240 112 300 212 19 31 49 100 67 152 29 85 32
110 36 235 4 149 -10 241 -56 379 -16 48 -84 194 -104 223 -1 1 -47 -13 -103
-32z"/>
<path d="M7679 1835 c-27 -57 -62 -148 -76 -202 -24 -87 -27 -117 -27 -268 -1
-162 0 -174 28 -255 58 -171 138 -273 258 -332 172 -84 320 -75 455 28 160
123 221 324 157 517 -42 126 -99 214 -211 324 -118 117 -289 218 -451 267
l-83 25 -50 -104z"/>
<path d="M6503 1647 c-155 -134 -244 -267 -320 -476 -33 -92 -35 -102 -36
-241 l-2 -145 38 -79 c28 -59 55 -96 107 -147 80 -79 138 -111 233 -129 146
-27 314 44 414 175 78 101 96 160 96 310 0 194 -52 342 -187 534 -65 92 -239
261 -268 261 -1 0 -35 -28 -75 -63z"/>
</g>
</svg>
