<?xml version="1.0" standalone="no"?>
<!DOCTYPE svg PUBLIC "-//W3C//DTD SVG 20010904//EN"
 "http://www.w3.org/TR/2001/REC-SVG-20010904/DTD/svg10.dtd">
<svg version="1.0" xmlns="http://www.w3.org/2000/svg"
 width="1280.000000pt" height="1136.000000pt" viewBox="0 0 1280.000000 1136.000000"
 preserveAspectRatio="xMidYMid meet">
<metadata>
Created by potrace 1.15, written by Peter Selinger 2001-2017
</metadata>
<g transform="translate(0.000000,1136.000000) scale(0.100000,-0.100000)"
fill="#8a460f" stroke="none">
<path d="M4949 11333 c-5 -14 -7 -45 -3 -68 4 -27 2 -45 -5 -49 -16 -10 -13
-93 4 -131 18 -36 51 -55 95 -55 39 0 54 27 39 70 -9 23 -9 38 0 56 25 56 0
140 -55 183 -36 29 -62 27 -75 -6z"/>
<path d="M4540 11047 c240 -78 301 -102 462 -184 456 -230 808 -589 1038
-1058 68 -138 134 -294 127 -301 -1 -2 -16 27 -31 64 -58 135 -168 348 -224
431 -213 321 -575 630 -957 816 -147 72 -355 140 -355 115 0 -9 25 -20 178
-81 322 -129 563 -289 799 -533 379 -390 624 -896 735 -1521 20 -111 23 -161
22 -340 -3 -490 -102 -972 -289 -1409 -89 -209 -149 -317 -353 -640 -45 -71
-80 -131 -77 -134 23 -23 191 226 329 489 190 362 328 757 395 1129 47 261 54
345 55 650 1 302 -5 379 -45 590 -181 954 -913 1767 -1757 1950 -51 11 -127
23 -170 26 l-77 5 195 -64z"/>
<path d="M5410 11095 c-12 -14 -21 -68 -36 -200 -4 -37 0 -59 13 -85 21 -41
44 -48 79 -25 20 13 25 23 22 51 -2 26 3 38 20 50 43 30 15 157 -46 204 -30
24 -36 25 -52 5z"/>
<path d="M3495 10979 c-290 -28 -586 -114 -858 -250 -241 -121 -411 -258 -887
-717 -292 -281 -358 -324 -414 -269 -23 23 -24 30 -20 92 3 38 5 71 6 74 5 46
-19 81 -55 81 -30 0 -95 -35 -135 -73 -52 -50 -69 -99 -76 -217 l-7 -105 36
-60 c46 -76 111 -143 150 -154 16 -4 55 -5 85 -1 30 4 56 6 58 5 1 -1 -17 -63
-42 -136 -75 -227 -94 -329 -137 -731 -10 -99 -3 -201 11 -148 4 17 9 0 14
-55 9 -92 50 -341 61 -368 6 -13 3 -16 -9 -11 -37 14 -10 -140 44 -247 56
-110 134 -169 226 -169 80 0 206 97 253 194 21 42 35 158 34 268 -1 113 -70
188 -173 188 -73 0 -85 -12 -77 -83 4 -37 2 -57 -8 -71 -10 -13 -11 -25 -4
-43 22 -57 -30 -96 -93 -70 -80 33 -144 116 -180 230 -75 242 -58 602 47 968
27 93 48 142 99 227 35 59 87 148 116 197 163 278 459 595 745 800 259 186
593 320 945 381 127 21 475 30 611 15 464 -53 896 -232 1269 -528 115 -91 342
-319 419 -421 284 -376 439 -827 466 -1357 13 -243 -36 -570 -137 -925 -161
-565 -431 -1020 -824 -1389 -263 -247 -515 -423 -969 -679 -121 -68 -229 -133
-240 -143 -19 -20 -18 -20 35 1 173 68 499 251 712 400 297 209 580 458 766
675 47 55 90 105 96 110 20 20 -29 -52 -88 -130 -143 -190 -271 -329 -506
-549 -95 -89 -105 -100 -55 -65 289 204 593 545 811 911 168 284 319 645 384
921 24 103 85 458 102 597 17 137 16 555 -1 680 -31 230 -96 475 -177 675
-209 512 -644 971 -1169 1233 -397 198 -833 282 -1260 241z m100 -140 c-216
-10 -369 -31 -520 -70 -292 -75 -539 -197 -785 -387 -91 -70 -299 -252 -340
-297 -14 -15 -70 -68 -125 -119 l-99 -91 64 80 c359 445 857 749 1400 854 147
29 251 38 425 38 l150 0 -170 -8z"/>
<path d="M12254 10878 c-44 -26 -159 -99 -358 -230 -412 -271 -685 -675 -951
-1408 -82 -224 -119 -308 -140 -316 -98 -38 -346 -768 -385 -1134 -5 -52 -21
-129 -35 -170 -27 -81 -96 -233 -102 -226 -2 2 5 37 16 77 76 280 98 632 56
910 -94 625 -479 1157 -998 1379 -223 95 -363 84 -477 -36 -69 -73 -99 -141
-111 -256 -14 -137 -12 -206 9 -269 69 -207 254 -338 408 -289 55 17 136 80
159 123 18 33 18 37 3 54 -14 16 -15 21 -3 43 24 43 19 96 -11 119 -15 12 -37
21 -51 21 -66 0 -141 66 -129 114 8 33 98 112 135 119 17 4 64 -2 108 -13 158
-40 298 -131 441 -286 198 -213 385 -584 423 -839 8 -47 13 -190 13 -350 l0
-270 -47 -189 c-45 -183 -56 -253 -38 -242 15 10 -16 -102 -37 -131 -38 -53
-147 -149 -225 -197 -176 -109 -342 -163 -548 -176 -161 -11 -183 -18 -198
-61 -15 -43 -14 -55 5 -74 15 -15 15 -17 -5 -31 -27 -19 -28 -65 -1 -89 32
-29 112 -32 153 -6 19 12 97 37 173 57 111 28 239 73 402 141 7 3 -16 -34 -51
-83 -35 -49 -92 -132 -127 -184 -352 -526 -863 -983 -1442 -1289 -348 -184
-842 -354 -1301 -446 -500 -100 -982 -149 -1957 -200 -267 -14 -546 -30 -620
-35 -1479 -107 -2184 -333 -2765 -882 -243 -231 -426 -501 -575 -853 -59 -137
-132 -366 -164 -510 -44 -197 -45 -199 -40 -90 13 255 46 425 130 666 127 366
303 687 522 953 152 185 454 469 678 639 34 25 218 151 410 279 924 618 1520
1112 1853 1535 163 208 273 447 349 763 57 233 66 301 59 438 -9 180 -66 375
-158 542 -60 108 -191 234 -349 338 -69 44 -142 94 -163 109 l-39 28 38 3 c22
2 44 8 51 14 19 16 16 62 -7 91 -24 30 -25 37 -7 37 23 0 47 35 47 66 -1 58
-56 97 -138 98 -122 0 -220 -95 -210 -206 3 -26 0 -69 -7 -95 l-12 -47 -99
-17 c-259 -44 -442 -172 -547 -384 -53 -108 -60 -138 -60 -270 0 -103 4 -129
22 -171 61 -136 224 -207 362 -155 144 54 212 179 214 388 0 94 -14 122 -81
161 -64 37 -76 29 -96 -62 -9 -43 -22 -83 -30 -87 -38 -25 -141 5 -185 52 -37
41 -45 75 -27 112 91 178 342 282 601 248 293 -39 537 -221 649 -483 68 -159
84 -289 60 -480 -57 -450 -239 -795 -636 -1202 -312 -320 -708 -636 -1430
-1141 -140 -98 -261 -182 -268 -188 -6 -5 -12 -7 -12 -4 0 3 57 47 127 98 475
345 1256 988 1232 1013 -3 4 -91 -65 -195 -152 -394 -330 -646 -529 -994 -787
-464 -343 -687 -511 -773 -584 -50 -42 -102 -86 -116 -98 -14 -11 -23 -24 -20
-28 4 -3 94 60 200 141 169 128 475 356 519 387 58 41 -38 -37 -164 -134 -542
-414 -888 -830 -1102 -1324 -70 -162 -155 -415 -188 -560 -56 -250 -91 -579
-83 -775 15 -327 89 -742 146 -825 15 -22 54 -87 85 -145 126 -229 268 -412
477 -615 106 -102 105 -99 -17 40 -133 153 -211 257 -311 416 -54 87 -134 231
-130 235 2 2 35 -45 74 -104 161 -243 453 -542 673 -689 164 -109 452 -264
466 -250 7 7 -60 51 -246 160 -80 47 -181 110 -224 142 -303 217 -576 527
-625 710 -35 130 -45 674 -17 850 54 333 166 578 374 822 l44 53 20 -25 c14
-18 29 -25 54 -25 45 0 100 23 113 48 18 34 -10 52 -82 52 l-61 0 64 66 c88
88 140 130 133 106 -2 -10 5 -30 17 -45 17 -21 30 -27 61 -27 44 0 113 31 123
55 12 31 -55 75 -116 75 -41 0 -29 13 82 89 85 59 88 60 94 38 17 -70 182 -59
174 11 -4 34 -50 61 -115 67 -42 4 -61 0 -109 -25 -132 -67 -372 -275 -497
-430 -98 -122 -104 -120 -12 5 116 158 255 292 430 416 149 105 193 144 179
159 -8 8 -22 7 -55 -6 -101 -40 -239 -147 -396 -305 -386 -390 -560 -766 -593
-1282 -10 -164 -2 -599 12 -591 4 3 8 -5 8 -18 l0 -22 -17 24 c-26 36 -62 115
-89 195 -60 171 -54 520 12 785 145 585 515 1137 989 1476 258 185 623 345
1018 449 452 118 977 183 2022 250 755 48 1090 77 1450 126 670 91 1257 252
1720 474 765 365 1436 994 1766 1656 37 73 52 111 91 226 9 26 24 38 97 71
232 108 281 120 536 131 206 8 223 14 318 101 81 74 118 137 128 218 5 37 12
89 15 115 l7 49 61 -9 c160 -21 228 -6 276 64 33 48 60 64 118 68 111 8 232
112 258 220 10 44 62 118 152 217 92 101 116 145 109 197 -6 52 24 121 85 194
66 80 86 125 104 245 16 105 12 156 -12 170 -10 5 -47 3 -92 -5 -43 -7 -249
-36 -459 -63 -482 -63 -662 -99 -815 -164 -15 -7 -15 -3 3 30 10 21 19 44 19
51 0 44 147 274 283 443 271 336 557 509 1042 629 178 44 258 54 355 47 69 -5
89 -3 108 9 30 21 31 78 1 98 l-21 15 21 7 c35 11 51 34 51 74 0 73 -2 73
-304 -3 -335 -84 -467 -124 -592 -177 -357 -153 -570 -343 -826 -734 -114
-175 -179 -229 -162 -137 16 90 53 182 161 402 228 467 339 638 557 856 239
238 469 387 639 414 39 6 58 15 79 39 28 31 38 84 18 96 -5 3 -1 14 10 25 25
25 26 72 2 93 -26 24 -82 21 -128 -5z m-53 -177 c-13 -10 -80 -48 -150 -86
-174 -94 -266 -161 -406 -295 -90 -87 -106 -100 -65 -51 72 83 212 206 325
284 120 82 380 212 296 148z m-681 -514 c0 -2 -10 -12 -22 -23 l-23 -19 19 23
c18 21 26 27 26 19z m1101 -278 c-48 -21 -187 -58 -321 -84 -195 -39 -307 -77
-485 -165 -77 -39 -182 -101 -234 -138 -189 -135 -378 -338 -505 -542 -74
-119 -90 -136 -41 -44 109 205 430 557 625 686 257 169 674 300 970 306 l35 1
-44 -20z m-3129 -329 c109 -36 196 -86 293 -168 126 -106 259 -296 345 -492
54 -122 58 -146 10 -60 -127 230 -307 441 -495 581 -70 52 -173 118 -230 148
-57 29 -31 26 77 -9z m2328 -1138 c-114 -79 -143 -120 -105 -152 32 -27 18
-64 -47 -129 -57 -55 -63 -59 -66 -38 -2 12 -8 27 -13 33 -6 7 -4 16 7 24 10
9 14 26 13 51 -3 31 2 42 29 67 34 32 38 43 22 71 -7 14 -5 23 10 36 11 10 20
24 20 31 0 13 36 19 115 22 l40 1 -25 -17z m-7886 -78 c9 -8 16 -26 16 -39 0
-22 -5 -24 -67 -29 -193 -17 -306 -62 -445 -178 -52 -43 -56 -43 -32 4 64 123
242 229 419 248 39 4 75 8 82 9 6 0 19 -6 27 -15z m331 -77 c99 -50 208 -138
274 -222 74 -93 71 -96 -14 -17 -43 40 -124 105 -179 143 -56 38 -117 83 -136
100 -32 28 -33 30 -10 24 14 -4 43 -17 65 -28z m6935 -10 c19 -7 35 -19 35
-26 0 -21 -78 -78 -126 -92 -31 -10 -48 -10 -73 -1 -18 7 -57 12 -87 12 -62 0
-91 12 -72 31 9 9 17 7 34 -5 13 -9 43 -16 67 -16 56 0 108 45 98 85 -6 24 -5
25 41 24 27 0 64 -5 83 -12z m-336 -198 c-8 -14 -24 -10 -24 6 0 9 6 12 15 9
8 -4 12 -10 9 -15z m701 -63 c-2 -13 -8 -33 -14 -44 -11 -21 -70 -62 -90 -62
-16 0 -14 35 4 50 8 7 15 19 15 26 0 8 17 22 38 33 49 25 50 25 47 -3z m-655
-669 c0 -8 -13 -26 -30 -42 l-30 -29 0 33 c0 49 16 74 40 61 11 -6 20 -16 20
-23z m-250 -116 c0 -5 -7 -11 -15 -15 -15 -5 -20 5 -8 17 9 10 23 9 23 -2z
m150 -117 c0 -16 -83 -36 -156 -37 -127 0 -140 19 -18 27 54 4 110 8 124 10
14 2 31 4 38 5 6 0 12 -1 12 -5z m-885 -255 c-168 -114 -282 -153 -500 -174
-63 -6 -69 -5 -55 9 9 9 48 20 95 26 101 14 209 47 355 109 127 54 150 61 105
30z m-6415 -1403 c0 -2 -8 -10 -17 -17 -16 -13 -17 -12 -4 4 13 16 21 21 21
13z m-40 -30 c0 -15 -377 -291 -805 -591 -668 -467 -903 -663 -1126 -935 -81
-99 -118 -135 -63 -62 74 99 202 249 286 334 207 211 396 356 928 711 327 218
671 460 750 525 26 22 30 25 30 18z m4766 -401 c-11 -8 -25 -15 -30 -15 -6 1
0 7 14 15 32 19 40 18 16 0z m-99 -46 c-213 -110 -624 -248 -963 -323 -578
-128 -1165 -195 -2239 -256 -311 -17 -489 -29 -697 -46 -109 -9 -203 -14 -209
-12 -20 7 343 36 896 73 925 62 1190 85 1570 136 561 75 1164 231 1558 403
136 60 172 70 84 25z m-4150 -645 c-3 -3 -12 -4 -19 -1 -8 3 -5 6 6 6 11 1 17
-2 13 -5z"/>
<path d="M5762 10696 c4 -50 2 -66 -8 -70 -31 -12 -5 -139 31 -153 24 -9 48
21 49 62 1 20 6 35 13 35 20 0 27 50 14 99 -15 55 -46 91 -79 91 -24 0 -25 -1
-20 -64z"/>
<path d="M6031 10391 c-38 -54 -44 -82 -23 -111 15 -20 18 -37 15 -76 -6 -58
8 -94 37 -94 23 0 45 59 37 99 -4 20 0 32 14 44 10 9 19 28 19 42 0 34 -47
125 -64 125 -8 0 -24 -13 -35 -29z"/>
<path d="M6259 9991 c-29 -30 -38 -72 -20 -100 6 -9 4 -23 -6 -38 -33 -50 -7
-123 43 -123 47 0 76 59 51 105 -13 25 -12 30 4 46 13 13 19 34 19 67 0 77
-38 95 -91 43z"/>
<path d="M6405 9560 c-19 -37 -19 -84 0 -100 13 -11 13 -15 0 -41 -19 -36 -19
-54 1 -73 20 -21 26 -20 52 4 23 22 31 83 12 95 -6 4 -3 16 10 32 37 48 20
113 -30 113 -23 0 -33 -7 -45 -30z"/>
<path d="M11613 9353 c48 -2 126 -2 175 0 48 1 8 3 -88 3 -96 0 -136 -2 -87
-3z"/>
<path d="M1358 6770 c-180 -31 -331 -108 -483 -249 -100 -92 -152 -131 -177
-131 -18 0 -19 5 -13 48 5 38 3 51 -10 62 -22 18 -62 4 -88 -32 -17 -23 -19
-33 -11 -70 6 -26 6 -61 0 -89 -14 -67 8 -120 54 -135 47 -15 54 -49 41 -182
-13 -128 -13 -142 -2 -142 5 0 12 24 15 54 21 163 115 348 234 456 200 184
491 248 757 169 270 -80 530 -333 600 -584 26 -93 33 -416 10 -526 -15 -77
-28 -116 -109 -322 -17 -44 -22 -67 -14 -65 22 8 70 100 108 207 28 79 39 99
45 85 26 -62 60 249 60 546 0 207 -5 229 -77 374 -125 251 -309 417 -548 494
-121 39 -273 52 -392 32z m337 -113 c123 -41 235 -109 334 -205 47 -47 66 -68
41 -48 -175 143 -346 216 -544 234 -217 20 -436 -41 -571 -160 -25 -22 -48
-38 -51 -35 -6 6 75 78 132 117 67 47 158 89 236 110 109 30 312 23 423 -13z"/>
<path d="M3721 6445 c-37 -32 -50 -72 -51 -155 0 -36 -1 -78 -2 -94 -1 -32 31
-66 62 -66 32 0 62 49 58 95 -2 27 4 49 16 68 21 30 18 99 -5 150 -15 34 -39
34 -78 2z"/>
<path d="M3809 6109 c-41 -33 -114 -98 -164 -143 -113 -103 -332 -296 -337
-296 -8 0 1 99 12 137 15 49 5 100 -23 117 -15 9 -23 6 -43 -17 -28 -32 -32
-90 -10 -123 12 -17 12 -22 0 -39 -20 -26 -17 -72 4 -93 18 -18 16 -20 -52
-78 -168 -141 -448 -360 -666 -522 -575 -427 -750 -564 -852 -668 -76 -78
-101 -110 -96 -125 5 -14 70 34 198 146 182 158 354 290 920 712 579 431 955
758 1179 1026 32 38 1 23 -70 -34z"/>
<path d="M3474 6125 c-11 -16 -15 -39 -12 -67 2 -24 -2 -54 -9 -68 -17 -33
-16 -64 2 -99 21 -42 46 -47 72 -16 13 14 24 36 24 48 3 49 7 94 14 140 6 39
4 51 -10 67 -25 28 -61 25 -81 -5z"/>
<path d="M9833 5808 c-88 -101 -198 -219 -245 -264 -536 -514 -1469 -930
-2472 -1104 -514 -89 -1097 -144 -1651 -157 l-310 -8 235 -11 c303 -15 527
-16 770 -4 1388 72 2494 428 3245 1046 93 76 278 257 357 349 77 90 249 335
235 335 -2 0 -76 -82 -164 -182z"/>
<path d="M7395 5929 c-49 -12 -125 -60 -151 -96 -38 -51 -47 -78 -56 -153 -5
-41 -11 -94 -14 -116 -10 -71 38 -134 89 -118 12 3 38 21 57 39 19 18 46 38
60 45 54 29 124 4 156 -55 l19 -37 -41 -36 c-187 -167 -946 -391 -1327 -392
-66 -1 -78 -3 -63 -12 35 -20 313 -13 481 11 272 40 634 124 759 176 21 9 40
14 43 12 9 -9 -206 -107 -319 -146 -160 -55 -378 -108 -510 -125 -61 -8 -113
-17 -116 -20 -26 -27 127 -24 293 4 275 47 512 113 646 180 223 112 379 271
379 387 0 21 5 72 11 114 12 73 11 78 -15 135 -66 143 -242 238 -381 203z"/>
<path d="M10126 5869 c-14 -11 -26 -29 -26 -40 0 -22 18 -61 32 -70 6 -4 -2
-18 -16 -32 -14 -14 -26 -32 -26 -40 0 -19 30 -44 62 -52 35 -9 129 19 154 46
19 21 19 21 -9 45 -16 13 -36 24 -45 24 -11 0 -6 7 14 19 44 27 65 60 54 81
-23 42 -149 55 -194 19z"/>
<path d="M942 5817 c-29 -31 -28 -43 7 -55 15 -5 31 -19 34 -31 4 -17 -1 -22
-34 -31 -42 -12 -52 -37 -24 -60 13 -11 13 -15 3 -21 -23 -15 -63 -10 -111 15
-26 13 -47 21 -47 18 0 -12 94 -113 121 -129 16 -9 29 -20 29 -24 0 -13 -50
-19 -90 -10 -22 5 -42 6 -44 2 -8 -13 45 -71 89 -96 58 -35 129 -42 175 -18
44 23 80 91 80 151 0 23 9 60 20 82 39 77 17 156 -59 207 -47 32 -119 32 -149
0z"/>
<path d="M9779 5614 c-373 -377 -694 -607 -1164 -835 -730 -354 -1559 -544
-2680 -614 -317 -20 -363 -25 -339 -38 32 -18 579 5 889 38 621 65 927 121
1355 245 128 37 354 114 468 159 51 20 52 20 52 1 0 -27 33 -42 88 -38 39 2
47 6 47 23 0 12 -15 28 -40 42 -22 12 -34 23 -27 23 21 0 366 170 487 240 300
172 592 398 773 598 122 135 219 262 199 262 -2 0 -50 -48 -108 -106z"/>
<path d="M9901 5557 c-42 -15 -56 -36 -47 -70 7 -31 34 -41 91 -32 75 11 123
69 77 94 -32 17 -86 21 -121 8z"/>
<path d="M9885 5433 c-23 -6 -55 -32 -55 -45 0 -21 51 -58 79 -58 65 0 144 50
126 80 -13 21 -101 35 -150 23z"/>
<path d="M100 5356 c-25 -7 -58 -20 -75 -28 l-30 -16 25 -6 c14 -2 69 -7 122
-11 115 -6 201 -31 283 -80 74 -45 95 -65 38 -36 -72 36 -150 51 -263 50
l-105 0 107 -39 c171 -62 242 -103 334 -195 70 -70 88 -96 136 -195 69 -140
98 -233 98 -311 0 -85 -32 -301 -105 -715 -77 -433 -110 -667 -124 -874 -6
-85 -15 -222 -21 -304 -6 -82 -8 -151 -5 -154 3 -3 5 11 5 31 0 71 17 36 24
-47 3 -46 10 -95 15 -108 7 -20 9 -16 15 27 3 28 11 167 16 310 15 397 25 463
140 995 68 315 99 476 132 695 19 127 17 407 -5 485 -68 253 -268 466 -493
524 -72 19 -200 19 -264 2z"/>
<path d="M9614 5306 c-38 -17 -47 -37 -28 -64 32 -46 139 -52 183 -11 24 23
24 24 11 49 -20 37 -108 51 -166 26z"/>
<path d="M9622 5174 c-12 -8 -27 -24 -33 -35 -22 -43 45 -77 114 -58 19 5 37
15 40 22 8 22 -11 56 -42 71 -38 20 -51 20 -79 0z"/>
<path d="M4044 5110 c-78 -32 -305 -133 -505 -223 -200 -91 -463 -209 -584
-262 -314 -139 -494 -228 -470 -232 11 -2 124 22 252 54 128 32 229 55 225 52
-4 -4 -77 -37 -162 -74 -85 -37 -193 -87 -240 -112 -75 -39 -80 -43 -45 -38
22 4 132 31 245 61 484 128 985 226 1355 263 110 11 184 33 275 82 116 62 175
132 150 179 -10 18 -8 25 8 43 37 39 44 72 21 101 -46 59 -268 165 -344 165
-26 1 -88 -19 -181 -59z"/>
<path d="M9288 5069 c-24 -13 -23 -52 2 -74 28 -26 121 -17 155 15 32 30 32
48 -1 60 -33 13 -134 12 -156 -1z"/>
<path d="M1517 4945 c-68 -35 -127 -77 -179 -128 -62 -60 -74 -80 -97 -172
-21 -81 -120 -380 -299 -900 -55 -159 -103 -306 -106 -325 l-7 -35 21 33 c28
42 33 41 14 -4 -8 -20 -13 -41 -11 -47 4 -12 61 83 195 326 104 188 223 369
342 521 129 164 176 244 209 356 43 142 71 265 71 315 0 84 -60 108 -153 60z"/>
<path d="M5480 4960 c36 -11 172 -11 190 0 10 7 -22 9 -100 9 -73 -1 -106 -4
-90 -9z"/>
<path d="M9304 4936 c-45 -20 -50 -34 -23 -63 20 -21 31 -24 67 -20 73 8 111
66 56 87 -34 13 -63 12 -100 -4z"/>
<path d="M8994 4866 c-26 -20 -8 -48 37 -59 63 -15 160 37 119 63 -24 15 -133
12 -156 -4z"/>
<path d="M9016 4735 c-59 -21 -64 -32 -20 -44 55 -15 100 -14 118 5 9 8 16 17
16 19 0 2 -7 11 -16 19 -19 19 -46 20 -98 1z"/>
<path d="M8755 4722 c-62 -8 -67 -39 -10 -67 37 -17 78 -12 108 13 34 30 19
45 -53 55 -8 1 -28 1 -45 -1z"/>
<path d="M8742 4590 c-51 -21 -33 -70 26 -72 50 -2 80 35 50 60 -21 16 -52 21
-76 12z"/>
<path d="M8390 4465 c-26 -32 13 -81 48 -59 34 22 22 74 -18 74 -10 0 -23 -7
-30 -15z"/>
<path d="M4022 4055 c4 -4 123 -31 265 -61 1068 -224 1567 -387 1958 -639 97
-63 265 -184 265 -192 0 -3 -19 6 -42 20 -319 185 -716 374 -957 453 -327 108
-877 233 -1096 248 -75 6 -78 5 -50 -8 17 -8 154 -45 305 -81 886 -215 1261
-359 1700 -654 201 -135 277 -175 316 -165 18 5 23 3 19 -7 -9 -25 64 -131
213 -310 146 -175 263 -331 316 -421 24 -41 26 -54 23 -110 -3 -35 -10 -76
-16 -91 -16 -41 -13 -82 7 -107 15 -19 22 -21 40 -11 11 6 22 23 24 38 4 35
35 41 70 14 14 -11 42 -52 62 -91 34 -64 36 -73 23 -88 -25 -29 -30 -61 -13
-87 15 -23 15 -27 -4 -62 -35 -66 -18 -101 44 -89 49 9 84 41 88 79 l4 32 18
-40 c15 -33 16 -45 6 -77 -6 -22 -8 -47 -5 -57 3 -10 -6 -42 -19 -71 -27 -57
-25 -84 5 -75 28 9 23 -7 -11 -40 -22 -21 -30 -37 -28 -55 3 -23 6 -25 52 -22
50 2 86 -16 86 -43 0 -7 11 -28 24 -47 20 -30 24 -52 30 -156 7 -116 7 -121
-13 -134 -28 -17 -27 -57 4 -118 41 -81 91 -100 113 -42 15 39 26 119 25 174
-1 39 -33 134 -79 235 -3 6 7 17 22 25 40 19 40 34 0 74 -40 40 -39 54 3 54
16 0 39 8 52 18 43 36 0 72 -86 72 -24 0 -46 4 -49 8 -3 5 -8 30 -11 58 -7 47
-6 50 24 67 40 24 39 43 -4 68 -41 25 -45 39 -9 39 35 0 64 17 64 39 0 26 -38
57 -101 80 -63 24 -82 41 -102 91 -29 70 -30 80 -9 80 26 0 45 24 38 48 -6 18
-29 33 -70 46 -25 9 -13 19 37 31 35 9 43 15 45 37 4 34 -25 54 -91 63 -28 5
-60 18 -77 31 -29 25 -72 92 -84 132 -7 20 -4 22 26 22 18 0 40 5 48 10 13 9
10 15 -18 40 -18 17 -39 30 -47 30 -29 0 -15 17 25 30 56 18 66 34 46 65 -26
39 -64 58 -133 67 -83 10 -129 42 -243 169 -122 136 -160 185 -135 175 78 -31
221 -69 276 -73 71 -6 155 15 251 63 70 35 89 66 88 139 0 33 2 90 6 127 5 57
3 72 -16 106 -52 92 -141 95 -219 7 -52 -60 -39 -79 49 -68 33 4 55 2 65 -7
26 -21 17 -33 -20 -27 -43 7 -105 -9 -105 -28 0 -20 40 -45 73 -45 40 0 30
-19 -24 -48 -120 -65 -365 18 -854 290 -282 157 -403 219 -575 296 -542 243
-1062 380 -1665 436 -88 9 -185 18 -214 21 -30 3 -52 3 -49 0z m2886 -1049
c171 -86 388 -111 527 -60 20 7 20 7 0 -15 -67 -77 -244 -91 -414 -35 -98 33
-156 65 -178 97 -40 59 -30 61 65 13z m-25 -178 c99 -103 316 -378 299 -378
-31 0 -422 439 -422 472 0 24 36 -3 123 -94z m549 -792 c10 -19 10 -20 -6 -7
-9 8 -22 24 -28 35 -10 19 -10 20 6 7 9 -8 22 -24 28 -35z m287 -766 c0 -37
-16 -6 -23 45 l-6 40 15 -30 c8 -16 14 -41 14 -55z"/>
<path d="M5735 3979 c61 -4 220 -12 355 -18 356 -17 955 -50 1105 -61 625 -48
1291 -173 1766 -331 571 -189 996 -448 1304 -792 63 -71 173 -217 162 -217 -2
0 -27 30 -55 68 -173 232 -400 433 -675 598 -169 101 -327 171 -560 249 -734
245 -1698 377 -2727 374 -146 0 -260 -2 -255 -4 6 -2 102 -9 215 -15 296 -16
746 -47 939 -65 1324 -123 2271 -450 2815 -975 175 -169 288 -323 391 -533 93
-191 130 -314 156 -527 35 -290 -70 -627 -250 -793 -65 -61 -121 -86 -190 -87
-49 0 -57 3 -87 36 -19 19 -34 43 -34 53 0 9 20 34 45 54 50 42 55 60 24 93
l-22 23 32 26 c38 33 39 45 5 85 -79 93 -201 91 -297 -6 -84 -85 -109 -174
-98 -349 11 -169 37 -215 193 -338 l47 -37 131 70 c365 195 504 397 579 840
37 224 35 395 -10 613 -55 273 -206 594 -385 818 -366 460 -1029 794 -1964
988 -451 93 -687 113 -1695 141 -209 6 -523 15 -697 20 -354 11 -426 11 -263
-1z"/>
<path d="M8610 3930 c0 -11 65 -24 79 -15 24 14 9 25 -34 25 -25 0 -45 -4 -45
-10z"/>
<path d="M3335 3900 c22 -5 99 -18 172 -30 154 -24 249 -51 391 -110 110 -46
127 -61 41 -36 -116 34 -221 48 -394 53 -99 3 -178 3 -175 0 3 -3 64 -15 135
-27 360 -60 714 -256 1020 -565 125 -125 209 -237 300 -396 79 -139 173 -246
246 -279 57 -25 72 -25 104 3 22 19 29 38 43 122 9 55 17 154 17 220 0 106 -3
129 -28 195 -32 88 -78 149 -173 232 -285 248 -780 508 -1119 589 -46 10 -128
24 -182 29 -122 12 -456 12 -398 0z"/>
<path d="M8770 3891 c0 -13 40 -24 71 -19 42 5 26 23 -23 26 -29 2 -48 -1 -48
-7z"/>
<path d="M8945 3851 c6 -6 98 -44 205 -86 274 -107 345 -137 515 -223 448
-223 801 -514 1088 -894 44 -60 82 -106 85 -104 2 2 -13 37 -32 76 -145 288
-501 615 -951 873 -66 38 -113 67 -105 64 22 -7 50 11 50 32 0 31 -29 46 -82
42 -23 -1 -23 -29 -1 -53 11 -12 -13 -5 -73 23 -256 118 -741 292 -699 250z"/>
<path d="M9710 3747 c0 -21 44 -57 69 -57 25 0 75 45 66 60 -10 16 -135 13
-135 -3z"/>
<path d="M3140 3705 c0 -6 53 -20 230 -61 197 -46 253 -66 405 -139 269 -130
478 -319 619 -559 62 -105 83 -152 40 -91 -186 267 -463 499 -735 617 -82 35
-244 76 -256 65 -7 -8 59 -40 162 -77 215 -78 377 -182 545 -350 204 -203 330
-420 395 -679 45 -182 49 -309 14 -479 -50 -244 -207 -491 -408 -642 -76 -57
-227 -138 -317 -168 -249 -85 -567 -85 -816 -2 -234 79 -400 217 -410 341 -4
43 28 61 96 56 57 -5 86 -31 86 -78 0 -58 56 -45 89 19 10 20 22 55 26 77 3
21 20 54 36 73 16 18 29 39 29 48 0 25 -57 128 -87 156 -54 51 -111 73 -198
76 -164 6 -197 -45 -222 -340 -12 -142 99 -323 293 -478 167 -133 345 -203
554 -216 155 -10 152 -8 144 -102 -8 -90 3 -120 60 -170 67 -59 158 -64 214
-12 23 22 30 74 12 85 -6 4 -3 16 10 32 40 51 16 123 -41 123 l-24 0 25 19
c13 11 74 41 134 68 227 100 381 208 525 368 121 136 212 300 231 418 6 40 22
119 36 177 53 229 53 438 -1 657 -130 534 -546 967 -1062 1103 -136 36 -433
81 -433 65z m-281 -2563 c112 -69 204 -105 363 -147 176 -45 178 -46 178 -56
0 -11 -33 -11 -145 1 -242 27 -415 101 -551 235 -66 66 -104 124 -123 192 -7
23 11 9 93 -73 67 -67 130 -118 185 -152z m1331 77 c-55 -48 -139 -104 -215
-142 -77 -39 -176 -80 -181 -74 -2 1 61 35 139 75 78 40 174 94 212 121 81 57
95 63 45 20z"/>
<path d="M11530 3670 c0 -6 61 -10 164 -10 99 0 167 4 171 10 4 7 -53 10 -164
10 -107 0 -171 -4 -171 -10z"/>
<path d="M2940 3661 c0 -13 55 -24 80 -16 11 4 18 11 15 16 -8 12 -95 12 -95
0z"/>
<path d="M10009 3641 c-42 -34 7 -76 104 -87 70 -8 78 5 27 48 -54 47 -103 62
-131 39z"/>
<path d="M10033 3500 c-26 -11 -30 -42 -9 -59 21 -17 87 -10 100 11 21 34 -44
67 -91 48z"/>
<path d="M10314 3446 c-3 -9 1 -28 10 -42 30 -45 86 -51 107 -12 15 29 -16 58
-69 65 -33 4 -43 2 -48 -11z"/>
<path d="M10313 3325 c-47 -33 -17 -65 60 -65 58 0 75 19 44 48 -32 30 -76 37
-104 17z"/>
<path d="M10568 3240 c-24 -15 -23 -63 2 -85 39 -35 130 -19 130 24 0 44 -92
85 -132 61z"/>
<path d="M10170 3152 c0 -11 92 -114 342 -379 159 -169 238 -260 291 -333 9
-14 4 3 -13 37 -38 79 -154 232 -267 353 -151 162 -353 346 -353 322z"/>
<path d="M10542 3118 c-18 -18 -15 -33 14 -67 39 -47 134 -55 134 -12 0 22
-22 42 -77 70 -49 24 -55 25 -71 9z"/>
<path d="M2075 3060 c-35 -13 -48 -36 -35 -59 23 -43 73 -52 140 -25 35 14 60
38 60 59 0 3 -16 13 -35 21 -37 15 -98 18 -130 4z"/>
<path d="M10807 2985 c-38 -37 -12 -84 56 -100 33 -9 77 17 77 43 0 48 -100
91 -133 57z"/>
<path d="M1823 2859 c-27 -8 -33 -15 -33 -37 0 -51 39 -66 103 -38 39 17 94
62 86 70 -11 11 -124 15 -156 5z"/>
<path d="M10779 2843 c-20 -54 45 -101 115 -82 68 19 56 62 -25 90 -70 25 -78
24 -90 -8z"/>
<path d="M11006 2694 c-26 -25 -19 -59 18 -92 38 -33 96 -48 126 -32 32 17 25
57 -19 101 -30 31 -46 39 -74 39 -20 0 -43 -7 -51 -16z"/>
<path d="M1610 2658 c-35 -19 -39 -62 -6 -83 54 -36 171 34 123 73 -22 18 -90
24 -117 10z"/>
<path d="M10994 2572 c-18 -12 -24 -41 -12 -67 15 -33 61 -48 108 -35 68 18
61 68 -12 87 -23 6 -50 14 -58 17 -8 3 -20 2 -26 -2z"/>
<path d="M1440 2532 c-22 -18 -22 -19 -5 -51 16 -32 19 -33 62 -28 31 3 53 13
72 31 l26 27 -24 20 c-30 25 -101 26 -131 1z"/>
<path d="M1426 2407 c-26 -19 -16 -50 20 -60 59 -17 142 46 88 67 -27 11 -90
6 -108 -7z"/>
<path d="M1330 2298 c-30 -16 -36 -46 -17 -73 27 -35 127 -14 144 31 14 38
-77 68 -127 42z"/>
<path d="M1354 2169 c-39 -11 -56 -31 -52 -61 5 -37 49 -36 92 2 39 35 45 54
20 64 -18 7 -19 7 -60 -5z"/>
<path d="M1260 2007 c-54 -27 -18 -77 40 -55 32 12 71 48 64 59 -8 13 -76 10
-104 -4z"/>
<path d="M1247 1872 c-15 -16 -15 -20 -1 -40 19 -28 36 -28 70 1 18 16 25 30
21 40 -9 23 -69 22 -90 -1z"/>
<path d="M1242 1673 c-17 -7 -44 -61 -37 -73 13 -20 46 -9 64 21 27 45 15 69
-27 52z"/>
<path d="M1213 1533 c-27 -19 -30 -39 -5 -45 28 -7 51 2 57 23 13 38 -13 50
-52 22z"/>
</g>
</svg>
