<?xml version="1.0" standalone="no"?>
<!DOCTYPE svg PUBLIC "-//W3C//DTD SVG 20010904//EN"
 "http://www.w3.org/TR/2001/REC-SVG-20010904/DTD/svg10.dtd">
<svg version="1.0" xmlns="http://www.w3.org/2000/svg"
 width="1280.000000pt" height="1280.000000pt" viewBox="0 0 1280.000000 1280.000000"
 preserveAspectRatio="xMidYMid meet">
<metadata>
Created by potrace 1.15, written by Peter Selinger 2001-2017
</metadata>
<g transform="translate(0.000000,1280.000000) scale(0.100000,-0.100000)"
fill="#e9e9e9" stroke="none">
<path d="M7542 12785 c-31 -23 -26 -60 7 -60 29 0 40 21 14 28 -15 4 -15 5 3
6 47 3 58 -46 18 -78 -38 -30 -72 -26 -205 19 -154 53 -253 68 -356 52 -114
-18 -172 -51 -267 -150 -45 -46 -95 -91 -113 -98 -68 -29 -167 -5 -211 51
l-22 28 0 -66 c0 -61 2 -68 26 -84 16 -10 53 -19 90 -21 80 -5 137 20 197 88
l42 49 0 -82 c0 -95 14 -129 101 -243 29 -38 60 -83 69 -100 21 -42 19 -122
-5 -161 -20 -33 -44 -46 -34 -18 4 8 -1 26 -10 40 -23 34 -77 35 -111 0 -59
-58 -6 -155 85 -155 74 0 133 74 133 164 0 68 -17 104 -102 215 -69 91 -100
148 -43 80 16 -19 60 -65 98 -104 87 -87 124 -157 124 -234 0 -61 -26 -130
-63 -169 -90 -97 -285 -86 -355 19 -24 34 -25 70 -7 127 11 33 -13 28 -26 -5
-28 -71 36 -189 124 -232 54 -26 157 -28 213 -5 96 40 162 130 171 232 10 114
-34 193 -152 275 -90 62 -115 86 -58 58 55 -28 147 -37 211 -22 137 33 228
218 159 322 -31 47 -105 82 -176 83 -64 1 -109 -21 -135 -64 -20 -35 -21 -99
0 -128 19 -27 65 -52 97 -52 52 0 78 75 36 104 -27 18 -48 11 -60 -22 l-10
-26 -21 22 c-43 42 -16 121 49 143 103 34 213 -45 213 -153 0 -38 -39 -125
-66 -150 -84 -74 -248 -77 -344 -7 -76 57 -104 200 -57 290 49 91 158 143 302
143 91 0 163 -26 228 -84 54 -47 68 -81 77 -182 5 -65 12 -94 26 -109 28 -32
76 -49 110 -40 27 7 28 8 7 15 -22 7 -37 32 -27 47 10 17 51 9 78 -16 50 -47
58 -103 25 -173 -47 -97 -172 -119 -259 -46 -37 32 -42 88 -10 122 23 24 69
29 88 10 17 -17 15 -65 -4 -72 -21 -8 -26 -8 -20 3 8 12 -21 34 -34 26 -17
-10 -12 -33 10 -45 32 -17 74 8 78 46 7 71 -111 103 -168 46 -88 -89 -42 -227
89 -262 63 -17 116 -4 164 39 22 20 38 29 34 21 -34 -86 -33 -131 4 -151 33
-17 69 -3 69 26 0 16 -6 25 -16 25 -11 0 -13 -6 -9 -19 7 -24 -11 -37 -30 -21
-23 19 -18 36 25 79 22 22 40 48 40 60 0 25 -28 54 -46 47 -11 -4 -9 4 5 32
10 20 22 51 26 67 6 26 10 17 27 -65 11 -52 33 -124 49 -159 33 -72 36 -97 13
-129 -20 -29 -32 -28 -27 2 4 18 0 26 -15 30 -31 10 -52 -3 -52 -34 0 -31 13
-45 52 -55 21 -5 33 -1 54 20 l27 27 -6 -41 c-6 -51 -30 -89 -62 -101 -35 -13
-57 -3 -43 20 17 27 3 52 -29 48 -20 -2 -30 -11 -37 -30 -21 -59 73 -104 132
-62 28 19 52 65 53 101 l0 28 10 -25 c13 -33 2 -109 -22 -149 -22 -36 -54 -51
-111 -51 -32 0 -47 7 -75 35 -28 28 -34 40 -29 60 8 30 -9 33 -24 4 -9 -15 -8
-24 1 -35 8 -10 8 -14 0 -14 -22 0 -23 47 -2 88 12 23 21 49 20 59 0 11 -3 13
-6 6 -2 -7 -15 -13 -28 -13 -13 0 -30 -7 -38 -15 -19 -19 -27 -9 -27 35 0 62
73 112 87 60 6 -22 33 -28 33 -7 0 22 -22 37 -55 37 -44 0 -76 -37 -82 -94 -5
-44 -6 -45 -26 -31 -53 37 -149 -2 -132 -54 6 -21 45 -30 45 -11 0 5 -7 7 -15
4 -9 -4 -15 0 -15 10 0 32 30 14 79 -48 57 -71 104 -99 191 -116 70 -13 131
-4 175 26 l35 23 0 -25 c0 -41 18 -64 50 -64 29 0 49 28 35 50 -10 16 -38 12
-31 -5 6 -17 -19 -21 -29 -4 -4 6 -4 30 0 55 l6 44 26 -20 c14 -11 32 -20 39
-20 22 0 54 38 54 65 0 14 -8 29 -20 35 -12 6 -20 7 -20 1 0 -5 5 -11 12 -13
12 -4 3 -28 -12 -28 -21 0 -38 33 -44 85 -4 32 -20 84 -40 123 -28 56 -66 175
-66 207 0 16 42 -30 61 -67 10 -20 28 -72 40 -115 21 -79 55 -128 82 -117 10
3 12 -4 9 -28 -5 -42 25 -82 72 -98 22 -7 38 -21 46 -39 6 -16 21 -33 33 -39
12 -6 16 -11 8 -11 -7 -1 -31 15 -52 34 -41 37 -58 42 -90 25 -13 -7 -19 -21
-19 -44 0 -37 19 -60 46 -54 22 4 31 28 10 28 -9 0 -16 8 -16 20 0 13 7 20 20
20 15 0 27 -15 44 -55 25 -55 55 -75 91 -61 11 4 15 -2 15 -20 0 -39 40 -70
106 -84 86 -17 94 -20 94 -37 0 -11 -6 -14 -21 -10 -13 3 -19 1 -16 -6 2 -7
18 -12 34 -12 17 0 40 -8 50 -17 11 -10 23 -18 27 -18 3 0 23 -7 44 -15 27
-12 33 -18 23 -24 -7 -5 -10 -14 -6 -20 5 -9 10 -9 21 0 18 15 18 28 -3 51
-15 17 -10 16 52 -6 76 -27 140 -82 129 -111 -3 -8 -11 -15 -16 -15 -6 0 -8 7
-4 15 3 9 0 15 -10 15 -25 0 -12 -35 14 -38 29 -4 52 14 52 42 1 19 3 18 28
-11 36 -42 82 -63 134 -63 53 1 77 14 123 68 39 45 68 53 85 23 13 -26 3 -56
-15 -41 -9 7 -16 6 -25 -5 -10 -12 -9 -16 5 -21 50 -20 71 63 25 98 -44 33
-90 33 -159 2 -72 -31 -131 -35 -178 -10 -41 21 -42 34 -4 28 59 -8 195 19
435 87 434 124 526 135 622 75 87 -52 115 -147 67 -221 -19 -29 -69 -53 -109
-53 l-27 0 20 23 c28 31 35 55 21 80 -17 34 -39 46 -80 47 -28 0 -42 -7 -62
-31 -33 -39 -33 -59 0 -99 64 -76 163 -83 245 -18 35 28 69 91 69 129 0 77
-39 132 -125 177 -78 40 -180 35 -356 -16 -75 -23 -154 -43 -175 -46 -22 -3
-30 -3 -20 0 15 5 16 8 5 15 -12 7 -11 9 2 9 9 0 104 45 212 100 213 109 304
140 418 140 36 0 85 -7 110 -15 53 -19 100 -54 82 -62 -21 -8 -15 -33 7 -33
14 0 20 7 20 24 0 50 -124 121 -230 133 -74 7 -119 -1 -165 -32 -28 -20 -40
-23 -55 -15 -33 18 -68 11 -103 -20 -23 -20 -45 -30 -66 -30 -24 0 -46 -14
-98 -61 -82 -75 -137 -113 -209 -146 -58 -26 -88 -26 -37 1 49 25 139 130 177
207 38 75 48 149 26 190 -8 14 -7 25 5 41 32 46 7 126 -50 164 -23 15 -24 19
-11 26 21 12 20 41 -1 60 -10 9 -52 31 -94 51 -84 38 -105 57 -64 57 17 0 29
8 37 25 22 48 -36 96 -97 81 -20 -5 -25 -13 -25 -37 0 -23 15 -46 68 -102 142
-151 193 -245 200 -362 2 -44 0 -96 -6 -115 l-10 -35 -2 35 -2 35 -7 -30 c-6
-24 -8 -17 -14 38 -13 136 -101 265 -225 330 -177 94 -297 82 -414 -39 -29
-30 -67 -63 -84 -74 -59 -37 -158 -17 -193 40 -15 25 -15 25 5 8 29 -25 70
-23 88 4 32 45 11 90 -50 107 -85 23 -149 -82 -93 -153 31 -40 71 -56 138 -56
67 0 106 12 138 42 l22 20 -1 -65 c0 -77 6 -101 39 -145 53 -70 165 -95 217
-47 52 48 56 103 10 146 -33 31 -90 31 -115 0 -23 -29 -24 -59 -2 -83 24 -27
13 -29 -34 -8 -99 44 -110 164 -24 263 45 51 104 71 193 65 141 -9 267 -98
335 -236 35 -71 38 -82 38 -166 0 -79 -4 -99 -27 -146 -15 -31 -40 -68 -56
-83 l-29 -28 5 54 c4 46 1 57 -23 85 -33 39 -84 51 -119 28 -34 -22 -42 -53
-20 -77 18 -20 44 -26 44 -9 0 5 -7 7 -15 4 -8 -4 -15 -1 -15 5 0 7 7 14 17
18 23 9 53 -32 53 -71 0 -39 -43 -107 -80 -130 -41 -24 -45 -20 -16 15 38 45
32 57 -7 15 -41 -43 -129 -86 -177 -86 l-35 0 33 20 c32 20 48 47 73 130 16
51 55 74 84 50 14 -11 14 -14 -1 -25 -18 -13 -11 -35 11 -35 11 0 25 20 25 35
0 18 -68 76 -95 81 -63 12 -115 -33 -165 -142 -22 -48 -35 -64 -65 -78 -39
-19 -108 -17 -143 4 -14 8 -12 9 10 10 44 0 76 17 93 49 22 44 19 69 -15 102
-24 25 -37 30 -66 27 -71 -6 -101 -98 -38 -114 33 -9 52 9 33 32 -12 14 -11
16 6 13 15 -3 20 -12 20 -34 0 -71 -113 -68 -225 6 -50 34 -120 105 -120 122
0 3 17 -4 37 -14 51 -26 123 -25 157 2 49 39 23 126 -36 117 -15 -2 -24 -11
-26 -26 -4 -28 16 -55 35 -48 7 3 13 2 13 -2 0 -15 -24 -32 -45 -32 -36 0 -64
29 -82 87 -30 96 -95 141 -136 95 -10 -10 -17 -29 -18 -43 0 -13 -7 3 -15 36
-21 87 -54 134 -137 198 -128 98 -189 178 -221 286 -20 69 -20 112 0 57 17
-47 62 -108 74 -101 5 3 16 -17 25 -44 9 -27 24 -56 34 -65 17 -16 18 -15 14
11 -3 23 0 20 16 -14 23 -49 59 -76 98 -71 20 2 28 9 28 23 0 11 -8 21 -17 23
-13 2 -18 -3 -18 -17 0 -55 -48 0 -56 65 -10 71 -28 101 -89 140 -64 40 -72
53 -17 25 25 -13 75 -23 142 -29 102 -9 105 -10 137 -46 19 -20 33 -46 33 -61
0 -26 -14 -33 -25 -15 -10 16 -35 -8 -28 -26 8 -21 50 -17 72 8 12 12 24 37
27 56 22 118 -76 182 -206 135 -81 -29 -171 -15 -209 31 -12 14 -9 14 25 -1
22 -9 68 -16 105 -17 56 -1 71 3 108 27 69 46 100 141 67 205 -32 61 -119 112
-191 112 -38 0 -52 -5 -76 -29 -34 -35 -36 -59 -8 -95 34 -44 111 -28 92 20
-13 35 60 -18 80 -58 16 -33 16 -40 4 -70 -22 -51 -51 -71 -110 -76 -57 -4
-140 23 -171 56 -13 15 -12 17 12 19 33 2 64 39 60 71 -2 14 -15 34 -31 46
-25 18 -29 19 -43 4 -19 -19 -11 -38 17 -38 11 0 17 -4 14 -10 -11 -18 -53
-11 -69 12 -9 12 -16 35 -16 51 0 44 -17 65 -63 78 l-42 12 38 7 c49 9 96 55
103 102 5 29 1 41 -23 68 -35 40 -104 52 -141 25z"/>
<path d="M5249 12685 c-114 -42 -188 -111 -210 -195 -8 -30 -20 -52 -29 -55
-36 -11 -63 -53 -63 -96 0 -31 -6 -48 -22 -63 -20 -19 -24 -36 -33 -151 -8
-98 -17 -148 -37 -203 -15 -40 -29 -71 -31 -69 -2 2 1 32 7 67 24 148 -43 346
-131 387 -28 12 -40 24 -40 39 0 28 -44 71 -82 79 -16 4 -44 4 -62 1 -29 -6
-33 -4 -32 16 2 39 -40 44 -115 14 -35 -14 -80 -29 -98 -32 l-33 -7 17 27 c16
24 16 28 1 51 -21 31 -63 33 -100 4 -30 -24 -33 -49 -8 -72 14 -13 38 -17 93
-17 186 0 351 -47 435 -123 38 -34 105 -136 72 -109 -9 7 -18 9 -20 5 -3 -4
-4 -3 -2 4 1 6 -4 19 -12 30 -12 16 -13 16 -8 1 8 -23 -5 -23 -30 1 -62 58
-207 98 -306 86 -109 -14 -236 -75 -284 -138 -46 -60 -58 -104 -60 -219 -2
-90 -6 -113 -22 -136 -24 -32 -98 -72 -134 -72 -24 0 -24 1 8 20 26 16 32 26
32 53 0 47 -29 71 -73 63 -47 -9 -81 -47 -79 -91 4 -104 118 -134 214 -55 41
34 78 102 78 145 0 28 0 28 43 -18 23 -26 59 -53 80 -62 68 -28 154 -14 206
34 27 25 31 36 31 80 0 67 -30 101 -89 101 -32 0 -44 -6 -65 -31 -14 -17 -26
-34 -26 -39 0 -26 26 -61 49 -66 14 -3 31 -7 36 -8 22 -6 -57 -36 -93 -36
-111 0 -186 148 -137 268 53 127 247 213 410 183 176 -32 302 -157 312 -310 3
-54 2 -62 -8 -46 -25 42 -53 64 -89 70 -85 14 -156 -70 -101 -119 22 -20 62
-18 69 4 4 13 3 13 -10 2 -11 -9 -18 -10 -23 -2 -10 16 4 30 31 30 36 0 61
-16 79 -50 17 -32 20 -127 5 -150 -7 -11 -10 -6 -10 22 0 66 -17 50 -22 -21
-5 -69 -35 -139 -71 -169 -12 -10 -13 -6 -4 27 10 36 8 46 -21 102 -37 71 -41
113 -13 129 27 14 29 13 33 -12 4 -26 26 -35 34 -14 10 26 -15 46 -58 46 -112
0 -145 -81 -92 -227 l26 -72 -23 -48 c-17 -33 -36 -55 -64 -70 -52 -29 -64
-29 -32 1 53 49 43 126 -20 152 -28 12 -38 12 -68 0 -45 -19 -62 -54 -45 -95
21 -51 90 -54 90 -4 0 18 -4 24 -15 19 -8 -3 -15 -1 -15 4 0 15 14 18 38 9 34
-13 29 -58 -11 -97 -61 -59 -204 -95 -292 -74 -22 6 -32 10 -22 11 10 1 34 10
55 20 80 41 110 105 72 154 -35 44 -108 30 -98 -19 6 -31 34 -40 57 -20 21 19
21 19 21 -6 0 -31 -29 -58 -62 -58 -14 0 -50 11 -80 25 -29 14 -69 25 -89 25
-62 0 -91 -57 -49 -95 35 -32 15 -27 -39 9 -66 45 -100 51 -225 40 -202 -17
-283 -5 -389 62 -65 41 -71 53 -11 25 21 -10 59 -21 83 -25 35 -5 42 -4 38 8
-4 9 8 6 36 -10 23 -13 55 -24 71 -24 29 0 29 1 10 16 -19 15 -19 16 1 8 64
-23 128 -16 146 17 14 27 -7 54 -31 39 -12 -8 -13 -13 -3 -29 10 -16 9 -20 -2
-25 -21 -8 -43 2 -94 41 -47 36 -94 42 -160 23 -45 -13 -54 -4 -11 11 18 7 67
40 109 75 84 71 119 83 174 60 39 -16 47 -30 22 -40 -25 -9 -18 -38 7 -34 58
8 37 110 -32 156 -63 42 -141 9 -185 -77 -30 -60 -70 -108 -104 -125 -37 -19
-81 -28 -81 -17 0 5 10 11 23 15 35 8 118 85 133 123 32 75 4 175 -59 213 -61
38 -187 17 -241 -39 -38 -40 -46 -101 -17 -130 26 -26 72 -27 94 -3 19 21 23
62 6 62 -5 0 -7 5 -4 10 10 15 98 12 122 -5 12 -8 27 -31 33 -50 29 -86 -47
-169 -182 -199 -31 -7 -36 5 -12 24 23 20 14 69 -18 93 -23 17 -31 19 -53 9
-30 -14 -35 -52 -6 -52 11 0 21 5 23 12 3 9 6 9 11 1 10 -16 -20 -43 -48 -43
-13 0 -37 11 -53 25 -34 28 -78 32 -108 10 -31 -24 -39 -17 -13 11 19 20 24
36 24 76 0 44 -4 53 -34 80 -28 25 -39 29 -70 24 -44 -7 -104 -66 -99 -98 5
-32 34 -46 54 -26 20 20 9 45 -12 27 -8 -7 -14 -7 -14 -1 0 18 29 34 49 27 24
-7 36 -43 26 -75 -11 -34 -44 -58 -160 -114 -186 -90 -278 -174 -342 -311 -26
-57 -28 -67 -26 -184 2 -136 -7 -174 -54 -223 -35 -37 -104 -62 -145 -54 l-33
6 45 -45 c24 -25 53 -45 65 -45 36 0 99 44 131 92 36 53 47 107 39 181 l-6 52
23 -30 c66 -87 130 -117 297 -141 116 -16 155 -33 188 -84 25 -36 34 -118 11
-88 -25 32 -56 32 -88 -1 -34 -33 -36 -49 -15 -91 37 -72 141 -66 181 11 23
46 18 99 -16 153 -41 64 -101 91 -250 111 -63 9 -118 19 -122 23 -8 8 131 6
233 -2 128 -11 200 -52 243 -138 32 -63 35 -143 7 -204 -33 -73 -142 -144
-220 -144 -39 0 -90 36 -107 76 -8 19 -19 32 -24 29 -16 -10 -12 -21 17 -56
97 -115 289 -82 373 64 77 136 28 308 -110 380 -53 28 -59 29 -150 23 -52 -3
-113 -8 -135 -12 l-40 -6 52 27 c29 14 74 50 101 80 80 87 91 170 36 282 -31
65 -71 95 -135 101 -60 6 -123 -23 -173 -78 -40 -45 -51 -76 -42 -123 10 -51
45 -87 91 -93 99 -13 164 74 90 122 -44 29 -90 -27 -53 -64 9 -9 8 -12 -8 -13
-37 -2 -49 2 -71 27 -57 63 0 171 102 194 140 32 249 -146 177 -287 -61 -119
-185 -181 -295 -149 -130 38 -200 162 -163 290 36 122 147 237 261 271 109 31
158 18 256 -66 31 -26 68 -51 82 -54 34 -9 93 11 112 38 19 27 19 43 0 27 -19
-16 -57 -3 -53 18 9 44 102 52 156 13 58 -41 79 -148 42 -208 -37 -62 -130
-104 -184 -83 -37 14 -60 69 -44 105 21 47 89 44 96 -4 3 -19 0 -21 -21 -16
-31 8 -45 -11 -24 -32 33 -34 82 30 58 76 -16 30 -53 36 -96 16 -120 -58 -57
-245 83 -245 102 0 182 70 190 167 l5 56 24 -51 c30 -63 69 -84 109 -58 32 21
30 59 -3 64 -13 2 -23 -1 -23 -7 0 -6 7 -11 15 -11 20 0 19 -29 0 -36 -28 -11
-45 16 -45 68 0 27 -5 58 -10 69 -12 21 -50 25 -68 7 -9 -9 -12 -9 -12 3 0 9
-11 37 -24 62 -13 26 -21 47 -19 47 2 0 38 -23 79 -51 42 -28 107 -63 146 -77
52 -19 73 -32 84 -53 18 -35 18 -40 -1 -65 -14 -18 -14 -18 -9 2 7 26 -8 38
-36 29 -39 -13 -19 -75 25 -75 37 0 65 28 65 66 0 43 13 37 40 -16 24 -47 25
-78 4 -108 -19 -28 -32 -28 -36 1 -4 27 -39 35 -57 13 -19 -23 -5 -65 24 -76
33 -12 66 1 95 37 27 34 23 91 -10 135 -31 42 -8 34 34 -13 70 -77 75 -132 17
-190 -48 -49 -110 -56 -143 -18 -21 25 -30 24 -26 -3 2 -12 14 -28 28 -35 18
-9 20 -13 8 -13 -20 0 -58 34 -58 51 0 18 -32 79 -41 79 -5 0 -6 -7 -2 -15 3
-9 -2 -24 -12 -35 -10 -11 -15 -26 -12 -35 10 -24 -12 -17 -44 14 -32 33 -38
71 -13 95 18 19 26 20 41 5 13 -13 28 5 18 21 -10 16 -44 11 -65 -10 -34 -34
-24 -95 23 -147 l20 -23 -26 0 c-32 0 -74 -36 -82 -72 -9 -35 28 -76 51 -57 8
6 14 16 14 21 0 6 -7 5 -15 -2 -18 -15 -31 -7 -20 11 6 8 32 9 94 5 98 -8 142
3 217 55 53 36 104 110 104 152 l0 28 26 -20 c43 -34 94 -23 94 21 0 21 -36
43 -45 28 -4 -6 -2 -17 5 -24 8 -11 8 -15 -2 -19 -20 -7 -46 11 -63 43 -19 37
-19 39 4 33 23 -6 61 29 61 55 0 22 -38 64 -53 59 -6 -2 -13 -9 -15 -15 -2 -7
2 -10 12 -6 10 4 16 1 16 -9 0 -14 -20 -27 -40 -27 -4 0 -29 18 -55 39 -26 22
-68 44 -92 51 -53 13 -167 69 -203 99 -24 19 -24 20 -4 21 39 0 122 -30 190
-70 67 -39 126 -52 139 -30 4 6 18 0 37 -15 34 -29 70 -32 112 -10 24 13 35
14 58 4 22 -9 35 -9 55 0 14 6 28 9 31 7 9 -9 -48 -26 -87 -26 -24 0 -45 -7
-59 -20 -26 -25 -27 -38 -6 -68 23 -33 78 -28 82 8 4 21 2 22 -12 10 -20 -16
-42 0 -33 24 8 20 34 20 67 1 35 -20 77 -18 100 5 18 18 21 18 48 3 36 -20 64
-14 132 32 50 33 89 43 79 20 -2 -5 -7 -9 -11 -7 -5 1 -8 -2 -8 -8 0 -19 42
-10 47 10 4 14 14 20 35 20 16 0 46 9 68 20 47 24 54 25 46 5 -3 -9 0 -15 10
-15 10 0 14 8 12 23 -2 17 -9 22 -30 22 -16 -1 -28 1 -28 3 0 1 28 16 63 32
69 33 146 40 166 16 8 -10 9 -16 1 -21 -5 -3 -10 -1 -10 4 0 6 -4 11 -10 11
-12 0 -13 -27 -1 -34 35 -22 65 42 35 75 -18 20 -17 20 24 13 51 -8 118 15
153 52 20 22 25 38 29 111 4 66 9 88 22 97 13 8 22 6 38 -9 18 -16 19 -20 5
-27 -21 -12 -19 -40 3 -36 23 4 28 51 7 72 -23 23 -77 20 -111 -6 -40 -31 -50
-46 -64 -93 -22 -74 -85 -135 -141 -135 -18 0 -12 9 36 61 68 74 75 86 203
316 203 366 262 450 346 489 122 57 238 9 253 -103 4 -29 -1 -46 -19 -72 -28
-42 -47 -51 -41 -19 6 32 -31 78 -63 78 -32 0 -80 -25 -88 -45 -22 -57 16
-125 70 -125 148 0 232 159 154 288 -23 37 -88 71 -136 72 -127 1 -226 -86
-344 -303 -41 -75 -82 -146 -91 -158 -16 -21 -16 -21 -14 7 1 16 6 38 12 49 6
11 34 94 62 185 67 216 117 316 201 401 47 48 78 70 114 82 64 22 76 21 76 -3
0 -23 25 -27 33 -6 3 7 0 19 -6 25 -15 15 -93 13 -138 -4z"/>
<path d="M5648 12679 c-188 -21 -383 -127 -493 -267 -45 -57 -125 -184 -125
-198 0 -4 23 26 50 67 28 41 70 92 93 113 23 22 36 36 30 32 -7 -4 -13 -5 -13
-1 0 12 138 93 200 118 185 73 426 43 560 -70 43 -36 97 -121 121 -190 42
-123 18 -294 -56 -395 -107 -146 -358 -203 -495 -112 -46 30 -51 43 -15 37 18
-4 33 3 55 25 37 37 38 61 4 101 -33 40 -79 42 -123 5 -51 -43 -40 -123 26
-186 36 -34 68 -46 145 -54 130 -13 260 30 353 118 258 241 147 661 -200 759
-77 22 -264 17 -342 -9 -35 -11 -63 -18 -63 -15 0 8 112 54 183 73 159 44 329
36 449 -23 75 -37 75 -25 1 15 -90 49 -225 71 -345 57z"/>
<path d="M8420 12484 c0 -76 16 -126 57 -173 47 -55 105 -81 182 -81 63 0 75
12 24 25 -41 9 -98 49 -124 87 l-24 33 32 -23 c18 -12 56 -33 85 -46 54 -24
97 -61 85 -73 -17 -17 19 -33 74 -33 150 0 339 -107 442 -250 17 -24 17 -24 0
10 -10 19 -48 65 -84 102 -78 79 -192 139 -299 159 -99 18 -120 28 -120 56 0
40 -26 89 -61 116 -19 14 -73 37 -121 51 -69 21 -93 34 -117 62 l-31 35 0 -57z"/>
<path d="M5577 12514 c193 -28 295 -113 338 -282 l15 -57 -5 50 c-7 68 -57
167 -107 209 -73 63 -175 97 -281 95 -46 -1 -41 -3 40 -15z"/>
<path d="M5448 12513 c7 -3 16 -2 19 1 4 3 -2 6 -13 5 -11 0 -14 -3 -6 -6z"/>
<path d="M6205 12370 c-6 -10 -5 -12 17 -14 7 0 24 -21 37 -46 23 -43 23 -44
3 -26 -12 10 -24 27 -28 38 -10 31 -27 5 -19 -30 10 -49 47 -75 112 -80 55 -4
57 -3 37 12 -12 8 -27 35 -33 60 -12 48 -41 76 -78 76 -13 0 -23 5 -23 10 0 6
-4 10 -9 10 -6 0 -13 -4 -16 -10z"/>
<path d="M4275 12359 c-103 -15 -185 -50 -266 -112 -49 -37 -86 -51 -95 -35
-11 17 -87 48 -121 48 -19 0 -67 -18 -116 -44 -99 -52 -133 -61 -173 -46 -27
11 -26 8 16 -35 91 -93 199 -114 300 -59 68 37 126 113 60 79 -46 -24 -121
-36 -155 -26 -25 8 -26 9 -8 10 13 1 52 12 89 26 76 29 106 31 124 10 7 -8 15
-15 19 -15 4 0 30 22 58 49 91 87 238 140 387 141 38 0 67 2 65 4 -11 9 -131
13 -184 5z"/>
<path d="M4478 12343 c7 -3 16 -2 19 1 4 3 -2 6 -13 5 -11 0 -14 -3 -6 -6z"/>
<path d="M6454 12150 c14 -17 28 -46 32 -65 3 -19 16 -44 28 -57 l21 -23 -39
-20 c-52 -26 -74 -59 -83 -120 l-6 -49 26 21 c15 11 48 24 74 28 50 7 103 49
103 81 0 25 30 43 71 44 44 0 61 12 102 75 19 30 42 52 57 55 23 6 22 8 -15
18 -85 25 -158 3 -184 -55 l-13 -28 -13 40 c-21 61 -65 85 -152 85 l-35 0 26
-30z m142 -99 c12 -25 18 -30 25 -20 7 11 9 11 9 1 0 -7 16 3 35 23 20 19 42
35 50 35 8 0 -5 -20 -30 -46 -58 -60 -80 -57 -117 14 -25 46 -26 51 -8 40 11
-7 27 -28 36 -47z m12 -73 c-3 -7 -31 -23 -64 -35 l-59 -22 28 24 c15 14 37
25 47 25 10 0 22 5 25 10 9 14 27 12 23 -2z"/>
<path d="M5869 12024 c-24 -26 -75 -52 -134 -70 -21 -6 -36 -21 -50 -51 -11
-22 -29 -50 -39 -62 l-19 -21 44 0 c59 0 90 18 112 62 21 43 12 76 -10 35 -7
-15 -22 -31 -33 -37 -16 -9 -15 -4 7 30 15 22 35 40 45 40 10 0 18 4 18 8 0 5
12 15 26 22 14 8 35 27 46 42 24 35 19 36 -13 2z"/>
<path d="M7210 11740 c-8 -6 -46 -9 -83 -8 l-68 2 -44 -47 c-41 -42 -48 -46
-72 -36 -37 14 -72 -3 -117 -57 -23 -27 -46 -44 -59 -44 -43 -1 46 -39 92 -40
36 0 49 6 77 34 l34 34 0 -38 c0 -59 46 -105 125 -124 28 -7 29 -7 13 11 -10
11 -17 42 -20 85 -3 44 -10 73 -21 86 -16 18 -16 18 15 14 57 -9 107 32 137
111 12 30 12 30 -9 17z m-87 -71 c-12 -12 -115 -40 -122 -33 -11 11 23 29 67
35 26 3 51 7 57 8 5 0 4 -4 -2 -10z m-115 -56 c5 -10 12 -37 16 -61 9 -57 -10
-46 -25 14 -8 32 -14 41 -20 32 -6 -9 -9 -10 -9 -1 0 8 -14 3 -36 -12 -56 -38
-73 -30 -23 10 48 38 83 45 97 18z"/>
<path d="M9790 11534 c-120 -19 -170 -28 -200 -40 -47 -17 -20 -17 60 1 36 8
98 14 139 15 275 1 530 -206 586 -475 l14 -70 -4 57 c-3 32 -12 79 -21 105
-40 118 -163 258 -285 322 -33 18 -58 35 -56 37 8 8 163 -62 213 -96 150 -103
231 -202 275 -340 10 -30 18 -48 18 -39 2 38 -41 148 -79 206 -88 133 -235
239 -400 286 -83 24 -209 39 -260 31z"/>
<path d="M10050 11394 c66 -53 121 -119 152 -184 28 -56 32 -76 32 -145 1 -93
-18 -152 -71 -223 l-36 -47 32 30 c18 16 46 59 64 94 27 56 32 76 32 141 0 63
-5 85 -33 143 -32 70 -130 180 -182 206 -17 9 -14 4 10 -15z"/>
<path d="M9582 10984 c-55 -38 -69 -141 -31 -217 33 -64 119 -141 206 -184 75
-37 80 -38 188 -38 108 0 113 1 187 38 126 62 231 201 243 324 l5 48 -15 -57
c-50 -195 -206 -336 -385 -346 -121 -7 -211 30 -313 127 -56 53 -82 98 -92
161 l-7 45 23 -21 c48 -43 105 -37 128 13 18 39 13 63 -18 94 -34 33 -83 39
-119 13z"/>
<path d="M9775 10795 c-16 -8 -40 -14 -52 -15 -13 0 -23 -4 -23 -8 0 -11 39
-47 69 -62 29 -15 83 -6 105 19 16 18 15 19 -31 15 -44 -4 -46 -3 -19 7 22 9
45 9 95 -1 37 -7 75 -10 86 -7 14 3 10 5 -11 6 -41 1 -93 20 -123 43 -28 21
-54 22 -96 3z"/>
<path d="M2622 10744 c-23 -14 -49 -38 -57 -54 -20 -39 -19 -100 2 -130 17
-24 16 -24 -16 3 -48 40 -105 38 -162 -5 -47 -37 -61 -59 -31 -51 11 2 43 -7
72 -22 36 -18 64 -26 86 -23 31 4 32 3 18 -13 -8 -9 -20 -33 -25 -53 -9 -31
-7 -44 11 -80 11 -24 29 -51 40 -61 19 -18 20 -17 20 11 0 16 14 49 30 74 31
47 38 87 20 121 -13 24 -30 25 -30 1 0 -10 -6 -26 -14 -37 -7 -11 -16 -29 -19
-40 -3 -14 -5 -11 -6 10 0 17 5 41 12 55 21 42 11 55 -56 71 -54 12 -58 14
-29 17 19 2 46 -1 62 -7 33 -11 40 -1 40 57 0 20 5 44 10 52 7 11 10 -5 10
-52 0 -37 -5 -70 -10 -73 -12 -7 -4 -25 11 -25 5 0 9 8 9 18 0 10 11 29 25 42
24 22 25 28 23 122 -2 54 -3 98 -3 98 0 0 -19 -12 -43 -26z"/>
<path d="M3201 10757 c-1 -10 -26 -43 -56 -72 -56 -54 -69 -88 -45 -125 8 -13
12 -11 26 8 9 13 27 35 40 50 l24 27 -11 -32 c-6 -17 -19 -39 -29 -48 -11 -10
-17 -22 -14 -26 3 -5 -5 -8 -18 -6 -14 1 -22 -3 -20 -10 1 -7 -3 -13 -8 -13
-6 0 -22 -11 -35 -25 -22 -21 -25 -33 -25 -98 0 -43 -5 -78 -12 -85 -17 -17 3
-16 45 2 53 22 82 61 82 111 l0 43 27 -23 c43 -36 79 -40 139 -14 47 21 50 23
29 31 -13 5 -43 26 -66 48 -24 22 -54 42 -67 45 l-25 7 24 23 c40 40 43 97 9
170 -9 21 -14 25 -14 12z m-12 -267 c52 -35 28 -42 -27 -8 -32 20 -35 20 -29
4 6 -16 5 -17 -8 -6 -13 11 -15 7 -15 -28 0 -22 -6 -44 -13 -50 -11 -9 -12 -2
-7 37 6 50 23 81 44 81 6 0 31 -14 55 -30z"/>
<path d="M10486 10732 c3 -15 -1 -43 -9 -62 -12 -28 -16 -31 -16 -13 -1 12 3
33 9 47 12 34 -3 33 -29 0 -36 -46 -23 -111 32 -162 l24 -23 -4 25 c-3 15 3
39 16 59 26 42 26 69 4 118 -21 45 -35 51 -27 11z"/>
<path d="M10732 10717 c-23 -23 -42 -52 -42 -62 0 -36 45 -100 92 -131 53 -36
107 -47 181 -39 l52 6 -30 -23 c-87 -66 -117 -130 -141 -297 -16 -116 -33
-155 -84 -188 -36 -25 -118 -34 -88 -10 32 24 32 55 -1 87 -33 34 -49 36 -91
15 -35 -18 -50 -43 -50 -85 0 -97 116 -142 212 -81 65 41 93 105 113 251 9 63
19 118 23 122 13 13 2 -227 -13 -299 -20 -91 -56 -142 -126 -177 -64 -32 -144
-35 -205 -7 -73 33 -144 142 -144 220 0 39 36 90 76 107 19 8 32 19 29 24 -10
16 -21 12 -56 -17 -115 -97 -82 -289 64 -373 136 -77 308 -28 380 110 28 53
29 59 23 150 -3 52 -8 113 -12 135 l-6 40 27 -52 c14 -29 50 -74 80 -101 87
-80 170 -91 282 -36 65 31 95 71 101 135 3 36 -1 59 -17 93 -25 51 -88 112
-126 122 -37 9 -86 -3 -119 -29 -23 -19 -30 -33 -34 -75 -4 -47 -2 -54 26 -82
37 -36 55 -38 87 -6 20 20 23 30 16 48 -9 25 -45 36 -65 19 -19 -16 -28 11
-16 43 39 103 192 55 220 -69 32 -140 -146 -249 -287 -177 -119 61 -181 185
-149 295 27 93 98 156 193 172 124 20 312 -109 360 -248 40 -115 24 -190 -60
-283 -25 -28 -49 -62 -52 -77 -9 -34 11 -93 38 -112 27 -19 43 -19 27 0 -16
19 -3 57 18 53 44 -8 51 -103 12 -158 -40 -56 -148 -77 -207 -40 -38 23 -78
82 -88 127 -7 35 14 87 40 97 30 11 73 6 89 -10 31 -30 14 -84 -26 -84 -14 0
-17 5 -12 24 7 30 -13 44 -33 23 -34 -33 30 -82 76 -58 30 16 36 53 16 96 -58
120 -245 57 -245 -83 0 -102 70 -182 167 -190 l56 -5 -51 -24 c-63 -30 -84
-69 -58 -109 21 -32 59 -30 64 4 2 12 -1 22 -7 22 -6 0 -11 -7 -11 -15 0 -20
-29 -19 -36 0 -11 28 16 45 68 45 27 0 58 5 69 10 21 12 25 50 7 68 -9 9 -9
12 3 12 9 0 37 11 62 24 26 13 47 21 47 19 0 -2 -23 -38 -51 -79 -28 -42 -63
-107 -77 -146 -19 -52 -32 -73 -53 -84 -35 -18 -40 -18 -65 1 -18 14 -18 14 2
9 26 -7 38 8 29 36 -13 39 -75 19 -75 -25 0 -37 28 -65 66 -65 43 0 37 -13
-16 -40 -47 -24 -78 -25 -108 -4 -28 19 -28 32 1 36 27 4 35 39 13 57 -23 19
-65 5 -76 -24 -12 -33 1 -66 37 -95 34 -27 91 -23 135 10 42 31 34 8 -13 -34
-77 -70 -132 -75 -190 -17 -49 48 -56 110 -18 143 25 21 24 30 -3 26 -12 -2
-28 -14 -35 -28 -9 -18 -13 -20 -13 -7 0 19 34 57 51 57 18 0 79 32 79 41 0 5
-7 6 -15 2 -9 -3 -24 2 -35 12 -11 10 -26 15 -35 12 -24 -10 -17 12 14 44 33
32 71 38 95 13 19 -18 20 -26 5 -41 -13 -13 5 -28 21 -18 16 10 11 44 -10 65
-34 34 -95 24 -147 -23 l-23 -20 0 26 c0 32 -36 74 -72 82 -35 9 -76 -28 -57
-51 6 -8 16 -14 21 -14 6 0 5 7 -2 15 -15 18 -7 31 11 20 8 -6 9 -32 5 -94 -8
-98 3 -142 55 -217 36 -53 110 -104 152 -104 l28 0 -20 -26 c-34 -43 -23 -94
21 -94 21 0 43 36 28 45 -6 4 -17 2 -24 -5 -11 -8 -15 -8 -19 2 -7 20 11 46
43 63 34 18 44 19 35 5 -10 -16 4 -49 27 -61 36 -19 101 22 82 52 -9 15 -24
10 -18 -6 4 -9 0 -15 -9 -15 -24 0 -31 38 -12 63 8 12 27 37 40 56 14 19 30
52 36 75 13 50 69 162 98 196 19 24 20 24 21 4 0 -39 -30 -122 -70 -190 -39
-67 -52 -126 -30 -139 6 -4 0 -18 -15 -37 -29 -34 -33 -82 -9 -116 13 -19 14
-28 4 -53 -10 -23 -10 -36 -1 -55 15 -34 13 -43 -4 -20 -9 11 -15 41 -15 68 0
76 -47 111 -91 67 -28 -28 -23 -73 11 -77 21 -4 22 -2 10 12 -16 20 0 42 24
33 20 -8 20 -34 1 -67 -20 -36 -18 -77 5 -100 19 -19 19 -22 4 -45 -22 -34
-13 -76 32 -137 33 -46 42 -83 19 -76 -5 2 -9 6 -7 11 1 4 -2 7 -8 7 -19 0
-10 -42 10 -47 14 -4 20 -14 20 -35 0 -16 9 -46 20 -68 24 -47 25 -54 5 -46
-9 3 -15 0 -15 -10 0 -10 8 -14 23 -12 18 2 22 9 21 38 -2 32 1 30 32 -35 37
-75 46 -153 21 -174 -18 -14 -30 -2 -16 16 9 10 8 13 -4 13 -37 0 -29 -47 10
-56 16 -4 31 0 44 12 20 18 20 17 13 -24 -8 -51 15 -118 52 -153 22 -20 38
-25 111 -29 66 -4 88 -9 97 -22 8 -13 6 -22 -9 -38 -16 -18 -20 -19 -27 -5
-12 21 -40 19 -36 -2 4 -24 51 -29 72 -8 23 23 20 77 -6 111 -31 40 -46 50
-93 64 -74 22 -135 85 -135 141 0 18 9 12 61 -36 74 -68 86 -75 316 -203 366
-203 450 -262 489 -346 57 -122 9 -238 -103 -253 -29 -4 -46 1 -72 19 -42 28
-51 47 -19 41 32 -6 78 31 78 63 0 32 -25 80 -45 88 -58 22 -125 -16 -125 -71
0 -148 159 -232 288 -153 37 23 71 88 72 136 1 127 -86 226 -303 344 -75 41
-146 82 -158 91 -21 16 -21 16 7 14 16 -1 38 -6 49 -12 11 -6 94 -34 185 -62
216 -67 316 -117 401 -201 48 -47 70 -78 82 -114 22 -64 21 -76 -3 -76 -23 0
-27 -25 -6 -33 50 -19 46 107 -5 203 -42 78 -105 134 -169 151 -30 8 -52 20
-55 29 -11 35 -53 63 -96 63 -29 0 -47 6 -63 22 -19 18 -40 23 -151 32 -97 9
-149 18 -203 38 -40 15 -71 29 -69 31 2 2 32 -1 67 -7 148 -24 346 43 387 131
12 28 24 40 39 40 51 0 94 82 79 148 -6 27 -4 30 14 25 15 -4 24 2 32 21 10
22 7 38 -20 112 -39 108 -40 120 -6 98 23 -15 27 -15 50 0 31 21 33 63 4 100
-24 30 -49 33 -72 8 -13 -14 -17 -38 -17 -93 0 -186 -47 -351 -123 -435 -34
-38 -136 -105 -109 -72 7 9 9 18 5 20 -4 3 -3 4 4 2 6 -1 19 4 30 12 16 12 16
13 1 8 -23 -8 -23 5 1 30 33 35 69 118 81 186 14 78 6 153 -25 236 -65 173
-139 224 -326 228 -91 2 -114 6 -137 22 -32 24 -72 98 -72 134 0 24 1 24 20
-7 16 -27 26 -33 53 -33 47 0 71 29 63 73 -19 101 -158 109 -185 10 -14 -48
-1 -97 39 -145 34 -41 102 -78 145 -78 l29 0 -41 -35 c-97 -83 -110 -219 -29
-300 36 -36 116 -36 151 0 38 37 35 95 -6 129 -17 14 -34 26 -39 26 -26 0 -61
-26 -66 -49 -3 -14 -7 -30 -8 -36 -6 -22 -36 57 -36 93 0 111 148 186 268 137
127 -53 213 -247 183 -410 -32 -176 -157 -302 -310 -312 -54 -3 -62 -2 -46 8
42 25 64 53 70 89 14 85 -70 156 -119 101 -20 -22 -18 -63 4 -68 13 -4 13 -3
0 6 -11 8 -12 13 -3 22 16 16 33 2 33 -27 0 -36 -16 -61 -50 -79 -32 -17 -127
-20 -150 -5 -11 7 -6 10 22 10 66 0 50 17 -21 22 -69 5 -139 35 -169 71 -10
12 -6 13 27 4 36 -10 46 -8 106 23 73 37 103 40 122 14 18 -25 16 -32 -9 -36
-26 -4 -35 -26 -14 -34 26 -10 46 15 46 58 0 112 -81 145 -227 92 l-72 -26
-48 23 c-33 17 -55 36 -70 64 -29 52 -29 64 1 32 49 -53 126 -43 152 20 12 28
12 38 0 68 -19 45 -54 62 -95 45 -51 -21 -54 -90 -4 -90 18 0 24 4 19 15 -3 8
-1 15 4 15 15 0 18 -14 9 -37 -13 -35 -58 -30 -97 10 -59 61 -95 204 -74 292
6 22 10 32 11 22 1 -10 10 -34 20 -55 41 -80 105 -110 154 -72 44 35 30 108
-19 98 -31 -6 -40 -34 -20 -57 19 -21 19 -21 -6 -21 -31 0 -58 29 -58 62 0 14
11 50 25 80 30 65 32 111 5 138 -25 25 -52 25 -75 0 -32 -35 -27 -15 9 39 45
66 51 101 40 220 -18 202 -5 288 62 394 41 65 53 71 25 11 -26 -54 -37 -128
-17 -121 9 4 6 -8 -10 -36 -13 -23 -24 -55 -24 -71 0 -29 1 -29 16 -10 15 19
16 19 8 -1 -23 -64 -16 -128 17 -146 27 -14 54 7 39 31 -8 12 -13 13 -29 3
-16 -10 -20 -9 -25 3 -9 25 -8 27 34 84 43 58 50 99 30 169 -13 45 -4 54 11
11 7 -18 40 -67 75 -109 71 -84 83 -119 60 -174 -16 -39 -30 -47 -40 -22 -9
25 -38 18 -34 -7 5 -35 47 -45 94 -22 112 56 102 181 -20 242 -84 42 -123 86
-140 155 -3 15 -2 27 3 27 5 0 11 -10 15 -23 8 -35 85 -118 123 -133 79 -33
182 -2 215 66 34 67 14 182 -41 234 -40 38 -101 46 -130 17 -26 -26 -27 -72
-3 -94 21 -19 62 -23 62 -6 0 5 5 7 10 4 15 -10 12 -98 -5 -122 -8 -12 -31
-27 -50 -33 -86 -29 -169 47 -199 183 -7 30 5 35 24 11 20 -23 69 -14 93 18
17 23 19 31 9 53 -14 30 -52 35 -52 6 0 -11 5 -21 12 -23 9 -3 9 -6 1 -11 -16
-10 -43 20 -43 48 0 13 11 37 25 53 28 34 32 78 10 108 -24 31 -17 39 11 13
20 -19 36 -24 76 -24 44 0 53 4 80 34 25 28 29 39 24 70 -7 44 -66 104 -98 99
-32 -5 -46 -34 -26 -54 20 -20 45 -9 27 12 -7 8 -7 14 -1 14 18 0 34 -29 27
-49 -12 -40 -77 -39 -115 2 -12 12 -45 71 -75 132 -90 186 -174 278 -311 343
-55 25 -66 27 -183 25 -135 -2 -174 7 -223 54 -36 34 -62 104 -55 143 4 16 5
30 4 30 -2 0 -22 -19 -45 -43z"/>
<path d="M1778 10523 c7 -3 16 -2 19 1 4 3 -2 6 -13 5 -11 0 -14 -3 -6 -6z"/>
<path d="M2073 10511 c-40 -20 -42 -32 -5 -25 15 3 43 -1 62 -9 28 -12 31 -16
13 -16 -12 -1 -33 3 -47 9 -34 12 -33 -3 0 -29 46 -36 111 -23 162 32 l23 24
-25 -4 c-15 -3 -39 3 -59 16 -40 24 -79 25 -124 2z"/>
<path d="M1668 10496 c-74 -30 -144 -83 -215 -161 -118 -128 -185 -304 -185
-485 0 -98 17 -210 41 -270 14 -36 13 -5 -4 70 -8 36 -14 98 -15 139 -1 277
209 534 480 586 l75 15 -61 -5 c-34 -2 -83 -12 -110 -21 -119 -40 -259 -163
-323 -285 -18 -33 -35 -58 -37 -56 -3 2 11 40 29 83 77 183 212 327 364 390
32 13 49 24 38 24 -11 0 -46 -11 -77 -24z"/>
<path d="M10507 10442 c2 -11 -7 -43 -22 -72 -18 -36 -26 -64 -23 -86 4 -31 3
-32 -13 -18 -9 8 -33 20 -53 25 -31 9 -44 7 -80 -11 -24 -11 -51 -29 -61 -40
-18 -19 -17 -20 11 -20 16 0 49 -14 74 -30 49 -32 95 -38 125 -16 24 17 53 10
87 -22 26 -23 31 -25 95 -18 88 10 85 10 107 1 17 -8 17 -4 -5 35 -13 24 -37
51 -54 62 -38 23 -103 23 -135 1 -24 -17 -24 -16 3 16 40 48 38 105 -5 162
-37 47 -59 61 -51 31z m24 -192 c-11 -33 -1 -40 57 -40 20 0 44 -5 52 -10 11
-7 -5 -10 -52 -10 -37 0 -69 4 -72 8 -3 5 -19 7 -36 4 -17 -2 -40 2 -53 11
-13 8 -32 17 -42 20 -14 3 -11 5 10 6 17 0 41 -5 55 -12 42 -21 55 -11 71 56
12 54 14 58 17 29 2 -19 -1 -46 -7 -62z"/>
<path d="M1904 10365 c133 -34 260 -137 313 -252 53 -116 38 -269 -36 -377
-50 -72 -124 -133 -182 -150 -75 -23 -87 -21 -62 7 42 46 36 103 -14 126 -39
18 -63 13 -94 -18 -49 -50 -35 -122 31 -156 42 -22 123 -19 173 6 64 33 141
119 184 206 37 75 38 80 38 188 0 108 -1 113 -38 187 -62 126 -201 231 -322
243 l-50 5 59 -15z"/>
<path d="M1666 10249 c-95 -23 -237 -132 -277 -212 -6 -12 2 -6 17 13 53 66
119 121 184 152 56 28 76 32 145 32 93 1 152 -18 223 -71 l47 -36 -30 32 c-67
72 -212 115 -309 90z"/>
<path d="M1184 10098 c-59 -71 -96 -204 -80 -291 4 -19 18 -51 31 -72 20 -28
23 -40 15 -55 -18 -33 -11 -68 20 -103 20 -23 30 -45 30 -66 0 -24 14 -46 61
-98 75 -82 113 -137 146 -209 26 -58 26 -88 -1 -37 -22 45 -124 134 -193 171
-79 42 -139 53 -189 36 -31 -11 -41 -11 -58 2 -44 31 -125 5 -162 -51 -15 -23
-19 -24 -26 -11 -12 21 -41 20 -60 -1 -9 -10 -31 -52 -51 -94 -38 -84 -57
-105 -57 -64 0 17 -8 29 -25 37 -48 22 -96 -36 -81 -97 5 -20 13 -25 36 -25
24 0 48 16 110 74 172 161 296 216 437 194 68 -11 79 -18 32 -19 l-34 -1 30
-7 c24 -6 17 -8 -38 -14 -136 -13 -265 -101 -330 -225 -94 -178 -82 -295 39
-414 71 -69 94 -106 94 -154 0 -47 -27 -102 -61 -123 -24 -15 -24 -15 -6 5 24
29 22 70 -5 88 -45 32 -90 11 -107 -50 -23 -85 82 -149 153 -93 40 31 56 71
56 138 0 67 -12 106 -42 139 l-21 22 74 0 c92 0 132 19 177 84 57 85 38 175
-43 206 -57 22 -119 -24 -119 -87 0 -60 64 -94 106 -56 27 24 29 13 8 -34 -44
-99 -164 -110 -263 -24 -76 67 -89 204 -32 326 35 73 131 172 198 203 142 66
311 47 400 -46 l28 -29 -54 5 c-46 4 -57 1 -85 -23 -39 -33 -51 -84 -28 -119
22 -34 53 -42 77 -20 20 18 26 44 9 44 -5 0 -7 -7 -4 -15 4 -8 1 -15 -5 -15
-24 0 -25 33 -2 52 46 36 113 18 170 -47 40 -46 40 -65 0 -31 -46 39 -54 31
-11 -12 46 -46 74 -102 79 -162 l5 -45 -21 33 c-21 32 -48 48 -131 73 -51 16
-74 55 -50 84 11 14 14 14 25 -1 13 -18 35 -11 35 11 0 7 -8 16 -17 19 -39 16
-112 -77 -100 -126 12 -45 53 -83 130 -120 60 -30 77 -43 92 -73 18 -39 16
-108 -5 -143 -7 -14 -9 -10 -10 16 0 44 -14 69 -50 87 -43 22 -68 19 -101 -15
-25 -24 -30 -37 -27 -66 6 -71 98 -101 114 -38 9 33 -9 52 -32 33 -14 -12 -16
-11 -13 6 3 15 12 20 34 20 70 0 68 -113 -5 -223 -32 -48 -107 -122 -123 -122
-3 0 4 17 14 37 26 51 25 123 -2 157 -39 49 -126 23 -117 -36 2 -15 11 -24 26
-26 28 -4 55 16 48 35 -7 16 6 17 22 1 16 -16 15 -49 -3 -74 -7 -12 -42 -31
-76 -44 -71 -25 -109 -58 -109 -93 0 -30 29 -57 61 -58 13 0 -3 -7 -36 -15
-87 -21 -134 -54 -198 -137 -98 -128 -178 -189 -286 -221 -69 -20 -112 -20
-57 0 47 17 108 62 101 74 -3 5 17 16 44 25 27 9 56 24 65 34 16 17 15 18 -11
14 -23 -4 -20 -1 15 17 52 27 75 59 70 97 -2 20 -9 28 -23 28 -11 0 -21 -8
-23 -17 -2 -13 3 -18 17 -18 55 0 0 -48 -65 -56 -71 -10 -101 -28 -140 -89
-40 -64 -53 -72 -25 -17 13 25 23 75 29 142 9 102 10 105 46 137 20 19 46 33
61 33 26 0 33 -14 15 -25 -16 -10 8 -35 26 -28 15 5 19 40 6 59 -12 19 -70 44
-101 44 -101 0 -147 -92 -104 -210 29 -81 15 -171 -31 -209 -14 -12 -14 -9 1
25 9 22 16 68 17 105 1 56 -3 71 -27 108 -50 76 -152 103 -218 58 -52 -35 -99
-120 -99 -180 0 -40 5 -53 29 -78 35 -34 59 -36 95 -8 44 34 28 111 -20 92
-35 -13 18 60 58 80 33 16 40 16 70 4 51 -22 71 -51 76 -110 4 -57 -23 -140
-56 -171 -15 -13 -17 -12 -19 12 -2 33 -39 64 -71 60 -14 -2 -34 -15 -46 -31
-18 -25 -19 -29 -4 -43 19 -19 38 -11 38 17 0 11 5 17 10 14 18 -11 11 -53
-12 -69 -12 -9 -37 -16 -55 -16 -38 0 -68 -27 -78 -73 l-8 -32 -7 38 c-9 49
-55 96 -102 103 -29 5 -41 1 -67 -22 -41 -36 -53 -100 -27 -139 22 -34 61 -31
61 4 0 29 -21 40 -28 14 -4 -15 -5 -15 -6 3 -2 45 43 58 77 21 31 -33 28 -74
-18 -207 -52 -152 -67 -256 -52 -358 18 -113 51 -172 150 -266 46 -45 91 -95
98 -113 29 -68 5 -167 -51 -211 l-28 -22 66 0 c61 0 68 2 84 26 10 16 19 53
21 90 5 80 -20 137 -88 197 l-49 42 82 0 c95 0 129 14 243 101 38 29 83 60
100 69 42 21 122 19 162 -5 32 -20 45 -44 17 -34 -8 4 -26 -1 -40 -10 -31 -20
-35 -84 -7 -109 44 -40 121 -28 147 24 57 108 -58 219 -194 188 -57 -13 -70
-20 -174 -101 -86 -66 -145 -97 -76 -40 19 16 66 60 104 98 87 86 159 124 235
124 60 0 129 -26 168 -63 97 -90 86 -285 -19 -355 -34 -24 -70 -25 -126 -7
-34 11 -29 -13 5 -26 70 -28 188 36 231 124 25 52 28 145 6 207 -34 96 -128
168 -233 177 -114 10 -193 -34 -275 -152 -62 -90 -86 -115 -58 -58 49 97 36
235 -28 306 -74 82 -201 112 -272 64 -47 -31 -82 -105 -83 -176 -1 -93 49
-151 131 -151 45 0 77 20 98 60 30 58 8 110 -46 110 -53 0 -70 -63 -22 -81
l27 -10 -22 -21 c-11 -12 -34 -21 -49 -21 -104 0 -138 150 -54 234 45 45 95
57 160 40 100 -27 161 -113 161 -227 0 -156 -90 -254 -235 -254 -153 0 -249
126 -249 325 0 91 26 163 84 228 47 54 81 68 182 77 65 5 94 12 109 26 30 26
48 73 42 106 l-5 27 -22 -26 c-25 -29 -46 -24 -46 11 0 28 39 72 75 86 40 15
74 12 123 -11 97 -47 119 -172 46 -259 -33 -39 -89 -42 -122 -7 -24 26 -29 66
-10 85 17 17 65 15 72 -4 8 -21 8 -26 -3 -20 -12 8 -34 -21 -26 -34 10 -17 33
-12 45 10 17 32 -8 74 -46 78 -71 7 -103 -111 -46 -168 87 -86 230 -39 261 86
17 68 6 119 -38 167 -20 22 -29 38 -21 34 86 -34 131 -33 151 4 17 33 3 69
-26 69 -16 0 -25 -6 -25 -16 0 -11 6 -13 19 -9 24 7 37 -11 21 -30 -19 -23
-34 -18 -78 25 -22 22 -49 40 -61 40 -25 0 -54 -28 -47 -46 4 -11 -4 -9 -32 5
-20 10 -50 22 -67 26 -26 6 -17 10 65 27 52 11 124 33 159 49 72 33 97 36 129
13 29 -20 28 -32 -2 -27 -26 5 -42 -21 -30 -51 8 -21 57 -21 74 0 22 25 16 75
-11 97 l-24 20 43 -6 c52 -6 90 -30 102 -62 13 -35 3 -57 -20 -43 -40 25 -69
-22 -34 -56 55 -56 126 54 78 122 -19 28 -65 52 -101 53 l-28 1 28 10 c61 22
168 -17 187 -68 6 -14 10 -43 10 -66 0 -32 -7 -47 -35 -75 -28 -28 -40 -34
-60 -29 -31 8 -33 -9 -3 -25 40 -22 1 -21 -41 0 -22 12 -48 21 -58 20 -11 0
-13 -3 -5 -6 6 -2 12 -15 12 -28 0 -13 7 -30 15 -38 18 -19 9 -27 -30 -27 -62
0 -116 74 -65 87 22 6 28 33 7 33 -22 0 -37 -22 -37 -55 0 -44 37 -76 94 -82
44 -5 45 -6 31 -26 -37 -53 2 -149 54 -132 21 6 30 45 11 45 -5 0 -7 -7 -4
-15 4 -9 0 -15 -10 -15 -32 0 -14 30 48 79 71 57 99 104 116 191 13 70 4 131
-26 175 l-23 35 25 0 c41 0 64 18 64 50 0 29 -28 49 -50 35 -16 -10 -12 -38 5
-31 17 6 21 -19 4 -29 -6 -4 -30 -4 -55 0 l-44 6 20 26 c11 14 20 32 20 39 0
22 -38 54 -65 54 -14 0 -29 -8 -35 -20 -6 -12 -7 -20 -1 -20 5 0 11 5 13 12 4
12 28 3 28 -12 0 -21 -33 -38 -87 -45 -32 -4 -86 -21 -123 -40 -54 -27 -173
-65 -204 -65 -5 0 -3 7 4 16 25 29 95 63 175 84 81 22 130 56 119 83 -3 10 4
12 28 9 42 -5 82 25 98 72 7 23 21 38 40 46 17 7 30 16 30 19 0 4 7 16 15 27
15 19 15 19 8 -1 -3 -11 -21 -37 -40 -58 -35 -39 -39 -56 -23 -88 7 -13 21
-19 44 -19 37 0 60 19 54 46 -4 22 -28 31 -28 10 0 -9 -8 -16 -20 -16 -13 0
-20 7 -20 20 0 15 15 27 55 44 55 25 75 55 61 91 -3 8 -2 14 2 14 50 -8 87 31
102 107 17 86 20 94 37 94 11 0 14 -6 10 -21 -3 -13 -1 -19 6 -16 7 2 12 18
12 34 0 17 8 40 18 50 9 11 17 23 17 27 0 3 7 23 15 44 12 27 18 33 24 23 5
-7 14 -10 20 -6 9 5 9 10 0 21 -15 18 -28 18 -51 -3 -17 -15 -16 -10 6 52 27
76 82 140 111 129 8 -3 15 -11 15 -16 0 -6 -7 -8 -15 -4 -9 3 -15 0 -15 -10 0
-25 35 -12 38 14 4 29 -14 52 -42 52 -20 1 -20 2 5 23 43 36 69 87 69 137 -1
55 -13 79 -68 125 -45 39 -53 68 -23 85 26 13 56 3 41 -15 -7 -9 -6 -16 4 -24
23 -19 39 10 20 38 -21 30 -70 25 -96 -9 -33 -44 -33 -90 -2 -159 31 -72 35
-131 10 -178 -21 -41 -34 -42 -28 -4 8 59 -19 196 -83 422 -121 422 -136 520
-91 614 27 58 47 78 100 100 91 38 186 -24 186 -121 l0 -27 -22 20 c-32 28
-56 35 -81 21 -34 -17 -46 -39 -47 -80 0 -28 7 -42 31 -62 39 -33 59 -33 99 0
41 35 62 77 62 129 0 119 -130 216 -235 176 -40 -16 -94 -68 -115 -114 -42
-91 -37 -172 23 -378 18 -63 36 -133 39 -155 3 -21 3 -30 0 -20 -5 15 -8 16
-15 5 -7 -12 -9 -12 -9 1 0 8 -47 109 -105 225 -112 222 -134 292 -135 411 0
33 7 80 15 105 19 53 54 100 62 82 8 -21 33 -15 33 7 0 33 -44 25 -76 -12z
m-34 -2538 c0 -5 -5 -10 -11 -10 -5 0 -7 5 -4 10 3 6 8 10 11 10 2 0 4 -4 4
-10z"/>
<path d="M2048 9979 c-3 -25 -12 -58 -21 -75 -9 -16 -22 -39 -28 -52 -10 -19
-9 -32 5 -73 10 -27 16 -59 13 -70 -5 -19 -4 -19 16 -6 12 8 32 29 45 48 28
40 25 91 -7 122 -19 19 -19 19 -15 -29 4 -45 3 -47 -7 -20 -9 22 -9 45 1 95 7
37 10 75 8 86 -2 11 -7 -1 -10 -26z"/>
<path d="M10290 9782 c0 -25 28 -78 55 -102 20 -19 38 -25 70 -25 l43 0 -23
-27 c-36 -42 -40 -79 -14 -138 l22 -52 12 29 c7 15 25 39 40 53 15 14 36 43
46 65 10 22 19 34 19 27 0 -17 60 -52 91 -52 14 0 47 7 74 17 46 15 47 17 24
25 -13 5 -44 31 -70 59 -46 50 -83 62 -119 39 -12 -7 -10 -12 10 -28 14 -11
36 -29 50 -41 l25 -21 -32 11 c-17 6 -39 19 -48 29 -10 11 -22 17 -26 14 -5
-3 -8 5 -6 18 1 14 -3 22 -10 21 -7 -2 -13 2 -13 7 0 6 -11 22 -25 35 -21 22
-33 25 -98 25 -43 0 -78 5 -85 12 -9 9 -12 9 -12 0z m208 -88 c29 -19 28 -30
-8 -83 -21 -30 -30 -38 -30 -25 0 10 9 32 19 48 26 39 17 56 -28 56 -20 0 -44
7 -54 14 -15 12 -11 13 30 9 27 -3 58 -12 71 -19z"/>
<path d="M12126 9270 c-59 -63 -79 -109 -78 -182 0 -42 7 -69 28 -108 37 -68
113 -126 79 -60 -24 46 -36 121 -26 155 8 25 9 26 10 8 1 -13 12 -52 26 -89
29 -76 31 -106 10 -124 -8 -7 -15 -15 -15 -19 0 -4 22 -30 49 -58 94 -99 147
-256 138 -411 -3 -46 -3 -82 -1 -79 2 2 8 34 13 72 19 135 -24 301 -107 410
-42 55 -56 91 -40 101 17 11 48 87 48 121 0 19 -18 67 -44 116 -51 98 -61 133
-47 170 6 15 9 27 7 27 -2 0 -24 -23 -50 -50z"/>
<path d="M814 9236 c-113 -76 -210 -227 -235 -366 -17 -98 -28 -120 -55 -120
-35 0 -76 -18 -107 -48 -19 -18 -37 -56 -58 -124 -25 -79 -37 -103 -65 -128
l-35 -30 51 0 c160 0 260 93 260 240 0 67 -9 70 -29 10 -13 -40 -62 -105 -93
-121 -21 -11 -21 -11 1 19 12 17 32 55 45 84 24 54 61 97 73 85 17 -17 33 19
33 75 0 149 112 347 250 440 14 9 23 17 20 17 -3 1 -28 -14 -56 -33z"/>
<path d="M12205 7773 c6 -5 45 -34 88 -63 43 -29 92 -70 109 -89 17 -20 27
-29 24 -21 -23 48 51 -58 83 -120 70 -137 88 -236 67 -378 -23 -151 -81 -254
-181 -317 -85 -54 -155 -75 -253 -75 -247 0 -403 156 -406 405 -1 83 1 94 30
144 34 60 54 76 47 37 -4 -19 3 -33 25 -56 38 -38 66 -38 103 -1 37 37 38 79
3 120 -45 54 -128 40 -192 -33 -37 -42 -47 -84 -46 -191 1 -224 150 -401 367
-437 177 -29 381 71 465 229 64 121 78 308 33 452 -10 34 -17 61 -14 61 8 0
54 -112 73 -183 44 -159 36 -329 -23 -449 -37 -75 -25 -75 15 -1 85 156 79
402 -13 586 -66 132 -148 225 -263 300 -64 43 -154 94 -141 80z"/>
<path d="M12511 7344 c0 -11 3 -14 6 -6 3 7 2 16 -1 19 -3 4 -6 -2 -5 -13z"/>
<path d="M12513 7224 c-24 -190 -112 -296 -281 -339 l-57 -15 50 5 c108 11
216 89 264 189 25 54 43 149 39 206 -2 38 -5 30 -15 -46z"/>
<path d="M1050 7220 c0 -5 5 -12 10 -15 6 -4 10 -38 9 -77 l-2 -70 46 -44 c42
-40 46 -47 36 -71 -14 -37 3 -72 57 -117 27 -23 44 -46 44 -59 1 -43 39 46 40
92 0 36 -6 49 -34 77 l-34 34 38 0 c59 0 105 46 124 125 7 28 7 29 -11 13 -11
-10 -42 -17 -85 -20 -44 -2 -73 -10 -85 -21 -18 -16 -19 -15 -15 17 5 43 -20
92 -58 111 -49 26 -80 35 -80 25z m105 -161 c8 -29 12 -56 9 -59 -11 -10 -34
34 -34 66 0 18 -3 41 -6 51 -5 14 -4 15 5 7 7 -6 18 -35 26 -65z m120 -43
c-11 -7 -35 -17 -54 -21 -24 -5 -30 -10 -20 -16 10 -6 10 -9 2 -9 -8 0 -3 -14
12 -36 38 -56 30 -73 -10 -23 -36 45 -44 82 -23 95 12 8 68 21 98 23 10 1 8
-3 -5 -13z"/>
<path d="M11820 7129 c0 -59 18 -90 62 -112 43 -21 76 -12 35 10 -15 7 -31 22
-37 33 -9 16 -4 15 30 -7 22 -15 40 -35 40 -45 0 -10 4 -18 8 -18 5 0 15 -12
22 -26 8 -14 28 -35 45 -47 l30 -20 -31 34 c-31 33 -52 74 -70 134 -6 21 -21
36 -51 50 -22 11 -50 29 -62 39 l-21 19 0 -44z"/>
<path d="M662 6825 c-25 -85 -8 -145 51 -180 l30 -18 -39 -13 c-60 -20 -84
-64 -84 -151 l0 -35 30 26 c17 14 46 28 65 32 19 3 44 16 57 28 l23 21 20 -39
c26 -52 59 -74 120 -83 l49 -6 -21 26 c-11 15 -24 48 -28 74 -7 50 -49 103
-81 103 -25 0 -43 30 -44 71 0 44 -12 61 -75 102 -30 19 -52 42 -55 57 -6 23
-8 22 -18 -15z m136 -207 c-2 -16 -19 -31 -56 -50 -46 -25 -51 -26 -40 -8 7
11 28 27 47 36 25 12 30 18 20 25 -12 7 -12 9 0 9 8 0 -2 15 -22 35 -21 20
-37 42 -37 50 0 8 21 -6 46 -30 32 -32 45 -51 42 -67z m59 -74 l22 -59 -24 28
c-14 15 -25 37 -25 47 0 10 -4 22 -10 25 -14 9 -12 27 2 23 7 -3 23 -31 35
-64z"/>
<path d="M12359 6597 c-1 -4 -2 -13 -3 -19 0 -7 -21 -24 -46 -37 -43 -23 -44
-23 -26 -3 10 12 27 24 38 28 31 10 5 27 -30 19 -47 -10 -74 -47 -80 -107 -5
-51 -4 -52 14 -36 11 9 38 21 61 27 45 12 73 42 73 77 0 12 6 24 13 27 10 4
10 7 0 18 -7 7 -14 10 -14 6z"/>
<path d="M11837 6367 c11 -15 24 -48 28 -74 7 -50 49 -103 81 -103 25 0 43
-30 44 -71 0 -44 12 -61 75 -102 30 -19 51 -42 55 -56 5 -23 7 -21 18 16 25
84 3 155 -55 182 l-28 13 40 14 c22 7 41 14 43 14 11 0 42 93 42 128 l0 44
-30 -26 c-17 -14 -46 -28 -65 -32 -19 -3 -44 -16 -57 -28 l-23 -21 -20 39
c-26 52 -59 74 -120 83 l-49 6 21 -26z m133 -126 c0 -9 5 -22 12 -29 6 -6 9
-15 5 -19 -11 -11 -24 8 -46 67 l-20 55 24 -28 c14 -15 25 -36 25 -46z m128
-1 c-7 -11 -28 -27 -47 -36 -25 -12 -30 -18 -20 -25 12 -7 12 -9 0 -9 -8 0 2
-15 22 -35 21 -20 37 -42 37 -50 0 -8 -21 6 -46 30 -59 58 -57 80 11 117 28
15 51 27 53 27 1 1 -3 -8 -10 -19z"/>
<path d="M12433 6364 c-10 -16 -19 -53 -21 -90 -5 -80 20 -137 88 -197 l49
-42 -82 0 c-95 0 -129 -14 -243 -101 -38 -29 -83 -60 -100 -69 -42 -21 -122
-19 -161 5 -33 20 -46 44 -18 34 8 -4 26 1 40 10 49 32 25 118 -36 131 -91 20
-152 -85 -99 -170 26 -42 81 -68 145 -68 68 0 108 19 215 102 88 68 149 101
79 43 -19 -16 -65 -60 -104 -98 -87 -86 -159 -124 -235 -124 -60 0 -129 26
-168 63 -97 90 -86 285 19 355 34 24 70 25 127 7 33 -11 28 13 -5 26 -71 28
-189 -36 -232 -124 -26 -54 -28 -157 -5 -213 40 -96 130 -162 232 -171 114
-10 193 34 275 152 62 91 86 114 58 57 -30 -60 -38 -154 -17 -224 37 -129 217
-212 317 -145 47 31 82 105 83 176 1 93 -49 151 -131 151 -45 0 -77 -20 -98
-60 -30 -58 -8 -110 46 -110 53 0 70 63 22 81 l-27 10 22 21 c42 43 121 16
143 -49 34 -103 -45 -214 -153 -213 -36 0 -112 31 -142 58 -36 32 -66 113 -66
178 0 156 90 254 235 254 153 0 249 -126 249 -325 0 -91 -26 -163 -84 -228
-47 -54 -81 -68 -182 -77 -65 -5 -94 -12 -109 -26 -32 -28 -49 -76 -40 -110 7
-27 8 -28 15 -7 7 22 32 37 47 27 17 -10 9 -51 -16 -78 -47 -50 -103 -58 -173
-25 -97 47 -119 172 -46 259 33 39 89 42 122 7 24 -26 29 -66 10 -85 -17 -17
-65 -15 -72 4 -8 21 -8 26 3 20 12 -8 34 21 26 34 -10 17 -33 12 -45 -10 -17
-32 8 -74 46 -78 71 -7 103 111 46 168 -87 86 -230 39 -261 -86 -17 -68 -6
-119 38 -167 20 -22 29 -38 21 -34 -86 34 -131 33 -151 -4 -17 -33 -3 -69 26
-69 16 0 25 6 25 16 0 11 -6 13 -19 9 -24 -7 -37 11 -21 30 19 23 34 18 78
-25 22 -22 49 -40 61 -40 25 0 54 28 47 46 -4 11 4 9 32 -5 20 -10 51 -22 67
-26 26 -6 17 -10 -65 -27 -52 -11 -124 -33 -159 -49 -72 -33 -97 -36 -129 -13
-29 20 -28 32 2 27 16 -3 25 1 30 13 12 30 -3 54 -33 54 -32 0 -46 -13 -56
-52 -5 -21 -1 -33 20 -54 l27 -27 -41 6 c-74 9 -126 64 -101 105 5 10 10 12
10 5 0 -16 46 -17 55 -2 13 20 -5 59 -31 65 -58 15 -98 -77 -58 -134 19 -28
65 -52 101 -53 l28 0 -25 -10 c-33 -13 -109 -2 -149 22 -36 22 -51 54 -51 111
0 32 7 47 35 75 28 28 40 34 60 29 31 -8 33 9 3 25 -40 22 -1 21 41 0 22 -12
48 -21 58 -20 11 0 13 3 6 6 -7 2 -13 15 -13 28 0 13 -7 30 -15 38 -18 19 -9
27 30 27 62 0 116 -74 65 -87 -22 -6 -28 -33 -7 -33 22 0 37 22 37 55 0 44
-37 76 -94 82 -44 5 -45 6 -31 26 37 53 -2 149 -54 132 -21 -6 -30 -45 -11
-45 5 0 7 7 4 15 -4 9 0 15 10 15 34 0 11 -33 -66 -94 -100 -80 -137 -256 -72
-351 l23 -35 -25 0 c-41 0 -64 -18 -64 -50 0 -29 28 -49 50 -35 16 10 12 38
-5 31 -17 -6 -21 19 -4 29 6 4 30 4 55 0 l44 -6 -20 -26 c-11 -14 -20 -32 -20
-39 0 -22 38 -54 65 -54 14 0 29 8 35 20 6 12 7 20 1 20 -5 0 -11 -5 -13 -12
-4 -12 -28 -3 -28 12 0 21 33 38 87 45 32 4 86 21 123 40 54 27 173 65 204 65
5 0 3 -7 -4 -16 -25 -29 -95 -63 -175 -84 -81 -22 -130 -56 -119 -83 3 -10 -4
-12 -28 -9 -42 5 -82 -25 -98 -72 -7 -23 -21 -38 -40 -46 -17 -7 -30 -16 -30
-19 0 -4 -7 -16 -15 -27 -15 -19 -15 -19 -8 1 3 11 21 37 40 58 35 39 39 56
23 88 -7 13 -21 19 -44 19 -37 0 -60 -19 -54 -46 4 -22 28 -31 28 -10 0 10 8
16 21 16 15 0 20 -5 17 -22 -2 -16 -15 -27 -47 -39 -52 -19 -74 -44 -68 -81 2
-15 1 -27 -2 -26 -51 5 -86 -33 -101 -108 -17 -86 -20 -94 -37 -94 -11 0 -14
6 -10 21 3 13 1 19 -6 16 -7 -2 -12 -18 -12 -34 0 -17 -8 -40 -17 -50 -10 -11
-18 -23 -18 -27 0 -3 -7 -23 -15 -44 -12 -27 -18 -33 -24 -23 -5 7 -14 10 -20
6 -9 -5 -9 -10 0 -21 15 -18 28 -18 51 3 17 15 16 10 -6 -52 -27 -76 -82 -140
-111 -129 -8 3 -15 11 -15 16 0 6 7 8 15 4 9 -3 15 0 15 10 0 25 -35 12 -38
-14 -4 -29 14 -52 42 -52 19 -1 18 -3 -11 -28 -42 -36 -63 -82 -63 -134 1 -53
14 -77 68 -123 45 -39 53 -68 23 -85 -26 -13 -56 -3 -41 15 7 9 6 16 -4 24
-23 19 -39 -10 -20 -38 21 -30 70 -25 96 9 33 44 33 90 2 159 -31 72 -35 131
-10 179 21 40 34 41 28 3 -8 -59 19 -199 87 -436 123 -431 135 -525 75 -621
-52 -87 -147 -115 -221 -67 -29 19 -53 69 -53 109 l0 27 23 -20 c31 -28 55
-35 80 -21 34 17 46 39 47 80 0 28 -7 42 -31 62 -17 14 -39 26 -49 26 -24 0
-77 -45 -96 -82 -67 -130 83 -301 219 -249 40 16 94 68 115 114 43 93 38 166
-29 401 -22 77 -38 148 -35 156 2 10 4 8 5 -5 1 -17 3 -18 11 -5 8 13 10 13
10 0 0 -8 47 -109 105 -225 78 -156 109 -229 120 -283 19 -94 19 -177 0 -233
-19 -53 -54 -100 -62 -81 -8 20 -33 14 -33 -8 0 -14 7 -20 24 -20 50 0 121
124 133 230 7 74 -1 119 -32 165 -20 28 -23 40 -15 55 18 33 11 68 -20 103
-20 23 -30 45 -30 66 0 24 -14 46 -61 98 -75 82 -113 137 -146 209 -26 58 -26
88 1 37 25 -49 130 -139 207 -177 75 -38 149 -48 190 -26 14 8 25 7 41 -5 46
-32 126 -7 164 50 15 23 19 24 26 11 12 -21 41 -20 60 2 9 9 31 51 51 93 38
84 57 105 57 64 0 -17 8 -29 25 -37 48 -22 96 36 81 97 -5 20 -13 25 -36 25
-24 0 -48 -16 -110 -74 -147 -138 -238 -187 -355 -194 -44 -2 -96 0 -115 6
l-35 10 35 2 35 2 -30 7 c-24 6 -17 8 38 14 182 18 332 158 383 356 28 112 1
188 -106 299 -74 76 -86 100 -77 162 5 41 41 100 60 100 8 0 8 -3 -1 -12 -20
-20 -14 -65 10 -82 45 -32 90 -11 107 50 23 85 -82 149 -153 93 -40 -31 -56
-71 -56 -138 0 -67 12 -106 42 -138 l21 -23 -74 0 c-92 0 -132 -19 -176 -84
-58 -85 -39 -175 42 -206 57 -22 119 24 119 87 0 60 -64 94 -106 56 -27 -24
-29 -13 -8 34 44 99 164 110 263 24 51 -45 71 -104 65 -193 -9 -141 -98 -267
-236 -335 -71 -35 -82 -38 -166 -38 -79 0 -99 4 -146 27 -31 15 -68 40 -83 56
l-28 29 54 -5 c46 -4 57 -1 85 23 39 33 51 84 28 119 -22 34 -53 42 -77 20
-20 -18 -26 -44 -9 -44 5 0 7 7 4 15 -4 8 -1 15 5 15 24 0 25 -33 2 -52 -28
-22 -72 -23 -110 -4 -32 17 -91 81 -91 99 1 7 5 6 13 -4 11 -15 49 -39 61 -39
3 0 -11 17 -32 38 -46 46 -74 102 -79 162 l-5 45 21 -33 c21 -32 48 -48 131
-73 51 -16 74 -55 50 -84 -11 -14 -14 -14 -25 1 -13 18 -35 11 -35 -11 0 -7 8
-16 17 -19 39 -16 112 77 100 126 -12 45 -53 83 -130 120 -60 30 -77 43 -92
73 -18 39 -16 108 5 143 7 14 9 10 10 -16 0 -44 14 -69 51 -88 62 -32 133 15
127 84 -6 69 -99 98 -114 36 -9 -33 9 -52 32 -33 14 12 16 11 13 -6 -3 -15
-12 -20 -34 -20 -71 0 -68 113 6 225 34 50 105 120 122 120 3 0 -4 -17 -14
-37 -26 -51 -25 -123 2 -157 39 -49 126 -23 117 36 -2 15 -11 24 -26 26 -28 4
-55 -16 -48 -35 7 -16 -6 -17 -22 -1 -16 16 -15 49 3 74 7 12 42 31 76 44 71
25 109 58 109 93 0 30 -29 57 -61 58 -13 0 5 8 41 18 90 23 128 49 194 135 97
127 177 189 285 220 69 20 112 20 57 0 -47 -17 -108 -62 -101 -74 3 -5 -17
-16 -44 -25 -27 -9 -56 -24 -65 -34 -16 -17 -15 -18 11 -14 23 3 20 0 -14 -16
-49 -23 -76 -59 -71 -98 2 -20 9 -28 23 -28 11 0 21 8 23 18 2 12 -3 17 -17
17 -55 0 0 48 65 56 71 10 101 28 140 89 41 64 53 72 24 16 -13 -26 -22 -70
-26 -128 -4 -48 -13 -100 -20 -115 -18 -35 -61 -68 -90 -68 -25 0 -32 14 -14
25 16 10 -8 35 -26 28 -21 -8 -17 -50 8 -72 50 -47 148 -38 185 18 28 42 29
80 3 172 -24 89 -12 160 34 198 14 12 14 9 -1 -25 -9 -22 -16 -68 -17 -105 -1
-56 3 -71 27 -108 50 -76 152 -103 218 -58 52 35 99 120 99 180 0 40 -5 53
-29 78 -35 34 -59 36 -95 8 -44 -34 -28 -111 20 -92 35 13 -18 -60 -58 -80
-33 -16 -40 -16 -70 -4 -51 22 -71 51 -76 110 -4 57 23 140 56 171 15 13 17
12 19 -12 2 -33 39 -64 71 -60 14 2 34 15 46 31 18 25 19 29 4 43 -19 19 -38
11 -38 -17 0 -11 -4 -17 -10 -14 -18 11 -11 53 12 69 12 9 37 16 55 16 38 0
68 27 78 73 l8 32 7 -38 c9 -49 55 -96 102 -103 29 -5 41 -1 67 22 41 36 53
100 27 139 -22 34 -61 31 -61 -4 0 -29 21 -40 28 -14 4 15 5 15 6 -2 2 -46
-43 -59 -77 -22 -31 33 -28 74 18 207 52 152 67 256 52 358 -18 113 -51 172
-150 266 -46 45 -91 95 -98 113 -29 68 -5 167 51 211 l28 22 -66 0 c-61 0 -68
-2 -84 -26z m-763 -1118 c0 -3 -4 -8 -10 -11 -5 -3 -10 -1 -10 4 0 6 5 11 10
11 6 0 10 -2 10 -4z"/>
<path d="M573 6362 c-6 -11 -32 -24 -57 -31 -48 -12 -76 -41 -76 -78 0 -13 -5
-23 -11 -23 -6 0 -9 -5 -7 -11 5 -14 23 -12 23 3 0 7 20 24 45 37 43 23 44 23
26 3 -10 -12 -27 -24 -37 -27 -31 -10 -10 -28 24 -21 60 12 94 68 85 140 -3
25 -4 25 -15 8z"/>
<path d="M558 6094 c-167 -40 -292 -161 -339 -329 -22 -77 -17 -264 9 -345 30
-93 0 -48 -38 57 -65 180 -64 380 3 515 37 75 25 75 -15 1 -89 -163 -80 -407
22 -602 74 -142 160 -231 312 -321 92 -55 96 -50 7 11 -90 63 -150 115 -141
125 4 4 2 4 -4 1 -23 -13 -114 154 -141 256 -20 79 -20 214 1 294 41 161 121
252 271 308 86 33 213 35 301 5 163 -56 256 -195 258 -385 1 -83 -1 -94 -30
-144 -34 -60 -54 -76 -47 -37 4 19 -3 33 -25 56 -37 37 -61 38 -101 4 -40 -33
-42 -79 -5 -123 43 -51 123 -40 186 26 34 36 46 68 54 145 23 230 -134 447
-355 488 -69 13 -113 12 -183 -6z"/>
<path d="M11528 6016 c-10 -20 -18 -55 -18 -77 0 -33 6 -47 34 -75 l34 -34
-38 0 c-59 0 -105 -46 -124 -125 -7 -28 -7 -29 11 -13 11 10 42 17 85 20 44 3
73 10 86 21 18 16 18 16 14 -13 -9 -60 29 -108 111 -139 26 -10 27 -9 17 9 -6
10 -10 49 -9 86 l2 66 -46 44 c-42 40 -46 47 -36 71 14 37 -3 72 -56 116 -24
20 -45 47 -47 59 -3 18 -6 16 -20 -16z m102 -193 c0 -27 -19 -38 -80 -47 -41
-6 -43 -5 -25 7 11 8 35 18 54 22 24 5 30 10 20 16 -10 6 -10 9 -2 9 8 0 3 14
-12 36 -38 56 -30 73 10 23 19 -24 35 -54 35 -66z m28 -40 c13 -24 22 -114 11
-107 -5 2 -13 24 -19 47 -6 23 -13 50 -16 60 -3 9 -1 17 5 17 6 0 14 -8 19
-17z"/>
<path d="M523 5915 c-55 -17 -121 -56 -155 -92 -58 -61 -99 -182 -97 -286 1
-46 3 -41 15 40 15 108 50 189 105 244 46 46 84 67 164 90 33 10 49 18 35 18
-14 0 -44 -6 -67 -14z"/>
<path d="M776 5869 c31 -33 52 -74 70 -134 6 -21 21 -36 51 -50 22 -11 50 -29
62 -39 l21 -19 0 44 c0 59 -18 90 -62 112 -43 21 -76 12 -35 -10 15 -7 31 -22
37 -33 9 -16 4 -15 -30 7 -22 15 -40 35 -40 45 0 10 -4 18 -8 18 -5 0 -15 12
-22 26 -8 14 -28 35 -45 47 l-30 20 31 -34z"/>
<path d="M480 5488 c-50 -26 -90 -89 -90 -143 0 -129 86 -226 303 -345 75 -41
146 -82 158 -91 21 -16 21 -16 -7 -14 -16 1 -38 6 -49 12 -11 6 -94 34 -185
62 -216 67 -316 117 -401 201 -48 47 -70 78 -82 114 -22 64 -21 76 3 76 23 0
27 25 6 33 -48 19 -47 -97 2 -196 41 -84 102 -140 170 -158 29 -7 52 -16 52
-20 0 -4 12 -21 26 -38 22 -26 33 -31 69 -31 33 0 50 -6 67 -23 21 -21 39 -25
153 -34 97 -9 149 -18 203 -38 40 -15 71 -29 69 -31 -2 -2 -32 1 -67 7 -148
24 -346 -43 -387 -131 -12 -28 -24 -40 -39 -40 -51 0 -94 -82 -79 -148 6 -27
4 -30 -14 -25 -15 4 -24 -2 -32 -21 -10 -22 -7 -38 20 -112 39 -108 40 -120 6
-98 -23 15 -27 15 -50 0 -31 -21 -33 -63 -4 -100 24 -30 49 -33 72 -8 13 14
17 38 17 93 0 186 47 351 123 435 35 39 128 100 111 73 -5 -8 -9 -17 -9 -21 0
-3 -4 -10 -9 -15 -5 -5 -6 -2 -1 5 6 11 3 12 -13 3 -12 -6 -24 -17 -28 -24 -5
-8 -2 -7 9 2 31 25 30 3 -2 -36 -66 -82 -95 -232 -67 -341 36 -141 100 -234
188 -272 41 -18 73 -22 160 -24 90 -2 113 -6 136 -22 32 -24 72 -98 72 -134 0
-24 -1 -24 -20 8 -16 26 -26 32 -53 32 -47 0 -71 -29 -63 -73 13 -70 91 -102
152 -62 30 20 47 80 34 125 -20 74 -114 150 -185 150 -28 0 -28 0 18 43 26 23
53 59 62 80 28 68 14 154 -34 206 -25 27 -36 31 -80 31 -67 0 -101 -30 -101
-89 0 -32 6 -44 31 -65 17 -14 34 -26 39 -26 26 0 61 26 66 49 3 14 7 31 8 36
6 22 36 -57 36 -93 0 -78 -67 -139 -163 -149 -71 -7 -119 10 -175 60 -90 84
-137 234 -113 362 32 177 173 315 320 315 46 -1 53 -3 36 -12 -40 -22 -65 -52
-71 -85 -16 -84 70 -159 120 -104 20 22 18 63 -4 68 -13 4 -13 3 0 -6 11 -8
12 -13 3 -22 -16 -16 -33 -2 -33 27 0 36 16 61 50 79 32 17 127 20 150 5 11
-7 6 -10 -22 -10 -66 0 -50 -17 21 -22 69 -5 139 -35 169 -71 10 -12 6 -13
-27 -4 -36 10 -46 8 -102 -21 -71 -37 -113 -41 -129 -13 -14 27 -13 29 12 33
26 4 35 26 14 34 -26 10 -46 -15 -46 -57 0 -113 81 -146 227 -93 l72 26 48
-23 c33 -17 55 -36 70 -64 29 -52 29 -64 -1 -32 -49 53 -126 43 -152 -20 -12
-28 -12 -38 0 -68 19 -45 54 -62 95 -45 51 21 54 90 4 90 -18 0 -24 -4 -19
-15 3 -8 1 -15 -4 -15 -15 0 -18 14 -9 38 13 34 58 29 97 -11 59 -61 95 -204
74 -292 -6 -22 -10 -32 -11 -22 -1 10 -8 32 -17 50 -43 85 -114 119 -160 76
-40 -38 -25 -107 22 -97 31 6 40 34 20 57 -19 21 -19 21 6 21 31 0 58 -29 58
-62 0 -14 -11 -50 -25 -80 -30 -65 -32 -111 -5 -138 25 -25 52 -25 75 0 32 35
27 15 -9 -39 -45 -66 -51 -100 -40 -225 17 -202 5 -283 -62 -389 -41 -65 -53
-71 -25 -11 10 21 21 59 25 83 5 35 4 42 -8 38 -9 -4 -6 8 10 36 13 23 24 55
24 71 0 29 -1 29 -16 10 -15 -19 -16 -19 -8 1 23 64 16 128 -17 146 -27 14
-54 -7 -39 -31 8 -12 13 -13 29 -3 16 10 20 9 25 -3 9 -25 8 -27 -34 -84 -43
-58 -50 -99 -30 -169 13 -45 4 -54 -11 -11 -7 18 -40 67 -75 109 -71 84 -83
119 -60 174 16 39 30 47 40 22 9 -25 38 -18 34 7 -5 35 -47 45 -94 22 -112
-56 -102 -181 20 -242 84 -42 123 -86 140 -154 3 -16 2 -28 -3 -28 -5 0 -11
10 -15 23 -8 35 -85 118 -123 133 -75 32 -175 4 -213 -59 -38 -61 -17 -187 39
-241 40 -38 101 -46 130 -17 26 26 27 72 3 94 -21 19 -62 23 -62 6 0 -5 -4 -7
-10 -4 -15 10 -12 98 5 122 38 55 125 50 182 -10 39 -41 51 -66 62 -122 9 -47
3 -56 -19 -29 -20 23 -69 14 -93 -18 -17 -23 -19 -31 -9 -53 14 -30 52 -35 52
-6 0 11 -5 21 -12 23 -9 3 -9 6 -1 11 16 10 43 -20 43 -48 0 -13 -11 -37 -25
-53 -28 -34 -32 -78 -10 -108 24 -31 17 -39 -11 -13 -20 19 -36 24 -76 24 -44
0 -53 -4 -80 -34 -25 -28 -29 -39 -24 -70 7 -44 66 -104 98 -99 32 5 46 34 26
54 -20 20 -45 9 -27 -12 7 -8 7 -14 1 -14 -18 0 -34 29 -27 49 7 24 43 36 75
26 34 -11 58 -44 115 -160 90 -186 174 -278 311 -342 55 -26 67 -28 183 -26
136 2 174 -7 223 -54 37 -35 62 -104 54 -145 l-6 -33 45 45 c25 24 45 53 45
65 0 36 -44 99 -92 131 -53 36 -107 47 -181 39 l-52 -6 30 23 c87 66 117 130
141 295 20 143 42 181 120 208 44 15 74 10 50 -9 -30 -24 -29 -55 3 -86 33
-34 49 -36 91 -15 51 26 64 79 35 135 -34 65 -122 79 -197 31 -65 -41 -93
-105 -113 -251 -9 -63 -19 -118 -23 -122 -8 -8 -6 146 3 239 11 124 52 195
137 237 63 32 143 35 204 7 73 -33 144 -142 144 -220 0 -39 -36 -90 -76 -107
-19 -8 -32 -19 -29 -24 10 -16 21 -12 56 17 71 60 89 169 43 261 -48 96 -131
146 -244 146 -114 0 -197 -50 -245 -149 -22 -43 -26 -67 -26 -127 0 -40 5 -89
11 -108 5 -19 10 -46 10 -59 0 -19 -6 -13 -26 27 -14 28 -49 73 -79 100 -87
80 -170 91 -282 36 -63 -30 -94 -70 -101 -130 -7 -62 19 -124 73 -173 49 -45
79 -56 128 -47 54 10 88 45 94 97 6 52 -6 81 -42 105 -29 19 -60 11 -81 -21
-29 -44 27 -90 64 -53 9 9 12 8 13 -8 2 -37 -2 -49 -27 -71 -63 -57 -171 0
-194 102 -23 104 67 198 190 198 117 0 232 -102 254 -226 15 -82 -44 -196
-122 -236 -90 -46 -182 -33 -290 39 -101 68 -158 162 -169 281 -6 66 12 109
81 185 24 28 48 62 51 77 9 34 -11 93 -38 112 -27 19 -43 19 -27 0 16 -19 3
-57 -18 -53 -44 9 -52 102 -13 156 41 58 148 79 208 42 38 -23 78 -82 88 -127
7 -35 -14 -87 -40 -97 -30 -11 -73 -6 -89 10 -31 30 -14 84 26 84 14 0 17 -5
12 -24 -7 -30 13 -44 33 -23 34 33 -30 82 -76 58 -30 -16 -36 -53 -16 -96 58
-120 245 -57 245 83 0 102 -70 182 -167 190 l-56 5 43 21 c24 11 53 34 64 49
19 26 19 30 5 55 -19 35 -62 38 -67 5 -2 -13 1 -23 7 -23 6 0 11 7 11 15 0 20
29 19 36 0 11 -28 -16 -45 -68 -45 -27 0 -58 -5 -69 -10 -21 -12 -25 -50 -7
-68 9 -9 9 -12 -3 -12 -9 0 -37 -11 -62 -24 -26 -13 -47 -21 -47 -19 0 2 23
38 51 79 28 42 63 107 77 146 19 52 32 73 53 84 35 18 40 18 65 -1 18 -14 18
-14 -2 -9 -26 7 -38 -8 -29 -36 13 -39 75 -19 75 25 0 37 -28 65 -66 65 -43 0
-37 13 16 40 47 24 78 25 108 4 28 -19 28 -32 0 -36 -28 -4 -36 -39 -14 -57
23 -19 65 -5 76 24 12 33 -1 66 -37 95 -34 27 -91 23 -135 -10 -42 -31 -34 -8
13 34 77 70 132 75 190 17 49 -48 56 -110 18 -143 -25 -21 -24 -30 3 -26 12 2
28 14 35 28 9 18 13 20 13 8 0 -20 -34 -58 -51 -58 -18 0 -79 -32 -79 -41 0
-5 7 -6 15 -2 9 3 24 -2 35 -12 11 -10 26 -15 35 -12 24 10 17 -12 -14 -44
-33 -32 -71 -38 -95 -13 -19 18 -20 26 -5 41 13 13 -5 28 -21 18 -16 -10 -11
-44 10 -65 34 -34 95 -24 148 23 l22 20 0 -26 c0 -32 36 -74 72 -82 35 -9 76
28 57 51 -6 8 -16 14 -21 14 -6 0 -5 -7 2 -15 15 -18 7 -31 -11 -20 -8 6 -9
32 -5 94 8 98 -3 142 -55 217 -36 53 -110 104 -152 104 l-28 0 20 26 c34 43
23 94 -21 94 -21 0 -43 -36 -28 -45 6 -4 17 -2 24 5 11 8 15 8 19 -2 7 -20
-11 -46 -43 -63 -34 -18 -44 -19 -35 -5 10 16 -4 49 -27 61 -36 19 -101 -22
-82 -52 9 -15 24 -10 18 6 -4 9 0 15 9 15 14 0 27 -20 27 -40 0 -4 -18 -29
-39 -55 -22 -26 -44 -68 -51 -92 -13 -53 -69 -167 -99 -203 -19 -24 -20 -24
-21 -4 0 39 30 122 70 190 39 67 52 126 30 139 -6 4 0 18 15 37 29 34 33 82 9
116 -13 19 -14 28 -4 53 10 23 10 36 1 55 -15 34 -13 43 4 20 9 -11 15 -41 15
-68 0 -76 47 -111 91 -67 28 28 23 73 -11 77 -21 4 -22 2 -10 -12 16 -20 0
-42 -24 -33 -20 8 -20 34 -1 67 20 35 18 77 -5 100 -18 18 -18 21 -3 48 20 36
14 64 -32 132 -33 50 -43 89 -20 79 5 -2 9 -7 8 -11 -2 -5 2 -8 7 -8 19 0 10
42 -10 47 -14 4 -20 14 -20 35 0 16 -9 46 -20 68 -24 47 -25 54 -5 46 9 -3 15
0 15 10 0 10 -8 14 -22 12 -19 -2 -23 -9 -22 -38 2 -32 -1 -30 -32 35 -37 76
-46 153 -20 174 10 8 16 9 21 1 3 -5 1 -10 -4 -10 -6 0 -11 -4 -11 -10 0 -12
27 -13 34 -1 10 15 -4 40 -25 46 -11 4 -31 0 -45 -10 l-24 -16 6 41 c8 49 -15
116 -52 151 -22 20 -38 25 -111 29 -66 4 -88 9 -97 22 -8 13 -6 22 9 38 16 18
20 19 27 5 12 -21 40 -19 36 3 -4 23 -51 28 -72 7 -23 -23 -20 -77 6 -111 31
-40 46 -50 93 -64 74 -22 135 -85 135 -141 0 -18 -9 -12 -61 36 -74 68 -86 75
-316 203 -231 128 -361 207 -418 255 -117 98 -129 262 -23 327 43 26 87 25
128 -2 41 -28 49 -47 18 -41 -32 6 -78 -31 -78 -63 0 -32 25 -80 45 -88 58
-22 125 16 125 71 0 141 -142 225 -270 161z"/>
<path d="M281 5454 c0 -11 3 -14 6 -6 3 7 2 16 -1 19 -3 4 -6 -2 -5 -13z"/>
<path d="M451 4484 c0 -11 3 -14 6 -6 3 7 2 16 -1 19 -3 4 -6 -2 -5 -13z"/>
<path d="M438 4408 c-15 -135 28 -286 115 -399 37 -49 51 -86 35 -95 -17 -11
-48 -87 -48 -121 0 -19 18 -67 44 -116 52 -99 61 -133 46 -173 -11 -27 -8 -26
35 16 93 91 114 199 59 300 -37 68 -113 126 -79 60 24 -46 36 -121 26 -155 -8
-25 -9 -26 -10 -8 -1 13 -12 52 -26 89 -29 76 -31 106 -10 124 22 18 19 26
-20 61 -87 79 -143 215 -154 373 -6 98 -7 99 -13 44z"/>
<path d="M12381 4366 c-92 -33 -151 -122 -151 -226 0 -67 9 -70 29 -10 13 40
62 105 93 121 21 11 21 11 -1 -19 -12 -17 -32 -55 -45 -84 -24 -54 -61 -97
-73 -85 -17 17 -33 -19 -33 -75 0 -149 -108 -339 -250 -441 -24 -17 -24 -17
10 0 19 10 65 48 102 84 79 78 139 192 159 299 18 99 28 120 56 120 40 0 89
26 116 61 14 19 37 73 51 121 21 69 34 93 62 117 l35 31 -63 -1 c-35 0 -78 -6
-97 -13z"/>
<path d="M2351 3347 c-1 -9 -19 -37 -41 -61 -22 -23 -46 -58 -54 -77 -9 -19
-15 -28 -16 -21 0 18 -60 52 -91 52 -14 0 -47 -7 -74 -17 -46 -15 -47 -17 -24
-25 13 -5 44 -31 70 -59 46 -50 83 -62 119 -39 13 8 11 12 -8 26 -13 9 -35 27
-50 40 l-27 24 32 -11 c17 -6 39 -19 48 -29 10 -11 22 -17 26 -14 5 3 8 -5 6
-18 -1 -14 3 -22 11 -20 6 1 12 -3 12 -8 0 -6 11 -22 25 -35 21 -22 33 -25 98
-25 43 0 78 -5 85 -12 17 -17 16 3 -2 45 -22 53 -61 82 -111 82 l-43 0 23 27
c37 44 40 80 12 140 -14 29 -26 45 -26 35z m-29 -180 c-25 -42 -19 -57 26 -57
21 0 45 -7 55 -14 15 -12 11 -13 -30 -9 -50 5 -93 26 -93 44 0 6 12 31 28 54
31 49 44 33 14 -18z"/>
<path d="M10765 3248 c-63 -33 -140 -120 -182 -205 -37 -75 -38 -80 -38 -188
0 -108 1 -113 38 -187 62 -126 201 -231 324 -243 l48 -5 -57 15 c-85 22 -155
61 -220 123 -142 135 -168 331 -67 493 48 76 128 145 189 163 76 23 88 21 63
-6 -42 -47 -36 -104 14 -127 39 -18 63 -13 94 18 49 50 35 122 -31 156 -42 22
-127 18 -175 -7z"/>
<path d="M11481 3230 c0 -8 6 -44 14 -80 8 -36 14 -98 15 -139 1 -274 -206
-530 -475 -586 l-70 -14 57 4 c32 3 79 12 105 21 118 40 258 163 322 285 18
33 35 58 37 56 3 -2 -11 -40 -29 -83 -76 -181 -210 -325 -364 -390 -47 -21
-51 -24 -23 -20 73 12 162 68 250 156 98 98 145 177 185 315 32 108 37 257 12
370 -17 75 -36 130 -36 105z"/>
<path d="M10742 3076 c-32 -30 -37 -40 -37 -80 0 -33 6 -51 21 -67 l22 -21 -4
48 c-4 46 -3 47 8 19 8 -22 8 -43 0 -85 -7 -31 -11 -69 -11 -86 1 -21 4 -16 9
18 5 25 15 59 24 75 42 77 41 71 22 124 -10 27 -16 58 -13 69 7 27 3 25 -41
-14z"/>
<path d="M11382 2738 c-45 -59 -117 -116 -182 -146 -43 -20 -72 -25 -135 -26
-93 -1 -152 18 -223 71 l-47 36 30 -32 c16 -18 59 -46 94 -64 56 -27 76 -32
141 -32 63 0 85 5 143 33 68 31 178 128 206 180 18 33 9 27 -27 -20z"/>
<path d="M2051 2630 c13 -24 38 -51 54 -62 38 -23 103 -23 135 -1 24 17 24 16
-2 -16 -41 -48 -39 -105 5 -162 36 -47 58 -61 50 -31 -2 11 7 43 22 72 18 36
26 64 23 86 -4 31 -3 32 13 18 9 -8 33 -20 53 -25 31 -9 44 -7 80 11 24 11 51
29 61 40 18 19 17 20 -11 20 -16 0 -49 14 -74 30 -49 32 -95 38 -125 16 -24
-17 -53 -10 -87 22 -26 23 -31 25 -95 18 -88 -10 -85 -10 -107 -1 -17 8 -17 4
5 -35z m233 -28 c3 -5 19 -7 36 -4 17 2 40 -2 53 -11 13 -8 32 -17 42 -20 14
-3 11 -5 -10 -6 -16 0 -41 5 -55 12 -42 21 -55 11 -71 -56 -12 -54 -14 -58
-17 -29 -2 19 1 46 7 62 11 33 1 40 -57 40 -20 0 -44 5 -52 10 -11 7 5 10 52
10 37 0 69 -4 72 -8z"/>
<path d="M10220 2534 c0 -16 -14 -49 -30 -74 -31 -47 -38 -87 -20 -121 13 -24
30 -25 30 -1 0 10 6 26 14 37 7 11 16 29 19 40 3 14 5 11 6 -10 0 -16 -5 -41
-12 -55 -21 -42 -11 -55 56 -71 54 -12 58 -14 29 -17 -19 -2 -46 1 -62 7 -33
11 -40 1 -40 -57 0 -20 -5 -44 -10 -52 -7 -11 -10 5 -10 52 0 37 5 70 10 73
12 7 4 25 -11 25 -5 0 -9 -8 -9 -18 0 -10 -11 -29 -25 -42 -24 -22 -25 -28
-23 -121 l3 -97 39 21 c22 12 47 36 58 52 23 38 23 103 1 135 -17 24 -16 24
16 -2 48 -41 105 -39 162 5 47 36 61 58 31 50 -11 -2 -43 7 -72 22 -36 18 -64
26 -86 23 -31 -4 -32 -3 -18 13 8 9 20 33 25 53 9 31 7 44 -11 80 -11 24 -29
51 -40 61 -19 18 -20 17 -20 -11z"/>
<path d="M9735 2496 c-52 -23 -80 -62 -80 -111 l0 -43 -27 23 c-42 36 -79 40
-138 14 l-52 -22 29 -12 c15 -7 39 -25 53 -40 14 -15 43 -36 65 -46 22 -10 34
-19 27 -19 -17 0 -52 -60 -52 -91 0 -14 7 -47 17 -74 15 -46 17 -47 25 -24 5
13 31 44 59 70 50 46 62 83 39 119 -7 12 -12 10 -28 -10 -11 -14 -29 -36 -41
-50 l-21 -25 11 32 c6 17 19 39 29 48 11 10 17 22 14 26 -3 5 5 8 18 6 14 -1
22 3 21 11 -2 6 2 12 7 12 6 0 22 11 35 25 22 21 25 33 25 98 0 43 5 78 12 85
17 17 -7 15 -47 -2z m-25 -135 c-6 -50 -23 -81 -44 -81 -6 0 -31 14 -55 30
-52 35 -28 42 27 8 32 -20 35 -20 29 -4 -6 16 -5 17 8 6 13 -11 15 -7 15 27 0
30 13 63 25 63 1 0 -1 -22 -5 -49z"/>
<path d="M9872 2404 c-197 -98 -198 -384 -2 -487 53 -28 59 -29 150 -23 52 3
113 8 135 12 l40 6 -52 -27 c-29 -14 -74 -50 -101 -80 -80 -87 -91 -170 -36
-282 31 -65 71 -95 135 -101 36 -3 59 1 93 17 51 25 112 88 122 126 15 62 -25
137 -82 151 -41 10 -94 -7 -118 -39 -19 -26 -19 -30 -5 -55 12 -21 22 -27 49
-27 29 0 36 4 38 23 2 13 -2 30 -8 38 -10 11 -9 14 6 15 37 2 49 -2 72 -27 56
-63 -1 -171 -103 -194 -104 -23 -198 67 -198 190 0 117 102 232 226 254 84 16
196 -44 239 -127 76 -149 -55 -384 -247 -442 -103 -31 -164 -15 -256 65 -31
27 -68 52 -82 55 -34 9 -93 -11 -112 -38 -19 -27 -19 -43 0 -27 19 16 57 3 53
-18 -8 -44 -103 -51 -158 -12 -56 40 -77 148 -40 207 23 38 82 78 127 88 35 7
87 -14 97 -40 11 -30 6 -73 -10 -89 -30 -31 -84 -14 -84 26 0 14 5 17 24 12
30 -7 44 13 23 33 -33 34 -82 -30 -58 -76 16 -30 53 -36 96 -16 120 58 57 245
-83 245 -102 0 -182 -70 -190 -167 l-5 -56 -24 51 c-30 63 -69 84 -109 58 -32
-21 -30 -59 4 -64 12 -2 22 1 22 7 0 6 -7 11 -15 11 -20 0 -19 29 0 36 28 11
45 -16 45 -68 0 -27 5 -58 10 -69 12 -21 50 -25 68 -7 9 9 12 9 12 -3 0 -9 11
-37 24 -62 13 -26 21 -47 19 -47 -2 0 -38 23 -79 51 -42 28 -107 63 -146 77
-52 19 -73 32 -84 53 -18 35 -18 40 1 65 14 18 14 18 9 -2 -7 -26 8 -38 36
-29 39 13 19 75 -25 75 -37 0 -65 -28 -65 -66 0 -43 -13 -37 -40 16 -24 47
-25 78 -4 108 19 28 32 28 36 0 4 -28 39 -36 57 -14 19 23 5 65 -24 76 -33 12
-66 -1 -95 -37 -27 -34 -23 -91 10 -135 31 -42 8 -34 -34 13 -70 77 -75 132
-17 190 48 49 110 56 143 18 21 -25 30 -24 26 3 -2 12 -14 28 -28 35 -18 9
-20 13 -7 13 19 0 57 -34 57 -51 0 -18 32 -79 41 -79 5 0 6 7 2 15 -3 9 2 24
12 35 10 11 15 26 12 35 -10 24 12 17 44 -14 32 -33 38 -71 13 -95 -18 -19
-26 -20 -41 -5 -13 13 -28 -5 -18 -21 10 -16 44 -11 65 10 34 34 24 95 -23
148 l-20 22 26 0 c32 0 74 36 82 72 9 35 -28 76 -51 57 -8 -6 -14 -16 -14 -21
0 -6 7 -5 15 2 18 15 31 7 20 -11 -6 -8 -32 -9 -94 -5 -98 8 -142 -3 -217 -55
-53 -36 -104 -110 -104 -152 l0 -28 -26 20 c-43 34 -94 23 -94 -21 0 -21 36
-43 45 -28 4 6 2 17 -5 24 -8 11 -8 15 2 19 20 7 46 -11 63 -43 19 -37 19 -39
-4 -33 -23 6 -61 -29 -61 -55 0 -22 38 -64 53 -59 6 2 13 9 15 15 2 7 -2 10
-12 6 -10 -4 -16 -1 -16 9 0 24 38 31 63 12 12 -8 37 -27 56 -40 19 -14 52
-30 75 -36 50 -13 162 -69 196 -98 24 -19 24 -20 4 -21 -39 0 -122 30 -190 70
-67 39 -126 52 -139 30 -4 -6 -18 0 -37 15 -34 29 -70 32 -112 10 -24 -13 -35
-14 -58 -4 -22 9 -35 9 -55 0 -14 -6 -28 -9 -31 -7 -9 9 48 26 87 26 39 0 81
28 81 55 0 26 -39 56 -68 53 -20 -2 -28 -9 -30 -28 -4 -21 -2 -22 12 -10 20
16 42 0 33 -24 -8 -20 -34 -20 -67 -1 -36 20 -77 18 -100 -5 -19 -19 -22 -19
-45 -4 -34 22 -76 13 -137 -32 -46 -32 -88 -43 -77 -19 2 5 7 9 12 8 4 -2 7 2
7 7 0 19 -42 10 -47 -10 -4 -14 -14 -20 -35 -20 -16 0 -46 -9 -68 -20 -47 -24
-54 -25 -46 -5 3 9 0 15 -10 15 -10 0 -14 -8 -12 -22 2 -18 9 -23 31 -23 15 1
27 -1 27 -3 0 -1 -28 -16 -62 -32 -70 -33 -147 -40 -167 -16 -8 10 -9 16 -1
21 5 3 10 1 10 -4 0 -6 5 -11 10 -11 12 0 13 27 1 34 -35 22 -65 -42 -35 -75
18 -20 17 -20 -24 -13 -51 8 -118 -15 -153 -52 -20 -22 -25 -38 -29 -111 -4
-66 -9 -88 -22 -97 -13 -8 -22 -6 -38 9 -18 16 -19 20 -5 27 21 12 19 40 -2
36 -24 -4 -29 -51 -8 -72 23 -23 77 -20 111 6 40 31 50 46 64 93 22 74 85 135
141 135 18 0 12 -9 -36 -61 -68 -74 -75 -86 -203 -316 -203 -366 -262 -450
-346 -489 -122 -57 -238 -9 -253 103 -4 29 1 46 19 72 28 42 47 51 41 19 -6
-32 31 -78 63 -78 32 0 80 25 88 45 22 57 -16 125 -70 125 -148 0 -232 -159
-154 -288 23 -37 88 -71 136 -72 127 -1 226 86 344 303 41 75 82 146 91 158
16 21 16 21 14 -7 -1 -16 -6 -38 -12 -49 -6 -11 -34 -94 -62 -185 -67 -216
-117 -316 -201 -401 -47 -48 -78 -70 -114 -82 -64 -22 -76 -21 -76 3 0 23 -25
27 -33 6 -19 -48 97 -47 197 3 82 40 140 103 157 173 9 34 20 53 34 58 37 14
58 47 58 92 0 30 5 47 20 59 18 14 23 36 33 149 9 96 20 153 39 207 15 41 29
72 31 70 2 -2 -1 -32 -7 -67 -24 -149 44 -348 131 -386 29 -13 40 -24 40 -40
0 -50 81 -94 148 -80 25 6 29 4 28 -16 -2 -39 40 -44 115 -14 35 14 80 29 98
32 l33 7 -17 -27 c-16 -24 -16 -28 -1 -51 21 -31 63 -33 100 -4 30 24 33 49 8
72 -14 13 -38 17 -93 17 -186 0 -351 47 -435 123 -39 35 -100 128 -73 111 8
-5 17 -9 21 -9 3 0 10 -4 15 -9 5 -5 2 -6 -5 -1 -11 6 -12 3 -3 -14 13 -24 23
-28 15 -6 -8 21 6 19 30 -4 62 -58 207 -98 306 -86 109 14 236 75 284 138 46
59 58 104 60 217 1 58 7 114 13 125 25 46 93 85 147 85 17 0 16 -3 -11 -20
-27 -16 -33 -26 -33 -53 0 -47 29 -71 73 -63 70 13 102 91 62 152 -20 30 -80
47 -125 34 -74 -20 -150 -114 -150 -185 0 -28 0 -28 -43 18 -23 26 -59 53 -80
62 -68 28 -154 14 -206 -34 -27 -25 -31 -36 -31 -80 0 -42 5 -57 25 -76 41
-42 116 -28 146 26 16 30 -6 78 -40 85 -14 3 -30 7 -36 8 -22 6 57 36 93 36
111 0 186 -148 137 -268 -53 -127 -247 -213 -410 -183 -177 32 -315 173 -315
320 1 46 3 53 12 36 22 -41 51 -64 88 -70 85 -14 156 70 101 119 -22 20 -63
18 -68 -4 -4 -13 -3 -13 6 0 8 11 13 12 22 3 16 -16 2 -33 -27 -33 -36 0 -61
16 -79 50 -17 32 -20 127 -5 150 7 11 10 6 10 -22 0 -66 17 -50 22 21 5 69 35
139 71 169 12 10 13 6 4 -27 -10 -36 -8 -46 21 -102 37 -71 41 -113 13 -129
-27 -14 -29 -13 -33 12 -4 26 -26 35 -34 14 -10 -26 15 -46 58 -46 112 0 145
81 92 227 l-26 72 23 48 c17 33 36 55 64 70 52 29 64 29 32 -1 -53 -49 -43
-126 20 -152 28 -12 38 -12 68 0 45 19 62 54 45 95 -21 51 -90 54 -90 4 0 -18
4 -24 15 -19 8 3 15 1 15 -4 0 -15 -14 -18 -37 -9 -35 13 -30 58 10 97 61 59
204 95 292 74 22 -6 32 -10 22 -11 -10 -1 -34 -10 -55 -20 -80 -41 -110 -105
-72 -154 35 -44 108 -30 98 19 -6 31 -34 40 -57 20 -21 -19 -21 -19 -21 6 0
31 29 58 62 58 14 0 50 -11 80 -25 68 -32 121 -33 142 -3 21 30 20 50 -4 76
-28 30 -20 28 39 -13 66 -44 100 -50 225 -39 202 17 283 5 389 -62 65 -41 71
-53 11 -25 -21 10 -59 21 -83 25 -35 5 -42 4 -38 -8 4 -9 -8 -6 -36 10 -23 13
-55 24 -71 24 -29 0 -29 -1 -10 -16 19 -15 19 -16 -1 -8 -64 23 -128 16 -146
-17 -14 -27 7 -54 31 -39 12 8 13 13 3 29 -10 16 -9 20 3 25 25 9 27 8 85 -35
52 -40 56 -41 114 -35 33 2 71 8 85 11 14 3 3 -5 -25 -19 -27 -13 -79 -49
-114 -80 -73 -63 -110 -75 -164 -52 -39 16 -47 30 -22 40 21 8 19 36 -4 36
-72 0 -36 -132 46 -166 62 -26 128 8 168 85 30 60 70 108 104 125 37 19 81 28
81 17 0 -5 -10 -11 -23 -15 -35 -8 -118 -85 -133 -123 -32 -75 -4 -175 59
-213 61 -38 187 -17 241 39 38 40 46 101 17 130 -26 26 -72 27 -94 3 -19 -21
-23 -62 -6 -62 5 0 7 -5 4 -10 -10 -16 -98 -12 -122 5 -13 9 -28 33 -34 54
-23 78 43 159 153 187 59 16 69 12 44 -15 -24 -27 -17 -70 16 -94 23 -17 31
-19 53 -9 30 14 35 52 6 52 -11 0 -21 -5 -23 -12 -3 -9 -6 -9 -11 -1 -10 16
20 43 48 43 13 0 37 -11 53 -25 34 -28 78 -32 108 -10 31 24 39 17 13 -11 -19
-20 -24 -36 -24 -76 0 -44 4 -53 34 -80 28 -25 39 -29 70 -24 44 7 104 66 99
98 -5 32 -34 46 -54 26 -20 -20 -9 -45 12 -27 8 7 14 7 14 1 0 -18 -29 -34
-49 -27 -24 7 -36 43 -26 75 11 34 44 58 160 114 186 90 278 174 342 311 26
56 28 67 26 184 -2 135 7 174 54 223 35 37 104 62 145 54 l33 -6 -45 45 c-24
25 -53 45 -65 45 -36 0 -99 -44 -131 -92 -36 -53 -47 -107 -39 -181 l6 -52
-23 30 c-66 87 -130 117 -297 141 -116 16 -155 33 -188 84 -25 36 -34 118 -10
88 24 -32 55 -32 87 1 34 33 36 49 15 91 -37 72 -141 66 -181 -11 -23 -46 -18
-99 16 -153 41 -64 101 -91 250 -111 63 -9 118 -19 122 -23 8 -8 -131 -6 -233
2 -128 11 -200 52 -243 138 -32 63 -35 143 -7 204 33 73 142 144 220 144 39 0
90 -36 107 -76 8 -19 19 -32 24 -29 16 10 12 21 -17 56 -60 71 -169 89 -261
43z"/>
<path d="M10585 2361 c-16 -10 -38 -27 -48 -38 -17 -20 -17 -20 6 -16 14 3 38
-4 58 -16 42 -26 71 -26 120 -3 45 20 51 34 11 26 -15 -3 -43 1 -62 9 -28 12
-31 16 -13 16 12 1 33 -3 47 -9 34 -12 33 3 0 29 -33 26 -80 27 -119 2z"/>
<path d="M2307 2257 c3 -14 -4 -38 -16 -58 -26 -42 -26 -71 -3 -120 20 -45 34
-51 26 -11 -3 15 1 43 9 62 12 28 16 31 16 13 1 -12 -3 -33 -9 -47 -12 -34 3
-33 29 0 36 46 23 111 -32 162 l-24 23 4 -24z"/>
<path d="M11008 2273 c7 -3 16 -2 19 1 4 3 -2 6 -13 5 -11 0 -14 -3 -6 -6z"/>
<path d="M2725 2243 c-28 -10 -71 -31 -96 -45 -98 -57 -194 -200 -204 -303
l-5 -50 15 59 c34 133 137 260 252 313 116 53 269 38 377 -36 72 -50 133 -124
150 -182 23 -75 21 -87 -6 -62 -47 42 -104 36 -127 -14 -18 -39 -13 -63 18
-94 50 -49 122 -35 156 31 22 42 19 123 -6 173 -33 64 -119 141 -205 184 -70
34 -85 38 -173 40 -73 3 -108 -1 -146 -14z"/>
<path d="M2955 2090 c-12 -4 -26 -14 -33 -23 -11 -13 -6 -14 35 -11 45 4 46 3
18 -8 -22 -8 -43 -8 -85 0 -31 7 -69 11 -86 11 -21 -1 -16 -4 18 -9 25 -5 59
-15 75 -24 77 -42 71 -41 121 -23 26 10 55 17 65 17 23 0 22 12 -5 37 -46 41
-81 51 -123 33z"/>
<path d="M2630 1963 c-91 -103 -111 -242 -52 -366 32 -70 130 -180 182 -206
17 -9 14 -4 -10 15 -66 53 -121 119 -152 184 -28 56 -32 76 -32 145 -1 93 18
153 70 221 41 54 38 57 -6 7z"/>
<path d="M2411 1813 c-2 -56 20 -136 57 -208 47 -90 163 -207 250 -254 35 -18
61 -35 59 -37 -2 -3 -40 11 -84 29 -194 82 -343 229 -399 394 -29 83 -32 60
-4 -28 26 -86 86 -175 169 -251 133 -122 307 -190 491 -190 98 0 210 17 270
41 36 14 5 13 -70 -4 -36 -8 -98 -14 -139 -15 -277 -1 -536 211 -585 480 -8
44 -14 62 -15 43z"/>
<path d="M3002 1699 c-76 -16 -152 -101 -152 -170 0 -76 40 -133 120 -174 90
-45 164 -41 379 20 68 19 140 37 160 39 20 3 27 3 17 0 -15 -5 -16 -8 -5 -15
12 -7 12 -9 -1 -9 -8 0 -107 -47 -220 -103 -219 -111 -299 -137 -414 -137 -35
0 -82 7 -107 15 -53 19 -100 54 -81 62 20 8 14 33 -8 33 -33 0 -25 -44 13 -76
63 -53 133 -77 228 -78 77 -1 89 2 127 27 33 22 46 25 62 17 33 -18 68 -11
103 20 23 20 45 30 66 30 24 0 46 14 98 61 82 75 137 113 209 146 58 26 88 26
37 -1 -49 -25 -139 -130 -177 -207 -38 -75 -48 -149 -26 -190 8 -14 7 -25 -5
-41 -32 -46 -7 -126 50 -164 23 -15 24 -19 11 -26 -21 -12 -20 -41 2 -60 9 -9
51 -31 93 -51 84 -38 105 -57 64 -57 -17 0 -29 -8 -37 -25 -22 -48 36 -96 97
-81 20 5 25 13 25 37 0 23 -15 46 -68 102 -142 151 -193 245 -200 362 -2 44 0
96 6 115 l10 35 2 -35 2 -35 7 30 c6 24 8 17 14 -38 13 -136 101 -265 225
-330 178 -94 295 -82 414 39 29 30 67 64 84 74 59 37 158 16 193 -40 15 -25
15 -25 -5 -7 -29 24 -70 22 -88 -5 -32 -45 -11 -90 50 -107 85 -23 149 82 93
153 -31 40 -71 56 -138 56 -67 0 -106 -12 -138 -42 l-22 -21 0 71 c0 91 -24
142 -88 183 -84 52 -177 32 -203 -45 -20 -61 23 -120 87 -120 60 0 94 64 56
106 -24 27 -13 29 34 8 99 -44 110 -164 24 -263 -45 -51 -104 -71 -193 -65
-141 9 -267 98 -335 236 -35 71 -38 82 -38 166 0 79 4 99 27 146 15 31 40 68
56 83 l29 28 -5 -54 c-4 -46 -1 -57 23 -85 33 -39 84 -51 119 -28 34 22 42 53
20 77 -18 20 -44 26 -44 9 0 -5 7 -7 15 -4 8 4 15 1 15 -5 0 -7 -7 -14 -17
-18 -23 -9 -53 32 -53 71 0 39 43 107 80 130 33 19 52 21 29 3 -15 -11 -39
-49 -39 -61 0 -3 17 11 38 32 46 46 102 74 162 79 l45 5 -33 -21 c-32 -21 -48
-48 -73 -131 -16 -51 -55 -74 -84 -50 -14 11 -14 14 1 25 18 13 11 35 -11 35
-19 0 -27 -28 -13 -53 29 -55 95 -79 146 -53 39 20 68 57 102 132 22 48 35 64
65 78 39 19 108 17 143 -4 14 -8 12 -9 -10 -10 -44 0 -76 -17 -93 -49 -22 -44
-19 -69 15 -102 24 -25 37 -30 66 -27 71 6 101 98 38 114 -33 9 -52 -9 -33
-32 12 -14 11 -16 -6 -13 -15 3 -20 12 -20 34 0 71 113 68 225 -6 50 -34 120
-105 120 -122 0 -3 -17 4 -37 14 -51 26 -123 25 -157 -2 -49 -39 -23 -126 36
-117 15 2 24 11 26 26 4 28 -16 55 -35 48 -16 -7 -17 6 -1 22 16 16 49 15 74
-3 12 -7 31 -42 44 -76 25 -71 58 -109 93 -109 30 0 57 29 58 61 0 13 7 -3 15
-36 21 -87 54 -134 137 -198 128 -98 189 -178 221 -286 20 -69 20 -112 0 -57
-17 47 -62 108 -74 101 -5 -3 -16 17 -25 44 -9 27 -24 56 -34 65 -17 16 -18
15 -14 -11 3 -23 0 -20 -16 14 -23 49 -59 76 -98 71 -20 -2 -28 -9 -28 -23 0
-11 8 -21 18 -23 12 -2 17 3 17 17 0 55 48 0 56 -65 10 -71 28 -101 89 -140
64 -40 72 -53 17 -25 -25 13 -75 23 -142 29 -102 9 -105 10 -137 46 -38 42
-46 92 -13 81 11 -3 24 -4 29 0 17 10 0 35 -24 35 -43 0 -75 -50 -75 -118 0
-93 96 -137 210 -95 81 29 171 15 209 -31 12 -14 9 -14 -25 1 -22 9 -68 16
-105 17 -56 1 -71 -3 -108 -27 -69 -46 -100 -141 -67 -205 32 -61 119 -112
191 -112 38 0 52 5 76 29 34 35 36 59 8 95 -34 44 -111 28 -92 -20 13 -35 -60
18 -80 58 -16 33 -16 40 -4 70 22 51 51 71 110 76 57 4 140 -23 171 -56 13
-15 12 -17 -10 -18 -65 -4 -84 -78 -31 -118 25 -18 29 -19 43 -4 19 19 11 38
-17 38 -11 0 -17 5 -14 10 11 18 53 11 69 -12 9 -12 16 -37 16 -55 0 -38 27
-68 73 -78 l32 -8 -38 -7 c-49 -9 -96 -55 -103 -102 -5 -29 -1 -41 22 -67 36
-41 100 -53 139 -27 34 22 31 61 -4 61 -29 0 -40 -21 -14 -28 15 -4 15 -5 -2
-6 -48 -3 -59 46 -19 78 38 30 72 26 205 -19 154 -53 253 -68 356 -52 114 18
172 51 267 150 45 46 95 91 113 98 68 29 167 5 211 -51 l22 -28 0 66 c0 61 -2
68 -26 84 -16 10 -53 19 -90 21 -80 5 -136 -20 -196 -87 l-43 -48 0 81 c0 94
-14 128 -101 242 -29 38 -60 83 -69 100 -21 42 -19 122 5 162 20 32 44 45 34
17 -4 -8 1 -26 10 -40 19 -29 69 -34 103 -10 47 33 36 122 -18 150 -109 57
-219 -57 -188 -195 11 -49 32 -85 114 -191 56 -73 78 -119 27 -58 -16 19 -60
66 -98 104 -86 87 -124 159 -124 235 0 60 26 129 63 168 90 97 285 86 355 -19
24 -34 25 -70 7 -126 -11 -34 13 -29 26 5 28 70 -36 188 -124 231 -54 26 -157
28 -213 5 -96 -40 -162 -130 -171 -232 -10 -114 34 -193 152 -275 90 -62 115
-86 58 -58 -55 28 -147 37 -211 22 -137 -33 -229 -218 -159 -322 31 -47 105
-82 176 -83 93 -1 151 49 151 131 0 45 -20 77 -60 98 -39 20 -73 19 -93 -3
-21 -23 -22 -65 -3 -82 23 -18 61 -8 64 18 2 12 7 22 11 22 17 0 44 -42 44
-68 0 -103 -150 -137 -234 -53 -45 45 -57 95 -40 160 27 100 113 161 227 161
156 0 254 -90 254 -235 0 -153 -126 -249 -325 -249 -91 0 -163 26 -228 84 -54
47 -68 81 -77 182 -5 65 -12 94 -26 109 -28 32 -76 49 -110 40 -27 -7 -28 -8
-7 -15 22 -7 37 -32 27 -47 -10 -17 -51 -9 -78 16 -50 47 -58 103 -25 173 47
97 172 119 259 46 39 -33 42 -89 7 -122 -26 -24 -66 -29 -85 -10 -17 17 -15
65 4 72 21 8 26 8 20 -3 -8 -12 21 -34 34 -26 17 10 12 33 -10 45 -32 17 -74
-8 -78 -46 -7 -71 111 -103 168 -46 86 87 39 230 -86 261 -68 17 -119 6 -167
-38 -22 -20 -38 -29 -34 -21 34 86 33 131 -4 151 -33 17 -69 3 -69 -26 0 -16
6 -25 16 -25 11 0 13 6 9 19 -7 24 11 37 30 21 23 -19 18 -34 -25 -78 -22 -22
-40 -49 -40 -61 0 -20 20 -46 41 -53 8 -3 7 -12 -3 -33 -8 -17 -19 -43 -23
-60 -6 -26 -10 -17 -27 65 -11 52 -33 124 -49 159 -33 72 -36 97 -13 129 20
29 32 28 27 -2 -4 -18 0 -26 15 -30 31 -10 52 3 52 34 0 31 -13 45 -52 55 -21
5 -33 1 -54 -20 l-27 -27 6 41 c6 51 30 89 62 101 35 13 57 3 43 -20 -17 -27
-3 -52 29 -48 20 2 30 11 37 30 21 59 -73 104 -132 62 -28 -19 -52 -65 -53
-101 l-1 -28 -10 28 c-22 61 17 168 68 187 14 6 43 10 66 10 32 0 47 -7 75
-35 28 -28 34 -40 29 -60 -8 -30 9 -33 24 -4 9 15 8 24 -1 35 -8 10 -8 14 0
14 22 0 23 -47 2 -88 -12 -23 -21 -49 -20 -59 0 -11 3 -13 6 -5 2 6 15 12 28
12 13 0 30 7 38 15 19 18 27 9 27 -27 0 -31 -16 -68 -34 -80 -21 -14 -48 -8
-53 12 -6 22 -33 28 -33 7 0 -22 22 -37 55 -37 44 0 76 37 82 94 5 44 6 45 28
30 35 -23 94 -14 117 16 22 30 15 60 -13 60 -10 0 -19 -4 -19 -10 0 -5 7 -7
15 -4 9 4 15 0 15 -10 0 -32 -30 -14 -79 48 -57 71 -104 99 -191 116 -70 13
-131 4 -175 -26 l-35 -23 0 25 c0 41 -18 64 -50 64 -29 0 -49 -28 -35 -50 10
-16 38 -12 31 5 -6 17 19 21 29 4 4 -6 4 -30 0 -55 l-6 -44 -26 20 c-14 11
-32 20 -39 20 -22 0 -54 -38 -54 -65 0 -14 8 -29 20 -35 12 -6 20 -7 20 -1 0
5 -5 11 -12 13 -12 4 -3 28 12 28 21 0 38 -33 44 -85 4 -32 20 -84 40 -123 28
-56 66 -175 66 -207 0 -4 -9 0 -21 11 -31 28 -64 99 -84 182 -17 73 -50 117
-79 106 -8 -3 -11 5 -8 28 5 42 -25 82 -72 98 -22 7 -38 21 -46 39 -6 15 -26
35 -43 45 -25 13 -27 15 -7 10 14 -4 42 -22 63 -40 39 -36 56 -40 88 -24 13 7
19 21 19 44 0 37 -19 60 -46 54 -22 -4 -31 -28 -10 -28 9 0 16 -8 16 -20 0
-13 -7 -20 -20 -20 -15 0 -27 15 -44 55 -25 55 -55 75 -91 61 -11 -4 -15 2
-15 20 0 39 -40 70 -106 84 -86 17 -94 20 -94 37 0 11 6 14 21 10 13 -3 19 -1
16 6 -2 7 -18 12 -34 12 -17 0 -40 8 -50 18 -11 9 -23 17 -27 17 -3 0 -23 7
-44 15 -27 12 -33 18 -23 24 7 5 10 14 6 20 -5 9 -10 9 -21 0 -18 -15 -18 -28
3 -51 15 -17 10 -16 -52 6 -76 27 -140 82 -129 111 3 8 11 15 16 15 6 0 8 -7
4 -15 -3 -9 0 -15 10 -15 25 0 12 35 -14 38 -29 4 -52 -14 -52 -42 -1 -19 -3
-18 -28 11 -36 42 -82 63 -134 63 -53 -1 -77 -14 -123 -68 -39 -45 -68 -53
-85 -23 -13 26 -3 56 15 41 9 -7 16 -6 25 5 10 12 9 16 -5 21 -50 20 -71 -63
-25 -98 44 -33 90 -33 159 -2 73 32 134 35 179 9 40 -24 41 -33 3 -27 -59 8
-196 -19 -422 -83 -422 -121 -519 -136 -615 -91 -88 41 -128 118 -103 197 17
52 51 79 110 86 l44 6 -21 -24 c-29 -34 -36 -57 -22 -82 17 -34 39 -46 80 -47
28 0 42 7 62 31 33 39 33 60 0 98 -43 51 -101 73 -162 60z"/>
<path d="M5692 1373 c10 -11 17 -42 20 -85 2 -44 10 -73 21 -85 16 -18 15 -19
-17 -15 -61 7 -104 -28 -136 -113 -9 -23 -8 -25 10 -15 11 6 49 10 85 8 l65
-2 45 47 c40 41 48 45 70 37 37 -14 76 5 119 55 23 28 45 45 59 45 43 1 -46
39 -91 40 -37 0 -50 -6 -78 -34 l-34 -34 0 38 c0 59 -46 105 -125 124 -28 7
-29 7 -13 -11z m109 -139 c8 -32 14 -41 20 -32 6 9 9 10 9 1 0 -8 14 -3 36 12
56 38 73 30 23 -10 -71 -57 -99 -46 -113 43 -9 57 10 46 25 -14z m-1 -74 c0
-15 -31 -27 -83 -33 -60 -6 -49 9 19 28 62 17 64 17 64 5z"/>
<path d="M7055 1090 c-191 -41 -326 -179 -357 -363 -37 -222 112 -445 337
-508 78 -22 255 -17 338 8 37 12 67 19 67 16 0 -8 -112 -53 -183 -73 -159 -44
-329 -36 -449 23 -75 37 -81 31 -11 -10 110 -64 303 -83 457 -43 199 51 359
175 476 372 55 92 50 96 -10 7 -28 -41 -70 -92 -93 -113 -23 -22 -35 -36 -27
-32 53 26 -59 -52 -121 -84 -103 -53 -175 -71 -289 -71 -195 0 -334 67 -414
199 -55 93 -69 149 -64 265 3 87 8 111 33 162 57 119 165 194 310 217 57 9 90
9 130 1 75 -16 182 -89 110 -76 -18 4 -33 -3 -55 -25 -38 -38 -38 -66 -1 -103
37 -37 79 -38 120 -3 25 21 31 33 31 65 0 66 -50 134 -114 159 -40 15 -172 21
-221 10z"/>
<path d="M6363 960 c-12 -10 -43 -21 -69 -25 -51 -7 -104 -49 -104 -81 0 -25
-30 -43 -71 -44 -44 0 -61 -12 -102 -75 -19 -30 -42 -52 -57 -55 -23 -6 -22
-8 15 -18 85 -25 158 -3 184 55 l13 28 13 -40 c21 -61 65 -85 152 -85 l35 0
-26 30 c-14 17 -28 46 -32 65 -3 19 -16 46 -29 59 l-23 25 34 11 c46 15 81 61
90 116 3 24 5 47 3 49 -2 2 -14 -5 -26 -15z m-76 -105 c-15 -14 -37 -25 -47
-25 -10 0 -22 -4 -25 -10 -9 -14 -27 -12 -23 2 3 7 29 22 59 34 69 28 69 28
36 -1z m-55 -113 c25 -46 26 -51 8 -40 -11 7 -27 28 -36 47 -12 25 -18 30 -25
20 -7 -12 -9 -11 -9 1 -1 10 -8 7 -23 -11 -20 -24 -57 -49 -71 -49 -3 0 15 21
39 46 58 60 80 57 117 -14z"/>
<path d="M7060 967 c-28 -14 -65 -81 -54 -98 4 -8 12 -3 21 14 7 15 22 31 33
37 16 9 15 4 -7 -30 -15 -22 -35 -40 -45 -40 -10 0 -18 -4 -18 -8 0 -5 -12
-15 -26 -22 -14 -8 -35 -28 -47 -45 l-20 -30 34 31 c33 31 74 52 134 70 21 6
36 21 50 51 11 22 29 50 39 62 l19 21 -44 0 c-24 0 -55 -6 -69 -13z"/>
<path d="M3547 840 c10 -19 48 -65 84 -102 78 -79 192 -139 299 -159 99 -18
120 -28 120 -56 0 -40 26 -89 61 -116 19 -14 73 -37 121 -51 69 -21 93 -34
117 -62 l31 -35 0 57 c0 76 -16 126 -57 173 -47 55 -105 81 -183 81 -67 0 -70
-9 -10 -29 40 -13 105 -62 121 -93 11 -21 11 -21 -19 1 -17 12 -55 32 -84 45
-54 24 -97 61 -85 73 17 17 -19 33 -74 33 -150 0 -339 107 -442 250 -17 24
-17 24 0 -10z"/>
<path d="M9049 751 c-48 -10 -122 -54 -143 -85 -23 -36 -21 -37 27 -16 57 24
117 33 147 21 24 -9 24 -10 3 -10 -13 -1 -52 -12 -89 -26 -76 -29 -106 -31
-124 -10 -7 8 -15 15 -19 15 -4 0 -30 -22 -58 -49 -91 -87 -234 -139 -388
-142 l-70 -1 55 -9 c128 -19 287 26 401 114 49 37 86 51 95 35 11 -17 87 -48
120 -48 19 0 74 22 134 52 96 49 104 51 142 41 l40 -11 -43 44 c-69 70 -151
100 -230 85z"/>
<path d="M6875 575 c7 -68 57 -167 107 -209 73 -63 175 -97 281 -95 46 1 41 3
-40 15 -192 28 -295 114 -338 282 l-15 57 5 -50z"/>
<path d="M6442 574 c9 -11 21 -38 27 -61 12 -46 42 -73 78 -73 13 0 23 -5 23
-11 0 -6 5 -9 11 -7 14 5 12 23 -3 23 -7 0 -24 20 -37 45 -23 43 -23 44 -3 26
12 -10 24 -27 28 -38 10 -31 27 -5 19 30 -10 47 -47 74 -107 80 -51 5 -52 4
-36 -14z"/>
<path d="M8308 453 c7 -3 16 -2 19 1 4 3 -2 6 -13 5 -11 0 -14 -3 -6 -6z"/>
<path d="M7328 283 c6 -2 18 -2 25 0 6 3 1 5 -13 5 -14 0 -19 -2 -12 -5z"/>
</g>
</svg>
