<?xml version="1.0" encoding="UTF-8" standalone="no"?>
<svg
   version="1.0"
   width="1280pt"
   height="245pt"
   viewBox="0 0 1280 245"
   preserveAspectRatio="xMidYMid meet"
   id="svg8"
   sodipodi:docname="bow.svg"
   inkscape:version="1.1.1 (3bf5ae0d25, 2021-09-20)"
   xmlns:inkscape="http://www.inkscape.org/namespaces/inkscape"
   xmlns:sodipodi="http://sodipodi.sourceforge.net/DTD/sodipodi-0.dtd"
   xmlns="http://www.w3.org/2000/svg"
   xmlns:svg="http://www.w3.org/2000/svg">
  <defs
     id="defs12" />
  <sodipodi:namedview
     id="namedview10"
     pagecolor="#ffffff"
     bordercolor="#999999"
     borderopacity="1"
     inkscape:pageshadow="0"
     inkscape:pageopacity="0"
     inkscape:pagecheckerboard="0"
     inkscape:document-units="pt"
     showgrid="false"
     inkscape:zoom="0.45254834"
     inkscape:cx="968.95726"
     inkscape:cy="224.28543"
     inkscape:window-width="1920"
     inkscape:window-height="1001"
     inkscape:window-x="-9"
     inkscape:window-y="-9"
     inkscape:window-maximized="1"
     inkscape:current-layer="svg8"
     showguides="true"
     inkscape:guide-bbox="true">
    <sodipodi:guide
       position="-12150,26795.001"
       orientation="0,-1"
       id="guide3577" />
  </sodipodi:namedview>
  <metadata
     id="metadata2">
Created by potrace 1.15, written by Peter Selinger 2001-2017
</metadata>
  <g
     transform="matrix(0,0.1,0.1,0,-0.99803776,-197.7157)"
     fill="#8a460f"
     stroke="none"
     id="g6">
    <path
       id="path4"
       style="stroke-width:0.999997"
       d="m 2002.5837,6421.3515 c 0,-45.9999 7.0107,-67.995 46.0107,-139.995 26,-47.0001 69.9941,-120.001 98.9941,-161.001 75,-108 103.9941,-170.002 113.9942,-247.002 4.9999,-37 11.0078,-202.998 13.0078,-367.998 3,-340 6.0048,-324.9971 -79.9951,-416.9971 l -46.0108,-50.0098 15,-57.9931 15,-58.0078 -31.9921,-15.9962 -33.003,-15 15.9961,-52.998 c 21,-71 70.001,-168.0029 86.001,-168.0029 6,0 19.001,4.0088 26.0009,9.0088 24,15 47.001,-4.0108 71.001,-61.0108 12,-28.9999 51.001,-118.999 86.001,-198.999 35,-80 63.999,-152.9932 63.999,-162.9931 0,-9 6.9961,-15.9963 15.9961,-15.9961 11,0 14.0049,-5.0108 10.0049,-16.0108 -4,-9 0,-24.0029 7.002,-33.0029 8,-9 72.0019,-118.9913 142.0019,-245.9912 233,-419.0001 413.9902,-730.9951 879.9903,-1519.9951 305.9998,-517.0001 392.998,-672.0059 487.998,-861.0059 136,-272 207.0117,-468.003 252.0117,-693.00296 36,-186.99998 45,-293.99318 45,-567.99314 V 55.360352 l 19.9951,30 c 11.0001,16.999998 27.0059,59.995118 36.0059,94.995118 27,108 3.9912,526.99124 -39.0088,710.99122 -1.7044,6.9726 -2.1939,24.46537 -2.9004,40.09275 -1.5005,3.70597 -3.0209,7.40077 -4.4531,11.13285 -5.5697,14.67367 -10.718,29.50432 -15.791,44.35545 -7.7409,22.17236 -14.3309,44.70486 -20.9766,67.22166 -4.3313,14.7735 -8.4895,29.5993 -12.6855,44.414 -6.2652,13.4873 -16.0214,41.9908 -34.1895,97.7931 -101,306 -228.0019,553.9902 -697.002,1359.9902 -246.9999,425 -411.0039,716.0088 -554.0038,984.0088 -107,200 -334.9952,660.9921 -334.9952,676.9922 0,6 62.995,71.0126 139.9952,143.0127 136.9995,129 179.9998,180.9883 180,212.9882 0,9 -26.9893,71.999 -58.9893,138.9991 -114,238 -171.002,474.0039 -187.0019,779.0038 l -7.002,126.0059 56.997,26.001 c 48,22 56.003,28.9893 48.003,43.9893 -5,10 -77.0049,146.0029 -160.0049,303.0029 -83,157 -162.997,311.0078 -176.9971,343.0078 l -25.0048,57.9931 77.0068,34.9952 c 107,47 104.9961,45.0097 135.9961,95.0098 51,82.9999 58.0058,149.0034 51.0059,494.0039 -10.0001,490.9996 23.0028,679.9974 183.0029,1046.9971 36,84 66.9902,170.0025 69.9902,198.003 8,67.9995 -20.998,122.9948 -142.9981,274.995 -52.9999,66 -107.9961,133.992 -120.996,151.992 l -25.0049,32.007 141.0059,282.993 c 225.9999,456.9998 389.0009,753.0083 806.0009,1468.0085 440,755 587.9922,1052.994 676.9922,1354.995 l 22.9981,80.01 0.8349,-10.093 c 13.3894,56.081 30.2841,107.576 49.3799,155.771 0.4943,19.144 -0.01,45.408 1.7871,54.317 24,120 43.0078,355.005 43.0078,535.005 0,91.999 -4.0097,123.997 -20.0097,157.998 -22.0002,48 -27.9991,50.994 -33.9991,19.995 -3,-13 -8.0011,-102.003 -11.0009,-198.003 -18,-531 -82.9952,-797.991 -304.9952,-1239.99 -101,-202.001 -176.998,-336.012 -547.998,-961.011 -296,-500.0007 -596.0019,-1019.9997 -772.002,-1338.9995 -62,-113.0002 -127.9971,-225.993 -146.997,-252.993 -18,-26.0002 -33.003,-49.002 -33.003,-52.002 0,-9 -91.9971,-208.995 -146.997,-319.995 -30,-60 -64,-132.0052 -75,-160.005 -10,-27 -26.003,-60.0007 -33.003,-71.001 -12.9999,-20.0002 -17.0019,-20.994 -52.0019,-8.994 -48,16.9995 -51.9981,13.9913 -97.9981,-99.009 l -37.0019,-89.004 39.0088,-32.988 c 21,-18 40.9999,-32.9992 45,-33.999 4,0 5.9912,-26.0122 5.9912,-57.012 -1,-48.9997 6,-75.9885 45,-167.988 l 48.0029,-110.01 -3.999,-169.995 c -2,-93.9997 -11.9981,-226.005 -22.998,-295.005 -10.0001,-68.9994 -17.0108,-156.996 -16.0108,-195.996 2,-54 -0.9932,-73.9944 -12.9932,-83.9941 -8,-7.0002 -15,-19.0118 -15,-27.0118 0,-24 -40.0059,-94.9892 -111.0058,-193.9892 -86,-121.0001 -108.9992,-169.0079 -108.999,-238.0079 z" />
  </g>
</svg>
