<?xml version="1.0" encoding="UTF-8" standalone="no"?>
<svg
   version="1.0"
   width="436mm"
   height="110mm"
   viewBox="0 0 1235.9065 311.81125"
   preserveAspectRatio="xMidYMid meet"
   id="svg70"
   sodipodi:docname="design2.svg"
   inkscape:version="1.1.1 (3bf5ae0d25, 2021-09-20)"
   xmlns:inkscape="http://www.inkscape.org/namespaces/inkscape"
   xmlns:sodipodi="http://sodipodi.sourceforge.net/DTD/sodipodi-0.dtd"
   xmlns="http://www.w3.org/2000/svg"
   xmlns:svg="http://www.w3.org/2000/svg">
  <defs
     id="defs74" />
  <sodipodi:namedview
     id="namedview72"
     pagecolor="#ffffff"
     bordercolor="#999999"
     borderopacity="1"
     inkscape:pageshadow="0"
     inkscape:pageopacity="0"
     inkscape:pagecheckerboard="0"
     inkscape:document-units="pt"
     showgrid="false"
     height="1279pt"
     units="mm"
     width="453mm"
     inkscape:zoom="0.29789635"
     inkscape:cx="736.83346"
     inkscape:cy="310.51068"
     inkscape:window-width="1920"
     inkscape:window-height="1001"
     inkscape:window-x="-9"
     inkscape:window-y="-9"
     inkscape:window-maximized="1"
     inkscape:current-layer="g68" />
  <metadata
     id="metadata2">
Created by potrace 1.15, written by Peter Selinger 2001-2017
</metadata>
  <g
     transform="matrix(0.1,0,0,-0.1,0,1280)"
     fill="#8a460f"
     stroke="none"
     id="g68">
    <path
       d="m 12346.002,10856.83 c -18,50 -55,97 -123,154 -109,92 -124,116 -137,212 -12,90 -52,152 -113,172 -77,25 -185,-64 -351,-291 -47,-63 -99,-130 -116,-148 -67,-73 -179,-147 -290,-193 -29,-11 -46,-23 -40,-29 16,-15 131,-40 212,-46 92,-7 181,7 242,40 25,13 78,41 119,62 l 75,39 h 125 c 111,0 136,-4 214,-29 49,-16 105,-40 125,-53 l 36,-25 18,22 c 21,26 22,61 4,113 z"
       id="path6" />
    <path
       id="path8"
       d="m 21876.363,10863.047 c -168,-23 -396,-102 -552,-191 -143,-82 -243,-159 -412,-320 -86,-81 -235,-223 -331,-314 -247,-233.9997 -429,-367.9997 -615,-454.9997 -158,-72 -349,-119 -492,-119 h -73 l 29,48 c 44,72 63,138 69,235 14,252.9997 -115,462.9997 -357,581.9997 -127,63 -211,78 -386,72 -212,-7 -342,-47 -501,-153 -165,-109 -305,-290.9997 -370,-480.9997 -69,-201 -69,-392 0,-597 19,-55 33,-103 31,-104 -2,-2 -36,19 -77,46 -177,119 -445,281 -583,353 -333,173 -580,238 -855,226 -322,-14 -595,-178 -670,-402 -18,-54 -21,-83 -18,-163 4,-123 33,-189 122,-277 211,-209 508,-186 665,52 37,56 40,77 8,70 -121,-28 -135,-29 -192,-17 -148,31 -230,223 -156,368 27,54 101,116 170,144 51,21 71,23 241,23 161,-1 197,-4 275,-24 255,-67 463,-175 865,-451 264,-181 358,-239 558,-345 186,-97 320,-150 462,-181 69,-15 129,-19 310,-19 258,0 362,16 570,87 293,100 502,232 987,620 98,79 191,152 206,163 l 29,21 -39,62 c -21,34 -44,62 -51,62 -7,0 -125,-84 -263,-186 -533,-395 -787,-533 -1116,-606 -133,-29 -425,-32 -551,-4 -440,95 -702,368 -704,736 -1,118 21,213 71,314 108,213 285,335.9997 486,335.9997 106,0 171,-20 227,-70 76,-66.9997 114,-191.9997 87,-286.9997 -18,-68 -81,-127 -155,-149 -75,-21 -191,-15 -256,14 -30,13 -50,17 -54,11 -11,-19 59,-144 110,-195 117,-116 282,-164 571,-164 323,-1 557,54 845,201 291,147 558,355 978,760.9997 185,179 288,256 447,333 228,111 516,164 740,136 301,-37 516,-159 660,-377 174,-261 200,-693.9997 61,-1006.9997 -81,-185 -265,-349 -450,-402 -81,-24 -239,-17 -318,14 -128,50 -193,134 -192,246 0,41 7,73 21,100 28,54 110,129 157,145 50,16 151,9 200,-15 83,-40 145,-131 146,-213 0,-58 21,-65 67,-21 130,124 106,361 -54,524 -98,99 -235,181 -374,223 -222,68 -535,51 -780,-41 -108,-41 -408,-201 -424,-226 -4,-8 71,-131 81,-131 3,0 32,15 63,34 199,120 414,192 605,203 l 101,6 -47,-38 c -88,-70 -163,-186 -193,-300 -23,-89 -20,-247 6,-331 12,-38 30,-86 40,-106 11,-21 19,-40 19,-43 0,-9 -102,45 -190,103 -260,168 -403,338 -594,702 -33,63 -64,118 -70,122 -5,3 -29,-10 -52,-30 l -43,-37 66,-124 c 222,-424 566,-768 975,-977 334,-170 654,-214 957,-133 103,28 259,104 356,173 184,132 308,282 600,721 290,438 348,507 491,577.9997 142,71 334,44 405,-56.9997 51,-73 50,-72 76,-40 86,106.9997 55,285.9997 -70,399.9997 -65,60 -126,90 -216,110 -84,17 -126,17 -226,0 -169,-30 -314,-105 -435,-225 -94,-93 -146,-169 -218,-318.9997 l -55,-115 -18,86 c -103,508.9997 -486,893.9997 -996,1001.9997 -93,20 -365,28 -468,14 z m -2769,836 c -142,-36 -270,-135 -329,-254 -30,-62 -32,-71 -32,-182 v -116 l 42,-85 c 33,-65 58,-100 107,-146 66,-62 203,-139 218,-124 5,5 0,28 -11,53 -27,58 -28,159 -2,215 63,139 274,219 446,169 178,-51 379,-206 538,-413 92,-118 195,-292 307,-513 61,-121 118,-223 127,-226 9,-4 30,9 54,33 l 39,40 -70,159 c -118,268 -305,633 -388,760 -214,327 -441,526 -697,610 -101,34 -259,43 -349,20 z" />
    <path
       d="m 11707.002,11617.83 c -53,100 -81,116 -207,124 -86,5 -91,4 -126,-23 -92,-70 -253,-281 -315,-410 -58,-124 -79,-202 -86,-326 -4,-77 -2,-103 10,-129 16,-31 16,-32 -15,-58 -17,-15 -60,-44 -97,-65 -262,-148 -616.001,-101 -886.0012,119 -57,47 -57,47 -34,59 89.0002,46 325.0002,59 464.0002,26 140,-34 288.001,-116 348.001,-192 19,-24 29,-30 46,-24 32,10 26,31 -26,86 -68,72 -166,134 -274.001,170 -82,29 -110,33 -226,37 -140,5 -230,-9 -341.0002,-50 l -54,-20 -25,23 c -36.0004,33 -104.0009,142 -135.0009,214 -48,114 -79,241 -143,590 -21,114 -57,234 -96,322 -74,165 -217,329 -372,428 -42,27 -74,52 -70,56 18,17 140,40 240,45 119,7 218,-9 295,-45 24,-12 32,-18 18,-15 -131,32 -160,35 -236,30 -83,-6 -144,-21 -156,-40 -9,-14 125,-145 186,-181 38,-22 61,-28 110,-29 l 61,-1 v 50 50 l 95,-2 c 72,-1 114,-7 170.0005,-26 93.0004,-31 104.0004,-21 48.0004,45 -72.0009,86 -194.0009,177 -238.0009,178 -15,1 8,23 62,61 l 22,16 -33,17 c -60,31 -125,46 -206,46 -100,0 -134,-9 -265,-70 -114,-53 -202,-80 -263,-80 -22,0 -85,7 -141,16 -132,21 -311,14 -416,-16 -182,-52 -351,-176 -447,-327 -63,-99 -86,-154 -117,-283 -51,-204 -122,-336 -251,-465 -141,-142 -267,-197 -433,-189 -185,8 -335,110 -372,253 -22,84 14,175 87,222 68,42 112,39 138,-12 8,-15 15,-44 15,-63 0,-59 45,-86 74,-45 13,20 13,27 -4,72 -33,87 -101,137 -186,137 -97,0 -181,-67 -211,-170 -20,-70 -6,-158 40,-245 74,-140 200,-219 372,-234 l 80,-7 -85,-29 c -79,-27 -96,-29 -235,-29 -137,0 -157,2 -231,27 -263,88 -423,321 -400,584 6,75 41,239 56,263 7,11 14,11 39,0 45,-18 108,-7 140,24 79,80 -32,276 -156,276 -119,0 -164,-95 -97,-201 l 23,-38 -24,-70 c -43,-126 -58,-224 -52,-340 3,-58 9,-119 13,-135 l 7,-30 -34,23 c -65,43 -214,109 -286,126 -96,23 -235,17 -315,-14 -108,-42 -233,-161 -293,-280 -17,-33 -17,-34 10,-60 30,-30 26,-33 85,70 46,81 109,142 186,180 58,29 69,31 152,28 71,-3 94,-8 111,-23 27,-25 27,-57 -1,-84 -27,-24 -125,-72 -150,-72 -27,0 -58,-48 -58,-92 0,-51 33,-114 70,-133 67,-35 147,-7 229,80 81,85 108,168 81,241 -6,15 -8,29 -6,32 7,7 114,-55 166,-96 25,-20 92,-79 150,-132 163,-148 238,-197 365,-236 89,-28 332,-26 430,3 208,62 362,152 518,302 95,91 158,178 209,287 l 32,68 12,-52 c 33,-148 161,-315 291,-381 159,-80 338,-82 469,-5 56,33 126,110 160,175 24,46 28,66 28,134 0,85 -10,115 -60,174 -55,65 -167,93 -249,61 -124,-48 -184,-204 -125,-324 41,-81 137,-134 222,-123 88,12 -37,-56 -134,-73 -123,-22 -267,25 -371,120 -72,66 -105,115 -139,213 -124,349 76,715 457,836 150,48 281,49 465,5 192,-47 430,-235 516,-409 63,-128 59,-283 -12,-424 -39,-79 -117,-157 -195,-197 -66,-33 -70,-30 -17,11 45,35 93,95 135,167 25,43 59,145 52,153 -6,6 -156,-30 -195,-47 -82,-35 -164,-118 -151,-152 3,-8 22,-19 42,-26 30,-10 35,-15 29,-33 -14,-45 -79,-130 -140,-184 -35,-31 -64,-60 -64,-64 0,-10 59,-1 148,22 82,22 126,41 159,71 29,27 43,15 43,-38 0,-24 3,-44 6,-44 13,0 71,46 107,84 73,79 119,200 142,381 l 12,90 13,-40 c 22,-67 25,-328 5,-426 -65,-317 -284,-603 -576,-750 -75,-37 -78,-38 -108,-23 -17,9 -44,14 -60,12 -22,-2 -35,5 -57,31 -36,43 -110,91 -140,91 -40,0 -54,-35 -54,-131 0,-96 27,-195 76,-284 31,-55 113,-145 133,-145 20,0 57,47 69,88 7,22 12,65 12,95 0,47 4,58 21,68 11,6 30,30 40,54 15,34 27,46 55,55 114,38 377,258 468,393 22,31 41,56 42,54 2,-1 -6,-36 -17,-77 -11,-41 -29,-108 -39,-149 -24,-89 -26,-222 -5,-301 26,-97 102,-229 124,-216 5,4 17,29 26,56 9,27 20,52 25,55 4,3 19,-14 33,-38 30,-51 90,-108 172,-164 56,-38 138.0009,-83 150.0009,-83 12,0 2,29 -36,102 -51.0009,99 -76.0009,172 -85.0009,248 l -7,60 h 36 c 20,0 48.0009,5 63.0009,10 24,10 26,14 20,51 -10,60 -48.0004,128 -103.0009,180 -66,64 -215,161 -227,149 -5,-5 -10,-58 -9,-117 0,-129 16,-192 79,-313 l 44,-85 -40,45 c -46,52 -99,158 -126,250 -16,53 -19,96 -18,240 0,161 2,182 27,260 15,47 35,115 44,152 18,68 33,88 33,45 0,-40 40,-179 74,-258 86,-199 268.0009,-399 457.0011,-503 117,-64 239,-98 370,-104 138.001,-6 235.001,12 347.001,64 75,34 182,105 216,143 14,15 31,21 61,21 100,0 316,147 422,287 65,87 172,274 203,357 29,76 25,110 -23,200 z"
       id="path10" />
    <path
       d="m 11209.002,11897.83 c -42,53 -115,68 -203,41 -85,-26 -121,-20 -233,36 -85,43 -113,52 -171,57 -50.001,3 -76.001,0 -98.001,-11 -64,-33 -63,-37 39,-138 167.001,-168 220.001,-315 185.001,-517 -19,-111 18,-234 112,-372 21,-30 47,-64 59,-74 l 21,-19 v 75 c 0,164 43,300 149,477 151,251 191,380 140,445 z"
       id="path12" />
    <path
       d="m 10943.002,10453.83 c -7,54 -43,170 -53,170 -5,0 -15,-7 -24,-15 -13,-14 -13,-20 2,-58 12,-32 16,-76 16,-182 0,-123 -2,-147 -23,-198 -34,-87 -78,-137 -151,-174.9995 -62,-33 -69,-34 -155.001,-30 -69,3 -100,10 -135,27 -61,31.9995 -97,59.9995 -126,97.9995 l -24,32 53,-6 c 65,-7 112,13 157,63 44,50 56,107 36,170 -18,57 -44,86 -98,109 -78,32 -164,5 -214,-67 -26,-37 -29,-50 -29,-117 0,-163 107,-299.9995 273,-350.9995 82,-26 143,-25 228.001,1 57,18 77,30 129,81.9995 62,64 103,135 123,217 13,55 21,182 15,230 z"
       id="path14" />
    <path
       d="m 8739.9999,10039.83 c -15,71 -55,176 -65,172 -5,-1 -9,-5 -9,-8 1,-3 4,-19 7,-35 6,-28 6,-28 -5,-7 l -12,23 -12,-28 c -12,-26 -12,-25 -14,32 -1,59 -2,59 -15,30 -7,-17 -27,-73 -43,-125 -17,-52 -42,-126.9995 -57,-164.9995 -55,-145 -50,-212 19,-240 76,-32 141,-5 186,75 20,38 25,60 27,140 1,52 -2,112.9995 -7,135.9995 z"
       id="path18" />
    <path
       d="m 8578.9999,10298.83 c -22,-39 -62,-95 -66,-91 -2,2 5,19 16,37 33,54 25,67 -15,28 l -37,-34 42,62 c 22,34 41,65 41,68 0,3 -28,-14 -62,-38 -35,-25 -115,-75 -178,-112 -139,-80 -176,-108 -201,-149 -37,-61 -13,-132.9995 61,-183.9995 116,-79 301,86 391,344.9995 21,63 26,102 8,68 z"
       id="path20" />
    <path
       d="m 8505.9999,10443.83 c -2,0 -19,-6 -37,-14 -72,-29 -87,-30 -46,-2 20,15 37,29 37,32 0,4 -18,4 -39,2 -53,-5 -43,7 19,22 100,24 44,46 -94,37 -271,-19 -417,-88 -433,-205 -15,-113 101,-167 249,-114 105,37 325,184 342,227 3,8 4,15 2,15 z"
       id="path22" />
    <path
       d="m 8436.9999,10908.83 c -38,94 -79,156 -142,216 -55,53 -86,68 -142,69 -83,0 -158,-101 -126,-169 18,-37 52,-63 169,-132 49,-29 121,-74 161,-101 40,-26 75,-48 78,-48 12,0 3,25 -17,47 -17,19 -19,23 -5,17 12,-4 17,-1 18,12 0,16 2,16 11,-4 6,-12 15,-22 20,-22 15,0 8,34 -25,115 z"
       id="path24" />
    <path
       d="m 8427.9999,10704.83 c -108,79 -307,147 -401,135 -96,-11 -157,-77 -157,-168 0,-57 18,-89 60,-110 45,-23 98,-23 245,2 66,11 159,23 208,26 95,8 119,27 48,39 -37,6 -39,7 -23,24 12,12 22,15 34,9 37,-18 26,13 -14,43 z"
       id="path26" />
    <path
       d="m 7454.9999,10164.83 c -19,54 -44,98 -87,156 -21,29 -38,64 -38,78 0,45 -40,108 -117,183 -51,51 -83,92 -104,135 -16,34 -29,67 -29,73 0,31 -79,77 -165,94 -71,14 -127,45 -174,95 -34,37 -36,37 -100,33 -52,-3 -83,-12 -145,-43 -75,-37 -80,-38 -120,-26 -75,24 -118,24 -177,2 -88,-33 -161,-91 -213,-171 -58,-87 -121,-138 -225,-179 -96,-39 -160,-93 -203,-168 l -31,-55 -210,-104 c -117,-59 -214,-101 -219,-96 -5,5 4,37 21,73 48,107 63,175 64,284 0,151 -41,280 -138,430 -91,141 -144,137 -100,-9 26,-86 21,-122 -32,-200 -61,-90 -68,-148 -30,-234 47,-105 45,-206 -6,-316 -50,-109 -204,-235.9995 -333,-275.9995 -89,-27 -219,-27 -305,0 -306,95.9995 -506,479.9995 -445,848.9995 52,308 235,553 508,681 113,53 201,73 323,74 123,1 183,-13 302,-70 202,-97 365,-271 428,-457 25,-77 33,-137 16,-137 -36,0 -100,138 -108,235 -5,46 -13,69 -35,98 -17,20 -34,35 -39,31 -14,-9 -10,-163 7,-234 31,-135 127,-292 194,-320 28,-12 34,-11 52,7 52,52 38,252 -29,413 -38,91 -87,172 -140,232 -201,226 -463,327 -775,299 -67,-6 -196,-10 -287,-7 -218,6 -360,33 -528,100 -49,19 -86,29 -91,24 -5,-5 -12,10 -16,38 -3,26 -20,95 -36,153 -125,432 -334,688 -651,796 -191,66 -443,73 -652,20 -464,-118 -901,-613 -1190,-1350 -115.99996,-296 -193.99996,-622 -212.99994,-900 l -7,-100 -13.99996,80 c -23,135 -6,354 41.99994,547 31,120 3,129 -83.99994,29 -141,-164 -205,-291 -246,-489 -34,-165 -8,-350 71.00001,-511 C 634,9977.8305 658,9944.8305 724,9878.8305 c 90,-91 152.99994,-130 270.99994,-171 71.99996,-25 93.99996,-28 214.99996,-28 117,0 148,3 234,27 55,15 105,32 113,38 27,23 14,47 -43,76 -121,61 -227,170 -258,264.9995 -31,96 -23,152 53,368 43,121 48,157 29,193 -6,12 -66,76 -133,142 -147,144 -160,169 -159,285 1,86 28,189 84,313 19,43 23,46 42,36 41,-22 148,-141 189,-209 22,-38 55,-111 72,-162 29,-87 31,-103 30,-233 0,-124 -3,-149 -26,-220 -15,-44 -46,-113 -69,-154 -64,-110 -77,-135 -78,-149 0,-24 15,-11 55,43 95,131 148,261 166,413 19,153 -20,332 -103,479 -40,70 -141,186 -202,232 l -29,21 56,116 c 144,293 222,379 284,311 11,-12 35,-68 53,-125 38,-120 85,-202 157,-275 105,-106 223,-158 375,-165 79,-3 110,0 165,16 168,52 277,178 308,360 24,135 -18,293 -102,392 -109,127 -334,137 -454,20 -59,-57 -77,-111 -60,-184 16,-70 45,-111 95,-135 76,-37 141,-23 218,47 55,50 78,62 123,62 69,0 125,-88 125,-196 0,-136 -129,-257 -304,-286 -125,-21 -252,19 -332,104 -53,56 -77,97 -106,183 -32,99 -33,275 0,389 46,162 142,309 257,399 69,53 194,113 290,137 61,16 112,21 211,21 237,1 404,-47 466,-133 19,-28 23,-50 29,-148 11,-193 70,-334 195,-468 42,-44 67,-63 78,-59 12,5 18,-4 26,-36 6,-23 13,-49 16,-58 2,-9 11,-56 19,-105 35,-213 4,-420 -92,-607 -33,-63 -50,-87 -64,-87 -27,0 -59,-35 -59,-65 0,-15 10,-31 26,-41 24,-16 27,-16 52,3 18,14 29,33 33,59 3,21 20,61 37,89 42,64 86,181 106,277 21,99 21,310 1,415 -8,43 -15,79 -15,81 0,1 19,-12 42,-29 24,-16 50,-28 60,-26 24,7 32,-86 25,-272 -11,-283 -89,-474 -264,-650 l -93,-93 -41,37 c -56,50 -127,81 -176,76 -24,-2 -13,-42 32,-109 27,-41 51,-93 62,-133 15,-59 16,-76 4,-148 -7,-44 -11,-88 -7,-96 17,-44 138,94 152,173 5,29 23,52 86,111 242,226 347,500 336,878 l -5,152 36,-15 c 133,-57 345,-104 526,-116 l 40,-3 -80,-56 c -239,-167 -422,-496 -441,-792 -24,-390 202,-755.9995 541,-872.9995 70,-25 95,-28 200,-28 110,0 128,2 214,33 52,18 202,88 335,156 422,214.9995 654,290.9995 918,301.9995 204,9 370,-29 520,-117 157,-94 233,-198.9995 208,-290.9995 -14,-52 -44,-86 -103,-115 -59,-30 -142,-35 -198,-11 -37,15 -100,72 -119,107 -10,19 -8,20 33,20 98,0 161,113 108,193.9995 -26,40 -57,55 -110,56 -38,0 -49,-5 -83,-40 -40,-39 -40,-41 -36,-101.9995 8,-123 94,-248 195,-282 172,-59 361,58 362,224 2,143.9995 -220,319.9995 -494,391.9995 -114,30 -335,30 -495,-1 -184,-35 -181,-34 -134,-14 23,10 74,49 114,86 41,38 114,95 163,128 304,203 629,259 927,159 53,-18 166,-71 120,-56 -8,3 -57,19 -108,35 -280,93 -586,41 -865,-147 -74,-50 -94,-69 -84,-78 2,-2 83,-8 179,-12 l 176,-8 53,-33 c 104,-66 134,-80 185,-85 28,-4 116,-29 195,-56 160,-55 203,-60 279,-30 65,25 112,25 186,-1 47,-16 81,-21 165,-20 108,2 161,-11 189,-43 13,-17 36,-21 43,-9 3,5 -1,24 -8,44 z m -4021,1675 c -33,21 -61,37 -63,35 -2,-1 -14,31 -28,71 -36,110 -130,301 -145,296 -23,-8 -20,-37 13,-105 17,-38 45,-100 60,-138 l 29,-70 -45,50 c -146,164 -209,465 -97,465 19,0 40,-15 77,-54 62,-66 103,-135 160,-264 45,-104 108,-307 99,-320 -1,-2 -28,14 -60,34 z"
       id="path28" />
    <path
       d="m 6887.9999,12403.83 c -36,0 -86,36 -121,87 -36,53 -63,83 -74,83 -5,0 -25,-34 -47,-76 -21,-41 -58,-102 -82,-135 -24,-32 -44,-65 -44,-72 0,-6 10,-40 22,-75 26,-70 23,-68 127,-52 76,13 131,39 161,77 18,23 80,146 80,159 0,2 -10,4 -22,4 z"
       id="path34" />
    <path
       d="m 6864.9999,12072.83 c -13,28 -19,32 -38,26 -58,-18 -109,-24 -193,-25 -73,0 -94,-3 -105,-17 -19,-22 -88,-53 -122,-53 -15,0 -43,7 -63,15 -34,14 -35,14 -45,-13 -6,-15 -11,-53 -12,-86 -2,-55 0,-60 33,-87 21,-18 46,-29 65,-29 16,-1 55,-9 85,-20 90,-32 102,-29 184,49 40,38 96,81 123,95 50,25 103,77 103,99 -1,7 -7,27 -15,46 z"
       id="path38" />
    <path
       d="m 6558.9999,12757.83 c -18,12 -47,16 -122,16 -72,0 -104,4 -122,16 -18,12 -28,13 -44,5 -11,-6 -44,-11 -73,-11 -51,0 -56,-2 -102,-49 -46,-46 -47,-50 -33,-72 8,-13 17,-56 20,-96 4,-55 12,-81 33,-112 29,-45 38,-48 80,-26 56,29 146,12 228,-42 49,-32 47,-33 106,115 30,75 44,127 48,173 4,61 3,67 -19,83 z"
       id="path46" />
    <path
       id="path52"
       d="m -6076.8593,9139.7153 c -15,-28 -5,-55 26,-69 36,-16 64,1 64,39 0,47.9996 -68,69.9996 -90,30 z m 90,151.0006 c -15,-30 -12,-48 12,-71 40,-37.001 98,-17.001 98,34 0,50 -87,79 -110,37 z m -150,52 c -46,-16 -54,-81 -14,-112 50,-40.001 104,-16 104,46 0,43 -50,80 -90,66 z m 98,120 c -18,-5 -34,-38 -29,-63 7,-41 67,-52 97,-19 17,18 17,23 4,46 -16,28 -44,42 -72,36 z m -5610.9997,189 c -38,-42 0,-122 58,-122 58,0 87,79 43,120 -27,25 -79,26 -101,2 z m 1850.9997,37 c -121,-28 -249.9997,-135 -308.9997,-254 -31,-64 -34,-77 -34,-165 0,-84.001 3,-102.001 28,-152.0006 31,-62 84,-116 148.9997,-149 52,-27 168,-37 221,-20 90,30 153,106 164,198.9996 9,82.001 -26,163.001 -42,93.001 -3,-16 -20,-48.001 -36,-71.001 -83,-113.9996 -249,-81.9996 -289,56.001 -10,34 -10,50 4,96 56,194 261,259 476,151 81,-40 130,-91 174,-183 28,-59 31,-74 31,-160.0006 0,-86 -3,-101 -31,-161 -63,-132 -193,-225 -404,-289 -389.9997,-118 -625.9997,-226 -909.9997,-415 -258,-171 -509,-399 -679,-615 l -83,-105 7,55 c 21,154 100,349 189,467 114,151 279,257 491,317 50,14 95,33 102,42 49,67 -38,188 -154,214 -143,33 -430,-154 -594,-388 -35,-51 -45,-60 -51,-45 -3,10 -23,71 -43,135 -83,264 -221,494 -410,684 -205,207.0006 -402,317.0006 -640,359.0006 -166,29 -327,14 -402,-38 -100,-68 -111,-264.0006 -17,-303.0006 30,-13 41,-12 111,10 139,43 186,50 308,50 144,0 222,-18 350,-79 314,-151 551,-546 619,-1035 16,-109 36,-390 29,-399 -1,-2 -8,10 -14,28 -21,60 -88,191 -130,254 -56,83 -187,212 -279,274 -156,105 -344,182 -540,220 -145,28 -467,25 -612,-5 -457,-95 -745,-325 -804,-642 -14,-71 -14,-96 -4,-160 33,-204 154,-361 355,-460 148,-72 198,-80 565,-90 331,-8 435,-20 556,-63 174,-63 298,-176 389,-356 39,-79 105,-266 105,-299 0,-8 -18,12 -39,44 -62,93 -110,143 -195,207 -146,108 -308,175 -486,202 -500,76 -982,-157 -1148,-557 -43,-103 -77,-228 -106,-386 -31,-166 -71,-255 -157,-347 -156,-166 -355,-178 -464,-28 -16,23 -33,42 -37,42 -5,1 -8,-25 -8,-57 0,-49 5,-65 35,-109 43,-64 123,-126 192,-148 83,-27 192,-18 274,22 86,42 174,135 224,233 l 37,74 29,-55 c 83,-153 268,-310 439,-371 58,-20 83,-23 220,-23 143,1 161,3 235,28 277,96 455,321 456,578 1,173 -74,325 -211,428 -145,108 -310,119 -460,29 -127,-77 -177,-224 -120,-357 25,-56 92,-125 145,-147 78,-32 201,-8 282,56 14,11 30,20 34,20 5,0 9,-24 9,-52 0,-40 -7,-66 -30,-104 -36,-64 -76,-98 -160,-138 -61,-29 -72,-31 -185,-31 -110,0 -125,2 -178,27 -154,73 -271,274 -284,493 -13,222 105,446 304,575 373,244 952,158 1233,-183 28,-34 71,-104 96,-154 26,-51 49,-93 53,-92 3,0 44,46 91,101 296,351 735,744 1221,1090 300,214 562.9997,383 1152.9997,740 237,144 411,251 669,410 26,16 47,34 47,38 0,9 -207,80 -231,80 -7,0 -87,-49 -178,-108 -91,-60 -310,-200 -486,-313 -941.9997,-601 -1361.9997,-903 -1754.9997,-1265 -146,-134 -320,-318 -405,-429 -43,-55 -69,-79 -63,-58 4,15 -13,108 -37,200 -60,228 -165,395 -325,513 -133,99 -306,169 -520,210 -398,78 -566,162 -645,325 -55,111 -40,263 36,378 69,104 208,193 374,237 113,30 355,38 481,16 482,-84 840,-428 905,-871 7,-44 15,-84 19,-88 4,-5 33,29 65,75 328,470 795,856 1278,1057 436.9997,181 941.9997,233 1336.9997,137 263,-65 428,-182 521,-371 76,-156 89,-302 37,-417 -78,-171 -287,-256 -444,-182 -47,22 -49,30 -12,38 81,16 148,95 148,173 0,90 -92,203 -177,219 -100,19 -195,-18 -253,-98 -41,-56 -53,-108 -48,-200 10,-178 144,-343 338,-417 56,-21 81,-25 185,-25 104,0 130,4 193,27 226,79 371,249 409,477 44,263 -80,560 -313,745 -224,179 -498,271 -841,282 l -151,5 35,46 c 81,106 115,210 115,352 -1,164.0006 -55,286.0006 -178,399.0006 -70,64 -168,120 -253,145 -60,17 -219,20 -283,5 z m -1559.9997,27 c -83,-30 -131,-87 -168,-197 -12,-35 -25,-67 -29,-72 -4,-4 -27,12 -52,35 -93,89 -226,138 -376,138 -129,0 -276,-45 -353,-108 -37,-30 -18,-51 76,-82 162,-55 293,-139 437,-279.001 109,-105.9996 181,-195.9996 257,-321.9996 59,-99 130,-262 161,-374 12,-44 29,-87 36,-95 13,-13 19,-10 50,25 56,65 100,145 134,246 28,83 33,110 37,229 4,128 -2,198 -38,430.0006 -15,101 -12,180 9,227 22,46 51,69 113,87 23,7 44,18 46,24 5,15 -103,68 -175,87 -70,18 -116,18 -165,1 z m -427,58 c -28,-35 -26,-56 5,-88 32,-31 76,-34 104,-6 27,27 25,66 -5,95 -33,34 -77,33 -104,-1 z m 169,46 c -27,-27 -25,-66 5,-95 68,-68 160,20 95,91 -29,30 -72,32 -100,4 z m 5937.9997,2120.0001 c -4,-8 -21,-69 -38,-135 -136,-520 -383,-997 -747,-1445 -191,-235 -537,-571.0001 -790,-768.0001 l -42,-33 25,58 c 36,80 54,172 54,273 0,114.0001 -22,207.0001 -70,304.0001 -158,320 -536,440 -855,273 -80,-42 -211,-174 -253,-253 -56,-108 -75,-233.0001 -51,-346.0001 49,-232 261,-398 457,-357 81,16 122,40 179,103 125,136 110,306 -36,404.0001 -85,57 -98,55 -58,-10 28,-44.0001 32,-60.0001 32,-119.0001 0,-76 -17,-110 -74,-143 -113,-66 -225,-26 -288,102 -59,121 -23,265.0001 92,370.0001 230,211 553,162 688,-103 43,-85 57,-147.0001 57,-251.0001 0,-107 -22,-186 -80,-284 -112,-190 -304,-352 -835,-704.0006 -146,-98 -263,-181 -261,-185 3,-4 27,-16 53,-26 26,-10 74,-31 106,-47 l 59,-29 96,63 c 53,34 207,135 342,223 480,315.9996 533,344.0006 701,372.0006 129,21 176,14 237,-39 26,-23.001 94,-63.0006 152,-90.0006 58,-27 121,-56 140,-66 84,-42 147,-146 157,-260 8,-97 -10,-171 -63,-249 -24,-36 -44,-69 -44,-74 0,-5 11,-11 25,-15 19,-5 39,4 89,40 80,57 126,112 167,200 26,55 31,80 32,139 0,40 -3,83 -7,97 l -7,25 20,-25 c 11,-14 37,-59 58,-100 55,-110 64,-113 99,-36 71,156 34,372.9996 -81,474.0006 -25,22 -45,42 -45,44 0,3 29,20 65,37 70,35 109,79 121,138 8,42 -19,130 -56,182 -32,43 -53,49 -58,15 -7,-46 -27,-76 -66,-98 -53,-31 -118,-43 -289,-56 -270,-20 -349,-36 -422,-85 -43,-28 -161,-72 -170,-63 -2,2 47,46 107,98 741,641.0001 1253,1490.0001 1373,2275.0001 16,103 17,218 3,185 z" />
    <path
       d="m 6165.9999,12149.83 c -13,18 -23,20 -68,16 -29,-2 -119,5 -199,17 -80,12 -149,21 -152,21 -15,0 -5,-21 28,-55 19,-21 56,-63 82,-93 27,-31 77,-87 112,-124 60,-64 66,-68 109,-68 h 45 l -6,35 c -7,42 16,136 43,181 24,38 24,43 6,70 z"
       id="path54" />
    <path
       d="m 6071.9999,12388.83 c -62,55 -81,88 -89,157 -7,60 -26,80 -102,109 -117,43 -130,39 -182,-65 -17,-34 -42,-72 -55,-87 -18,-19 -24,-36 -24,-71 0,-70 16,-105 48,-106 15,0 111,-21 212,-46 102,-25 199,-46 215,-48 l 30,-3 v 57 c 0,56 -1,57 -53,103 z"
       id="path56" />
    <path
       d="m 3014.9999,10473.83 c -4,0 -36,-27 -71,-59 -113,-106 -242,-179 -399,-226 -134,-40 -145,-45 -161,-78 -31,-59 24,-164.9995 107,-206.9995 54,-28 140,-27 204,4 112,52 224,212.9995 294,421.9995 24,71 37,144 26,144 z"
       id="path58" />
    <path
       d="m 2972.9999,10622.83 c -154,78 -518,53 -669,-45 -118,-77 -126,-217 -16,-267 104,-47 287,-17 481,80 88,43 128,70 177,118 35,35 64,70 64,79 0,8 -17,24 -37,35 z"
       id="path60" />
    <path
       d="m 2866.9999,10828.83 c -139,137 -258,212 -375,236 -73,15 -133,4 -194,-36 -78,-51 -119,-176 -85,-257 19,-44 48,-55 110,-40 23,6 94,16 158,22 139,14 258,3 377,-35 135,-43 137,-18 9,110 z"
       id="path62" />
    <path
       d="m 17230.793,2315.0141 c -196.311,-97.449 -282.462,-338.953 -189.249,-523.965 26.834,-52.256 139.818,-168.065 152.529,-156.767 2.825,4.237 -7.061,32.483 -22.597,64.966 -35.308,70.615 -36.72,185.013 -5.649,252.804 48.018,98.86 165.24,149.704 295.172,125.695 124.283,-24.009 209.022,-175.127 177.951,-322.007 -77.678,-355.902 -490.071,-600.231 -1224.471,-724.514 -155.354,-25.421 -550.8,-49.43099 -645.425,-39.54399 l -67.791,8.47399 72.027,36.72 c 149.705,76.264 273.989,209.021 333.306,353.077 25.421,60.729 33.895,105.923 33.895,200.548 0,107.334 -5.65,131.343 -42.369,206.197 -98.862,197.722 -353.077,282.461 -539.502,177.95 -87.563,-49.43 -158.179,-151.116 -173.714,-251.391 -9.886,-74.852 14.123,-209.021 43.781,-233.031 16.949,-15.535 19.773,-8.473 19.773,40.957 0,153.942 100.273,259.866 247.154,259.866 90.387,0 151.117,-31.071 192.074,-98.862 91.8,-148.293 -18.361,-392.622 -223.145,-495.721 -310.708,-156.767 -838.912,-67.79 -1067.705,179.363 -91.8,98.862 -128.52,193.486 -128.52,319.183 2.824,241.504 242.917,385.56 443.464,266.925 97.45,-56.492 131.345,-203.371 62.142,-258.452 -83.326,-64.966 -194.899,-18.36 -187.837,76.264 5.649,60.73 -8.474,74.853 -42.369,43.783 -110.161,-98.862 -45.194,-279.638 117.222,-326.244 211.846,-60.729 399.682,136.994 347.427,368.612 -28.246,127.108 -122.87,233.031 -266.926,299.411 -66.379,32.483 -98.862,38.131 -206.197,38.131 -108.748,-1.412 -138.406,-7.061 -206.197,-39.544 -259.865,-125.696 -353.077,-459.001 -193.486,-690.619 14.123,-19.772 25.421,-40.958 25.421,-45.194 0,-16.947 -159.591,98.862 -388.385,279.637 -382.735,303.646 -532.44,396.859 -748.523,464.649 -190.662,59.317 -357.314,73.441 -557.862,46.606 -410.982,-56.492 -758.41,-220.32 -1497.047,-710.39 -175.126,-115.81 -324.831,-214.671 -334.717,-220.321 -8.474,-5.649 2.824,24.009 25.421,64.967 97.449,179.363 111.573,443.465 35.308,612.941 -46.606,101.687 -132.757,189.249 -231.619,234.444 -101.686,46.606 -281.049,43.781 -378.498,-7.062 -206.197,-108.747 -269.751,-344.603 -146.88,-539.502 22.597,-35.308 48.018,-64.966 56.492,-64.966 7.062,0 14.123,32.483 14.123,70.616 0,117.221 62.142,225.969 158.179,276.812 45.193,24.009 162.415,25.421 218.907,4.237 152.53,-56.492 224.557,-268.339 162.416,-474.536 -53.668,-176.538 -163.828,-297.997 -370.025,-405.332 -258.452,-135.58199 -660.9604,-211.84699 -950.4836,-177.95099 -415.2188,48.018 -607.2927,200.54799 -607.2927,480.18499 0,223.145 124.2831,353.077 341.7786,353.077 145.4678,0 227.3817,-70.616 238.6801,-204.785 5.6493,-62.141 1.4123,-79.09 -29.6585,-112.984 -28.2462,-33.896 -46.6061,-42.37 -94.6247,-42.37 -79.0892,0 -112.9845,40.957 -112.9845,135.582 0,81.913 -22.597,91.8 -62.1416,25.421 -62.1416,-105.922 -11.2985,-249.978 107.3354,-307.883 268.3387,-128.52 512.6679,179.363 375.674,474.535 -117.2216,251.392 -499.9571,336.13 -755.585,166.652 -122.8708,-81.913 -216.0832,-258.451 -216.0832,-406.743 0,-120.047 59.3169,-273.989 142.6432,-375.675 21.1846,-26.834 38.1323,-52.255 35.3077,-55.079 -2.8246,-2.826 -83.3262,21.183 -177.9509,52.254 -214.6708,72.028 -488.6587,201.961 -648.2495,307.884 -149.7048,100.274 -348.8403,289.524 -420.868,401.095 -29.6585,45.194 -57.9047,83.326 -63.5539,83.326 -18.36,0 57.9046,-187.836 118.6339,-289.523 104.5108,-175.126 326.2433,-374.262 576.2219,-518.317 201.9601,-115.80899 563.511,-237.26699 875.6313,-295.17199 248.5662,-45.194 612.9418,-45.194 854.4466,0 324.8314,59.316 641.1884,186.425 1114.3114,444.87699 427.929,234.443 725.927,210.434 858.684,-69.204 94.624,-201.95899 15.535,-419.45399 -173.714,-473.12299 -128.52,-36.719 -241.505,-1.412 -282.462,90.389 -45.194,105.922 5.649,192.073 115.809,192.073 45.194,0 60.73,-8.474 103.099,-59.317 l 50.843,-60.728 v 53.666 c 0,149.70499 -148.293,261.27799 -295.173,221.73299 -112.984,-29.659 -185.012,-121.45799 -192.074,-244.32899 -9.886,-155.354 93.213,-300.822 255.628,-362.964 105.923,-39.545 273.988,-35.307 375.674,9.886 93.213,42.37 187.837,134.17 233.031,228.794 32.483,67.792 38.133,97.45 39.545,206.198 0,115.80899 -4.237,135.58099 -46.606,221.73199 -56.493,114.397 -156.766,210.434 -285.287,271.164 -81.913,38.132 -105.923,42.369 -228.794,43.781 -76.264,0 -138.406,2.824 -138.406,7.062 0,9.886 306.471,183.6 447.702,252.802 646.837,320.595 1203.287,354.49 1463.152,87.564 144.055,-146.88 220.32,-346.015 201.96,-535.265 -16.948,-185.012 -57.905,-279.638 -163.828,-374.26199 -125.695,-112.984 -319.182,-148.293 -457.588,-81.914 -173.714,84.739 -200.548,323.41999 -50.843,458.99999 76.265,67.791 141.231,77.677 282.462,43.782 32.483,-8.474 31.07,-5.649 -14.123,33.895 -224.558,197.724 -546.564,124.284 -648.25,-146.88 -48.019,-128.52 -39.545,-292.34699 24.009,-419.45499 132.757,-271.164 473.124,-399.684 805.016,-303.646 223.145,64.965 394.034,210.433 495.72,423.692 87.563,180.77599 120.047,423.69299 77.677,564.92299 -4.237,12.711 -4.237,24.009 1.413,24.009 4.237,0 59.317,-45.194 124.283,-100.273 391.209,-338.955 841.736,-533.85299 1379.825,-598.81899 457.588,-55.081 909.527,-4.238 1638.278,183.6 329.068,84.73799 463.237,103.09799 603.056,79.08899 259.864,-43.781 413.806,-177.94999 413.806,-362.96399 0,-73.439 -36.72,-151.116 -88.976,-189.248 -77.677,-56.493 -206.197,-57.905 -269.751,-2.826 -40.957,36.721 -79.088,129.934 -79.088,197.725 0,32.482 -4.238,59.316 -11.299,59.316 -18.36,0 -43.782,-53.667 -59.317,-122.871 -32.483,-144.055 35.307,-268.339 190.662,-344.603 79.088,-38.133 101.685,-43.782 179.363,-38.133 153.941,9.886 285.285,97.45 353.077,235.856 25.421,50.843 32.483,88.975 32.483,177.951 0,100.274 -5.649,124.283 -46.606,207.609 -28.247,57.905 -69.203,114.39799 -105.923,145.46799 -83.327,72.028 -242.917,146.88 -331.893,158.179 -40.957,4.236 -69.203,12.71 -63.554,18.359 16.948,15.536 385.561,146.88 576.222,204.785 265.513,80.502 583.283,158.179 823.377,200.548 200.547,33.896 257.04,38.132 579.046,38.132 l 357.313,1.413 -46.607,38.132 c -64.966,53.668 -213.258,129.933 -314.944,161.003 -67.79,21.185 -129.933,26.834 -317.768,26.834 -216.084,-1.412 -245.743,-4.237 -416.632,-48.018 -240.092,-60.73 -461.825,-141.232 -881.281,-322.006 -460.412,-197.724 -425.105,-186.425 -354.489,-107.336 129.932,146.88 196.311,358.727 163.828,528.203 -33.896,180.776 -128.52,309.296 -281.049,381.324 -74.853,35.307 -104.511,40.957 -201.961,40.957 -93.211,0 -125.695,-5.65 -186.424,-36.721 z"
       id="path64"
       style="stroke-width:0.999995" />
    <path
       d="m 568,10075.83 c -7,9 -33,22 -58,28 -107,28 -267,126 -347,212 -38,42 -41,50 -36,86 4,33 2,42 -18,56 -13,9 -32,16 -42,16 -26,0 -67,-45 -67,-74 0,-29 35,-66 61,-66 10,0 40,-23 66,-51 69,-74 150,-133 243,-178 130,-63 236,-78 198,-29 z"
       id="path66" />
  </g>
</svg>
