<?xml version="1.0" standalone="no"?>
<!DOCTYPE svg PUBLIC "-//W3C//DTD SVG 20010904//EN"
 "http://www.w3.org/TR/2001/REC-SVG-20010904/DTD/svg10.dtd">
<svg version="1.0" xmlns="http://www.w3.org/2000/svg"
 width="1280.000000pt" height="640.000000pt" viewBox="0 0 1280.000000 640.000000"
 preserveAspectRatio="xMidYMid meet">
<metadata>
Created by potrace 1.15, written by Peter Selinger 2001-2017
</metadata>
<g transform="translate(0.000000,640.000000) scale(0.100000,-0.100000)"
fill="#e6e6e6" stroke="none">
<path d="M12739 5933 c-20 -27 -62 -84 -94 -128 -67 -94 -474 -500 -610 -610
-184 -147 -369 -258 -564 -335 -76 -30 -106 -38 -112 -29 -5 9 -25 2 -70 -23
-35 -19 -100 -45 -144 -56 -68 -18 -286 -58 -335 -61 -8 -1 -66 -8 -129 -16
-202 -26 -746 -45 -808 -29 -13 4 -20 11 -16 20 9 24 -22 26 -78 5 -36 -14
-78 -21 -126 -21 -149 0 -629 46 -1003 96 -239 32 -250 34 -247 48 1 8 -32 11
-108 13 -67 1 -226 17 -405 43 -361 51 -329 47 -535 65 -319 28 -640 37 -905
24 -135 -6 -317 -13 -405 -14 -113 -2 -176 -7 -215 -19 -91 -27 -178 -44 -310
-61 -68 -9 -128 -19 -133 -22 -5 -3 -13 0 -17 6 -5 9 -36 2 -116 -29 -60 -22
-154 -52 -209 -66 -308 -78 -657 -186 -860 -266 -282 -112 -443 -208 -666
-399 -219 -189 -433 -344 -508 -370 -27 -9 -35 -9 -42 2 -12 19 -11 32 1 24
15 -9 54 25 126 109 35 41 100 103 146 139 97 75 250 177 267 177 6 0 11 11
11 25 0 14 -2 25 -4 25 -2 0 -49 -14 -105 -30 -519 -154 -941 -468 -1324 -985
-49 -66 -94 -119 -101 -118 -17 4 -90 -109 -136 -212 -23 -49 -46 -99 -52
-110 -132 -233 -209 -380 -358 -675 -220 -439 -382 -751 -463 -892 l-61 -108
-97 -50 c-55 -28 -179 -77 -285 -111 -226 -74 -324 -115 -405 -170 -63 -43
-113 -107 -125 -162 -6 -28 -2 -36 41 -74 131 -119 359 -93 647 72 107 62 327
208 409 272 106 83 287 202 379 248 181 91 408 152 655 176 150 15 601 6 845
-16 642 -57 980 -60 1245 -9 182 35 346 93 468 165 l68 41 92 -7 c177 -13 363
28 495 109 l67 42 125 -32 c311 -80 580 -85 785 -14 l59 20 61 -20 c84 -28
214 -56 322 -70 101 -14 340 -9 433 9 30 5 91 14 135 20 44 6 105 18 135 28
l55 17 -40 6 -40 5 43 17 c36 14 53 15 100 6 34 -6 123 -8 217 -5 173 5 227
16 400 81 187 70 282 98 367 106 115 11 207 35 297 76 43 20 90 34 112 34 27
0 39 4 39 14 0 8 -4 16 -10 18 -5 2 -7 13 -4 25 6 20 11 22 48 17 59 -9 216
13 311 43 186 58 621 313 821 481 38 32 110 81 161 110 126 72 214 138 207
156 -8 20 76 66 169 93 159 47 291 123 407 235 139 136 248 255 269 296 17 33
34 48 84 73 77 39 139 81 196 134 51 46 131 151 131 171 0 8 23 42 51 76 28
35 60 82 71 104 14 29 33 47 62 61 22 11 68 41 101 66 89 67 297 284 333 348
46 81 98 248 116 370 17 114 22 299 8 299 -10 0 46 200 84 300 13 36 31 113
39 173 20 148 39 220 80 302 59 117 48 174 -16 88z m-125 -318 c-8 -33 -20
-98 -28 -145 -17 -101 -107 -362 -166 -483 -119 -245 -309 -393 -575 -448 -49
-11 -196 -26 -325 -35 -129 -8 -273 -21 -320 -29 -47 -7 -86 -12 -87 -11 -1 1
55 29 125 61 141 65 905 435 911 441 2 2 2 6 -1 9 -7 7 -223 -86 -680 -293
-457 -208 -808 -358 -808 -347 0 9 287 208 389 269 63 38 128 69 161 76 109
25 318 103 455 170 227 110 411 244 575 416 92 98 182 213 175 224 -3 4 28 32
68 63 39 31 87 72 106 91 19 20 36 35 37 33 1 -1 -4 -29 -12 -62z m-110 -742
c-13 -60 -33 -149 -44 -199 l-21 -92 -142 -85 c-198 -118 -225 -133 -287 -157
-122 -48 -157 -53 -409 -59 -184 -5 -245 -9 -249 -19 -6 -18 55 -40 165 -59
268 -45 614 69 836 277 71 66 74 62 27 -30 -28 -56 -78 -109 -185 -198 -49
-41 -103 -90 -120 -107 -57 -62 -199 -125 -347 -155 -181 -37 -371 -27 -958
54 -345 47 -698 77 -686 58 3 -5 16 -12 28 -15 149 -33 253 -51 464 -77 137
-17 341 -44 454 -60 388 -55 625 -63 775 -26 33 8 61 14 62 12 1 -1 -20 -31
-46 -67 -48 -65 -50 -66 -132 -92 -217 -68 -334 -88 -575 -94 -291 -8 -516 20
-769 96 -96 29 -124 29 -113 -1 8 -21 154 -94 253 -127 142 -47 258 -64 440
-64 238 0 464 45 688 134 56 23 109 44 117 47 8 3 3 -8 -11 -24 -15 -16 -34
-42 -44 -57 -39 -60 -231 -168 -381 -213 -109 -32 -300 -43 -439 -25 -216 29
-562 144 -989 328 -312 135 -423 180 -564 228 -67 23 -124 44 -126 46 -3 2 91
3 207 1 478 -7 896 77 1462 293 16 7 18 6 8 -6 -7 -7 -13 -17 -13 -22 0 -10 9
-8 93 22 111 41 195 52 472 62 295 10 395 25 552 80 153 54 279 127 376 218
51 48 146 183 172 244 8 21 17 37 19 37 2 0 -8 -48 -20 -107z m-6272 -47
c-151 -80 -243 -148 -503 -372 -68 -58 -212 -174 -318 -258 -201 -156 -378
-320 -449 -416 -22 -30 -58 -88 -79 -127 l-40 -73 -279 -139 c-153 -77 -330
-169 -393 -205 -63 -36 -116 -65 -117 -63 -7 7 415 506 721 852 201 227 481
509 585 587 202 153 348 223 480 232 82 6 84 6 48 -8 -177 -69 -363 -194 -514
-344 -90 -91 -176 -196 -167 -205 3 -4 58 44 122 105 219 211 357 315 523 393
139 65 249 90 423 93 l60 2 -103 -54z m778 -22 c-275 -101 -725 -358 -970
-555 -110 -88 -239 -221 -304 -312 -41 -57 -50 -64 -98 -76 -102 -26 -404
-129 -561 -191 -87 -34 -160 -60 -162 -58 -9 9 133 178 229 273 137 136 463
410 599 504 62 43 166 116 232 162 145 103 259 173 343 211 118 54 165 60 467
67 154 4 289 8 300 9 11 0 -23 -15 -75 -34z m460 29 c0 -5 -32 -16 -72 -25
-89 -22 -290 -119 -386 -187 -129 -92 -243 -211 -203 -211 5 0 93 56 195 124
339 227 549 304 730 266 32 -6 90 -13 128 -15 39 -2 72 -6 74 -8 3 -2 -46 -14
-108 -27 -138 -27 -314 -77 -445 -126 -147 -55 -456 -202 -562 -268 -103 -65
-217 -166 -246 -219 -18 -34 -20 -35 -124 -51 -142 -23 -398 -86 -546 -135
l-120 -40 95 91 c477 457 913 721 1350 818 85 18 240 27 240 13z m-1981 -84
c-138 -89 -246 -185 -553 -488 -597 -592 -814 -843 -946 -1098 -29 -58 -39
-67 -118 -115 -48 -28 -183 -114 -301 -190 -117 -76 -215 -138 -217 -138 -8 0
28 64 61 110 18 25 89 153 160 284 366 686 611 983 1060 1283 77 51 152 96
325 196 61 35 8 -8 -65 -53 -193 -118 -448 -336 -617 -526 -98 -109 -117 -139
-92 -139 6 0 108 84 226 188 377 328 595 489 820 600 101 51 285 125 312 127
5 0 -20 -19 -55 -41z m3001 -83 l145 -22 -113 -23 c-182 -36 -455 -108 -617
-162 -224 -75 -413 -170 -543 -276 l-43 -35 -230 -24 c-127 -13 -285 -30 -351
-39 -67 -9 -123 -14 -125 -11 -7 6 191 159 300 232 181 121 486 274 546 274
10 0 101 18 202 40 395 85 527 92 829 46z m-3630 -40 c0 -3 -37 -27 -82 -55
-572 -345 -1108 -1008 -1437 -1776 l-51 -120 -253 -171 c-138 -94 -253 -170
-255 -169 -2 2 25 52 59 111 35 60 127 242 206 404 190 391 252 513 335 650
189 313 407 563 655 752 54 41 103 78 110 81 6 4 -45 -48 -114 -115 -106 -104
-280 -307 -291 -338 -12 -35 43 11 192 158 324 319 535 467 781 545 44 15 94
30 110 36 17 5 31 10 33 10 1 1 2 -1 2 -3z m6085 -28 c-170 -108 -246 -162
-291 -209 -27 -30 -54 -61 -60 -70 -18 -32 -313 -114 -548 -154 -183 -31 -591
-67 -575 -51 3 4 107 33 230 66 265 71 465 136 609 197 136 58 164 73 290 148
91 54 114 64 170 70 36 3 92 12 125 20 96 21 105 18 50 -17z m-1720 2 c94 -11
188 -20 209 -20 97 0 -21 -34 -491 -140 -295 -66 -427 -120 -535 -220 l-63
-57 -493 -5 -493 -4 135 68 c411 206 720 303 1089 342 81 9 213 23 295 32 81
8 152 17 157 19 15 5 10 6 190 -15z m820 -46 c101 -4 260 -1 364 5 101 6 185
10 188 8 7 -8 -247 -128 -385 -181 -75 -30 -294 -105 -487 -166 l-350 -113
-160 7 c-88 3 -259 13 -380 21 -121 9 -274 19 -340 23 l-120 7 180 72 c254
100 410 148 640 194 211 42 374 86 447 119 36 17 57 19 133 15 50 -3 171 -8
270 -11z m-5930 -173 c-6 -5 -37 -30 -70 -57 -238 -190 -438 -421 -686 -792
-254 -381 -502 -867 -595 -1165 l-18 -59 -228 -154 c-126 -85 -231 -154 -234
-154 -3 0 15 23 41 52 99 110 170 264 255 550 72 243 85 278 147 408 72 154
131 251 232 390 102 140 332 421 358 436 10 6 92 73 183 149 188 156 334 257
500 344 116 61 132 68 115 52z m4230 -273 c134 -8 193 -15 200 -24 6 -8 58
-20 126 -29 335 -43 542 -107 1179 -362 555 -223 741 -283 971 -317 132 -20
338 -20 444 -1 44 8 83 15 87 15 4 0 -9 -18 -30 -40 -34 -36 -52 -44 -209 -95
-196 -62 -292 -77 -483 -75 -69 1 -143 1 -165 0 l-40 -2 30 -10 c17 -5 126
-12 244 -15 218 -6 340 4 425 33 22 8 41 12 43 10 9 -9 -128 -119 -188 -151
-104 -55 -236 -102 -350 -125 -89 -19 -125 -21 -254 -17 -165 6 -257 24 -420
80 -215 74 -371 161 -786 438 -323 215 -490 314 -714 424 -258 126 -506 217
-702 256 -121 25 -69 32 170 26 127 -4 318 -12 422 -19z m-1806 -42 c-2 -2
-18 -7 -34 -10 l-30 -6 30 14 c26 12 46 14 34 2z m642 -16 c80 -11 168 -24
195 -31 83 -21 262 -97 409 -173 326 -171 539 -309 993 -643 143 -105 186
-127 163 -85 -24 45 -279 257 -433 360 -274 183 -786 469 -990 552 -32 13 -56
25 -55 27 6 5 183 -28 297 -57 395 -99 765 -276 1360 -649 118 -74 249 -156
291 -182 185 -115 427 -228 609 -283 141 -42 229 -58 370 -65 l135 -6 -84 -64
c-97 -74 -133 -92 -291 -151 -381 -140 -748 -132 -1065 24 -185 91 -324 192
-625 456 -387 339 -606 492 -916 641 -322 155 -633 233 -989 247 l-160 7 215
38 c288 51 392 66 410 60 8 -2 81 -13 161 -23z m-4132 -147 c-164 -158 -294
-338 -412 -570 -95 -187 -131 -293 -217 -638 -43 -170 -93 -350 -110 -400 -61
-170 -148 -320 -239 -410 -28 -27 -51 -55 -51 -61 0 -6 -96 -78 -212 -160
-117 -81 -235 -164 -262 -183 l-49 -35 33 55 c113 192 165 363 240 787 45 255
91 455 119 516 25 56 164 262 248 366 89 111 275 302 389 401 51 44 95 79 98
79 4 0 -6 -19 -22 -42 -16 -24 -59 -94 -96 -157 -38 -63 -89 -139 -114 -170
-144 -176 -269 -432 -331 -679 -11 -42 -34 -165 -51 -272 -39 -248 -69 -362
-125 -476 -36 -73 -58 -104 -115 -157 -39 -37 -66 -67 -60 -67 20 0 85 48 126
92 87 95 128 200 180 464 93 477 201 747 445 1111 38 57 69 109 69 116 0 34
148 236 239 327 79 78 121 110 235 178 76 45 141 82 143 82 2 0 -42 -44 -98
-97z m3268 46 c6 -6 59 -15 119 -20 616 -52 1136 -248 1579 -594 103 -81 143
-115 380 -324 367 -325 526 -431 778 -520 255 -90 553 -103 803 -37 46 13 84
20 84 17 -1 -9 -155 -122 -235 -173 -38 -25 -127 -77 -196 -117 -117 -67 -136
-74 -250 -99 -158 -33 -419 -37 -534 -9 -160 40 -301 132 -580 378 -418 367
-730 599 -1105 819 -398 233 -765 391 -1060 454 -149 32 -333 50 -434 43 l-81
-5 55 19 c77 27 578 162 661 178 3 1 10 -4 16 -10z m-3232 -321 c-251 -264
-417 -549 -515 -883 -138 -468 -180 -564 -320 -725 -38 -44 -38 -35 1 32 73
123 113 248 189 586 27 123 68 279 90 345 51 153 141 340 223 466 67 101 187
255 193 248 3 -2 0 -16 -6 -31 -5 -15 -8 -32 -5 -36 7 -12 77 14 160 59 39 21
74 39 79 40 4 0 -36 -45 -89 -101z m2873 67 c584 -89 1300 -479 2072 -1130
454 -383 631 -498 855 -559 l90 -24 -35 -15 c-33 -15 -42 -14 -145 14 -322 86
-575 190 -809 331 -126 76 -219 142 -491 348 -203 153 -399 295 -435 315 -32
17 34 -39 260 -222 479 -387 725 -555 1015 -692 89 -42 317 -119 379 -127 25
-4 49 -10 51 -14 9 -15 -155 -35 -280 -34 -217 2 -413 53 -660 173 -240 116
-385 209 -826 532 -417 305 -625 436 -924 580 -396 191 -744 275 -1105 267
l-162 -3 207 102 c134 66 218 101 238 101 18 0 64 9 102 21 39 12 104 28 145
35 101 19 337 19 458 1z m-1158 -230 c0 -6 -97 -55 -107 -55 -4 1 17 14 47 30
61 32 60 32 60 25z m335 -85 c297 -28 589 -117 908 -276 292 -147 553 -317
1057 -688 395 -290 673 -447 970 -547 63 -21 148 -44 188 -51 39 -6 72 -15 72
-19 0 -11 -114 -46 -230 -69 -58 -12 -122 -29 -143 -37 -32 -13 -68 -15 -205
-10 -265 10 -447 56 -692 178 -177 88 -340 197 -709 473 -167 125 -350 258
-405 295 -556 371 -1052 532 -1541 500 -69 -4 -135 -11 -145 -14 -43 -14 -15
6 118 82 283 165 297 171 402 181 134 13 228 14 355 2z m-547 -25 c-2 -2 -75
-42 -163 -91 -88 -48 -193 -107 -233 -130 -62 -37 -172 -81 -172 -69 0 17 548
308 563 298 5 -3 7 -6 5 -8z m153 -301 c218 -30 436 -99 674 -213 256 -122
517 -291 934 -604 146 -110 311 -230 366 -267 221 -148 460 -268 651 -325 49
-15 100 -31 114 -35 l25 -8 -26 -1 c-15 -1 -80 -10 -145 -22 -87 -15 -138 -19
-189 -14 -170 16 -342 68 -530 160 -227 111 -419 247 -827 587 -283 236 -364
299 -508 395 -199 131 -387 214 -575 254 -155 32 -203 19 -55 -16 164 -38 394
-141 585 -261 134 -84 360 -257 640 -490 476 -395 687 -533 963 -624 l117 -39
-70 0 c-133 -1 -436 59 -475 94 -8 8 -24 14 -35 13 -30 -1 -115 32 -279 108
-195 89 -381 193 -721 404 -506 313 -795 461 -1080 553 -182 58 -261 71 -437
72 -86 0 -154 3 -150 6 9 9 346 210 397 238 88 48 416 66 636 35z m-741 -28
c0 -8 -102 -77 -227 -153 -206 -125 -303 -179 -303 -169 0 2 84 59 188 128
325 216 342 226 342 194z m130 -320 c308 -72 591 -209 1130 -544 431 -269 732
-434 935 -513 33 -13 64 -26 69 -30 16 -13 -147 -22 -308 -16 -351 12 -618 91
-1281 377 -571 246 -774 315 -1090 371 -140 24 -392 29 -494 10 -34 -7 -64
-11 -66 -9 -2 2 69 49 156 105 l159 103 62 -16 c47 -12 150 -18 408 -24 355
-8 427 -16 585 -60 94 -26 199 -69 294 -121 99 -53 116 -38 30 26 -141 104
-300 163 -513 191 -98 13 -186 15 -466 12 -190 -3 -351 -3 -359 0 -21 7 160
119 224 137 99 29 147 34 285 30 96 -3 165 -11 240 -29z m-801 -110 c-27 -22
-422 -286 -425 -283 -2 2 91 69 208 150 117 80 215 143 217 141 2 -2 2 -6 0
-8z m-1582 -81 c-4 -8 -25 -133 -47 -277 -69 -439 -114 -601 -216 -769 -28
-46 -52 -68 -136 -125 -118 -78 -338 -215 -338 -209 0 2 24 35 53 74 137 183
284 456 490 911 153 338 187 410 194 410 3 0 3 -7 0 -15z m1889 -229 c262 -55
506 -144 1012 -368 324 -143 536 -231 630 -262 28 -10 52 -21 52 -26 0 -15
-170 -70 -263 -85 -51 -8 -119 -15 -152 -15 -52 1 -58 2 -42 14 18 14 23 36 7
36 -5 0 -24 -9 -42 -20 -40 -24 -82 -25 -208 -5 -132 22 -326 72 -590 154
-513 158 -671 186 -1065 185 -217 0 -267 -3 -379 -23 -155 -27 -262 -57 -373
-104 -46 -19 -83 -34 -83 -32 0 3 232 176 393 294 33 24 70 44 84 46 13 1 39
16 56 32 103 96 252 167 420 199 116 22 392 12 543 -20z m-971 -128 c-3 -7
-51 -44 -108 -83 -342 -234 -788 -596 -1410 -1143 -40 -35 -130 -107 -202
-161 -252 -190 -424 -275 -605 -301 -88 -12 -171 0 -243 36 -46 24 -48 27 -41
57 24 114 116 174 385 250 232 66 341 114 562 244 119 69 771 503 1327 882
387 264 341 234 335 219z m-470 -218 c-3 -5 -20 -19 -38 -32 l-32 -23 29 38
c15 20 32 34 37 31 5 -3 7 -9 4 -14z m950 -100 c159 -14 302 -35 460 -71 164
-36 214 -50 510 -144 199 -63 394 -115 525 -141 22 -5 20 -7 -20 -26 -215 -97
-451 -157 -680 -173 -144 -10 -352 34 -884 186 -153 44 -280 78 -282 76 -2 -2
15 -9 38 -16 24 -7 156 -55 294 -107 139 -51 295 -106 348 -120 53 -15 94 -30
91 -32 -5 -5 -347 15 -475 29 -94 10 -280 50 -500 109 -363 96 -560 103 -751
26 -35 -14 -64 -24 -66 -22 -6 6 136 120 210 169 306 203 730 295 1182 257z
m-847 -398 c123 -34 322 -97 322 -102 0 -3 -98 -5 -218 -5 -119 0 -262 -6
-317 -13 -222 -29 -428 -88 -598 -172 -92 -45 -96 -49 107 129 81 72 152 129
156 126 4 -3 28 4 53 15 94 42 146 50 287 46 94 -3 157 -10 208 -24z"/>
<path d="M2155 1616 c-64 -16 -114 -38 -162 -70 -48 -33 -36 -33 28 0 95 48
190 66 344 67 94 1 127 3 100 8 -62 12 -255 9 -310 -5z"/>
<path d="M2523 1603 c9 -2 23 -2 30 0 6 3 -1 5 -18 5 -16 0 -22 -2 -12 -5z"/>
<path d="M2578 1593 c7 -3 16 -2 19 1 4 3 -2 6 -13 5 -11 0 -14 -3 -6 -6z"/>
<path d="M2628 1583 c7 -3 16 -2 19 1 4 3 -2 6 -13 5 -11 0 -14 -3 -6 -6z"/>
<path d="M2715 1560 c11 -5 27 -9 35 -9 9 0 8 4 -5 9 -11 5 -27 9 -35 9 -9 0
-8 -4 5 -9z"/>
</g>
</svg>
