<?xml version="1.0" standalone="no"?>
<!DOCTYPE svg PUBLIC "-//W3C//DTD SVG 20010904//EN"
 "http://www.w3.org/TR/2001/REC-SVG-20010904/DTD/svg10.dtd">
<svg version="1.0" xmlns="http://www.w3.org/2000/svg"
 width="871.000000pt" height="1280.000000pt" viewBox="0 0 871.000000 1280.000000"
 preserveAspectRatio="xMidYMid meet">
<metadata>
Created by potrace 1.15, written by Peter Selinger 2001-2017
</metadata>
<g transform="translate(0.000000,1280.000000) scale(0.100000,-0.100000)"
fill="#ececec" stroke="none">
<path d="M8603 12738 c-39 -35 -123 -94 -188 -133 -86 -51 -146 -97 -226 -172
-60 -57 -111 -103 -114 -103 -14 0 23 48 90 119 52 54 100 92 161 127 47 27
98 59 113 71 l26 22 -27 1 c-46 0 -350 -112 -514 -191 -94 -44 -153 -103 -209
-205 -19 -35 -51 -94 -71 -130 -20 -36 -38 -63 -40 -61 -3 3 20 63 49 133 72
169 73 174 49 174 -10 0 -41 -17 -68 -37 -27 -21 -105 -75 -174 -120 -231
-152 -227 -147 -289 -309 -31 -80 -87 -171 -98 -160 -3 3 13 36 35 73 61 101
87 183 59 183 -26 0 -337 -221 -389 -276 -34 -37 -61 -106 -87 -227 -37 -169
-77 -280 -133 -364 -29 -42 -53 -72 -56 -65 -2 6 8 28 22 49 39 60 92 208 115
323 11 58 32 138 46 179 14 41 25 76 25 78 0 13 -30 -8 -116 -83 -86 -75 -196
-144 -230 -144 -6 0 -21 -12 -35 -26 -13 -14 -47 -40 -76 -56 -125 -71 -170
-175 -213 -493 -12 -84 -113 -393 -156 -475 -23 -45 -63 -101 -64 -89 0 3 18
44 39 90 68 146 137 386 156 540 26 210 33 207 -136 44 -81 -77 -189 -180
-241 -230 -80 -76 -100 -102 -132 -169 -40 -85 -52 -94 -37 -27 7 34 6 41 -4
39 -21 -5 -273 -255 -303 -301 -25 -37 -27 -50 -31 -164 -1 -68 -7 -123 -11
-123 -4 0 -13 7 -20 15 -10 12 -10 38 -1 122 6 58 9 108 7 110 -8 9 -46 -18
-63 -45 -10 -15 -105 -121 -212 -237 -261 -282 -287 -316 -350 -442 -93 -188
-87 -166 -66 -228 11 -30 17 -56 14 -58 -2 -2 -35 -18 -72 -36 -49 -24 -75
-43 -89 -67 -11 -19 -29 -39 -40 -45 -11 -6 -17 -17 -14 -24 3 -9 -11 -19 -45
-30 -96 -32 -217 -156 -349 -357 -92 -139 -96 -194 -29 -405 24 -73 28 -97 19
-113 -6 -11 -15 -18 -20 -15 -4 3 -23 44 -41 93 -28 75 -33 102 -35 192 -1 58
-6 105 -11 105 -8 0 -104 -142 -240 -355 -95 -148 -140 -243 -150 -316 -5 -41
-14 -55 -70 -110 -63 -62 -76 -83 -173 -302 -19 -41 -38 -63 -84 -97 -82 -60
-112 -89 -178 -171 -73 -92 -145 -218 -158 -277 -13 -58 -37 -107 -123 -249
-37 -61 -71 -131 -78 -160 -7 -29 -14 -120 -15 -203 -1 -140 -3 -150 -23 -163
-19 -13 -21 -13 -21 6 0 12 5 43 11 71 5 27 9 69 7 93 l-3 43 -33 -54 c-18
-29 -42 -75 -52 -102 -11 -27 -41 -91 -66 -142 -56 -111 -84 -189 -84 -232 0
-42 34 -196 59 -269 12 -33 19 -61 17 -64 -3 -2 -23 23 -45 57 -35 55 -61 130
-61 179 0 9 -4 23 -9 31 -21 32 -117 -213 -129 -326 -2 -24 3 -64 13 -93 21
-63 13 -75 -16 -26 -11 20 -23 36 -25 36 -11 0 -34 -64 -34 -97 0 -22 -18 -79
-41 -133 -64 -150 -70 -174 -58 -231 6 -27 33 -93 60 -146 27 -53 47 -98 45
-101 -10 -9 -27 12 -77 96 -66 111 -86 132 -121 132 -32 0 -36 -15 -12 -48 39
-57 54 -131 54 -277 0 -110 5 -159 21 -224 37 -145 101 -292 181 -413 76 -115
94 -148 79 -148 -4 0 -16 10 -27 21 -10 12 -43 37 -72 55 -29 19 -72 55 -96
80 -47 48 -62 46 -51 -7 7 -32 42 -70 148 -162 41 -36 69 -68 73 -85 3 -15 9
-37 14 -49 5 -13 6 -23 2 -23 -4 0 -38 22 -77 48 -53 36 -75 58 -92 92 -17 36
-22 41 -28 27 -4 -9 -4 -37 -1 -61 7 -44 31 -74 88 -109 37 -23 61 -62 60 -97
-1 -30 -32 -143 -64 -227 l-19 -53 -162 0 c-285 -1 -477 -43 -512 -111 -27
-51 -15 -83 41 -112 26 -13 30 -20 26 -45 -6 -40 13 -71 54 -88 22 -9 36 -23
40 -40 4 -14 4 -98 2 -187 -6 -182 -27 -293 -84 -433 -55 -138 -121 -229 -276
-381 -113 -112 -190 -174 -373 -301 -285 -197 -409 -315 -537 -507 -118 -179
-154 -291 -145 -450 17 -271 154 -479 372 -566 l60 -24 1365 3 c1369 3 1437 5
1502 38 50 26 158 136 194 198 125 213 136 472 29 691 -100 203 -151 252 -737
705 -222 171 -371 333 -460 497 -76 141 -118 361 -118 622 l0 147 35 17 c42
20 52 39 37 73 -10 21 -8 25 17 39 75 38 41 114 -69 154 -57 21 -60 24 -53 49
16 64 125 387 135 399 6 7 23 13 39 13 29 0 49 -15 160 -115 62 -57 109 -75
192 -75 60 0 103 14 111 37 5 11 1 13 -15 8 -12 -4 -47 -7 -78 -8 -66 0 -124
26 -187 83 -23 21 -56 46 -73 55 -18 9 -30 22 -28 28 7 22 39 19 91 -6 28 -14
85 -31 126 -37 65 -11 94 -9 214 8 107 16 143 25 160 41 12 12 53 66 91 122
66 96 68 102 50 115 -10 8 -25 14 -32 14 -20 0 -16 15 14 51 36 42 79 59 152
59 116 0 240 41 293 97 15 15 48 80 73 143 44 111 71 164 109 223 18 26 18 27
0 27 -17 0 -119 -70 -198 -137 -58 -48 -36 -12 44 77 48 51 108 106 141 125
78 48 158 137 188 210 14 33 39 85 57 115 17 30 45 101 63 157 37 120 81 222
105 242 14 12 27 12 79 2 61 -12 64 -11 127 18 68 32 114 73 195 176 112 142
151 186 187 211 88 61 5 41 -125 -31 -37 -20 -72 -35 -78 -33 -6 2 46 35 117
73 100 55 135 80 165 117 20 26 39 53 41 59 3 9 32 1 94 -23 160 -65 207 -71
311 -39 76 23 109 46 151 105 37 51 30 58 -26 22 -85 -56 -230 -60 -341 -10
-34 15 -61 30 -61 35 0 4 42 5 93 2 190 -11 331 36 453 150 l62 57 153 0 c364
1 556 41 728 155 89 59 132 101 185 182 25 38 66 87 91 107 76 63 221 243 265
331 85 168 94 401 21 543 -26 50 -88 114 -145 147 -51 30 -144 43 -210 31 -61
-12 -44 -33 32 -40 132 -13 234 -86 289 -205 55 -116 36 -298 -47 -468 -41
-83 -65 -118 -135 -190 -46 -48 -86 -85 -89 -82 -3 2 -12 51 -20 107 -18 121
-50 193 -118 267 -87 96 -214 139 -289 99 l-34 -18 80 -8 c174 -18 257 -103
280 -288 7 -60 -12 -167 -41 -221 -27 -52 -227 -134 -399 -163 -118 -20 -306
-36 -426 -36 -102 0 -109 3 -109 50 0 9 -7 23 -15 30 -23 19 -18 27 23 41 96
31 167 103 177 180 5 32 17 61 37 86 43 54 79 136 80 183 1 79 -44 135 -58 73
-28 -124 -51 -169 -123 -236 -81 -76 -237 -105 -335 -63 l-39 16 25 28 c34 36
102 178 94 198 -4 11 -14 13 -40 9 -57 -11 -133 18 -211 80 -102 82 -197 167
-191 172 2 2 57 -25 123 -60 223 -122 356 -167 489 -167 67 0 89 4 130 25 58
30 117 92 150 157 31 61 31 99 -1 135 l-24 28 -1 -46 c0 -75 -27 -146 -71
-190 -35 -35 -44 -39 -87 -39 -68 0 -158 47 -217 112 -25 28 -45 58 -43 66 2
8 21 21 43 29 22 7 52 25 66 39 31 30 169 302 169 334 0 20 -1 20 -37 -4 -110
-72 -234 -52 -390 62 -35 25 -61 47 -59 49 2 3 48 -10 102 -27 75 -24 124 -33
199 -37 90 -4 104 -2 145 19 27 14 56 40 73 66 22 33 34 42 56 42 51 0 174 64
206 106 26 34 30 48 30 101 0 69 -5 79 -32 65 -12 -7 -23 -31 -31 -69 -17 -84
-54 -118 -125 -117 -61 1 -117 27 -165 77 l-33 34 73 5 c40 3 88 12 106 22 39
20 91 89 132 174 22 45 35 62 45 58 8 -3 54 -13 102 -22 119 -22 300 -15 398
16 130 41 240 111 297 190 45 60 138 232 138 252 0 33 -18 18 -73 -60 -65 -92
-108 -132 -185 -171 -125 -63 -247 -81 -394 -57 -99 16 -234 55 -278 81 l-25
14 28 1 c32 0 77 21 97 45 12 14 26 16 85 10 217 -20 541 63 602 154 22 32 32
101 15 101 -15 0 -32 -24 -32 -45 0 -24 -25 -56 -62 -79 -74 -48 -235 -59
-421 -29 -122 19 -116 9 -67 118 l28 62 56 7 c117 13 236 66 303 132 46 46 52
65 14 44 -14 -7 -21 -7 -21 0 0 18 -14 11 -63 -35 -61 -57 -121 -75 -241 -75
l-91 1 50 26 c28 14 69 43 92 66 l42 40 118 9 c210 15 314 48 419 134 64 53
71 70 42 101 -12 14 -43 39 -67 56 l-44 30 79 26 c44 14 95 35 114 46 73 44
130 154 130 253 0 35 -3 43 -17 40 -11 -2 -20 -22 -29 -64 -15 -77 -34 -113
-80 -158 -85 -82 -243 -62 -361 47 -54 50 -145 166 -138 177 3 4 24 4 47 -2
62 -14 95 -13 124 3 15 7 65 65 113 127 89 118 127 179 117 189 -3 3 -43 -13
-90 -37 l-84 -42 -93 4 c-88 4 -102 8 -213 59 -126 57 -131 71 -18 45 103 -23
217 -29 322 -17 179 22 231 51 291 165 17 33 47 82 65 107 53 73 45 81 -38 40
-70 -35 -74 -36 -192 -36 -102 0 -130 4 -176 23 -30 12 -62 26 -70 32 -28 17
0 23 47 9 74 -21 316 -19 371 4 23 9 55 17 70 17 15 0 45 10 67 22 22 11 66
29 98 39 71 21 115 54 166 122 49 66 67 116 48 134 -11 12 -20 5 -53 -39 -51
-69 -103 -98 -174 -98 -112 0 -240 44 -376 128 -167 103 -293 151 -404 153
-46 0 -51 2 -31 10 54 22 200 -15 459 -115 125 -48 198 -66 269 -66 97 0 144
22 219 103 36 39 74 88 85 109 12 24 40 51 75 73 70 45 110 88 130 142 23 60
12 76 -18 27 -47 -73 -106 -112 -204 -134 -36 -8 -49 -8 -55 2 -6 9 -13 8 -28
-6 -17 -16 -31 -18 -84 -13 -34 3 -76 11 -92 17 l-30 12 48 19 c69 27 95 46
158 110 31 32 67 60 80 63 13 2 58 9 99 15 41 6 99 23 127 37 61 29 132 107
162 177 17 39 29 51 63 66 48 21 235 206 263 261 20 38 23 38 -80 -1 -51 -19
-80 -23 -195 -23 -82 -1 -163 5 -205 14 l-70 14 220 12 c242 13 294 24 372 77
45 31 113 108 113 127 0 5 -16 4 -36 -1 -19 -6 -45 -9 -57 -7 -19 3 -16 7 19
25 58 31 104 72 104 92 0 30 -11 31 -44 6 -57 -44 -112 -58 -231 -59 -100 -1
-156 7 -143 20 3 2 56 9 118 14 203 18 308 55 378 135 40 46 86 125 77 133 -3
3 -31 -9 -64 -27 -54 -29 -66 -31 -154 -31 -53 0 -99 4 -102 10 -4 6 16 10 53
10 97 0 169 19 204 54 42 42 57 83 69 184 5 48 12 97 15 109 11 42 -30 26
-103 -39z m-2277 -1369 c-8 -19 -31 -108 -51 -199 -49 -218 -61 -229 -29 -26
19 123 38 190 65 235 25 41 34 36 15 -10z m413 -56 c-18 -37 -34 -62 -37 -55
-2 7 11 42 30 77 43 84 49 66 7 -22z m716 17 c21 -7 -8 -9 -102 -7 -97 1 -135
6 -145 16 -11 11 5 12 102 7 64 -4 129 -11 145 -16z m-285 -60 c41 -12 95 -20
145 -20 73 -1 78 -2 61 -15 -28 -21 -116 -19 -189 6 -125 42 -139 66 -17 29z
m-1011 -200 c-26 -157 -64 -308 -75 -297 -2 2 0 26 6 53 6 27 22 118 35 202
22 136 48 233 59 221 2 -2 -9 -83 -25 -179z m-440 -320 c-16 -44 -45 -135 -65
-203 -19 -67 -40 -126 -45 -132 -12 -11 -8 12 23 125 39 148 70 244 85 267 30
46 31 22 2 -57z m-167 -231 c-27 -90 -55 -188 -63 -216 -7 -29 -17 -53 -21
-53 -23 0 70 374 109 442 35 58 25 -5 -25 -173z m594 -469 c149 -51 253 -97
302 -132 28 -21 52 -43 52 -49 0 -11 0 -11 -77 38 -75 48 -270 120 -371 138
-48 8 -91 15 -95 15 -5 0 -5 5 -1 11 9 16 117 4 190 -21z m-1012 -66 c11 -29
6 -69 -11 -94 l-17 -24 -8 29 c-16 61 16 141 36 89z m-4 -188 c0 -61 -117
-376 -140 -376 -6 0 -4 14 6 38 32 71 73 199 84 263 15 80 27 112 40 104 6 -3
10 -16 10 -29z m1173 -267 c43 -16 115 -39 160 -50 83 -22 122 -40 110 -52
-25 -26 -193 21 -348 97 -227 111 -209 112 78 5z m-610 -160 c51 -18 121 -46
157 -64 76 -37 311 -117 423 -143 83 -19 97 -31 54 -46 -51 -18 -221 39 -539
181 -99 44 -181 57 -268 44 -36 -5 -97 -12 -137 -15 -39 -3 -80 -9 -90 -12
-16 -6 -16 -5 -3 8 20 21 75 38 119 38 20 0 61 9 91 20 73 26 87 25 193 -11z
m-645 9 c-5 -13 -34 -20 -123 -33 -35 -5 -47 -3 -40 4 30 31 172 56 163 29z
m1558 -3 c-32 -24 -84 -17 -59 8 3 4 22 7 42 7 34 -1 35 -2 17 -15z m409 -85
c6 -1 -8 -8 -30 -15 -79 -26 -441 -14 -397 14 9 5 399 7 427 1z m-1432 -174
c89 -23 207 -68 207 -79 0 -8 -92 4 -220 28 -201 39 -286 48 -391 43 -66 -3
-97 -2 -90 5 45 45 326 47 494 3z m-1099 -152 c-1 -163 -22 -324 -45 -348 -12
-13 -10 298 2 404 12 103 17 122 32 117 9 -3 12 -52 11 -173z m-424 -101 c-2
-62 -2 -66 -1 -213 1 -69 6 -190 12 -270 11 -153 4 -267 -13 -221 -5 14 -8 32
-7 40 1 9 0 18 -1 21 -1 3 -3 61 -5 130 -1 69 -8 166 -14 215 -14 115 -14 230
0 295 13 63 30 65 29 3z m1655 -343 c99 -48 222 -104 274 -125 l93 -39 -26
-23 c-39 -34 -104 -31 -185 7 -74 35 -203 118 -311 199 -41 32 -90 66 -107 76
-18 11 -33 23 -33 27 0 14 110 -32 295 -122z m-698 76 c141 -38 301 -174 431
-368 40 -60 68 -108 64 -108 -17 0 -139 136 -189 210 -59 87 -86 114 -164 163
-75 48 -168 78 -259 84 -92 6 -116 13 -75 23 50 13 137 11 192 -4z m-204 -306
c32 -12 91 -44 131 -71 83 -55 127 -99 56 -55 -125 77 -285 135 -376 137 -32
0 -35 2 -19 10 31 14 144 3 208 -21z m-944 -217 c6 -31 11 -88 10 -127 -1 -67
-2 -69 -11 -31 -5 22 -18 70 -30 106 -15 53 -17 71 -9 88 18 33 27 25 40 -36z
m731 -342 c49 -11 102 -27 117 -35 36 -20 24 -20 -67 1 -108 24 -378 24 -439
0 -84 -33 -80 -17 9 33 55 31 55 31 173 26 64 -3 157 -15 207 -25z m-1226
-103 c62 -215 106 -419 106 -492 0 -27 -2 -47 -5 -44 -8 7 -82 266 -99 343
-13 61 -36 209 -36 236 0 5 4 9 9 9 5 0 16 -24 25 -52z m946 -73 c0 -2 -33
-14 -72 -26 -40 -12 -99 -30 -130 -40 -65 -22 -68 -22 -68 -11 0 20 175 81
233 82 20 0 37 -2 37 -5z m-1325 -236 c-9 -30 -20 -63 -25 -74 -7 -18 -8 -19
-15 -2 -11 25 3 81 26 112 12 14 23 24 26 22 2 -3 -3 -29 -12 -58z m-306 -595
c12 -39 27 -77 35 -83 13 -11 10 -19 -16 -56 -17 -24 -35 -42 -39 -39 -22 13
-38 203 -22 264 6 22 7 23 14 5 4 -11 17 -52 28 -91z m1961 19 c267 -39 383
-47 465 -30 61 13 73 13 90 1 143 -103 239 -148 339 -160 57 -7 66 -16 66 -71
0 -28 -24 -29 -158 -8 -154 25 -293 61 -577 150 -148 46 -313 96 -365 110
-184 51 -155 52 140 8z m1186 10 c-19 -37 -52 -66 -106 -95 -85 -44 -306 -26
-351 28 -11 14 -8 15 27 8 119 -25 297 3 389 60 51 33 59 32 41 -1z m-3082
-189 c9 -3 16 -10 16 -15 0 -14 -26 -10 -40 6 -13 16 -3 20 24 9z m56 -234
c52 -156 115 -389 107 -396 -11 -11 -29 38 -91 245 -60 200 -89 325 -73 311 3
-3 29 -75 57 -160z m1692 84 c79 -18 222 -52 318 -75 96 -23 179 -45 183 -49
22 -20 -178 -70 -280 -70 -51 0 -67 7 -189 76 -133 75 -275 134 -326 134 -14
0 -59 -16 -99 -35 -98 -47 -125 -51 -211 -29 -95 24 -242 24 -322 0 -33 -10
-90 -33 -128 -52 -76 -38 -86 -41 -67 -18 19 23 114 68 189 90 88 25 248 25
350 0 l75 -18 62 26 c35 14 77 35 95 47 29 18 43 19 120 14 48 -4 151 -22 230
-41z m1873 20 c-31 -24 -102 -54 -185 -76 -107 -29 -555 -40 -528 -13 5 5 198
29 408 50 86 9 189 24 230 34 94 24 99 24 75 5z m-1100 -189 c206 -38 203 -36
104 -85 -88 -45 -171 -64 -249 -56 -119 11 -115 6 -67 97 29 54 47 77 57 74 8
-2 78 -16 155 -30z m-2852 -248 c8 -88 28 -156 106 -349 32 -82 55 -148 51
-148 -24 0 -138 237 -175 365 -27 95 -31 150 -14 189 18 38 25 24 32 -57z
m1219 68 c47 -8 116 -26 154 -39 384 -138 390 -139 586 -140 87 -1 158 -4 158
-7 0 -14 -36 -19 -141 -19 -124 0 -212 16 -373 66 -298 94 -488 127 -617 105
-39 -6 -74 -9 -77 -6 -12 12 21 29 80 41 86 17 131 16 230 -1z m41 -405 c80
-16 216 -37 302 -47 85 -9 155 -21 155 -27 0 -12 -215 1 -299 19 -110 23 -357
55 -425 55 -92 0 -230 -26 -286 -55 -58 -29 -67 -31 -49 -9 16 20 106 61 174
79 90 25 264 19 428 -15z m-796 -227 c-14 -37 -44 -113 -67 -168 -23 -55 -54
-131 -70 -170 -15 -38 -54 -128 -85 -200 -80 -182 -135 -316 -135 -329 0 -6
-25 -72 -56 -146 -100 -244 -210 -560 -300 -860 -48 -162 -92 -301 -97 -307
-13 -17 -36 -16 -43 2 -6 15 49 201 121 405 25 69 56 163 71 210 27 89 103
289 159 425 19 44 60 145 91 225 31 80 84 206 117 280 84 189 172 397 218 515
57 145 94 220 97 202 2 -9 -8 -47 -21 -84z m1041 -108 c3 -3 -16 -5 -42 -5
-26 0 -79 -6 -119 -14 -107 -21 -697 -30 -697 -11 0 23 21 29 115 35 106 7
736 3 743 -5z m-1708 -143 c0 -7 16 -20 36 -28 60 -25 125 -105 145 -178 7
-26 6 -28 -4 -12 -71 112 -90 135 -133 157 -46 24 -84 77 -84 116 0 13 5 10
20 -12 11 -16 20 -36 20 -43z m1828 -74 c-3 -7 -40 -28 -83 -46 -58 -24 -90
-32 -120 -29 -31 3 -35 5 -20 11 11 4 56 22 100 40 86 36 129 44 123 24z
m-2003 -135 l76 -106 -37 -38 c-27 -28 -41 -36 -50 -28 -23 19 -56 113 -65
183 -5 39 -12 79 -15 89 -11 36 14 8 91 -100z m139 -244 c21 -45 42 -107 47
-138 11 -68 12 -181 1 -181 -4 0 -39 62 -76 139 -60 120 -68 143 -63 176 6 39
31 85 46 85 4 0 25 -37 45 -81z m973 -198 c9 -4 5 -16 -13 -39 -43 -54 -106
-66 -309 -58 -93 4 -171 9 -174 11 -17 18 92 84 156 94 53 9 321 2 340 -8z
m187 -7 c35 -5 44 -10 36 -19 -17 -21 -170 -82 -170 -68 0 3 8 17 18 31 10 15
22 35 25 45 7 19 20 20 91 11z m-439 -498 c207 -20 124 -31 -119 -17 -197 11
-303 7 -336 -14 -6 -3 -10 1 -10 9 0 47 130 53 465 22z m-125 -166 c9 -6 -41
-10 -135 -10 -122 -1 -160 -4 -205 -20 -64 -22 -70 -23 -70 -10 0 15 48 43 88
51 46 10 301 1 322 -11z"/>
</g>
</svg>
