<?xml version="1.0" encoding="UTF-8" standalone="no"?>
<!-- Created with Inkscape (http://www.inkscape.org/) -->

<svg
   width="50"
   height="50"
   viewBox="0 0 50 50"
   version="1.1"
   id="svg5"
   inkscape:version="1.1.1 (3bf5ae0d25, 2021-09-20)"
   sodipodi:docname="info-svg.svg"
   xmlns:inkscape="http://www.inkscape.org/namespaces/inkscape"
   xmlns:sodipodi="http://sodipodi.sourceforge.net/DTD/sodipodi-0.dtd"
   xmlns="http://www.w3.org/2000/svg"
   xmlns:svg="http://www.w3.org/2000/svg">
  <sodipodi:namedview
     id="namedview7"
     pagecolor="#ffffff"
     bordercolor="#999999"
     borderopacity="1"
     inkscape:pageshadow="0"
     inkscape:pageopacity="0"
     inkscape:pagecheckerboard="0"
     inkscape:document-units="px"
     showgrid="false"
     inkscape:zoom="11.983333"
     inkscape:cx="27.663421"
     inkscape:cy="28.497914"
     inkscape:window-width="1920"
     inkscape:window-height="1001"
     inkscape:window-x="-9"
     inkscape:window-y="-9"
     inkscape:window-maximized="1"
     inkscape:current-layer="layer1" />
  <defs
     id="defs2">
    <inkscape:path-effect
       effect="fill_between_many"
       method="originald"
       linkedpaths="#path973,0,1|#path1528,0,1|#path1885,0,1|#path1920,0,1|#path1955,0,1"
       id="path-effect2150"
       is_visible="true"
       lpeversion="0"
       join="true"
       close="true"
       autoreverse="true"
       applied="false" />
  </defs>
  <g
     inkscape:label="Layer 1"
     inkscape:groupmode="layer"
     id="layer1">
    <rect
       style="fill:#808080;stroke:#aaaaaa;stroke-width:0.0999996;stroke-linecap:round;stroke-linejoin:bevel;paint-order:stroke fill markers"
       id="rect1332"
       width="5.5715694"
       height="17.31419"
       x="22.214214"
       y="20.82132"
       ry="2.5869269"
       rx="4.1724615" />
    <ellipse
       style="fill:#808080;stroke:#aaaaaa;stroke-width:0.0999999;stroke-linecap:round;stroke-linejoin:bevel;paint-order:stroke fill markers"
       id="path1436"
       cx="25"
       cy="15.165465"
       rx="3.2313068"
       ry="3.3009746" />
    <path
       id="path1540"
       style="fill:#808080;stroke:#aaaaaa;stroke-width:0.1;stroke-linecap:round;stroke-linejoin:bevel;paint-order:stroke fill markers"
       d="M 25 1.5507812 A 23.449234 23.449234 0 0 0 1.5507812 25 A 23.449234 23.449234 0 0 0 25 48.449219 A 23.449234 23.449234 0 0 0 48.449219 25 A 23.449234 23.449234 0 0 0 25 1.5507812 z M 25 3.75 A 21.249147 21.249147 0 0 1 46.25 25 A 21.249147 21.249147 0 0 1 25 46.25 A 21.249147 21.249147 0 0 1 3.75 25 A 21.249147 21.249147 0 0 1 25 3.75 z " />
  </g>
</svg>
