<?xml version="1.0" standalone="no"?>
<!DOCTYPE svg PUBLIC "-//W3C//DTD SVG 20010904//EN"
 "http://www.w3.org/TR/2001/REC-SVG-20010904/DTD/svg10.dtd">
<svg version="1.0" xmlns="http://www.w3.org/2000/svg"
 width="1280.000000pt" height="1280.000000pt" viewBox="0 0 1280.000000 1280.000000"
 preserveAspectRatio="xMidYMid meet">
<metadata>
Created by potrace 1.15, written by Peter Selinger 2001-2017
</metadata>
<g transform="translate(0.000000,1280.000000) scale(0.100000,-0.100000)"
fill="#8a460f" stroke="none">
<path d="M6440 12628 c0 -2 11 -36 24 -74 58 -173 70 -247 71 -444 0 -164 -3
-194 -23 -265 -33 -114 -89 -226 -165 -332 -88 -121 -123 -182 -163 -278 -18
-44 -39 -83 -46 -87 -7 -3 -39 -18 -71 -33 -120 -56 -131 -167 -23 -230 l43
-25 6 -168 c9 -254 65 -486 168 -696 l38 -79 -24 -28 c-85 -102 9 -270 144
-256 78 8 141 77 141 154 0 91 -54 152 -141 161 -56 5 -52 -2 -73 137 -36 238
-44 545 -18 714 7 42 9 45 54 58 56 16 123 75 134 117 9 39 -16 89 -65 124
l-39 28 32 65 c18 35 63 110 100 167 184 278 231 574 139 866 -32 102 -100
236 -162 318 -44 58 -81 97 -81 86z"/>
<path d="M5472 12554 c2 -5 29 -61 60 -124 103 -212 144 -388 135 -580 -8
-153 -33 -242 -122 -430 -75 -159 -95 -212 -116 -312 -11 -54 -14 -58 -73 -95
-65 -41 -96 -86 -96 -137 0 -36 55 -93 105 -110 l40 -14 13 -89 c36 -255 132
-504 275 -715 l63 -94 -18 -29 c-37 -62 -15 -164 45 -207 47 -34 132 -37 176
-6 51 34 73 71 78 125 8 96 -79 181 -174 169 l-42 -5 -20 54 c-35 94 -100 345
-121 470 -11 65 -23 172 -27 235 l-6 116 34 14 c89 37 141 122 115 185 -13 29
-62 75 -83 75 -4 0 -14 4 -21 8 -17 11 13 106 80 254 79 175 101 273 101 448
1 159 -10 222 -63 357 -42 110 -118 228 -206 322 -69 74 -143 138 -132 115z"/>
<path d="M7404 12546 c42 -128 46 -473 8 -618 -50 -185 -127 -315 -284 -477
-106 -110 -158 -176 -208 -264 -19 -35 -39 -57 -49 -57 -40 0 -121 -32 -150
-59 -26 -25 -31 -36 -31 -77 0 -44 4 -51 49 -95 l49 -47 -15 -64 c-8 -37 -17
-143 -20 -258 -6 -224 8 -349 58 -526 l31 -106 -25 -27 c-37 -39 -47 -65 -47
-119 0 -64 30 -110 92 -140 63 -31 115 -24 169 25 44 40 63 94 53 151 -9 49
-67 107 -122 121 l-42 12 0 148 c0 230 28 456 80 648 l22 82 49 10 c71 15 126
46 144 81 27 52 18 89 -38 147 l-30 32 35 54 c20 29 68 88 107 130 185 199
275 384 301 613 20 187 -13 371 -100 549 -46 94 -101 178 -86 131z"/>
<path d="M4545 12304 c272 -354 352 -686 249 -1027 -51 -170 -73 -269 -80
-356 -7 -89 -7 -89 -45 -118 -134 -100 -112 -229 44 -258 20 -4 37 -13 37 -20
0 -7 14 -55 30 -107 71 -216 214 -458 367 -618 80 -85 85 -92 74 -116 -19 -42
-14 -107 12 -144 68 -101 193 -106 265 -12 35 47 38 135 6 179 -39 52 -83 75
-139 71 -27 -2 -56 -6 -64 -9 -28 -8 -168 288 -241 510 -21 64 -48 161 -59
215 l-22 99 51 45 c78 68 97 120 65 181 -13 26 -50 50 -102 66 -36 10 -30 66
30 285 100 364 16 702 -238 969 -68 71 -175 155 -245 191 -24 13 -24 13 5 -26z"/>
<path d="M8350 12220 c-1 -343 -99 -615 -294 -813 -31 -31 -108 -95 -170 -142
-105 -78 -195 -164 -248 -236 -19 -26 -28 -29 -77 -29 -109 -1 -181 -59 -166
-136 3 -18 22 -54 41 -79 l35 -46 -31 -89 c-88 -256 -112 -560 -65 -833 4 -28
1 -35 -26 -52 -96 -60 -88 -219 14 -271 43 -23 121 -19 162 6 38 23 75 91 75
136 -1 68 -69 154 -124 154 -21 0 -21 21 4 167 38 223 119 491 191 634 l28 56
61 6 c67 7 134 37 150 66 23 44 10 112 -32 158 l-20 21 38 42 c21 23 90 84
154 135 213 172 324 337 382 571 26 105 31 321 10 419 -16 74 -58 201 -77 235
-13 23 -14 16 -15 -80z"/>
<path d="M3711 11878 c113 -115 192 -224 255 -353 99 -203 122 -370 84 -625
-18 -124 -21 -179 -17 -276 l6 -121 -31 -29 c-37 -35 -67 -98 -68 -139 0 -61
56 -105 134 -105 l46 0 46 -92 c120 -239 293 -449 497 -603 l74 -55 -10 -39
c-9 -33 -7 -45 14 -87 32 -65 76 -94 143 -94 82 0 138 45 156 125 29 130 -124
240 -236 170 -20 -13 -25 -8 -82 69 -137 184 -292 464 -353 634 l-22 63 35 37
c103 108 87 216 -36 242 -54 11 -54 11 -60 54 -4 24 0 103 9 176 18 156 19
231 4 336 -44 317 -248 597 -542 745 -55 27 -105 49 -113 49 -8 0 23 -37 67
-82z"/>
<path d="M9236 11886 c-9 -91 -57 -276 -95 -366 -101 -243 -270 -420 -521
-545 -100 -50 -162 -91 -240 -157 -64 -55 -66 -55 -117 -51 -29 3 -68 2 -87
-1 -45 -9 -92 -48 -99 -82 -6 -34 10 -91 35 -127 l21 -29 -46 -86 c-118 -224
-197 -535 -197 -776 0 -68 -2 -74 -23 -80 -12 -3 -38 -21 -57 -41 -30 -31 -34
-42 -38 -98 -4 -72 16 -114 70 -147 47 -28 125 -27 168 3 101 67 98 217 -5
273 -19 10 -35 21 -35 25 0 11 75 230 105 304 48 121 142 306 204 403 l61 93
63 -7 c152 -15 227 85 150 202 -14 21 -12 24 37 63 28 22 92 63 143 92 132 74
172 103 261 188 96 93 154 173 206 283 96 205 121 449 68 667 -16 70 -24 69
-32 -3z"/>
<path d="M6062 11915 c-57 -29 -95 -81 -107 -146 -20 -111 85 -229 205 -229
47 0 127 46 155 89 40 59 45 141 13 201 -34 62 -90 100 -159 106 -45 5 -63 1
-107 -21z"/>
<path d="M6916 11905 c-77 -27 -126 -98 -126 -183 0 -62 13 -98 48 -136 129
-137 353 -42 340 145 -6 78 -42 133 -111 165 -59 27 -95 29 -151 9z"/>
<path d="M5236 11807 c-22 -12 -53 -39 -70 -60 -43 -53 -48 -142 -14 -207 96
-180 368 -114 368 89 0 63 -13 97 -53 140 -62 65 -157 81 -231 38z"/>
<path d="M7765 11760 c-81 -19 -135 -72 -155 -151 -30 -120 66 -239 192 -239
110 0 198 89 198 200 0 116 -125 216 -235 190z"/>
<path d="M4490 11590 c-84 -15 -150 -85 -158 -169 -24 -251 334 -307 389 -61
30 132 -94 256 -231 230z"/>
<path d="M6657 11473 c-72 -82 -121 -531 -54 -511 21 6 65 110 82 193 32 153
30 335 -3 335 -5 0 -16 -8 -25 -17z"/>
<path d="M8526 11476 c-86 -32 -136 -101 -136 -188 0 -199 255 -271 365 -103
24 36 26 48 23 112 -3 62 -7 76 -34 109 -55 68 -145 97 -218 70z"/>
<path d="M5872 11458 c-49 -61 -54 -407 -7 -498 9 -17 20 -30 26 -30 37 0 67
217 50 370 -15 137 -40 193 -69 158z"/>
<path d="M2800 11457 c3 -2 50 -38 105 -80 179 -134 308 -285 387 -453 64
-137 79 -212 88 -439 8 -185 23 -298 49 -368 9 -24 7 -33 -14 -61 -102 -134
-53 -258 95 -244 l50 5 57 -81 c85 -123 305 -337 437 -425 60 -39 134 -85 166
-101 l57 -29 5 -54 c5 -62 27 -96 79 -126 137 -78 289 69 217 209 -45 87 -155
116 -230 60 l-32 -23 -115 119 c-171 176 -316 364 -406 529 l-27 50 36 59 c48
80 50 143 7 187 -26 26 -37 29 -89 29 l-59 0 -12 58 c-6 31 -15 127 -20 212
-6 92 -18 186 -30 232 -86 332 -317 583 -641 696 -79 27 -172 50 -160 39z"/>
<path d="M10040 11340 c-68 -211 -189 -412 -318 -532 -109 -101 -225 -166
-399 -224 -130 -43 -230 -89 -300 -137 -52 -35 -52 -35 -99 -21 -97 29 -182 7
-205 -54 -12 -31 -5 -92 16 -133 15 -28 14 -30 -45 -110 -151 -204 -265 -464
-306 -701 -17 -96 -18 -98 -50 -108 -174 -58 -143 -310 38 -310 82 0 137 42
158 121 15 57 -2 109 -49 152 l-39 35 69 132 c105 202 243 405 371 545 l55 59
40 -12 c22 -7 66 -12 97 -12 51 0 61 4 88 30 28 29 30 35 26 88 -3 31 -8 65
-12 74 -10 22 65 65 199 114 192 70 293 131 413 248 136 132 221 280 268 463
26 105 40 283 27 353 l-8 44 -35 -104z"/>
<path d="M7427 11358 c-31 -42 -50 -79 -80 -159 -48 -128 -73 -298 -46 -314
28 -18 96 97 144 245 20 62 28 108 29 169 1 96 -9 109 -47 59z"/>
<path d="M5090 11294 c-33 -85 21 -415 80 -486 15 -19 21 -21 32 -10 22 22 15
259 -11 357 -39 145 -78 199 -101 139z"/>
<path d="M3715 11229 c-84 -31 -135 -103 -135 -189 0 -187 223 -268 347 -127
36 41 48 86 41 158 -6 56 -43 111 -96 142 -38 22 -117 30 -157 16z"/>
<path d="M8160 11113 c-116 -132 -226 -423 -160 -423 59 0 240 335 240 444 0
41 -33 32 -80 -21z"/>
<path d="M9257 11080 c-76 -23 -137 -108 -137 -190 0 -128 130 -227 251 -191
45 13 103 61 124 100 79 154 -71 331 -238 281z"/>
<path d="M4356 11053 c-3 -3 -6 -32 -6 -63 0 -143 116 -440 172 -440 20 0 21
4 16 83 -9 137 -103 388 -157 416 -10 6 -21 7 -25 4z"/>
<path d="M2167 10772 c155 -82 232 -139 343 -252 154 -156 239 -325 275 -550
23 -144 41 -210 81 -312 l35 -86 -22 -44 c-16 -29 -23 -61 -23 -101 -1 -54 2
-61 32 -88 25 -23 42 -29 77 -29 24 0 56 5 71 10 25 10 33 4 133 -92 59 -57
149 -133 201 -170 110 -78 297 -175 420 -218 80 -27 85 -31 91 -62 25 -148
206 -195 291 -76 18 26 23 46 23 93 0 99 -58 157 -158 157 -39 0 -58 -6 -94
-32 l-46 -31 -51 35 c-177 122 -422 345 -539 492 l-57 72 25 53 c35 76 34 139
-4 181 -24 27 -36 32 -72 32 -24 1 -55 -2 -69 -4 -22 -5 -27 1 -47 58 -13 35
-32 111 -44 170 -45 228 -126 393 -263 539 -168 178 -407 293 -641 309 l-80 5
112 -59z"/>
<path d="M8904 10811 c-119 -73 -326 -395 -269 -417 73 -29 372 390 307 430
-5 3 -22 -3 -38 -13z"/>
<path d="M10766 10722 c-105 -208 -253 -385 -409 -486 -141 -92 -228 -122
-508 -174 -58 -11 -147 -36 -199 -57 -91 -36 -94 -37 -127 -21 -158 75 -264 4
-222 -148 11 -38 10 -39 -39 -82 -65 -57 -176 -189 -246 -294 -72 -106 -164
-290 -196 -392 -24 -76 -24 -76 -64 -82 -22 -4 -55 -18 -73 -32 -120 -91 -59
-284 90 -284 145 0 216 156 122 268 l-25 30 56 78 c132 185 325 395 467 509
l77 62 51 -24 c54 -26 132 -33 168 -14 36 20 54 68 48 129 l-6 54 37 15 c20 8
75 24 122 35 211 50 242 58 315 87 89 36 217 117 292 185 166 150 291 406 311
638 4 48 7 88 5 88 -2 0 -23 -40 -47 -88z"/>
<path d="M3036 10760 c-89 -28 -152 -120 -144 -211 4 -34 15 -64 34 -92 103
-148 331 -94 360 85 12 72 -38 168 -105 203 -36 18 -110 26 -145 15z"/>
<path d="M3660 10643 c0 -57 17 -108 71 -218 48 -99 126 -211 155 -222 51 -19
37 80 -30 222 -66 140 -151 255 -187 255 -5 0 -9 -17 -9 -37z"/>
<path d="M6494 10585 c-30 -12 -54 -50 -54 -86 0 -32 53 -79 90 -79 37 0 90
47 90 80 0 18 -26 80 -33 80 -1 0 -16 4 -33 9 -20 6 -40 5 -60 -4z"/>
<path d="M9895 10562 c-122 -58 -154 -215 -63 -310 58 -60 113 -77 193 -60 95
20 167 125 150 217 -19 100 -87 162 -183 168 -41 3 -68 -2 -97 -15z"/>
<path d="M5834 10536 c-57 -48 -21 -146 54 -148 39 -1 80 25 88 57 22 88 -74
150 -142 91z"/>
<path d="M7125 10518 c-32 -17 -45 -39 -45 -77 1 -40 14 -62 47 -79 33 -18 59
-14 92 14 25 20 31 34 31 64 0 65 -70 108 -125 78z"/>
<path d="M5209 10401 c-20 -20 -29 -39 -29 -61 0 -37 47 -90 79 -90 39 0 71
20 88 55 16 33 16 37 0 70 -29 60 -92 72 -138 26z"/>
<path d="M9504 10341 c-71 -48 -210 -188 -253 -255 -32 -51 -39 -80 -21 -91
21 -13 118 54 211 145 102 100 159 178 159 217 0 34 -28 29 -96 -16z"/>
<path d="M7729 10347 c-44 -34 -49 -83 -13 -126 20 -25 34 -31 64 -31 30 0 44
6 64 31 14 17 26 39 26 50 0 28 -26 75 -45 83 -27 10 -79 6 -96 -7z"/>
<path d="M6503 10329 c-75 -22 -124 -112 -103 -188 39 -146 242 -157 295 -16
30 78 -3 162 -78 195 -46 21 -66 23 -114 9z"/>
<path d="M5884 10285 c-134 -80 -76 -285 81 -285 121 0 193 124 134 230 -43
77 -138 101 -215 55z"/>
<path d="M7062 10253 c-54 -26 -77 -68 -77 -139 0 -51 4 -66 27 -96 66 -87
215 -72 262 26 63 134 -79 275 -212 209z"/>
<path d="M3033 10185 c-9 -25 26 -110 79 -191 65 -99 195 -234 226 -234 13 0
22 6 22 15 0 62 -115 249 -215 349 -65 65 -102 85 -112 61z"/>
<path d="M4627 10189 c-11 -6 -25 -26 -33 -44 -39 -94 83 -168 146 -88 57 73
-33 178 -113 132z"/>
<path d="M2392 10169 c-126 -64 -137 -259 -20 -337 57 -37 141 -42 203 -12
129 62 142 259 23 338 -56 37 -146 42 -206 11z"/>
<path d="M5314 10171 c-77 -47 -100 -122 -62 -198 33 -67 66 -88 138 -88 72 0
105 21 138 88 19 37 22 55 17 87 -8 46 -43 93 -86 115 -39 21 -108 19 -145 -4z"/>
<path d="M7660 10110 c-49 -12 -106 -75 -115 -129 -10 -62 25 -129 85 -158 24
-13 56 -23 70 -23 14 0 46 10 70 23 60 29 95 96 85 158 -7 43 -61 114 -93 123
-44 11 -70 13 -102 6z"/>
<path d="M1488 10103 c-32 -2 -58 -8 -58 -13 0 -6 7 -10 16 -10 31 0 199 -63
289 -108 124 -62 196 -112 288 -201 129 -124 202 -247 267 -447 34 -106 90
-226 138 -296 27 -40 28 -45 16 -78 -18 -51 -17 -137 3 -170 31 -53 96 -64
170 -30 l42 19 38 -31 c120 -96 265 -179 420 -242 118 -47 333 -106 388 -106
28 0 34 -4 40 -28 26 -119 170 -170 259 -91 44 38 60 78 54 138 -8 86 -70 141
-158 141 -50 0 -89 -19 -123 -60 l-26 -31 -92 47 c-203 102 -446 265 -594 399
l-49 45 12 45 c16 61 15 130 -2 164 -26 49 -94 65 -161 37 l-34 -15 -26 46
c-14 25 -41 87 -61 137 -63 162 -76 190 -112 251 -196 331 -548 513 -944 488z"/>
<path d="M8303 10078 c-54 -58 -15 -148 62 -148 25 0 44 8 60 25 56 55 16 145
-63 145 -27 0 -45 -7 -59 -22z"/>
<path d="M11375 9981 c-159 -226 -390 -398 -617 -461 -81 -22 -248 -41 -290
-33 -41 8 -243 -15 -326 -36 l-73 -19 -48 33 c-59 39 -110 50 -157 35 -48 -16
-68 -58 -67 -137 2 -55 -1 -64 -20 -74 -44 -23 -171 -123 -243 -192 -131 -124
-291 -338 -348 -465 -18 -39 -22 -42 -58 -42 -55 0 -101 -22 -134 -65 -24 -32
-29 -48 -29 -95 0 -47 5 -63 29 -95 51 -66 143 -85 207 -42 81 54 103 148 53
222 l-25 38 95 92 c167 164 361 316 522 409 l81 47 50 -31 c87 -54 152 -58
197 -13 24 24 42 88 34 128 -5 26 29 33 247 50 344 26 527 104 721 308 96 101
164 206 212 327 31 79 56 173 50 188 -1 5 -30 -30 -63 -77z"/>
<path d="M4793 9979 c-44 -13 -90 -62 -103 -110 -30 -112 80 -223 189 -191 55
17 87 46 106 97 47 122 -66 242 -192 204z"/>
<path d="M10485 9966 c-74 -28 -135 -116 -135 -196 0 -14 11 -48 24 -77 65
-138 251 -152 340 -25 85 120 5 290 -145 307 -26 3 -60 -1 -84 -9z"/>
<path d="M4059 9851 c-16 -16 -29 -39 -29 -51 0 -35 27 -76 60 -90 57 -24 120
24 120 91 0 32 -53 79 -90 79 -22 0 -41 -9 -61 -29z"/>
<path d="M8162 9853 c-98 -48 -109 -201 -19 -265 44 -31 114 -35 165 -9 108
55 107 223 -2 275 -43 20 -102 20 -144 -1z"/>
<path d="M10090 9817 c-141 -58 -350 -235 -350 -297 0 -33 116 13 232 91 115
78 220 192 203 219 -9 14 -24 12 -85 -13z"/>
<path d="M8864 9750 c-59 -23 -70 -95 -24 -142 27 -26 36 -30 67 -25 19 4 44
13 53 22 42 38 31 114 -21 140 -31 17 -44 18 -75 5z"/>
<path d="M4284 9689 c-146 -42 -143 -259 4 -299 81 -21 158 18 187 95 30 78
-3 162 -78 195 -46 21 -66 23 -113 9z"/>
<path d="M2490 9597 c0 -44 114 -187 220 -274 158 -131 218 -110 107 37 -58
77 -162 176 -231 222 -69 44 -96 49 -96 15z"/>
<path d="M6153 9575 c-60 -26 -71 -89 -24 -136 35 -35 77 -38 114 -9 53 42 39
127 -24 149 -18 6 -32 11 -33 11 -1 -1 -15 -7 -33 -15z"/>
<path d="M6622 9573 c-17 -6 -42 -57 -42 -83 0 -32 53 -80 88 -80 38 0 79 32
87 69 7 33 -15 85 -40 95 -19 7 -74 7 -93 -1z"/>
<path d="M8655 9530 c-56 -29 -78 -64 -83 -130 -2 -42 2 -62 17 -88 64 -101
217 -97 272 8 71 132 -74 279 -206 210z"/>
<path d="M1895 9516 c-95 -42 -140 -166 -96 -261 36 -78 95 -115 182 -115 163
0 252 187 153 318 -50 65 -162 92 -239 58z"/>
<path d="M5655 9485 c-35 -34 -34 -93 0 -125 57 -53 145 -13 145 66 0 74 -93
112 -145 59z"/>
<path d="M7105 9498 c-32 -17 -45 -39 -45 -79 0 -29 7 -43 31 -63 40 -34 74
-33 110 3 46 46 38 110 -18 139 -27 15 -52 15 -78 0z"/>
<path d="M6370 9470 c-75 -80 -111 -343 -76 -540 27 -148 74 -232 131 -232 75
0 131 135 142 343 16 314 -90 544 -197 429z"/>
<path d="M3585 9468 c-32 -18 -44 -40 -44 -78 0 -39 13 -61 46 -78 33 -18 59
-14 92 14 79 66 -5 193 -94 142z"/>
<path d="M5916 9449 c-42 -33 -61 -113 -60 -254 2 -197 56 -389 135 -479 63
-71 114 -62 147 26 76 204 -17 645 -150 714 -35 18 -40 18 -72 -7z"/>
<path d="M6859 9455 c-89 -48 -170 -297 -172 -525 -1 -225 74 -323 168 -219
84 93 137 275 139 479 1 152 -16 224 -61 260 -30 23 -39 24 -74 5z"/>
<path d="M5195 9335 c-54 -53 -16 -145 58 -145 52 0 87 32 87 81 0 53 -35 89
-85 89 -25 0 -44 -8 -60 -25z"/>
<path d="M5456 9337 c-89 -89 -5 -489 143 -674 77 -98 137 -106 173 -26 54
122 -22 443 -145 616 -71 100 -128 127 -171 84z"/>
<path d="M7330 9352 c-90 -41 -183 -196 -240 -402 -31 -110 -35 -277 -7 -327
51 -93 153 -22 247 172 60 123 90 231 97 351 7 113 -1 159 -32 190 -25 24 -38
28 -65 16z"/>
<path d="M7547 9340 c-50 -39 -42 -117 15 -146 89 -46 170 66 99 137 -35 35
-77 38 -114 9z"/>
<path d="M3805 9317 c-82 -38 -113 -141 -66 -222 42 -73 144 -98 211 -52 55
37 75 72 75 132 0 57 -18 91 -67 128 -33 25 -113 32 -153 14z"/>
<path d="M9327 9319 c-24 -14 -49 -73 -40 -96 14 -41 45 -63 89 -63 34 0 47 5
63 26 60 77 -29 181 -112 133z"/>
<path d="M1050 9301 c-65 -13 -137 -33 -125 -37 6 -2 53 -10 105 -19 135 -22
261 -60 366 -109 228 -108 355 -234 488 -483 75 -142 105 -188 172 -262 l48
-53 -2 -82 c-2 -67 1 -87 18 -114 37 -59 107 -66 180 -18 l38 25 114 -58 c209
-106 443 -167 681 -178 l137 -6 17 -34 c72 -153 303 -97 303 73 0 43 -31 101
-67 128 -33 24 -113 33 -153 16 -30 -12 -84 -66 -92 -91 -14 -43 -540 178
-739 310 l-77 51 10 47 c19 103 -31 193 -108 193 -19 0 -54 -10 -76 -21 l-42
-21 -23 28 c-25 30 -81 119 -151 239 -96 165 -232 292 -407 380 -153 77 -234
97 -420 101 -82 1 -170 -1 -195 -5z"/>
<path d="M10959 9280 c-79 -24 -134 -102 -133 -190 1 -65 20 -105 68 -148 158
-138 395 42 307 233 -42 91 -144 135 -242 105z"/>
<path d="M11875 9169 c-156 -158 -375 -294 -550 -340 -112 -29 -291 -36 -419
-15 -137 23 -259 29 -343 19 l-73 -9 -32 33 c-46 47 -111 77 -152 69 -57 -11
-96 -70 -96 -144 0 -37 -1 -38 -94 -84 -186 -92 -324 -195 -477 -355 -51 -55
-112 -124 -133 -154 l-39 -55 -56 4 c-70 4 -117 -19 -148 -74 -75 -130 53
-283 193 -229 85 32 129 137 90 214 -9 17 -14 36 -11 41 10 16 194 144 294
204 121 74 274 150 385 193 l89 34 36 -34 c64 -62 140 -84 193 -56 24 13 57
83 58 123 l0 28 128 -6 c374 -19 383 -19 482 2 52 11 133 34 179 52 204 79
410 270 516 479 25 51 57 131 52 131 -1 0 -34 -32 -72 -71z"/>
<path d="M10518 9186 c-161 -57 -356 -189 -333 -226 27 -44 322 78 434 180 22
21 41 45 41 54 0 24 -62 20 -142 -8z"/>
<path d="M5025 9156 c-26 -26 -28 -37 -26 -123 5 -187 199 -522 336 -579 46
-19 52 -18 80 11 22 21 25 33 25 91 0 95 -23 173 -90 309 -67 133 -137 229
-202 273 -64 43 -93 48 -123 18z"/>
<path d="M7763 9172 c-136 -41 -333 -366 -350 -578 -7 -88 0 -119 32 -140 34
-22 80 -5 143 51 135 122 263 388 266 553 1 69 -1 75 -27 98 -30 25 -30 26
-64 16z"/>
<path d="M4792 9134 c-58 -24 -70 -93 -26 -138 54 -54 145 -19 147 57 2 66
-59 107 -121 81z"/>
<path d="M9082 9133 c-19 -9 -44 -35 -59 -60 -78 -133 71 -287 207 -214 105
55 109 209 8 271 -40 24 -110 26 -156 3z"/>
<path d="M7969 9111 c-32 -33 -36 -58 -14 -100 41 -80 165 -43 165 49 0 33
-53 80 -90 80 -22 0 -41 -9 -61 -29z"/>
<path d="M3135 8975 c-53 -52 -15 -145 59 -145 79 0 119 88 66 145 -32 34 -91
35 -125 0z"/>
<path d="M2045 8960 c-26 -42 182 -224 339 -296 101 -46 123 -16 49 66 -62 69
-189 164 -278 206 -72 35 -99 41 -110 24z"/>
<path d="M4619 8909 c-19 -19 -21 -30 -16 -86 15 -195 281 -534 444 -568 43
-9 83 29 83 78 0 163 -220 486 -390 572 -60 31 -93 32 -121 4z"/>
<path d="M8108 8905 c-170 -89 -388 -410 -388 -572 0 -50 40 -87 83 -78 55 12
104 43 173 107 154 144 274 356 274 483 0 83 -53 106 -142 60z"/>
<path d="M3426 8890 c-67 -21 -111 -89 -104 -162 19 -194 308 -182 308 12 0
105 -104 182 -204 150z"/>
<path d="M4375 8834 c-54 -58 -16 -144 63 -144 50 0 86 36 86 85 0 78 -96 116
-149 59z"/>
<path d="M8359 8831 c-20 -20 -29 -39 -29 -61 0 -37 47 -90 79 -90 39 0 71 20
88 55 16 33 16 37 0 70 -29 60 -92 72 -138 26z"/>
<path d="M9750 8833 c-62 -22 -81 -103 -35 -148 53 -54 145 -16 145 59 0 57
-61 106 -110 89z"/>
<path d="M1495 8781 c-127 -57 -152 -226 -49 -323 38 -35 74 -48 135 -48 64 0
107 18 146 63 141 160 -38 397 -232 308z"/>
<path d="M9493 8689 c-76 -16 -123 -74 -123 -154 0 -68 33 -117 95 -140 100
-39 200 21 212 127 12 103 -83 189 -184 167z"/>
<path d="M4256 8598 c-21 -29 -20 -47 3 -112 27 -77 80 -155 168 -247 290
-303 549 -288 355 21 -115 183 -342 360 -462 360 -39 0 -52 -4 -64 -22z"/>
<path d="M8443 8600 c-152 -69 -335 -249 -410 -405 -121 -254 129 -227 388 41
88 92 134 157 166 234 27 65 29 98 7 128 -20 29 -91 30 -151 2z"/>
<path d="M6356 8585 c-22 -8 -52 -23 -67 -34 -27 -20 -27 -20 -65 0 -46 23
-139 26 -188 5 -18 -7 -49 -28 -68 -45 -31 -27 -39 -30 -63 -21 -41 16 -126
11 -170 -9 -22 -10 -56 -35 -74 -57 -34 -38 -37 -39 -101 -39 -89 0 -152 -32
-198 -100 -32 -47 -37 -50 -89 -57 -96 -13 -167 -69 -197 -156 -11 -32 -18
-38 -55 -44 -97 -16 -169 -93 -184 -195 -2 -15 -22 -32 -67 -55 -81 -42 -122
-101 -128 -186 -4 -55 -6 -58 -44 -76 -74 -35 -125 -135 -115 -226 5 -42 3
-47 -34 -78 -71 -61 -98 -143 -76 -230 13 -48 13 -53 -6 -69 -10 -10 -31 -38
-45 -62 -33 -57 -36 -146 -5 -206 l21 -40 -23 -29 c-54 -68 -58 -174 -9 -254
l29 -47 -19 -39 c-39 -80 -19 -191 46 -257 17 -17 26 -34 22 -41 -16 -25 -22
-95 -13 -140 12 -54 59 -124 94 -140 23 -10 25 -15 19 -60 -12 -93 37 -188
120 -233 33 -18 36 -23 36 -65 1 -89 71 -182 158 -208 32 -10 38 -16 40 -43 3
-43 27 -90 64 -128 39 -40 74 -59 127 -67 26 -4 41 -12 41 -21 0 -23 36 -86
67 -115 38 -36 93 -58 147 -58 43 0 47 -2 65 -38 25 -49 78 -96 126 -112 21
-7 63 -10 95 -8 55 4 58 3 78 -28 47 -71 165 -110 247 -82 40 14 42 14 69 -14
63 -64 156 -84 243 -50 l52 20 58 -30 c52 -27 65 -29 125 -25 52 3 78 11 109
31 l41 27 36 -18 c25 -12 58 -18 102 -18 71 1 111 17 156 63 27 28 29 28 69
14 77 -27 185 4 239 68 14 17 26 35 26 39 0 4 27 5 60 3 42 -3 74 1 105 12 46
18 109 79 125 122 8 21 16 24 60 24 56 0 100 18 143 59 30 27 67 91 67 114 0
9 16 17 43 21 91 15 157 76 186 174 15 48 21 57 50 67 84 28 150 119 151 206
0 42 3 48 30 59 44 18 107 92 120 141 6 23 10 63 8 88 -3 43 0 49 44 93 71 70
95 176 56 251 -7 13 -1 26 27 54 65 67 80 181 35 260 -13 21 -15 35 -8 39 20
13 58 109 58 149 0 56 -17 110 -44 142 l-24 28 21 40 c42 80 21 201 -46 263
-24 23 -24 24 -10 72 12 41 12 60 3 107 -10 48 -20 65 -64 109 l-53 52 5 56
c4 46 0 65 -23 112 -26 54 -90 114 -122 114 -9 0 -13 14 -13 48 0 93 -63 181
-152 213 -32 11 -39 19 -44 48 -18 98 -92 173 -184 189 -38 6 -44 11 -56 45
-31 88 -103 144 -198 154 -52 5 -56 8 -84 53 -44 71 -108 105 -197 105 -68 0
-70 1 -105 39 -19 22 -53 47 -75 57 -44 20 -129 25 -170 9 -24 -9 -32 -6 -63
21 -19 17 -50 38 -68 45 -50 21 -138 18 -185 -6 l-39 -21 -33 25 c-58 44 -133
56 -201 31z m-25 -425 c56 -25 132 -25 187 0 l43 20 41 -27 c46 -31 145 -43
199 -24 30 10 35 9 63 -18 50 -47 93 -63 163 -63 63 1 64 0 111 -47 49 -48
101 -71 164 -71 26 0 37 -5 45 -23 30 -64 100 -118 174 -132 32 -6 39 -13 58
-61 26 -61 76 -109 133 -126 32 -9 39 -16 44 -47 14 -74 77 -158 132 -175 15
-5 21 -19 25 -60 7 -68 36 -126 83 -165 36 -29 37 -32 35 -89 -3 -70 16 -123
61 -169 28 -29 30 -34 19 -64 -20 -58 -13 -121 20 -187 30 -60 30 -61 12 -94
-25 -47 -23 -142 3 -194 l20 -41 -22 -27 c-41 -47 -56 -140 -33 -205 10 -28 8
-34 -20 -66 -47 -54 -63 -100 -59 -172 2 -35 1 -63 -3 -63 -4 0 -25 -19 -48
-41 -41 -42 -71 -112 -71 -170 0 -21 -9 -32 -43 -52 -50 -30 -94 -87 -103
-137 -10 -53 -21 -68 -53 -75 -47 -10 -118 -80 -138 -135 -16 -44 -20 -48 -55
-53 -62 -8 -125 -52 -156 -107 -19 -35 -32 -48 -43 -44 -50 15 -166 -39 -203
-95 -19 -28 -23 -29 -73 -24 -63 7 -128 -15 -178 -58 -31 -28 -33 -28 -89 -17
-66 14 -132 1 -181 -36 l-31 -24 -38 20 c-54 28 -141 28 -196 0 l-43 -21 -31
24 c-50 38 -115 51 -182 37 -56 -11 -58 -11 -89 17 -50 43 -115 65 -178 58
-51 -5 -55 -4 -70 22 -32 55 -155 112 -206 97 -11 -4 -24 9 -43 44 -31 56
-111 110 -163 110 -27 0 -32 5 -48 49 -20 56 -91 126 -141 139 -26 7 -32 16
-47 64 -21 72 -50 112 -103 143 -41 24 -44 28 -49 81 -7 66 -45 136 -91 166
-31 20 -32 23 -28 78 5 72 -9 116 -53 168 -31 35 -34 44 -25 67 24 62 5 171
-37 217 -15 17 -15 21 3 60 25 55 25 141 0 195 -18 41 -18 42 1 70 42 59 55
146 32 212 -10 29 -9 34 15 56 43 40 68 107 65 174 -2 56 -1 60 35 91 48 43
76 99 83 166 4 41 10 55 25 60 55 17 118 101 132 175 6 31 11 37 47 48 52 16
120 83 138 137 13 39 17 42 66 53 61 14 134 71 155 121 10 25 18 30 48 30 63
0 115 22 164 71 47 47 48 48 111 47 70 0 131 24 172 68 20 21 26 23 54 13 54
-19 153 -7 197 23 22 15 40 27 40 27 1 1 21 -8 45 -19z"/>
<path d="M6397 8003 c-8 -21 -17 -54 -21 -74 l-6 -36 -73 -7 c-39 -4 -80 -9
-89 -12 -13 -4 -23 9 -42 49 -14 30 -35 62 -46 72 -30 28 -44 6 -50 -77 l-5
-70 -85 -28 c-77 -25 -86 -26 -94 -11 -5 9 -29 36 -54 61 -43 43 -44 44 -59
25 -9 -13 -12 -32 -8 -55 3 -19 8 -49 11 -66 5 -30 2 -33 -73 -77 l-78 -46
-35 33 c-96 92 -140 66 -86 -51 l25 -52 -68 -60 -68 -61 -54 30 c-52 28 -89
37 -102 24 -9 -9 19 -72 49 -111 24 -32 25 -35 10 -56 -9 -12 -33 -46 -53 -75
-26 -38 -41 -51 -52 -46 -39 17 -117 33 -133 28 -29 -9 -21 -32 33 -90 l52
-54 -36 -77 -35 -78 -71 4 c-117 5 -128 -27 -29 -90 29 -18 55 -34 57 -36 2
-1 -4 -41 -14 -87 l-18 -85 -46 -6 c-77 -11 -111 -25 -111 -45 0 -22 20 -34
93 -59 l50 -17 1 -88 1 -87 -51 -18 c-69 -23 -105 -47 -98 -66 7 -18 65 -35
117 -35 42 0 41 3 66 -103 l18 -77 -51 -29 c-28 -16 -60 -39 -71 -51 -20 -22
-20 -22 0 -37 15 -11 36 -13 90 -9 l70 6 36 -78 36 -78 -54 -51 c-81 -78 -69
-114 29 -88 29 8 62 17 73 20 16 4 27 -5 52 -42 18 -27 40 -58 49 -70 16 -22
15 -25 -8 -55 -33 -43 -58 -93 -58 -114 0 -24 59 -13 118 24 l47 29 67 -60 67
-59 -24 -49 c-59 -115 -26 -151 69 -75 31 26 58 46 62 46 3 0 37 -19 76 -42
59 -35 69 -44 63 -62 -14 -46 -18 -143 -6 -150 18 -12 58 20 94 74 17 27 37
48 42 45 6 -2 43 -14 82 -27 l73 -23 0 -62 c0 -71 13 -113 35 -113 17 0 57 59
76 113 11 30 17 37 34 33 11 -2 50 -8 87 -11 l67 -7 6 -42 c9 -51 40 -126 54
-126 19 0 42 48 54 108 l11 59 86 10 c57 6 86 6 89 -1 25 -64 70 -131 88 -134
24 -4 31 18 36 116 l2 54 75 24 c91 29 97 29 105 5 8 -27 80 -101 98 -101 9 0
18 9 22 20 6 18 -6 105 -19 140 -4 11 16 27 70 57 l76 43 46 -39 c110 -91 139
-73 87 54 -14 33 -25 61 -25 61 0 1 29 27 64 58 l64 56 67 -35 c73 -38 90 -42
98 -21 6 16 -23 78 -56 120 l-24 30 50 68 c27 37 55 68 61 68 7 0 33 -7 59
-16 25 -8 58 -14 74 -12 46 5 40 33 -21 92 l-56 54 36 76 36 76 79 -3 c95 -3
115 10 79 48 -13 14 -44 37 -69 52 -25 14 -47 27 -49 28 -1 1 2 15 7 31 6 16
15 54 21 85 l11 56 60 6 c33 3 71 13 85 22 24 16 25 18 9 35 -10 11 -45 28
-79 40 l-62 20 2 88 3 87 56 20 c30 12 65 29 76 39 19 16 20 20 6 33 -8 8 -46
20 -85 26 l-69 11 -12 65 c-7 37 -14 76 -17 87 -5 17 5 27 50 52 58 33 85 67
68 84 -6 6 -43 9 -85 6 l-76 -3 -35 80 -35 80 50 50 c58 60 65 95 20 95 -16 0
-48 -7 -71 -15 -23 -8 -48 -15 -54 -15 -11 0 -106 128 -106 142 0 3 16 29 35
58 35 51 43 84 26 94 -12 8 -68 -12 -111 -39 l-35 -22 -68 61 -67 61 25 60
c28 69 31 93 11 101 -19 7 -48 -9 -96 -52 l-39 -35 -80 46 -79 46 9 32 c5 17
9 53 9 79 0 40 -3 48 -19 48 -17 0 -77 -57 -97 -93 -8 -14 -19 -13 -96 11
l-86 26 -4 73 c-6 115 -45 117 -95 4 -20 -45 -27 -52 -46 -48 -12 3 -52 9 -89
12 l-67 7 -11 52 c-23 99 -57 123 -83 59z m-37 -217 l0 -53 -46 -7 c-79 -10
-81 -10 -93 38 -17 71 -26 65 112 74 26 2 27 1 27 -52z m283 34 c4 -4 3 -28
-4 -54 -12 -50 -20 -53 -101 -40 l-38 7 0 54 0 54 68 -7 c37 -4 71 -10 75 -14z
m-561 -65 c1 -19 2 -42 2 -51 1 -11 -12 -22 -34 -29 -83 -29 -77 -30 -105 24
l-25 50 63 20 c89 29 97 28 99 -14z m782 15 c36 -12 66 -25 66 -31 0 -14 -39
-89 -47 -89 -3 0 -31 8 -61 17 l-54 17 6 36 c3 19 6 43 6 53 0 22 4 21 84 -3z
m-1041 -137 l16 -42 -52 -30 -52 -31 -33 37 c-18 20 -31 41 -29 47 5 15 121
76 128 68 3 -4 13 -26 22 -49z m1356 -18 c11 -11 8 -19 -21 -50 l-35 -38 -51
29 c-55 31 -55 30 -26 100 l14 33 53 -30 c28 -17 58 -37 66 -44z m-821 9 l3
-52 -46 -7 c-26 -3 -48 -5 -50 -3 -2 2 -7 27 -11 55 l-6 52 33 4 c70 9 74 7
77 -49z m229 46 c24 0 25 -1 18 -52 -4 -29 -9 -55 -11 -57 -2 -2 -24 0 -49 3
l-45 7 0 56 0 56 31 -7 c17 -3 43 -6 56 -6z m-472 -96 c6 -39 5 -42 -22 -52
-15 -5 -35 -13 -43 -16 -12 -5 -20 6 -34 44 -10 28 -17 52 -15 54 2 2 24 10
49 18 51 17 54 15 65 -48z m720 36 c14 -5 25 -12 25 -15 0 -4 -31 -87 -35 -92
-1 -2 -22 4 -47 13 l-46 15 10 37 c5 20 11 43 14 51 4 13 26 11 79 -9z m-955
-110 c11 -21 20 -43 20 -49 0 -8 -63 -51 -75 -51 -2 0 -17 19 -33 43 l-30 42
42 27 c22 15 44 27 48 27 4 1 17 -17 28 -39z m1210 -19 c0 -12 -51 -81 -60
-81 -5 0 -25 9 -44 21 l-35 21 24 48 25 49 45 -25 c25 -14 45 -29 45 -33z
m-1505 5 l26 -45 -42 -38 c-23 -21 -45 -38 -48 -38 -4 0 -24 15 -46 32 l-39
33 54 49 c30 28 58 50 62 51 4 0 19 -20 33 -44z m1798 -93 c-21 -18 -43 -32
-48 -33 -6 0 -28 18 -49 39 l-39 40 27 46 27 45 60 -52 60 -52 -38 -33z
m-1011 71 c12 -84 30 -129 54 -132 26 -4 49 47 60 127 4 28 10 54 15 56 4 3
25 3 46 -1 l39 -6 -1 -89 c0 -70 3 -92 17 -105 16 -16 18 -15 40 9 13 14 35
54 49 89 28 67 35 71 91 49 l25 -9 -19 -77 c-40 -156 15 -170 107 -27 15 23
31 42 36 42 4 0 23 -9 42 -20 l34 -20 -28 -56 c-51 -100 -49 -161 4 -137 12 6
48 33 78 61 l55 50 32 -29 33 -30 -46 -60 c-73 -98 -73 -142 1 -116 22 7 61
28 86 45 l46 32 26 -35 c14 -18 26 -37 26 -42 0 -4 -18 -21 -40 -36 -50 -36
-94 -92 -86 -112 8 -21 49 -18 128 8 l66 23 16 -33 c22 -47 21 -50 -26 -74
-151 -76 -143 -134 15 -113 37 6 70 7 72 3 2 -3 7 -23 10 -45 l7 -39 -67 -19
c-37 -11 -79 -29 -93 -41 -23 -19 -23 -22 -8 -37 14 -15 50 -22 151 -30 29 -3
30 -5 30 -48 l0 -45 -74 -7 c-41 -4 -85 -15 -97 -23 -42 -27 -16 -49 96 -86
58 -18 60 -22 45 -86 -5 -21 -9 -22 -53 -15 -69 10 -130 8 -144 -6 -16 -16 20
-54 93 -95 l56 -32 -17 -41 -18 -41 -72 24 c-83 28 -114 27 -118 -3 -2 -15 15
-37 58 -77 65 -61 67 -70 22 -110 -20 -18 -21 -18 -61 8 -55 37 -113 56 -128
43 -17 -14 6 -67 52 -123 l34 -42 -34 -33 -34 -33 -49 45 c-57 54 -88 72 -109
64 -20 -8 -12 -49 22 -124 14 -30 22 -58 19 -63 -3 -5 -19 -16 -37 -25 -31
-17 -32 -16 -52 12 -38 54 -104 116 -116 109 -11 -8 -8 -107 7 -166 5 -23 2
-28 -27 -38 -17 -6 -37 -11 -43 -11 -6 0 -24 29 -39 64 -16 35 -37 72 -49 82
-19 18 -20 18 -34 -1 -9 -12 -14 -45 -14 -96 l0 -77 -41 -7 c-22 -4 -43 -4
-47 0 -4 3 -12 33 -19 67 -13 66 -38 111 -56 105 -18 -5 -36 -48 -49 -114 -6
-32 -12 -59 -14 -61 -1 -2 -22 0 -47 3 l-45 7 5 52 c6 58 -12 136 -31 136 -20
0 -43 -30 -72 -95 -14 -33 -27 -61 -29 -63 -2 -2 -22 2 -45 9 -34 11 -40 16
-36 33 30 119 30 176 2 176 -17 0 -60 -43 -98 -98 l-29 -43 -37 22 c-20 13
-38 23 -40 24 -1 1 11 31 28 66 60 126 25 159 -73 69 -30 -27 -59 -50 -64 -50
-5 0 -22 13 -38 30 l-29 30 21 22 c67 75 93 148 53 148 -23 0 -115 -44 -141
-67 -15 -13 -20 -11 -43 20 -14 19 -26 37 -26 40 0 3 27 31 60 63 87 83 79
116 -22 89 -29 -7 -65 -18 -80 -24 -26 -10 -29 -8 -49 30 -11 23 -19 42 -17
43 2 2 27 16 56 31 73 40 106 73 90 93 -10 11 -30 13 -100 10 -49 -3 -90 -3
-92 1 -2 3 -6 22 -10 42 l-7 37 70 21 c38 11 79 30 92 40 22 18 23 21 8 36
-10 10 -49 21 -100 28 l-84 12 -3 42 -3 41 58 6 c72 8 135 27 141 43 5 17 -52
51 -121 70 -57 16 -59 18 -53 46 3 16 6 36 6 43 0 12 17 13 93 9 163 -11 157
22 -28 130 -16 10 -16 12 1 48 10 20 20 37 24 37 3 0 31 -9 63 -20 55 -20 118
-26 130 -14 12 12 -14 49 -73 104 l-59 55 28 34 28 34 68 -42 c67 -40 108 -51
119 -32 10 15 -13 62 -56 120 l-40 53 31 31 31 31 37 -35 c61 -57 94 -79 121
-79 23 0 24 3 19 35 -3 20 -20 63 -36 97 -17 34 -30 62 -29 63 2 1 20 11 40
24 l37 22 32 -48 c45 -68 80 -103 101 -103 15 0 18 9 18 53 0 30 -6 75 -14
101 -16 52 -9 61 48 68 25 3 30 -2 50 -53 31 -75 55 -109 76 -109 25 0 33 31
32 122 -1 84 2 88 68 84 22 -1 26 -7 32 -52z m-698 -183 l-36 -33 -40 38 -39
39 41 37 42 38 34 -43 34 -42 -36 -34z m1586 74 l34 -35 -36 -36 -36 -37 -36
28 c-20 15 -36 30 -36 34 0 10 60 81 69 81 4 0 22 -16 41 -35z m-1871 -69 l33
-34 -22 -34 c-48 -68 -45 -67 -95 -44 -24 12 -44 25 -45 30 0 12 79 116 88
116 5 0 23 -15 41 -34z m2167 -28 l45 -62 -43 -23 c-24 -12 -46 -22 -50 -23
-3 0 -22 21 -41 48 l-36 47 37 38 c20 20 37 37 39 37 2 0 24 -28 49 -62z
m-2049 -81 l36 -34 -28 -37 -27 -36 -37 22 c-20 11 -40 25 -45 29 -9 8 43 88
57 89 4 0 24 -15 44 -33z m1943 -52 c0 -5 -19 -22 -42 -37 l-41 -26 -28 36
-28 37 41 38 41 37 28 -37 c16 -21 29 -42 29 -48z m-2215 -72 c22 -14 41 -27
43 -28 1 -1 -9 -27 -23 -57 l-25 -56 -43 11 c-23 5 -46 13 -51 18 -9 8 40 139
53 139 3 0 24 -12 46 -27z m2465 -49 c17 -36 30 -67 30 -69 0 -3 -85 -25 -98
-25 -8 0 -52 88 -52 104 0 7 72 56 83 56 4 0 21 -30 37 -66z m-2297 -93 c-8
-20 -18 -39 -22 -43 -5 -6 -80 15 -99 28 -2 1 6 25 18 53 l22 51 48 -27 47
-27 -14 -35z m2152 29 c21 -46 18 -50 -41 -73 l-42 -16 -17 45 c-9 25 -16 47
-14 48 12 11 85 43 90 41 3 -2 14 -22 24 -45z m-2412 -151 c41 -14 42 -16 26
-89 l-11 -50 -51 6 c-29 4 -53 8 -55 9 -2 1 5 35 14 74 10 45 20 71 27 68 7
-2 29 -10 50 -18z m2644 -55 c18 -87 19 -84 -40 -84 l-54 0 -12 56 c-7 30 -11
57 -9 60 9 8 83 32 93 30 5 -1 15 -29 22 -62z m-2491 5 c30 -8 43 -16 40 -25
-3 -7 -8 -29 -12 -49 -5 -26 -11 -35 -21 -31 -8 3 -27 6 -41 6 -46 0 -52 10
-40 63 11 52 10 52 74 36z m2339 -55 c6 -40 6 -41 -26 -48 -63 -12 -76 -8 -83
25 -10 53 -8 58 42 72 53 16 56 14 67 -49z m-2498 -177 c1 -1 3 -29 4 -62 l3
-60 -48 -8 c-27 -4 -51 -6 -53 -3 -10 9 -16 95 -9 121 7 26 9 27 54 20 26 -4
48 -8 49 -8z m2683 -50 c0 -84 -7 -97 -44 -91 -76 13 -71 8 -68 73 l4 60 36 7
c21 3 42 7 47 8 20 6 25 -6 25 -57z m-2522 -8 l3 -47 -45 -6 c-25 -4 -50 -4
-56 -1 -5 3 -10 29 -10 56 l0 50 53 -3 52 -3 3 -46z m2362 -8 c0 -28 -3 -52
-7 -54 -5 -2 -29 -2 -55 1 l-48 4 0 49 0 49 55 0 55 0 0 -49z m-2340 -188 c0
-5 4 -25 9 -46 10 -42 6 -46 -66 -61 -31 -7 -32 -7 -38 38 -10 62 -10 60 32
67 58 9 63 10 63 2z m2317 -17 c2 -1 -18 -100 -21 -103 -1 -1 -24 4 -51 11
-53 14 -55 18 -40 84 6 22 9 23 58 17 29 -4 53 -8 54 -9z m-2471 -23 c3 -16 9
-42 14 -59 7 -30 6 -32 -43 -52 -28 -12 -51 -21 -53 -19 -6 8 -32 142 -28 149
3 4 27 8 54 8 46 0 50 -2 56 -27z m2630 0 c-2 -10 -10 -44 -16 -75 -6 -32 -14
-58 -18 -58 -4 0 -28 8 -55 17 -33 12 -46 21 -43 32 3 9 10 35 16 59 l11 42
55 0 c48 0 55 -2 50 -17z m-2393 -225 c9 -23 16 -42 14 -44 -9 -8 -90 -45 -92
-42 -9 11 -46 91 -42 94 5 6 80 32 93 33 6 1 18 -18 27 -41z m2163 2 c2 0 -7
-23 -21 -50 l-26 -51 -42 25 c-47 29 -47 27 -28 78 l14 36 49 -19 c27 -10 51
-19 54 -19z m-2321 -40 c38 -74 38 -77 -11 -110 l-45 -30 -30 65 c-16 35 -29
69 -29 73 0 7 50 24 92 31 4 0 14 -12 23 -29z m2431 9 c39 -10 44 -14 38 -33
-9 -30 -53 -116 -59 -116 -16 0 -85 55 -82 64 44 109 35 102 103 85z m-2154
-173 l27 -34 -43 -36 -43 -35 -32 44 -32 44 38 25 c21 14 43 25 48 25 6 1 22
-14 37 -33z m1878 8 c22 -15 40 -29 40 -32 0 -10 -52 -82 -59 -82 -3 0 -23 15
-44 33 l-38 32 27 38 c15 20 29 37 31 37 2 0 21 -12 43 -26z m-2010 -99 l32
-46 -34 -39 c-18 -21 -35 -39 -38 -39 -7 -1 -93 119 -89 123 8 7 84 45 91 46
4 0 21 -20 38 -45z m2170 -48 c-66 -90 -55 -85 -97 -46 -21 19 -39 35 -41 36
-2 1 13 24 34 51 l37 51 49 -25 49 -25 -31 -42z m-1881 -33 c34 -28 33 -33
-13 -88 l-24 -28 -38 35 -39 36 34 35 c19 20 38 36 42 36 4 0 21 -12 38 -26z
m1578 -72 c-42 -46 -56 -47 -88 -10 -36 42 -36 51 3 82 l33 25 37 -36 38 -37
-23 -24z m-1648 -80 c5 -3 -14 -39 -38 -71 l-19 -24 -56 49 -57 49 43 37 43
37 40 -37 c22 -20 42 -38 44 -40z m1752 37 c21 -17 39 -34 39 -38 0 -4 -24
-28 -54 -54 l-55 -47 -30 45 -30 45 42 40 c23 22 44 40 46 40 2 0 21 -14 42
-31z m-1497 -20 c20 -12 36 -25 36 -30 0 -17 -41 -90 -48 -87 -58 28 -82 43
-82 50 0 9 50 88 56 88 1 0 19 -9 38 -21z m1186 -25 c18 -25 30 -47 28 -48
-19 -15 -77 -46 -85 -46 -12 0 -57 94 -46 97 4 2 22 12 38 22 17 11 31 20 32
20 1 1 16 -20 33 -45z m-930 -91 c0 -2 -5 -25 -11 -50 -11 -41 -14 -44 -38
-40 -14 3 -38 10 -53 16 l-27 10 21 49 21 50 44 -15 c23 -8 43 -17 43 -20z
m713 -20 c9 -25 16 -47 15 -48 -2 -1 -25 -9 -51 -18 -36 -12 -49 -13 -52 -4
-9 27 -24 91 -22 93 7 5 64 23 77 23 10 1 22 -17 33 -46z m-1004 -38 c0 -5 -6
-29 -15 -52 l-16 -42 -47 24 c-25 13 -55 30 -65 38 -19 14 -19 16 13 56 l33
41 48 -27 c27 -16 48 -32 49 -38z m1319 16 l32 -40 -60 -35 c-34 -20 -64 -36
-68 -36 -10 0 -44 92 -37 98 11 12 80 50 91 51 6 1 25 -17 42 -38z m-812 9
c10 0 14 -15 14 -56 l0 -57 -37 7 c-21 3 -46 6 -56 6 -15 0 -16 6 -11 43 9 68
11 70 45 63 18 -3 38 -6 45 -6z m258 -41 c4 -28 5 -53 3 -55 -2 -2 -26 -5 -53
-6 l-49 -3 -3 52 -3 52 33 4 c18 2 40 5 49 5 12 2 18 -10 23 -49z m-554 -60
l42 -13 -6 -49 c-3 -27 -8 -52 -11 -55 -3 -3 -37 4 -75 17 l-70 22 26 50 c16
32 30 49 39 46 7 -3 32 -11 55 -18z m855 -29 l25 -50 -27 -11 c-45 -17 -112
-33 -117 -28 -2 2 -6 26 -8 53 l-3 49 50 18 c28 9 51 18 52 18 2 1 14 -22 28
-49z m-591 -26 l46 -7 0 -54 0 -54 -62 6 c-90 9 -88 8 -77 52 19 72 12 68 93
57z m324 -41 c6 -27 8 -51 4 -54 -4 -4 -38 -10 -75 -14 l-68 -7 3 54 c3 52 4
53 38 59 82 15 86 13 98 -38z"/>
<path d="M6384 7216 c-108 -47 -72 -209 46 -209 117 0 152 164 45 209 -42 17
-51 17 -91 0z"/>
<path d="M6093 7150 c-43 -26 -60 -84 -39 -134 38 -92 178 -84 207 12 29 99
-78 177 -168 122z"/>
<path d="M6653 7154 c-40 -20 -67 -74 -59 -119 16 -82 128 -115 187 -56 52 52
36 141 -31 176 -36 19 -57 19 -97 -1z"/>
<path d="M5884 6996 c-43 -19 -64 -53 -64 -104 0 -35 6 -49 29 -73 59 -59 171
-26 187 56 8 46 -19 99 -61 119 -40 19 -51 19 -91 2z"/>
<path d="M6854 6966 c-28 -28 -34 -42 -34 -76 0 -34 6 -48 34 -76 46 -46 101
-48 148 -5 29 26 33 35 33 81 0 46 -4 55 -33 81 -47 43 -102 41 -148 -5z"/>
<path d="M6335 6908 c-81 -15 -174 -66 -236 -128 -185 -185 -185 -475 0 -660
182 -182 474 -180 656 4 101 102 142 214 132 364 -12 202 -164 375 -364 417
-76 16 -116 17 -188 3z m225 -65 c105 -35 196 -119 247 -229 25 -53 28 -70 28
-164 0 -98 -2 -110 -32 -173 -80 -168 -265 -268 -441 -237 -251 44 -407 291
-333 529 71 227 306 348 531 274z"/>
<path d="M6316 6745 c-78 -30 -134 -83 -174 -165 -22 -45 -27 -69 -27 -130 1
-99 29 -163 101 -229 155 -142 393 -96 492 94 23 43 27 63 27 135 0 73 -4 92
-27 136 -33 62 -74 105 -136 141 -38 23 -59 27 -131 30 -58 2 -99 -2 -125 -12z"/>
<path d="M5757 6760 c-39 -12 -58 -29 -74 -68 -43 -104 94 -196 176 -118 38
36 46 74 27 119 -22 54 -77 82 -129 67z"/>
<path d="M7024 6750 c-67 -27 -87 -129 -35 -181 59 -59 171 -26 186 55 17 87
-70 159 -151 126z"/>
<path d="M5711 6478 c-91 -49 -83 -173 13 -205 105 -36 188 100 109 178 -34
34 -87 46 -122 27z"/>
<path d="M7040 6463 c-52 -36 -68 -84 -46 -137 19 -45 52 -66 102 -66 52 0 90
28 105 79 28 93 -83 178 -161 124z"/>
<path d="M5794 6211 c-36 -16 -64 -60 -64 -103 0 -32 7 -47 34 -74 28 -28 42
-34 76 -34 34 0 48 6 76 34 45 45 47 101 7 146 -30 34 -89 48 -129 31z"/>
<path d="M6929 6181 c-60 -60 -26 -171 58 -187 109 -21 177 119 92 190 -45 38
-110 36 -150 -3z"/>
<path d="M5975 5998 c-37 -20 -55 -51 -55 -99 0 -133 186 -150 215 -20 18 85
-84 161 -160 119z"/>
<path d="M6774 5996 c-43 -19 -64 -53 -64 -102 0 -52 28 -90 79 -105 93 -28
174 76 125 160 -30 50 -88 70 -140 47z"/>
<path d="M6253 5893 c-35 -7 -83 -68 -83 -106 0 -77 73 -131 145 -107 78 26
102 119 46 179 -16 17 -36 31 -44 31 -9 0 -21 2 -29 4 -7 2 -23 1 -35 -1z"/>
<path d="M6491 5864 c-60 -50 -48 -147 23 -180 119 -57 216 105 112 188 -33
27 -98 23 -135 -8z"/>
<path d="M11310 8527 c-19 -6 -50 -27 -70 -47 -95 -95 -69 -254 52 -314 28
-14 68 -26 88 -26 59 0 136 45 166 97 37 62 41 117 14 181 -42 98 -144 143
-250 109z"/>
<path d="M4035 8495 c-54 -53 -16 -145 59 -145 79 0 119 88 66 145 -32 34 -91
35 -125 0z"/>
<path d="M8699 8491 c-20 -20 -29 -39 -29 -61 0 -37 47 -90 79 -90 94 0 132
123 50 165 -42 22 -67 18 -100 -14z"/>
<path d="M10845 8501 c-158 -42 -315 -119 -315 -155 0 -35 115 -26 263 20 147
47 261 114 242 143 -10 17 -112 12 -190 -8z"/>
<path d="M915 8473 c-92 -9 -215 -36 -287 -64 -43 -17 -80 -33 -82 -37 -2 -4
28 -5 67 -4 38 2 121 -1 183 -7 348 -34 620 -185 794 -441 55 -81 132 -166
211 -233 64 -55 65 -57 68 -109 3 -73 17 -113 52 -143 48 -40 115 -29 179 31
l25 23 101 -34 c190 -64 301 -80 544 -79 118 0 235 5 260 10 45 10 45 10 83
-32 101 -114 277 -49 277 102 0 171 -227 220 -302 65 l-23 -47 -90 13 c-231
33 -510 112 -679 192 l-86 40 0 56 c0 68 -18 114 -56 144 -38 30 -100 24 -150
-14 l-36 -27 -55 53 c-30 30 -83 90 -118 135 -163 208 -370 342 -595 387 -82
17 -223 27 -285 20z"/>
<path d="M2797 8450 c-73 -57 -16 -175 75 -155 36 8 68 49 68 87 0 40 -48 88
-88 88 -16 0 -41 -9 -55 -20z"/>
<path d="M3083 8389 c-55 -27 -83 -72 -83 -133 0 -177 233 -225 296 -61 30 81
-2 160 -80 196 -53 24 -82 24 -133 -2z"/>
<path d="M12245 8293 c-209 -160 -435 -249 -657 -260 -130 -7 -226 7 -368 53
-128 41 -219 60 -327 69 -80 7 -83 8 -107 44 -90 127 -230 112 -254 -28 l-7
-44 -105 -34 c-137 -43 -361 -156 -475 -238 -49 -35 -127 -99 -173 -141 -80
-73 -83 -75 -114 -65 -72 25 -154 -4 -192 -68 -24 -42 -26 -114 -3 -158 55
-104 209 -110 274 -11 23 35 25 45 20 107 l-6 69 157 75 c225 107 438 181 624
215 46 9 46 9 83 -35 21 -25 52 -53 69 -64 73 -44 156 -8 177 78 l12 45 61 -7
c34 -4 106 -20 161 -35 167 -47 215 -54 350 -54 98 1 151 6 218 22 213 52 404
173 540 340 54 67 123 171 116 176 -2 1 -35 -22 -74 -51z"/>
<path d="M10035 8255 c-17 -16 -25 -35 -25 -60 0 -25 8 -44 25 -60 16 -17 35
-25 60 -25 25 0 44 8 60 25 17 16 25 35 25 60 0 25 -8 44 -25 60 -16 17 -35
25 -60 25 -25 0 -44 -8 -60 -25z"/>
<path d="M3963 8255 c-115 -83 208 -420 476 -499 209 -61 231 75 43 263 -169
169 -442 293 -519 236z"/>
<path d="M8717 8246 c-221 -79 -476 -313 -477 -438 0 -185 493 49 638 302 79
137 9 196 -161 136z"/>
<path d="M1711 8251 c-48 -31 161 -175 341 -235 88 -30 116 -32 125 -10 25 65
-398 288 -466 245z"/>
<path d="M9732 8160 c-46 -29 -72 -76 -72 -134 0 -195 285 -208 307 -14 7 57
-23 118 -70 147 -45 28 -120 28 -165 1z"/>
<path d="M3752 8107 c-51 -55 -12 -147 63 -147 74 0 111 84 64 144 -28 35 -95
37 -127 3z"/>
<path d="M8978 8100 c-26 -27 -30 -36 -25 -67 9 -51 38 -78 87 -78 55 0 85 31
85 86 0 33 -6 46 -28 65 -39 34 -81 31 -119 -6z"/>
<path d="M1235 8006 c-53 -20 -111 -83 -125 -136 -35 -132 78 -263 213 -247
147 18 225 184 144 306 -47 71 -152 106 -232 77z"/>
<path d="M2554 7876 c-59 -26 -66 -112 -12 -150 58 -41 138 3 138 75 0 33 -20
60 -55 75 -40 16 -32 16 -71 0z"/>
<path d="M2834 7851 c-77 -47 -100 -122 -62 -198 33 -66 66 -88 136 -88 71 0
116 29 144 92 33 76 3 159 -73 198 -39 21 -108 19 -145 -4z"/>
<path d="M3718 7850 c-16 -12 -28 -30 -28 -41 0 -56 92 -162 201 -232 191
-122 425 -185 502 -134 143 93 -274 408 -563 424 -76 5 -88 3 -112 -17z"/>
<path d="M8921 7854 c-141 -38 -297 -123 -397 -216 -72 -68 -94 -102 -94 -147
0 -109 239 -79 488 60 105 60 228 180 238 233 6 35 4 42 -20 63 -23 19 -38 23
-94 22 -37 0 -91 -7 -121 -15z"/>
<path d="M11044 7776 c-150 -24 -264 -68 -264 -100 0 -21 24 -26 125 -26 145
0 351 47 389 89 15 16 15 20 2 30 -22 19 -159 22 -252 7z"/>
<path d="M11540 7724 c-176 -76 -154 -324 33 -375 80 -21 178 24 217 101 22
43 26 122 9 167 -36 95 -164 148 -259 107z"/>
<path d="M3564 7700 c-47 -19 -70 -93 -41 -131 54 -70 157 -38 157 49 0 61
-62 105 -116 82z"/>
<path d="M9199 7671 c-35 -35 -38 -77 -9 -114 43 -54 128 -39 149 26 31 92
-72 155 -140 88z"/>
<path d="M10285 7678 c-11 -6 -26 -18 -32 -26 -14 -17 -17 -69 -7 -97 8 -19
55 -45 84 -45 33 0 80 53 80 90 0 22 -9 41 -29 61 -31 30 -62 36 -96 17z"/>
<path d="M9933 7610 c-47 -31 -77 -99 -68 -156 8 -58 66 -120 120 -130 154
-29 251 154 141 265 -32 31 -42 35 -98 38 -51 3 -69 0 -95 -17z"/>
<path d="M690 7591 c-47 -10 -120 -32 -163 -49 -80 -31 -222 -110 -214 -119 3
-2 22 0 43 6 152 39 425 38 584 -2 189 -49 310 -120 489 -291 108 -103 217
-186 284 -217 20 -9 27 -19 27 -39 0 -42 28 -112 57 -142 57 -60 137 -42 197
43 l15 22 98 -16 c268 -44 565 -24 800 54 l63 21 30 -31 c102 -101 270 -30
270 114 0 92 -62 155 -153 155 -80 0 -148 -52 -161 -123 -6 -32 -11 -36 -47
-42 -116 -20 -535 24 -734 76 -100 26 -115 34 -115 63 0 35 -28 108 -51 132
-53 56 -118 52 -179 -11 l-33 -34 -45 31 c-25 18 -93 73 -150 125 -161 143
-273 209 -438 259 -121 36 -345 43 -474 15z"/>
<path d="M10810 7588 c-24 -16 -41 -40 -55 -75 l-20 -51 -85 -11 c-252 -35
-542 -148 -735 -287 l-74 -52 -38 19 c-71 37 -155 15 -207 -55 -29 -39 -29
-133 0 -173 75 -101 201 -98 272 7 19 29 23 44 20 87 l-5 52 93 30 c218 73
479 126 672 137 l107 6 24 -46 c48 -93 129 -136 190 -100 16 10 41 39 55 65
l26 47 58 -17 c31 -10 100 -37 152 -60 132 -60 221 -89 319 -106 254 -45 505
12 734 167 62 42 227 200 227 217 0 6 -37 -10 -82 -34 -367 -193 -747 -205
-1053 -34 -79 44 -188 86 -285 110 l-90 22 -29 53 c-53 93 -127 125 -191 82z"/>
<path d="M1485 7489 c-12 -18 36 -59 111 -94 131 -62 347 -111 384 -86 26 18
-1 43 -100 94 -143 71 -373 122 -395 86z"/>
<path d="M3575 7436 c-124 -47 -62 -154 150 -256 139 -68 226 -91 365 -96 98
-5 120 -3 150 13 29 15 36 24 38 55 3 33 -3 44 -44 88 -58 62 -203 137 -339
175 -114 33 -262 42 -320 21z"/>
<path d="M9054 7440 c-164 -30 -364 -121 -439 -201 -40 -43 -46 -54 -43 -87 2
-31 9 -40 38 -55 30 -16 52 -18 150 -14 138 6 226 29 365 96 192 93 266 198
172 248 -38 20 -166 26 -243 13z"/>
<path d="M2695 7296 c-51 -23 -87 -69 -92 -120 -7 -60 1 -89 37 -130 59 -67
164 -67 227 0 56 59 56 147 2 209 -45 51 -115 67 -174 41z"/>
<path d="M2369 7241 c-20 -20 -29 -39 -29 -61 0 -37 47 -90 80 -90 67 0 111
65 85 126 -24 59 -90 71 -136 25z"/>
<path d="M3391 7224 c-37 -31 -42 -78 -11 -117 63 -80 185 -6 146 88 -25 60
-84 72 -135 29z"/>
<path d="M9345 7215 c-56 -55 -16 -145 63 -145 51 0 82 32 82 84 0 50 -36 86
-85 86 -25 0 -44 -8 -60 -25z"/>
<path d="M1082 7189 c-18 -6 -50 -27 -72 -49 -72 -72 -79 -177 -16 -263 26
-35 110 -77 155 -77 110 1 212 115 198 221 -17 125 -141 203 -265 168z"/>
<path d="M10075 7046 c-84 -37 -117 -133 -75 -215 26 -52 75 -81 136 -81 90 0
154 63 154 150 0 115 -113 191 -215 146z"/>
<path d="M10395 7035 c-54 -53 -16 -145 60 -145 50 0 85 36 85 89 0 31 -6 44
-26 60 -37 29 -89 27 -119 -4z"/>
<path d="M11046 7029 c-79 -11 -119 -27 -124 -51 -8 -40 237 -71 392 -49 182
26 177 79 -11 101 -101 11 -160 11 -257 -1z"/>
<path d="M3578 7008 c-110 -10 -178 -49 -178 -102 0 -28 59 -83 124 -115 234
-115 644 -118 672 -4 31 123 -320 248 -618 221z"/>
<path d="M9095 7009 c-316 -28 -553 -189 -395 -269 129 -66 433 -42 624 49 70
34 126 89 126 125 0 43 -68 83 -157 91 -32 3 -69 7 -83 9 -14 1 -65 -1 -115
-5z"/>
<path d="M11685 6911 c-100 -25 -156 -96 -156 -198 0 -73 37 -137 101 -171 65
-34 154 -29 206 14 62 50 78 78 82 147 3 51 -1 70 -20 107 -40 73 -136 119
-213 101z"/>
<path d="M10919 6877 c-18 -12 -44 -40 -56 -62 l-22 -39 -83 3 c-237 8 -530
-55 -767 -165 l-93 -44 -25 20 c-64 50 -151 44 -209 -14 -64 -64 -64 -158 0
-222 64 -64 158 -64 222 0 33 33 59 102 49 129 -5 11 8 17 57 26 235 42 465
56 659 42 82 -7 155 -14 162 -17 7 -2 21 -28 31 -56 10 -29 33 -67 51 -85 67
-67 137 -54 196 37 l16 25 54 -25 c29 -14 107 -60 173 -103 129 -83 222 -126
344 -159 111 -31 363 -31 472 -1 114 32 177 58 267 110 71 42 206 143 199 150
-1 1 -44 -11 -96 -28 -273 -88 -514 -98 -725 -32 -110 35 -192 78 -315 166
-101 72 -224 140 -303 168 -33 12 -42 23 -73 87 -52 108 -113 138 -185 89z"/>
<path d="M3319 6757 c-46 -35 -50 -88 -10 -128 41 -41 90 -40 125 2 14 17 26
39 26 50 0 28 -26 75 -45 83 -27 10 -79 6 -96 -7z"/>
<path d="M9440 6757 c-80 -41 -48 -167 42 -167 40 0 88 48 88 89 0 62 -75 107
-130 78z"/>
<path d="M815 6739 c-145 -19 -293 -73 -421 -154 -60 -38 -168 -125 -162 -131
2 -1 41 11 87 27 166 58 250 73 436 73 147 1 181 -2 255 -22 115 -31 245 -96
365 -182 99 -71 235 -146 307 -169 32 -11 39 -19 53 -62 10 -28 34 -68 54 -90
32 -33 44 -39 80 -39 52 0 85 21 117 75 l24 42 178 6 c253 8 469 59 676 161
l84 41 33 -25 c45 -35 139 -36 187 -2 43 31 65 77 66 133 0 121 -130 197 -236
137 -49 -28 -77 -73 -81 -129 l-3 -44 -99 -17 c-172 -29 -366 -41 -549 -35
-231 9 -234 9 -258 75 -11 29 -35 69 -54 88 -29 29 -42 34 -80 34 -39 0 -51
-5 -78 -32 -18 -18 -37 -41 -43 -51 -9 -18 -14 -17 -84 18 -40 21 -113 64
-160 96 -151 103 -295 157 -469 179 -95 11 -126 11 -225 -1z"/>
<path d="M1415 6722 c-86 -20 0 -78 168 -113 110 -22 284 -26 311 -6 17 12 17
15 2 29 -22 23 -117 57 -202 73 -88 17 -239 26 -279 17z"/>
<path d="M2598 6695 c-67 -45 -87 -152 -40 -214 92 -123 282 -68 284 82 2 125
-140 202 -244 132z"/>
<path d="M2309 6617 c-46 -35 -50 -88 -10 -128 41 -41 90 -40 125 2 14 17 26
39 26 50 0 28 -26 75 -45 83 -27 10 -79 6 -96 -7z"/>
<path d="M3630 6580 c-140 -20 -249 -72 -265 -126 -8 -29 33 -76 88 -102 100
-47 330 -67 485 -42 227 37 303 144 155 218 -93 47 -316 72 -463 52z"/>
<path d="M8950 6580 c-114 -14 -193 -42 -242 -88 -102 -95 90 -192 378 -192
184 0 325 37 377 100 35 41 34 56 -7 95 -77 72 -298 109 -506 85z"/>
<path d="M10082 6450 c-46 -29 -72 -76 -72 -134 0 -195 285 -208 307 -14 7 57
-23 118 -70 147 -45 28 -120 28 -165 1z"/>
<path d="M10443 6410 c-63 -38 -51 -129 21 -154 60 -22 124 34 112 99 -7 36
-51 75 -86 75 -8 0 -29 -9 -47 -20z"/>
<path d="M1066 6355 c-57 -20 -87 -46 -113 -95 -54 -102 -8 -230 99 -275 111
-46 242 23 268 142 18 78 -29 181 -99 217 -43 23 -111 28 -155 11z"/>
<path d="M10971 6287 c-13 -6 -24 -16 -24 -22 0 -17 77 -54 159 -75 105 -28
321 -38 348 -17 11 8 16 19 12 26 -38 61 -416 129 -495 88z"/>
<path d="M3306 6259 c-14 -17 -26 -41 -26 -54 0 -13 12 -37 26 -54 20 -25 34
-31 64 -31 30 0 44 6 64 31 30 35 32 58 11 98 -16 33 -33 41 -80 41 -25 0 -40
-8 -59 -31z"/>
<path d="M9433 6270 c-63 -38 -51 -129 21 -154 60 -22 124 34 112 99 -7 36
-51 75 -86 75 -8 0 -29 -9 -47 -20z"/>
<path d="M3730 6160 c-161 -34 -286 -95 -316 -153 -25 -48 -11 -75 54 -105 54
-26 65 -27 202 -26 114 0 164 5 232 22 227 56 355 166 272 231 -15 12 -49 28
-77 36 -71 21 -259 19 -367 -5z"/>
<path d="M8742 6161 c-98 -34 -115 -74 -59 -137 66 -77 256 -140 452 -150 350
-19 429 136 126 246 -165 61 -407 80 -519 41z"/>
<path d="M10925 6169 c-11 -6 -36 -28 -55 -50 l-35 -39 -80 17 c-60 13 -133
17 -295 17 -231 1 -347 -15 -509 -67 l-71 -23 -22 24 c-98 106 -278 38 -278
-106 0 -52 19 -91 60 -125 88 -75 221 -28 252 88 l13 48 200 -6 c110 -4 236
-11 280 -17 91 -12 288 -52 354 -72 43 -13 45 -15 55 -68 20 -96 67 -150 132
-150 34 0 78 24 103 56 l21 27 53 -35 c28 -19 90 -70 136 -112 112 -103 190
-158 303 -211 142 -67 243 -89 413 -89 161 1 264 21 398 79 79 34 181 94 174
102 -2 2 -46 -4 -98 -13 -127 -23 -357 -22 -464 1 -220 47 -344 115 -525 290
-114 109 -184 164 -273 215 -50 28 -57 36 -57 63 0 42 -42 130 -71 151 -26 18
-84 21 -114 5z"/>
<path d="M2645 6120 c-56 -29 -78 -64 -83 -130 -2 -42 2 -62 17 -88 64 -101
221 -96 273 8 68 134 -75 279 -207 210z"/>
<path d="M11608 6060 c-109 -58 -138 -205 -59 -301 39 -47 87 -69 149 -69 62
0 98 13 136 48 134 125 47 343 -136 342 -33 -1 -67 -8 -90 -20z"/>
<path d="M3067 6046 c-49 -18 -64 -32 -88 -79 -14 -26 -19 -54 -18 -85 l3 -46
-130 -42 c-234 -75 -489 -123 -656 -124 l-87 0 -17 33 c-73 141 -196 159 -250
37 -10 -22 -23 -40 -29 -40 -22 0 -111 33 -232 86 -148 65 -237 91 -363 104
-236 24 -496 -51 -692 -199 -60 -46 -203 -189 -196 -196 2 -2 51 20 109 48
197 98 362 140 549 141 183 1 281 -25 495 -130 123 -60 280 -114 330 -114 17
0 29 -11 45 -42 40 -78 91 -118 149 -118 41 0 97 51 112 101 13 42 17 44 104
54 218 24 520 141 725 280 82 57 83 57 111 41 16 -9 49 -16 81 -16 99 0 165
73 156 170 -10 106 -113 172 -211 136z"/>
<path d="M2341 5974 c-51 -43 -41 -119 18 -144 93 -38 167 80 90 144 -17 14
-41 26 -54 26 -13 0 -37 -12 -54 -26z"/>
<path d="M1495 5950 c-106 -23 -122 -48 -47 -77 39 -15 76 -18 222 -18 193 1
255 13 255 50 0 34 -63 48 -235 51 -85 2 -173 -1 -195 -6z"/>
<path d="M10035 5876 c-64 -28 -105 -106 -91 -173 17 -77 77 -123 158 -123
156 0 207 218 68 291 -40 22 -92 24 -135 5z"/>
<path d="M3405 5808 c-32 -18 -44 -40 -45 -80 0 -28 7 -42 31 -62 17 -14 41
-26 54 -26 13 0 37 12 54 26 79 66 -5 193 -94 142z"/>
<path d="M3993 5795 c-220 -40 -458 -172 -478 -266 -14 -61 39 -89 168 -89
158 0 334 54 477 145 77 50 107 81 119 123 25 84 -97 121 -286 87z"/>
<path d="M8646 5799 c-54 -13 -76 -35 -76 -76 0 -80 197 -206 405 -259 83 -21
119 -25 207 -22 97 3 109 5 132 27 14 14 26 33 26 44 0 143 -473 338 -694 286z"/>
<path d="M9345 5785 c-33 -32 -34 -93 -2 -122 57 -54 147 -15 147 62 0 25 -8
44 -25 60 -16 17 -35 25 -60 25 -25 0 -44 -8 -60 -25z"/>
<path d="M10365 5765 c-34 -33 -34 -93 -2 -123 33 -31 90 -30 122 3 54 53 16
145 -60 145 -25 0 -44 -8 -60 -25z"/>
<path d="M9560 5579 c-122 -51 -134 -224 -20 -288 87 -49 200 -7 231 86 6 18
17 33 24 33 7 0 66 -9 130 -20 234 -40 459 -105 627 -182 l88 -41 0 -55 c0
-76 31 -139 78 -159 43 -18 74 -11 128 27 l41 29 55 -57 c30 -31 81 -91 114
-132 156 -200 350 -330 576 -385 92 -23 269 -30 369 -16 86 13 244 60 289 86
23 13 13 14 -105 15 -271 1 -501 66 -680 195 -76 54 -199 182 -253 261 -51 77
-130 163 -205 226 -58 48 -59 49 -62 108 -5 65 -34 133 -64 150 -48 25 -123 6
-169 -42 l-22 -25 -96 34 c-248 86 -571 112 -835 67 -32 -5 -38 -3 -44 15 -3
11 -22 33 -41 48 -39 29 -112 40 -154 22z"/>
<path d="M10865 5569 c-19 -29 95 -96 242 -142 212 -67 329 -55 222 23 -109
79 -437 163 -464 119z"/>
<path d="M2752 5540 c-72 -44 -96 -152 -49 -220 81 -120 268 -73 284 71 6 57
-28 124 -77 150 -46 25 -116 24 -158 -1z"/>
<path d="M3197 5536 c-81 -29 -112 -81 -104 -174 l5 -64 -162 -78 c-224 -107
-417 -175 -599 -211 -65 -12 -69 -12 -80 6 -20 39 -88 94 -127 106 -57 17
-100 -4 -129 -63 -11 -25 -21 -51 -21 -60 0 -26 -76 -13 -345 60 -96 26 -366
22 -470 -6 -92 -25 -220 -84 -303 -139 -112 -75 -239 -209 -307 -327 -32 -55
-30 -54 61 15 83 62 189 124 287 166 245 107 494 114 765 22 100 -34 229 -59
311 -60 54 0 57 -2 86 -42 42 -58 89 -87 139 -87 65 0 89 25 122 133 8 25 21
32 125 67 244 81 476 222 663 402 40 39 52 45 67 37 25 -13 97 -14 130 -1 37
15 85 74 93 116 15 77 -39 164 -115 186 -42 12 -45 12 -92 -4z"/>
<path d="M1158 5526 c-39 -17 -88 -66 -104 -103 -22 -50 -17 -131 9 -178 38
-67 132 -114 200 -99 105 22 167 94 167 193 0 85 -35 142 -112 182 -42 22
-118 24 -160 5z"/>
<path d="M4183 5440 c-259 -68 -536 -290 -484 -388 54 -102 427 10 621 185 72
66 100 109 100 156 0 30 -5 39 -30 52 -39 20 -119 18 -207 -5z"/>
<path d="M8465 5448 c-28 -16 -35 -28 -35 -64 0 -95 220 -264 442 -338 194
-66 321 -31 277 76 -17 42 -100 125 -178 177 -173 118 -429 193 -506 149z"/>
<path d="M2465 5345 c-54 -53 -16 -145 59 -145 79 0 119 88 66 145 -32 34 -91
35 -125 0z"/>
<path d="M3547 5349 c-27 -16 -49 -73 -38 -101 24 -64 99 -81 146 -33 70 69
-23 184 -108 134z"/>
<path d="M9191 5324 c-47 -60 -10 -144 64 -144 74 0 111 84 64 144 -16 21 -29
26 -64 26 -35 0 -48 -5 -64 -26z"/>
<path d="M9875 5310 c-34 -14 -76 -66 -85 -106 -25 -110 73 -211 185 -190 54
10 112 72 120 130 9 58 -22 126 -69 156 -35 21 -112 26 -151 10z"/>
<path d="M11465 5245 c-151 -81 -152 -279 -3 -356 86 -44 194 -14 253 69 26
37 30 53 30 105 0 73 -20 114 -78 161 -33 26 -48 31 -105 34 -48 2 -76 -2 -97
-13z"/>
<path d="M1805 5226 c-196 -31 -324 -102 -218 -122 57 -11 240 3 325 25 139
36 198 83 128 102 -39 11 -147 8 -235 -5z"/>
<path d="M10223 5165 c-60 -26 -71 -89 -24 -136 35 -35 77 -38 114 -9 53 42
39 127 -24 149 -18 6 -32 11 -33 11 -1 -1 -15 -7 -33 -15z"/>
<path d="M4462 5136 c-215 -52 -522 -319 -522 -453 0 -43 27 -63 87 -63 118 0
290 92 442 235 89 84 141 165 141 222 0 41 -3 45 -35 59 -40 16 -43 16 -113 0z"/>
<path d="M8277 5139 c-108 -41 25 -252 254 -405 149 -99 319 -144 362 -96 40
44 6 130 -91 234 -166 176 -421 305 -525 267z"/>
<path d="M9344 5081 c-92 -56 -111 -170 -41 -245 38 -40 100 -61 151 -52 34 7
97 58 121 98 9 16 19 14 125 -21 63 -21 151 -53 195 -70 207 -83 494 -249 487
-281 -2 -8 -4 -42 -4 -76 0 -72 20 -117 62 -139 40 -21 59 -19 115 10 45 22
49 23 62 7 34 -43 93 -134 138 -212 62 -109 116 -179 201 -261 136 -130 289
-208 489 -250 92 -20 304 -17 403 5 86 20 107 36 46 36 -20 0 -80 9 -133 20
-238 48 -431 141 -569 274 -91 87 -143 158 -217 296 -74 139 -109 192 -179
275 -48 57 -51 62 -46 105 8 68 -6 130 -37 162 -36 38 -104 39 -157 3 -20 -14
-40 -25 -44 -25 -4 0 -56 25 -116 55 -121 61 -282 117 -421 145 -106 22 -311
44 -360 38 -27 -3 -36 0 -41 14 -9 28 -53 77 -85 93 -39 21 -108 19 -145 -4z"/>
<path d="M3370 5038 c-18 -13 -42 -35 -53 -49 -27 -37 -33 -109 -13 -150 9
-17 16 -35 16 -39 0 -10 -178 -136 -289 -204 -149 -92 -429 -226 -472 -226 -6
0 -27 14 -47 31 -118 103 -231 79 -248 -53 l-7 -51 -106 6 c-58 3 -151 11
-206 17 -383 43 -747 -141 -954 -483 -33 -54 -91 -178 -91 -195 0 -3 39 34 88
82 173 171 355 282 547 332 125 33 299 36 445 10 70 -13 133 -17 235 -14 l141
3 45 -37 c52 -42 87 -58 132 -58 63 0 107 57 107 140 l0 40 84 40 c220 105
454 296 605 496 l52 68 64 1 c48 0 70 5 91 21 47 35 67 70 72 126 3 44 0 59
-20 88 -54 79 -149 105 -218 58z"/>
<path d="M3004 5010 c-77 -17 -133 -99 -121 -177 18 -106 139 -165 231 -111
152 88 61 324 -110 288z"/>
<path d="M3746 4899 c-28 -33 -32 -59 -14 -92 17 -33 39 -46 76 -47 45 0 67
13 82 49 38 93 -80 167 -144 90z"/>
<path d="M9004 4920 c-47 -19 -70 -93 -41 -131 54 -70 157 -38 157 49 0 61
-62 105 -116 82z"/>
<path d="M10670 4873 c0 -58 292 -224 421 -240 78 -9 74 23 -11 89 -139 109
-410 209 -410 151z"/>
<path d="M4696 4846 c-206 -86 -447 -362 -450 -513 -1 -59 21 -77 86 -69 91
10 212 90 338 223 115 122 178 230 180 309 1 70 -59 90 -154 50z"/>
<path d="M8040 4864 c-98 -38 -9 -239 187 -424 162 -153 307 -216 364 -159 84
84 -158 420 -392 543 -65 35 -130 51 -159 40z"/>
<path d="M9635 4776 c-99 -44 -123 -175 -48 -251 35 -34 63 -45 117 -45 144 0
204 196 85 281 -38 27 -112 35 -154 15z"/>
<path d="M2699 4751 c-20 -20 -29 -39 -29 -61 0 -37 47 -90 80 -90 36 0 77 28
88 60 15 41 -2 86 -39 105 -42 22 -67 18 -100 -14z"/>
<path d="M1378 4720 c-97 -52 -135 -184 -79 -277 62 -101 211 -126 298 -50
142 125 59 348 -129 347 -33 -1 -67 -8 -90 -20z"/>
<path d="M9072 4633 c-44 -21 -82 -88 -82 -142 0 -147 175 -212 278 -103 l34
35 76 -37 c199 -98 464 -275 599 -400 l62 -57 -15 -41 c-46 -131 20 -239 129
-209 23 7 49 13 57 14 17 2 59 -71 96 -168 87 -230 141 -323 258 -444 119
-122 248 -202 411 -254 130 -41 310 -58 417 -41 36 6 32 8 -79 46 -229 76
-431 204 -553 349 -80 97 -137 203 -191 359 -49 142 -95 242 -147 319 -28 41
-29 45 -16 77 17 41 18 130 1 164 -28 56 -104 70 -181 33 l-33 -15 -82 61
c-207 153 -455 260 -712 307 -84 16 -88 18 -94 45 -8 36 -48 85 -86 104 -37
20 -106 19 -147 -2z"/>
<path d="M4981 4604 c-130 -65 -315 -305 -365 -473 -45 -153 7 -210 134 -146
111 56 280 263 345 421 36 88 41 187 11 210 -29 21 -66 17 -125 -12z"/>
<path d="M7746 4614 c-73 -73 43 -342 228 -527 192 -194 332 -162 256 58 -91
264 -395 559 -484 469z"/>
<path d="M3675 4605 c-97 -34 -136 -159 -76 -244 l20 -28 -117 -115 c-135
-132 -277 -247 -412 -335 -132 -85 -167 -101 -188 -85 -9 7 -41 24 -70 38 -61
30 -119 29 -153 -2 -24 -21 -43 -88 -35 -125 5 -26 3 -28 -47 -39 -29 -6 -117
-15 -197 -20 -80 -5 -170 -14 -200 -20 -303 -57 -562 -255 -700 -535 -45 -92
-96 -243 -88 -265 2 -5 37 36 77 91 135 181 314 331 478 399 136 57 210 71
433 80 156 6 225 13 291 30 l85 22 52 -33 c70 -43 144 -51 184 -19 33 25 52
88 43 140 l-6 37 81 57 c204 143 381 343 512 575 l47 85 46 2 c62 4 113 37
136 88 24 53 24 90 -2 142 -35 73 -117 106 -194 79z"/>
<path d="M9936 4559 c-30 -35 -32 -58 -11 -98 16 -32 33 -41 78 -41 36 1 58
15 75 47 18 33 14 59 -14 92 -20 25 -34 31 -64 31 -30 0 -44 -6 -64 -31z"/>
<path d="M2110 4534 c-52 -14 -136 -45 -187 -69 -138 -67 -149 -112 -26 -100
80 7 217 47 307 89 88 41 121 67 113 89 -9 25 -93 21 -207 -9z"/>
<path d="M4034 4516 c-39 -33 -39 -89 0 -122 59 -51 146 -15 146 61 0 76 -87
112 -146 61z"/>
<path d="M8709 4525 c-78 -42 -40 -165 51 -165 33 0 80 53 80 90 0 22 -9 41
-29 61 -32 32 -62 36 -102 14z"/>
<path d="M3250 4482 c-73 -38 -101 -156 -53 -220 37 -50 71 -67 131 -67 94 0
154 59 154 151 0 118 -126 191 -232 136z"/>
<path d="M11205 4467 c-16 -6 -42 -20 -57 -30 -31 -22 -78 -109 -78 -146 0
-121 118 -226 229 -206 105 19 180 115 168 216 -12 99 -81 167 -178 174 -30 3
-67 -1 -84 -8z"/>
<path d="M5322 4426 c-77 -42 -179 -175 -247 -320 -52 -110 -77 -200 -77 -283
-1 -147 86 -153 215 -13 123 133 216 339 225 496 4 84 3 93 -17 113 -24 24
-64 27 -99 7z"/>
<path d="M7444 4432 c-57 -37 -41 -206 35 -374 96 -215 267 -386 340 -341 32
20 44 81 31 163 -44 275 -300 623 -406 552z"/>
<path d="M5635 4259 c-121 -112 -222 -387 -213 -585 4 -99 25 -137 78 -142 73
-7 195 175 256 383 22 73 27 112 28 207 1 104 -1 120 -20 145 -34 45 -74 43
-129 -8z"/>
<path d="M7096 4281 c-95 -105 9 -532 170 -699 45 -46 56 -53 84 -50 22 2 40
12 54 31 19 26 21 41 20 150 -1 141 -25 238 -95 385 -51 107 -139 202 -185
202 -17 0 -38 -8 -48 -19z"/>
<path d="M9299 4278 c-138 -79 -82 -288 77 -288 89 0 154 65 154 155 0 118
-130 192 -231 133z"/>
<path d="M8745 4236 c-102 -45 -125 -178 -46 -257 61 -61 151 -65 215 -9 l34
30 86 -61 c184 -132 421 -352 524 -490 l41 -55 -21 -43 c-26 -54 -34 -122 -18
-161 19 -45 61 -64 132 -57 l58 5 24 -76 c13 -43 31 -117 41 -167 75 -408 340
-701 730 -808 65 -18 234 -41 242 -33 3 3 -35 25 -84 49 -247 125 -440 303
-539 499 -50 100 -80 197 -104 343 -22 132 -54 244 -91 316 l-20 40 26 64 c30
76 32 119 6 161 -27 45 -78 60 -147 45 l-54 -12 -56 61 c-158 169 -435 346
-668 426 l-84 28 -5 40 c-14 100 -131 164 -222 122z"/>
<path d="M10370 4226 c0 -50 184 -207 327 -280 57 -28 113 -35 113 -12 0 49
-186 208 -327 280 -57 28 -113 35 -113 12z"/>
<path d="M3053 4223 c-59 -11 -83 -104 -38 -148 55 -56 145 -16 145 63 0 57
-49 96 -107 85z"/>
<path d="M4000 4198 c-92 -47 -115 -159 -49 -241 l31 -38 -39 -56 c-122 -178
-344 -421 -490 -537 l-73 -58 -47 24 c-34 16 -65 23 -105 23 -50 0 -61 -4 -85
-28 -25 -25 -28 -34 -27 -97 l1 -70 -52 -19 c-29 -11 -107 -31 -174 -45 -156
-33 -226 -57 -328 -111 -243 -128 -409 -337 -488 -610 -14 -49 -28 -128 -31
-175 l-5 -85 59 112 c196 369 447 560 813 617 129 21 235 50 317 87 l64 29 40
-21 c51 -26 129 -35 166 -20 55 23 77 96 51 170 -12 33 -11 34 79 124 186 190
306 381 397 632 l33 90 41 7 c53 9 94 38 115 82 67 142 -76 285 -214 214z"/>
<path d="M6019 4197 c-46 -30 -102 -145 -135 -272 -34 -129 -39 -330 -11 -411
33 -96 79 -118 140 -65 145 128 209 657 90 750 -33 26 -42 26 -84 -2z"/>
<path d="M6757 4209 c-78 -45 -94 -319 -31 -535 66 -228 174 -321 235 -203 66
131 37 451 -58 632 -52 99 -99 133 -146 106z"/>
<path d="M4374 4176 c-60 -51 -21 -146 58 -146 52 0 88 35 88 85 0 76 -87 112
-146 61z"/>
<path d="M8369 4185 c-78 -42 -40 -165 51 -165 33 0 80 53 80 90 0 22 -9 41
-29 61 -32 32 -62 36 -102 14z"/>
<path d="M6378 4163 c-58 -62 -86 -161 -94 -328 -10 -190 27 -358 93 -427 36
-37 64 -35 101 6 65 74 99 234 89 425 -8 163 -39 271 -94 326 -33 32 -63 32
-95 -2z"/>
<path d="M9609 4045 c-80 -44 -41 -165 52 -165 32 0 79 53 79 89 0 63 -76 107
-131 76z"/>
<path d="M3647 4035 c-76 -26 -112 -80 -105 -160 5 -63 29 -98 86 -126 72 -36
144 -16 196 55 31 40 29 130 -2 174 -41 56 -111 79 -175 57z"/>
<path d="M1745 3972 c-124 -60 -153 -215 -57 -315 79 -84 209 -83 285 2 61 68
70 147 26 233 -43 83 -165 122 -254 80z"/>
<path d="M2570 3924 c-118 -31 -358 -171 -377 -220 -19 -51 87 -35 235 36 92
44 161 88 210 133 35 34 40 52 16 61 -19 7 -18 8 -84 -10z"/>
<path d="M4767 3900 c-50 -39 -42 -117 15 -146 89 -46 170 66 99 137 -35 35
-77 38 -114 9z"/>
<path d="M7995 3911 c-61 -26 -76 -100 -30 -146 76 -77 195 38 123 119 -26 28
-63 39 -93 27z"/>
<path d="M8363 3899 c-43 -12 -90 -62 -104 -109 -17 -56 -4 -106 40 -153 35
-37 43 -41 99 -45 50 -4 68 0 98 17 47 28 51 25 178 -113 171 -184 325 -390
387 -518 l22 -46 -22 -29 c-48 -60 -64 -135 -40 -187 15 -33 66 -56 122 -56
l46 0 10 -53 c7 -28 15 -120 20 -202 14 -227 50 -357 145 -520 58 -99 227
-266 334 -329 94 -56 240 -113 309 -123 l48 -6 -90 64 c-181 129 -347 325
-417 489 -55 133 -69 209 -78 430 -7 164 -13 224 -32 298 -19 74 -22 95 -12
103 24 19 64 112 64 146 0 45 -22 86 -55 101 -14 7 -54 12 -88 12 l-62 0 -30
48 c-42 66 -161 206 -231 273 -123 115 -294 237 -416 295 -36 17 -38 20 -38
64 0 61 -31 108 -90 138 -47 24 -67 25 -117 11z"/>
<path d="M4395 3856 c-52 -32 -77 -76 -77 -135 0 -57 21 -102 62 -131 l31 -22
-65 -124 c-111 -210 -253 -418 -383 -562 l-48 -52 -50 16 c-72 22 -138 14
-176 -22 -28 -27 -30 -33 -26 -84 2 -30 7 -64 11 -76 6 -17 -1 -25 -51 -51
-32 -17 -105 -49 -163 -71 -170 -63 -269 -120 -374 -213 -129 -114 -246 -312
-291 -492 -27 -108 -40 -275 -28 -352 l9 -50 27 88 c105 333 296 582 542 705
33 16 121 51 195 77 144 50 203 77 289 132 52 33 56 34 97 23 163 -46 254 35
193 170 l-20 44 20 26 c172 218 305 508 348 758 l17 101 33 6 c18 3 48 20 67
38 82 77 63 208 -38 256 -56 27 -102 26 -151 -3z"/>
<path d="M8913 3850 c-150 -67 -99 -294 66 -294 165 0 217 227 67 295 -52 24
-80 23 -133 -1z"/>
<path d="M10806 3736 c-58 -22 -104 -72 -122 -133 -21 -74 -1 -145 55 -196
165 -149 408 36 309 233 -44 87 -152 129 -242 96z"/>
<path d="M3419 3701 c-35 -35 -38 -77 -9 -114 43 -54 128 -39 149 26 31 92
-72 155 -140 88z"/>
<path d="M5189 3671 c-46 -46 -34 -112 25 -136 95 -40 169 82 89 145 -37 29
-79 26 -114 -9z"/>
<path d="M7555 3688 c-67 -39 -58 -140 15 -163 88 -28 150 90 79 149 -33 28
-62 32 -94 14z"/>
<path d="M4065 3636 c-85 -38 -117 -133 -75 -217 54 -104 208 -108 270 -7 45
74 16 176 -60 216 -50 25 -91 27 -135 8z"/>
<path d="M9980 3627 c0 -72 221 -305 333 -352 34 -14 38 -14 44 1 23 61 -276
374 -358 374 -13 0 -19 -7 -19 -23z"/>
<path d="M7910 3619 c-62 -25 -100 -85 -100 -156 0 -114 115 -185 226 -138
l35 14 62 -84 c132 -179 259 -403 332 -588 l38 -96 -31 -36 c-41 -46 -72 -107
-72 -140 0 -62 59 -115 128 -115 28 0 31 -3 37 -42 4 -24 -1 -113 -10 -198
-32 -289 4 -483 129 -693 49 -82 164 -209 249 -275 56 -42 257 -152 280 -152
5 0 -35 46 -88 102 -110 116 -219 273 -265 384 -78 188 -94 340 -60 574 18
123 22 179 17 276 l-6 122 30 28 c36 34 69 101 69 138 0 67 -62 116 -148 116
-37 0 -39 2 -60 53 -28 66 -112 208 -177 295 -69 94 -235 263 -326 332 l-76
58 1 59 c1 75 -24 120 -84 151 -47 23 -89 27 -130 11z"/>
<path d="M4865 3596 c-130 -58 -130 -227 0 -301 17 -10 16 -16 -15 -110 -72
-222 -189 -475 -288 -625 l-50 -75 -75 4 c-78 3 -103 -5 -144 -42 -31 -27 -31
-98 -2 -146 l21 -35 -33 -27 c-37 -30 -87 -62 -222 -142 -289 -169 -460 -433
-497 -764 -7 -71 -8 -126 0 -194 15 -134 50 -261 50 -182 0 51 29 192 61 298
55 179 142 329 259 445 80 81 154 132 312 216 125 67 174 100 243 165 40 38
40 38 120 36 92 -2 135 15 160 63 21 41 19 60 -15 125 l-30 56 40 72 c110 202
186 479 197 728 l6 125 36 20 c55 30 81 76 81 145 0 51 -4 63 -32 95 -53 60
-119 78 -183 50z"/>
<path d="M9165 3555 c-56 -55 -16 -145 63 -145 51 0 82 32 82 84 0 77 -91 116
-145 61z"/>
<path d="M5645 3525 c-56 -55 -16 -145 63 -145 78 0 114 89 57 145 -33 34 -87
34 -120 0z"/>
<path d="M7095 3538 c-31 -18 -44 -40 -45 -73 -1 -95 124 -125 164 -40 15 30
15 38 2 69 -22 52 -74 71 -121 44z"/>
<path d="M8450 3482 c-40 -20 -77 -70 -86 -118 -8 -45 29 -121 75 -151 46 -31
116 -31 161 0 55 37 74 71 74 132 0 61 -19 95 -74 133 -40 27 -101 29 -150 4z"/>
<path d="M6144 3466 c-59 -26 -68 -106 -17 -146 37 -29 79 -26 114 9 46 46 37
106 -21 136 -35 18 -36 18 -76 1z"/>
<path d="M6635 3470 c-62 -25 -80 -105 -31 -146 68 -59 164 3 142 91 -10 40
-72 71 -111 55z"/>
<path d="M7400 3398 c-76 -52 -98 -125 -61 -202 36 -74 119 -108 202 -82 25 7
28 4 87 -116 107 -218 174 -398 218 -588 13 -58 24 -110 24 -117 0 -6 -16 -21
-36 -34 -47 -29 -94 -103 -94 -147 0 -44 51 -98 103 -107 35 -7 37 -10 37 -44
-1 -42 -17 -117 -53 -251 -120 -437 43 -868 421 -1117 36 -23 70 -43 75 -43 4
0 -7 19 -26 42 -120 150 -217 342 -257 509 -41 172 -36 331 16 502 52 174 75
275 81 362 l6 90 41 30 c134 100 107 236 -52 257 -21 3 -29 18 -62 120 -82
248 -215 470 -393 654 -52 54 -58 64 -48 82 17 32 13 103 -8 142 -28 53 -74
80 -136 80 -38 0 -61 -6 -85 -22z"/>
<path d="M5350 3399 c-36 -15 -59 -39 -82 -83 -40 -78 1 -181 84 -214 45 -18
45 -17 18 -176 -37 -219 -106 -451 -180 -612 l-39 -84 -43 0 c-105 0 -178 -48
-178 -117 0 -36 30 -100 53 -115 19 -12 -63 -95 -204 -206 -326 -256 -459
-659 -348 -1059 11 -40 31 -96 44 -125 l24 -53 0 105 c3 423 137 714 430 932
139 104 193 152 251 224 49 60 55 64 93 64 65 0 118 19 154 55 49 49 43 100
-17 169 l-32 36 26 72 c57 161 85 315 93 508 5 129 -5 284 -23 356 -4 17 2 26
24 40 69 40 94 149 50 214 -13 18 -35 42 -50 53 -31 23 -111 32 -148 16z"/>
<path d="M3060 3371 c-80 -25 -222 -119 -312 -207 -65 -64 -82 -89 -73 -104
41 -66 460 231 431 305 -6 16 -9 17 -46 6z"/>
<path d="M4565 3315 c-109 -38 -139 -173 -57 -256 65 -65 156 -62 222 6 29 30
34 43 38 92 3 48 0 64 -20 92 -46 68 -111 91 -183 66z"/>
<path d="M2247 3296 c-137 -37 -191 -208 -100 -316 82 -98 238 -93 313 11 109
151 -32 352 -213 305z"/>
<path d="M3890 3275 c-53 -56 -15 -145 62 -145 52 0 88 35 88 85 0 77 -97 116
-150 60z"/>
<path d="M6900 3278 c-83 -43 -115 -157 -63 -227 38 -51 83 -73 141 -69 l53 3
38 -120 c76 -235 117 -440 128 -637 l6 -116 -39 -21 c-78 -41 -114 -87 -114
-145 0 -46 26 -79 88 -110 17 -9 32 -18 32 -19 0 -19 -41 -132 -77 -212 -57
-127 -80 -193 -98 -278 -61 -283 5 -566 188 -809 53 -71 171 -188 190 -188 4
0 -15 44 -42 98 -92 183 -137 342 -147 512 -11 182 20 318 121 525 68 140 96
214 116 312 9 43 18 65 30 68 32 11 100 66 119 98 43 70 10 142 -79 174 l-47
16 -12 91 c-31 245 -130 501 -279 719 -29 43 -53 82 -53 87 0 4 7 21 15 36 8
16 15 50 15 75 0 118 -124 192 -230 137z"/>
<path d="M5852 3273 c-87 -43 -114 -159 -57 -241 19 -26 85 -62 115 -62 19 0
20 -6 20 -163 0 -227 -28 -452 -80 -646 l-22 -78 -44 -7 c-83 -11 -150 -58
-160 -112 -7 -39 17 -96 54 -125 l26 -20 -18 -34 c-10 -18 -55 -75 -100 -125
-114 -129 -150 -176 -195 -250 -168 -280 -179 -641 -30 -945 21 -44 50 -93 63
-110 l24 -30 -14 70 c-21 104 -29 355 -15 456 34 230 119 393 310 593 109 113
157 174 206 259 19 33 35 49 53 53 104 21 165 60 177 114 9 39 -18 94 -65 131
l-37 30 13 65 c23 111 33 303 23 441 -11 144 -28 239 -66 367 -26 86 -26 89
-8 102 58 42 74 145 34 211 -40 65 -136 91 -207 56z"/>
<path d="M6372 3233 c-47 -23 -75 -67 -80 -128 -7 -89 50 -159 141 -171 53 -8
51 -3 71 -134 27 -166 39 -368 32 -520 -9 -218 -12 -229 -55 -247 -87 -34
-136 -76 -146 -124 -9 -40 19 -92 66 -123 l39 -26 -31 -63 c-17 -34 -60 -106
-96 -159 -211 -320 -248 -647 -110 -975 39 -92 128 -231 179 -280 l33 -32 -36
112 c-57 174 -72 281 -66 455 4 120 9 163 31 235 34 115 88 219 176 342 71 98
130 206 164 295 15 41 22 48 69 64 29 10 68 35 89 56 32 31 38 45 38 78 0 47
-39 101 -89 121 l-28 12 -6 167 c-8 255 -59 472 -161 687 -42 90 -43 92 -25
114 86 106 12 261 -123 261 -24 0 -58 -8 -76 -17z"/>
<path d="M7934 3191 c-77 -47 -100 -122 -62 -199 57 -115 193 -125 272 -19 15
20 20 43 20 82 0 61 -19 95 -74 133 -42 28 -112 30 -156 3z"/>
<path d="M8669 3151 c-32 -33 -36 -58 -14 -100 41 -80 165 -43 165 49 0 33
-53 80 -90 80 -22 0 -41 -9 -61 -29z"/>
<path d="M9495 3120 c-27 -43 123 -285 242 -390 164 -144 60 125 -126 323 -39
41 -87 77 -105 77 -3 0 -8 -4 -11 -10z"/>
<path d="M10307 3080 c-80 -25 -137 -104 -137 -190 0 -187 223 -268 347 -127
36 41 48 86 41 158 -6 56 -43 111 -96 142 -36 21 -116 30 -155 17z"/>
<path d="M5075 3062 c-43 -28 -62 -52 -74 -97 -41 -153 147 -259 260 -147 65
65 62 156 -6 222 -30 29 -43 34 -92 37 -45 3 -65 0 -88 -15z"/>
<path d="M7360 2964 c-91 -82 -67 -217 45 -259 78 -30 162 3 195 78 25 54 25
81 -1 133 -28 58 -71 84 -143 84 -50 0 -60 -4 -96 -36z"/>
<path d="M4454 2950 c-66 -26 -71 -130 -7 -159 50 -23 93 -9 118 40 23 44 5
96 -41 115 -38 16 -41 16 -70 4z"/>
<path d="M5651 2908 c-65 -34 -86 -67 -86 -138 0 -72 21 -105 88 -138 171 -86
303 156 147 269 -42 31 -99 33 -149 7z"/>
<path d="M3534 2852 c-32 -22 -100 -82 -151 -134 -120 -125 -164 -208 -110
-208 78 0 357 280 357 357 0 34 -28 29 -96 -15z"/>
<path d="M6834 2880 c-102 -31 -136 -180 -60 -256 100 -100 266 -33 266 107 0
105 -104 180 -206 149z"/>
<path d="M6221 2838 c-57 -38 -75 -72 -75 -133 0 -39 5 -62 20 -82 35 -46 82
-73 131 -73 78 0 133 44 154 121 11 43 10 50 -12 95 -31 63 -65 86 -131 92
-44 3 -59 0 -87 -20z"/>
<path d="M8122 2840 c-43 -40 -41 -107 4 -136 60 -40 138 1 138 72 0 70 -91
111 -142 64z"/>
<path d="M2809 2690 c-64 -19 -120 -86 -133 -160 -10 -57 18 -132 63 -173 160
-144 402 33 312 228 -42 91 -144 135 -242 105z"/>
<path d="M5023 2681 c-73 -46 -38 -161 50 -161 39 0 87 49 87 89 0 67 -78 109
-137 72z"/>
<path d="M8933 2673 c-10 -27 23 -136 71 -233 80 -162 162 -258 186 -220 33
53 -133 400 -216 455 -29 19 -33 19 -41 -2z"/>
<path d="M7524 2606 c-60 -51 -21 -146 58 -146 52 0 88 35 88 85 0 76 -87 112
-146 61z"/>
<path d="M5625 2505 c-56 -55 -16 -145 63 -145 51 0 84 34 84 86 0 76 -94 113
-147 59z"/>
<path d="M9706 2508 c-55 -15 -121 -82 -136 -138 -24 -91 20 -189 103 -229
102 -49 221 -8 268 94 70 151 -73 317 -235 273z"/>
<path d="M4159 2468 c-96 -73 -259 -315 -259 -384 0 -86 184 93 284 276 36 67
50 130 30 137 -6 2 -31 -11 -55 -29z"/>
<path d="M6899 2471 c-35 -35 -38 -77 -9 -114 39 -50 117 -42 146 15 46 89
-66 170 -137 99z"/>
<path d="M6284 2456 c-59 -26 -68 -106 -17 -146 37 -29 79 -26 114 9 46 46 37
106 -21 136 -35 18 -36 18 -76 1z"/>
<path d="M8317 2333 c-4 -3 -7 -31 -7 -62 0 -141 119 -441 176 -441 61 0 -29
353 -123 478 -24 32 -34 38 -46 25z"/>
<path d="M4813 2168 c-47 -51 -91 -121 -138 -221 -68 -145 -82 -243 -31 -224
52 20 192 265 220 385 22 97 5 118 -51 60z"/>
<path d="M3450 2174 c-60 -26 -98 -76 -114 -151 -15 -68 32 -162 99 -200 44
-25 123 -31 172 -12 38 14 92 67 109 108 40 94 -15 225 -109 260 -40 15 -116
13 -157 -5z"/>
<path d="M7639 2063 c-28 -71 14 -369 64 -457 27 -49 44 -55 57 -21 41 107
-39 505 -102 505 -5 0 -13 -12 -19 -27z"/>
<path d="M9038 2040 c-171 -29 -216 -261 -70 -361 29 -20 48 -24 107 -24 63 0
77 4 113 29 51 35 82 96 82 161 0 125 -108 216 -232 195z"/>
<path d="M5528 1999 c-53 -30 -147 -283 -156 -416 -5 -79 -4 -83 16 -83 56 0
172 296 174 443 0 55 -9 70 -34 56z"/>
<path d="M6934 1915 c-50 -121 -29 -495 29 -495 45 0 73 243 47 410 -19 121
-47 153 -76 85z"/>
<path d="M6212 1877 c-54 -115 -90 -378 -62 -451 37 -99 115 106 127 335 6
118 -2 159 -31 159 -8 0 -23 -20 -34 -43z"/>
<path d="M4225 1791 c-106 -26 -160 -99 -153 -206 7 -107 73 -175 177 -183
158 -11 262 149 188 289 -39 72 -136 118 -212 100z"/>
<path d="M8266 1678 c-23 -6 -57 -28 -82 -53 -116 -116 -49 -312 113 -332 129
-15 230 81 221 208 -9 128 -127 211 -252 177z"/>
<path d="M4989 1506 c-169 -60 -187 -279 -29 -364 88 -47 205 -14 254 71 52
89 42 174 -28 243 -58 59 -125 76 -197 50z"/>
<path d="M7445 1431 c-78 -36 -115 -95 -115 -182 0 -163 187 -252 318 -153 63
48 91 153 61 231 -25 66 -110 123 -184 123 -22 0 -58 -9 -80 -19z"/>
<path d="M5825 1358 c-167 -37 -209 -243 -72 -352 35 -28 46 -31 111 -31 62 0
78 4 114 27 121 80 112 273 -16 337 -50 24 -89 30 -137 19z"/>
<path d="M6615 1323 c-100 -52 -141 -161 -96 -258 59 -128 216 -158 316 -62
131 126 43 337 -140 336 -27 0 -63 -7 -80 -16z"/>
</g>
</svg>
