<?xml version="1.0" encoding="UTF-8" standalone="no"?>
<!-- Created with Inkscape (http://www.inkscape.org/) -->

<svg
   width="75"
   height="75"
   viewBox="0 0 75 75"
   version="1.1"
   id="svg5"
   sodipodi:docname="shankh.svg"
   inkscape:version="1.1.1 (3bf5ae0d25, 2021-09-20)"
   xmlns:inkscape="http://www.inkscape.org/namespaces/inkscape"
   xmlns:sodipodi="http://sodipodi.sourceforge.net/DTD/sodipodi-0.dtd"
   xmlns="http://www.w3.org/2000/svg"
   xmlns:svg="http://www.w3.org/2000/svg">
  <sodipodi:namedview
     id="namedview7"
     pagecolor="#ffffff"
     bordercolor="#999999"
     borderopacity="1"
     inkscape:pageshadow="0"
     inkscape:pageopacity="0"
     inkscape:pagecheckerboard="0"
     inkscape:document-units="px"
     showgrid="false"
     inkscape:zoom="8"
     inkscape:cx="39.4375"
     inkscape:cy="34.9375"
     inkscape:window-width="1920"
     inkscape:window-height="1001"
     inkscape:window-x="-9"
     inkscape:window-y="-9"
     inkscape:window-maximized="1"
     inkscape:current-layer="layer2" />
  <defs
     id="defs2">
    <inkscape:path-effect
       effect="fill_between_many"
       method="originald"
       linkedpaths="#path894,0,1|#path1011,0,1|#path1126,0,1|#path1128,0,1|#path1130,0,1"
       id="path-effect1212"
       is_visible="true"
       lpeversion="0"
       join="true"
       close="true"
       autoreverse="true"
       applied="false" />
    <inkscape:path-effect
       effect="fill_between_many"
       method="originald"
       linkedpaths="#path2034,0,1|#path2069,0,1|#path2071,0,1|#path2434,0,1"
       id="path-effect2596"
       is_visible="true"
       lpeversion="0"
       join="true"
       close="true"
       autoreverse="true"
       applied="false" />
    <inkscape:path-effect
       effect="fill_between_many"
       method="originald"
       linkedpaths="#path2873,0,1|#path3075,0,1|#path4895,0,1|#path4930,0,1|#path6131,0,1|#path6166,0,1|#path6314,0,1|#path6349,0,1|#path6384,0,1"
       id="path-effect6507"
       is_visible="true"
       lpeversion="0"
       join="true"
       close="true"
       autoreverse="true"
       applied="false" />
    <inkscape:path-effect
       effect="fill_between_many"
       method="originald"
       linkedpaths="#path6349,0,1"
       id="path-effect7491"
       is_visible="true"
       lpeversion="0"
       join="true"
       close="true"
       autoreverse="true"
       applied="false" />
    <inkscape:path-effect
       effect="fill_between_many"
       method="originald"
       linkedpaths="#path6384,0,1"
       id="path-effect7575"
       is_visible="true"
       lpeversion="0"
       join="true"
       close="true"
       autoreverse="true"
       applied="false" />
    <inkscape:path-effect
       effect="fill_between_many"
       method="originald"
       linkedpaths="#path2873,0,1"
       id="path-effect7659"
       is_visible="true"
       lpeversion="0"
       join="true"
       close="true"
       autoreverse="true"
       applied="false" />
    <inkscape:path-effect
       effect="fill_between_many"
       method="originald"
       linkedpaths="#path6166,0,1|#path4895,0,1"
       id="path-effect8074"
       is_visible="true"
       lpeversion="0"
       join="true"
       close="true"
       autoreverse="true"
       applied="false" />
    <inkscape:path-effect
       effect="fill_between_many"
       method="originald"
       linkedpaths="#path3075,0,1|#path7955,0,1"
       id="path-effect8078"
       is_visible="true"
       lpeversion="0"
       join="true"
       close="true"
       autoreverse="true"
       applied="false" />
    <inkscape:path-effect
       effect="fill_between_many"
       method="originald"
       linkedpaths="#path6131,0,1|#path6314,0,1"
       id="path-effect8582"
       is_visible="true"
       lpeversion="0"
       join="true"
       close="true"
       autoreverse="true"
       applied="false" />
    <inkscape:path-effect
       effect="fill_between_many"
       method="originald"
       linkedpaths="#path8779,0,1"
       id="path-effect8781"
       is_visible="true"
       lpeversion="0"
       join="true"
       close="true"
       autoreverse="true"
       applied="false" />
    <inkscape:path-effect
       effect="fill_between_many"
       method="originald"
       linkedpaths="#path9198,0,1|#path9235,0,1"
       id="path-effect9358"
       is_visible="true"
       lpeversion="0"
       join="true"
       close="true"
       autoreverse="true"
       applied="false" />
    <inkscape:path-effect
       effect="fill_between_many"
       method="originald"
       linkedpaths="#path13017,0,1"
       id="path-effect13052"
       is_visible="true"
       lpeversion="0"
       join="true"
       close="true"
       autoreverse="true"
       applied="false" />
    <inkscape:path-effect
       effect="fill_between_many"
       method="originald"
       linkedpaths="#path18127,0,1|#path18275,0,1"
       id="path-effect18394"
       is_visible="true"
       lpeversion="0"
       join="true"
       close="true"
       autoreverse="true"
       applied="false" />
    <inkscape:path-effect
       effect="fill_between_many"
       method="originald"
       linkedpaths="#path20289,0,1|#path20324,0,1|#path20326,0,1|#path20328,0,1"
       id="path-effect20410"
       is_visible="true"
       lpeversion="0"
       join="true"
       close="true"
       autoreverse="true"
       applied="false" />
    <inkscape:path-effect
       effect="fill_between_many"
       method="originald"
       linkedpaths="#path20682,0,1|#path20900,0,1|#path20935,0,1|#path21196,0,1|#path21231,0,1|#path21266,0,1"
       id="path-effect21381"
       is_visible="true"
       lpeversion="0"
       join="true"
       close="true"
       autoreverse="true"
       applied="false" />
    <inkscape:path-effect
       effect="fill_between_many"
       method="originald"
       linkedpaths="#path21653,0,1"
       id="path-effect21768"
       is_visible="true"
       lpeversion="0"
       join="true"
       close="true"
       autoreverse="true"
       applied="false" />
    <inkscape:path-effect
       effect="fill_between_many"
       method="originald"
       linkedpaths="#path21903,0,1|#path21938,0,1"
       id="path-effect22077"
       is_visible="true"
       lpeversion="0"
       join="true"
       close="true"
       autoreverse="true"
       applied="false" />
    <inkscape:path-effect
       effect="fill_between_many"
       method="originald"
       linkedpaths="#path22269,0,1|#path22304,0,1|#path22339,0,1|#path22374,0,1"
       id="path-effect22489"
       is_visible="true"
       lpeversion="0"
       join="true"
       close="true"
       autoreverse="true"
       applied="false" />
  </defs>
  <g
     inkscape:groupmode="layer"
     id="layer2"
     inkscape:label="Layer 2">
    <path
       id="path2598"
       style="fill:#dfdfdf"
       d="m 40.562587,13.417681 c -0.36021,-0.03539 -0.713803,-0.06504 -1.060773,-0.08949 -9.715169,-0.684385 -14.228674,2.779515 -14.228674,2.779515 0,0 -19.9849049,9.201564 4.290889,41.206965 0,0 5.38601,7.994021 3.210672,15.726694 2.548801,-8.518131 1.056948,-12.765384 0.45068,-14.008536 -0.01001,-0.0158 -0.01943,-0.03209 -0.02869,-0.04793 -0.01545,-0.02643 -0.02777,-0.05427 -0.04316,-0.08073 -0.02772,-0.04767 -0.04208,-0.06874 -0.04743,-0.07723 -0.0057,-0.0097 -0.02073,-0.0346 -0.04862,-0.08519 -0.0163,-0.0277 -0.03316,-0.05516 -0.04881,-0.08325 -0.01656,-0.02972 -0.02985,-0.06095 -0.04611,-0.09083 -0.01599,-0.02939 -0.03432,-0.05797 -0.05037,-0.08732 -0.0011,-0.002 -0.0022,-0.0041 -0.0033,-0.0063 C -0.89496089,10.480409 43.98529,13.897922 43.98529,13.897922 42.783627,13.680938 41.643215,13.523861 40.562587,13.417681 Z m -5.830946,51.633078 c -0.0015,0.173439 -0.0076,0.345475 -0.01494,0.516606 0.0084,-0.175699 0.01268,-0.347431 0.01494,-0.516606 z" />
    <path
       id="path12373"
       style="fill:#dfdfdf;fill-opacity:1"
       d="m 44.198922,16.542373 c 0,0 -11.646853,-0.737826 -17.093637,3.383782 -1.34509,1.017839 -3.008845,2.625957 -3.216085,4.273056 l 0.349707,1.125096 c 0.0054,-0.707027 0.02996,-1.154871 0.02996,-1.154871 0,0 0.681073,3.449778 1.895192,7.20375 -3.237126,-13.874239 18.03486,-14.830813 18.03486,-14.830813 z M 26.164061,31.373186 c 0.06161,0.264078 0.12846,0.53167 0.20815,0.805195 l -2.133304,-6.854074 c -0.0011,0.141959 4.72e-4,0.285591 0.0014,0.449514 -0.211134,-0.912709 -0.351099,-1.57461 -0.351099,-1.57461 0,0 -1.292815,4.305107 -0.125652,9.881944 0.670198,3.202282 1.419364,6.666942 3.946454,10.54508 0,0 2.430055,3.585479 4.953566,9.532394 l 1.938637,5.930486 C 34.933577,56.683781 31.992242,46.840454 31.992242,46.840454 l -0.321335,-2.001469 c -0.365419,-7.017488 9.152117,-6.026693 9.152117,-6.026693 0,10e-7 -6.386611,-2.370804 -9.697626,1.509262 0.07686,0.04878 0.153389,0.10285 0.231265,0.14417 -0.10416,-0.01566 -0.200826,-0.04241 -0.301984,-0.06274 -0.02606,0.03164 -0.05398,0.05987 -0.07963,0.09233 -0.09069,-0.04812 -0.17894,-0.109194 -0.268251,-0.167393 0.04484,0.0117 0.093,0.01839 0.13845,0.02918 l 0.129801,0.138222 c -0.0025,-0.03816 -8.97e-4,-0.07235 -0.003,-0.110185 0.02751,0.0059 0.05491,0.01228 0.08264,0.01789 0.02305,-0.02799 0.04737,-0.05406 0.07072,-0.08142 -0.05198,-0.03299 -0.105969,-0.05949 -0.15748,-0.09578 -0.472255,-10.77738 13.340016,-8.36842 13.340016,-8.36842 0,0 -13.288145,-4.576119 -15.511568,5.759114 -0.03763,-0.06424 -0.07524,-0.129844 -0.112463,-0.195405 -0.02185,-15.039631 16.435151,-13.031979 16.435151,-13.031979 0,0 -14.608538,-4.228716 -18.712684,7.700392 -0.0812,-0.239594 -0.165359,-0.478359 -0.24231,-0.716289 z" />
    <path
       d="m 23.888391,24.1994 0.900947,8.924129 1.583395,-0.945524 -2.089656,-8.339548 z"
       id="path13054"
       style="fill:#dfdfdf;fill-opacity:1" />
    <path
       d="m 43.98529,13.897922 c 0,0 19.057587,6.723087 -3.010839,33.461406 0,0 -2.54814,2.954597 -2.933631,14.65979 0,0 -1.00141,9.282585 -5.266119,11.022248 0,0 6.675207,-0.335533 8.824765,-19.844057 0,0 -0.138832,-3.090476 8.277308,-14.077001 0,0 3.533399,-6.626434 2.821572,-7.700425 C 55.975981,15.160889 43.98529,13.897922 43.98529,13.897922 Z"
       id="path20412"
       style="fill:#dfdfdf;stroke-width:0.998001;stroke-miterlimit:4;stroke-dasharray:none" />
    <path
       d="m 52.698346,31.419883 c 0,0 6.044678,6.930525 -6.680569,22.835324 0,0 -1.465068,2.14946 -2.422767,6.828702 0,0 -1.37331,5.078366 -3.477763,7.667969 0,0 -1.978368,3.229824 -6.465651,5.461963 0,0 9.131559,-1.560421 12.94213,-16.19767 0,0 1.877012,-5.092146 6.770187,-10.204765 9.327726,-11.965338 -0.184778,-20.426427 -0.184778,-20.426427 z"
       id="path21383"
       style="fill:#dfdfdf"
       sodipodi:nodetypes="ccccccccc" />
    <path
       d="M 25.27314,16.107707 C 24.821611,2.4873391 41.716329,7.3592471 41.716329,7.3592471 c 0,0 -14.566677,-0.663942 -13.033817,7.4602129 z"
       id="path21770"
       style="fill:#dfdfdf" />
    <path
       d="m 41.229506,2.0370761 c 0,0 -9.908547,-5.297072 -12.192163,5.909439 l 3.80939,-1.073598 c -0.324417,-5.055186 8.382773,-4.835841 8.382773,-4.835841 z"
       id="path22079"
       style="fill:#dfdfdf"
       sodipodi:nodetypes="cccc" />
    <path
       d="m 41.229506,2.0370761 c 0,0 2.050757,3.396083 0.486823,5.322171 0,0 4.945474,2.9574019 2.268961,6.5386749 l 3.464741,1.15948 C 48.930919,8.0526371 43.738157,6.6592711 43.738157,6.6592711 43.955269,3.9718191 41.229506,2.0370761 41.229506,2.0370761 Z"
       id="path22491"
       style="fill:#dfdfdf" />
  </g>
</svg>
