<?xml version="1.0" standalone="no"?>
<!DOCTYPE svg PUBLIC "-//W3C//DTD SVG 20010904//EN"
 "http://www.w3.org/TR/2001/REC-SVG-20010904/DTD/svg10.dtd">
<svg version="1.0" xmlns="http://www.w3.org/2000/svg"
 width="1280.000000pt" height="1280.000000pt" viewBox="0 0 1280.000000 1280.000000"
 preserveAspectRatio="xMidYMid meet">
<metadata>
Created by potrace 1.15, written by Peter Selinger 2001-2017
</metadata>
<g transform="translate(0.000000,1280.000000) scale(0.100000,-0.100000)"
fill="#8a460f" stroke="none">
<path d="M6620 12287 c0 -325 -34 -407 -288 -690 -171 -190 -252 -315 -302
-467 -37 -108 -50 -191 -50 -311 0 -139 22 -249 94 -464 88 -261 101 -308 136
-480 26 -129 30 -172 30 -307 0 -135 -3 -165 -21 -213 -28 -74 -45 -72 -54 8
-21 203 -101 415 -227 603 -299 443 -472 928 -415 1159 8 33 38 128 67 210 84
240 101 318 107 490 7 183 -7 257 -72 390 -40 82 -121 195 -145 203 -15 5 -12
-15 21 -144 23 -89 32 -150 36 -241 8 -188 -22 -287 -162 -522 -186 -314 -237
-497 -214 -761 15 -177 60 -292 214 -550 126 -213 249 -484 300 -665 19 -65
32 -247 21 -289 -7 -27 -24 -35 -31 -13 -2 6 -13 44 -25 82 -58 188 -151 337
-340 545 -354 389 -571 774 -572 1013 0 40 12 137 26 217 53 303 56 467 11
647 -31 123 -92 236 -172 323 -65 70 -120 116 -129 108 -6 -6 17 -69 51 -144
58 -126 82 -207 99 -330 13 -95 -23 -242 -129 -519 -73 -189 -79 -224 -79
-440 0 -193 1 -203 28 -285 58 -173 101 -243 302 -485 231 -279 381 -518 445
-705 23 -68 38 -210 22 -210 -5 0 -24 30 -42 68 -85 173 -235 358 -381 467
-242 181 -486 429 -637 647 -18 25 -57 95 -85 154 l-53 108 -7 296 c-6 305
-15 384 -60 528 -43 143 -106 241 -221 348 -66 61 -162 122 -174 110 -6 -5 13
-38 82 -146 62 -95 113 -202 132 -273 25 -96 20 -283 -12 -427 -14 -63 -34
-176 -46 -250 -19 -120 -20 -148 -10 -250 12 -133 38 -233 86 -337 71 -154
158 -253 451 -517 308 -276 514 -554 530 -717 l5 -54 -28 35 c-170 211 -285
306 -522 430 -529 277 -889 605 -931 850 -34 200 -51 285 -70 360 -69 275
-185 464 -358 587 -70 50 -225 119 -230 102 -2 -5 27 -43 65 -85 178 -196 223
-266 261 -406 17 -61 21 -119 27 -353 8 -368 26 -464 118 -650 87 -177 260
-339 498 -468 343 -186 667 -456 753 -628 22 -44 33 -76 27 -82 -5 -5 -40 18
-89 60 -168 145 -292 212 -557 301 -218 73 -317 113 -465 187 -221 111 -392
232 -487 346 -54 64 -57 72 -154 334 -128 347 -278 552 -480 653 -119 60 -279
102 -279 73 0 -4 47 -43 104 -85 58 -43 136 -110 174 -151 139 -145 170 -229
233 -625 41 -261 116 -432 259 -592 103 -116 294 -236 473 -298 335 -116 654
-283 813 -424 66 -58 132 -152 117 -167 -8 -8 -28 0 -70 29 -182 123 -359 182
-703 231 -357 51 -740 185 -925 324 -81 61 -108 96 -220 293 -53 93 -105 178
-116 190 -10 11 -19 23 -19 27 0 16 -150 187 -201 228 -96 79 -209 137 -311
163 -74 19 -237 26 -239 12 0 -5 57 -40 128 -77 289 -152 369 -252 488 -604
53 -158 99 -266 146 -343 101 -166 236 -292 401 -374 118 -59 194 -82 393
-119 476 -89 824 -221 949 -359 62 -69 46 -75 -73 -25 -169 71 -352 95 -631
83 -507 -23 -981 64 -1143 211 -22 20 -100 104 -173 187 -199 226 -318 326
-477 399 -105 49 -194 68 -312 68 -100 0 -214 -19 -198 -33 8 -7 100 -37 228
-75 114 -33 229 -100 310 -181 58 -59 107 -131 213 -314 105 -182 152 -248
241 -338 134 -135 287 -219 481 -263 70 -16 147 -22 425 -29 366 -10 535 -28
705 -76 140 -40 279 -118 255 -143 -7 -7 -40 -5 -109 9 -140 28 -386 28 -517
-1 -388 -84 -461 -93 -759 -94 -222 0 -254 2 -338 23 -142 35 -185 58 -337
186 -293 244 -468 340 -672 367 -113 15 -231 6 -332 -26 -131 -42 -130 -42
107 -75 153 -21 204 -36 305 -86 108 -55 172 -116 359 -344 150 -183 274 -287
430 -359 141 -65 222 -81 419 -81 94 0 189 4 212 9 63 14 280 49 378 60 131
17 469 14 564 -4 85 -16 193 -63 185 -80 -3 -6 -64 -10 -150 -11 -215 -2 -335
-26 -539 -109 -324 -132 -650 -205 -913 -206 -214 -1 -257 10 -433 119 -84 51
-112 68 -218 125 -76 42 -212 95 -302 117 -74 19 -108 21 -229 18 -123 -3
-151 -7 -218 -31 -86 -31 -168 -74 -168 -88 0 -5 81 -9 188 -9 326 0 412 -38
719 -313 142 -128 224 -185 348 -243 138 -64 243 -87 400 -87 162 0 215 10
440 83 355 115 510 152 723 172 170 16 348 -11 340 -51 -3 -12 -21 -18 -83
-24 -191 -18 -377 -83 -568 -199 -378 -229 -742 -369 -1003 -385 -123 -7 -147
-2 -354 79 -279 109 -402 138 -594 138 -142 0 -218 -16 -332 -71 -80 -38 -184
-111 -184 -129 0 -10 42 -5 165 22 271 58 466 20 701 -137 192 -129 308 -188
458 -233 83 -25 105 -27 261 -27 148 0 180 3 250 23 105 31 193 66 268 109
207 118 467 236 640 292 178 57 361 78 433 51 38 -15 25 -24 -91 -60 -206 -66
-325 -138 -580 -355 -337 -285 -712 -485 -940 -501 -67 -5 -108 0 -255 30
-275 56 -439 68 -593 45 -180 -27 -351 -116 -458 -237 -72 -82 -56 -81 161 6
222 90 420 82 664 -28 47 -21 67 -25 75 -17 8 8 11 7 11 -5 0 -22 144 -76 305
-114 106 -25 316 -23 423 4 152 39 275 100 404 198 412 316 619 444 828 515
72 24 213 38 224 21 3 -6 -23 -24 -61 -42 -98 -45 -247 -148 -329 -227 -39
-37 -115 -124 -169 -193 -284 -360 -588 -622 -833 -717 -65 -26 -75 -27 -372
-34 -253 -6 -320 -10 -390 -27 -197 -47 -319 -112 -437 -235 -75 -78 -140
-173 -127 -186 6 -7 37 10 186 102 59 36 145 78 190 94 76 26 95 28 223 28
123 -1 162 -6 320 -39 127 -27 216 -40 300 -43 344 -15 621 118 868 416 106
129 400 418 502 494 117 87 256 158 324 165 32 3 51 1 51 -6 0 -6 -30 -32 -67
-58 -87 -61 -226 -200 -285 -284 -39 -55 -178 -295 -178 -307 0 -2 -42 -68
-94 -146 -207 -312 -428 -542 -598 -620 -41 -19 -207 -57 -251 -57 -38 0 -256
-45 -342 -71 -212 -63 -380 -173 -481 -315 -42 -59 -114 -200 -114 -223 0 -21
17 -10 122 83 163 143 239 189 383 227 61 16 109 19 362 19 318 0 374 6 530
58 157 53 269 127 397 263 48 52 107 130 146 194 280 461 511 731 703 821 50
23 87 31 87 18 0 -3 -32 -40 -71 -82 -139 -151 -226 -300 -289 -492 -172 -520
-424 -937 -639 -1054 -27 -14 -116 -49 -197 -77 -234 -80 -354 -135 -467 -211
-136 -92 -253 -230 -302 -356 -25 -64 -56 -193 -49 -201 7 -8 40 27 129 139
116 145 202 214 326 265 80 32 154 49 339 75 381 54 550 128 735 321 123 129
171 213 291 514 91 232 218 474 315 607 83 112 232 238 255 215 4 -3 -17 -43
-46 -88 -116 -181 -175 -344 -210 -574 -61 -410 -164 -735 -305 -960 -69 -110
-141 -172 -300 -261 -244 -135 -362 -220 -475 -341 -136 -146 -215 -341 -208
-512 l3 -66 26 40 c14 22 48 81 74 130 63 118 100 169 182 246 89 83 187 133
430 214 287 96 398 157 538 299 113 114 204 269 249 426 8 30 29 125 46 210
86 432 204 751 332 895 81 91 123 100 83 17 -40 -83 -83 -216 -104 -323 -16
-86 -21 -157 -25 -414 -5 -308 -13 -403 -52 -600 -41 -204 -118 -395 -192
-477 -20 -22 -91 -84 -157 -136 -339 -269 -484 -470 -525 -725 -17 -102 -4
-277 20 -277 5 0 27 57 51 127 60 181 118 291 198 372 83 85 118 109 322 217
90 48 196 108 234 134 194 132 329 309 398 520 34 104 45 182 57 415 15 297
20 360 37 470 35 227 95 414 161 504 34 46 59 67 68 58 2 -2 -5 -39 -16 -83
-49 -198 -51 -412 -5 -639 114 -565 76 -1084 -92 -1260 -82 -86 -253 -292
-294 -354 -67 -101 -123 -219 -151 -316 -32 -112 -32 -298 0 -400 27 -85 38
-106 46 -85 3 8 17 83 30 165 52 315 108 401 414 639 163 127 288 250 345 339
160 249 193 464 134 862 -60 404 -51 766 23 940 20 47 55 95 70 95 3 0 6 -73
6 -162 1 -236 25 -347 128 -591 150 -355 236 -776 208 -1021 -12 -111 -31
-156 -128 -317 -90 -150 -166 -314 -204 -439 -28 -93 -32 -119 -33 -235 0 -95
4 -149 18 -200 17 -68 85 -218 104 -229 5 -4 11 81 14 212 3 181 8 227 24 277
42 127 90 199 272 409 216 250 297 413 323 649 20 188 -3 311 -121 647 -107
307 -144 483 -148 710 -3 143 -1 172 16 215 10 27 23 51 28 52 6 2 13 -27 16
-64 7 -69 33 -181 67 -286 28 -85 87 -197 172 -327 221 -340 365 -668 403
-919 18 -120 11 -200 -27 -311 -126 -362 -148 -461 -148 -652 0 -154 18 -246
70 -350 32 -65 128 -198 142 -198 15 0 8 54 -22 175 -45 181 -41 379 10 490 5
11 14 31 19 45 5 14 58 112 119 218 164 287 202 407 202 637 0 224 -44 361
-197 614 -201 331 -333 659 -348 863 -11 149 20 191 55 76 56 -182 164 -366
302 -515 333 -357 554 -708 610 -967 13 -64 5 -199 -20 -336 -77 -408 -47
-653 105 -876 40 -59 166 -184 185 -184 13 0 4 27 -52 155 -60 138 -76 190
-90 290 -19 134 4 243 111 520 75 196 91 270 96 450 4 148 2 168 -21 260 -37
144 -108 279 -213 408 -341 419 -461 597 -534 797 -41 114 -57 240 -30 240 4
0 23 -34 44 -76 102 -205 212 -332 442 -509 50 -37 169 -148 266 -244 243
-243 366 -412 423 -583 24 -72 26 -89 26 -280 0 -218 12 -400 30 -470 32 -121
46 -160 87 -240 55 -108 146 -209 251 -279 98 -65 103 -51 26 68 -119 183
-162 293 -171 438 -6 102 2 169 47 375 24 112 33 179 37 296 6 172 -3 245 -48
377 -64 188 -168 323 -399 524 -343 297 -564 572 -614 768 -22 81 -7 89 42 23
62 -84 138 -163 220 -230 97 -78 151 -112 282 -178 216 -110 407 -233 565
-364 222 -184 340 -344 365 -497 41 -248 84 -429 127 -539 89 -227 263 -407
463 -482 51 -19 70 -22 70 -10 0 4 -46 57 -101 118 -149 160 -194 234 -230
372 -18 65 -21 118 -25 347 -3 181 -10 301 -21 365 -46 275 -205 508 -457 670
-45 29 -146 90 -225 137 -331 195 -585 415 -665 574 -34 68 -37 89 -15 89 6 0
38 -26 72 -59 132 -126 312 -228 503 -285 472 -143 912 -396 1048 -603 14 -21
53 -114 86 -208 138 -380 259 -570 443 -692 81 -54 216 -108 297 -118 l55 -7
-25 27 c-14 15 -65 57 -115 94 -225 170 -315 325 -354 616 -33 241 -70 384
-131 506 -127 252 -309 403 -630 523 -310 115 -483 197 -655 310 -132 87 -190
138 -241 211 -54 79 -36 89 52 32 186 -120 335 -171 602 -208 501 -69 948
-237 1093 -412 36 -42 109 -151 109 -161 0 -9 101 -178 151 -253 185 -275 401
-415 674 -437 44 -4 86 -3 93 2 15 10 -9 26 -174 112 -233 120 -333 251 -439
575 -62 190 -157 379 -240 477 -157 186 -373 303 -650 353 -49 9 -119 22 -155
30 -36 8 -99 22 -140 31 -213 46 -429 124 -574 208 -99 57 -198 156 -156 156
5 0 33 -10 62 -21 72 -29 159 -56 243 -76 58 -13 140 -17 480 -18 367 -1 424
-4 543 -23 285 -46 452 -106 549 -195 25 -23 97 -101 160 -174 196 -228 358
-359 520 -421 111 -43 197 -56 328 -49 174 9 187 22 58 62 -374 114 -468 188
-645 509 -198 360 -398 537 -698 620 -90 25 -210 35 -505 41 -422 9 -661 48
-824 135 -82 45 -105 64 -98 84 4 10 11 15 17 11 19 -12 167 -36 274 -45 114
-10 263 4 384 34 228 58 465 86 718 86 206 0 325 -14 429 -51 78 -28 111 -50
220 -144 228 -196 408 -308 580 -361 79 -24 105 -28 220 -27 94 0 146 5 189
18 87 26 130 45 120 55 -5 4 -70 15 -144 24 -169 21 -236 38 -325 80 -125 59
-195 124 -377 346 -256 313 -484 443 -803 456 -132 6 -188 1 -395 -35 -323
-55 -642 -68 -819 -31 -92 19 -184 56 -185 75 -1 6 69 12 179 16 235 8 295 21
518 109 401 157 787 232 1042 203 111 -13 154 -31 327 -136 212 -128 369 -198
521 -232 116 -26 305 -17 407 18 74 26 165 71 175 87 3 4 -88 10 -203 12 -181
4 -216 8 -277 28 -136 44 -200 86 -405 270 -197 176 -314 251 -479 304 -232
75 -432 62 -753 -49 -130 -45 -359 -109 -488 -136 -86 -19 -139 -23 -295 -23
-173 -1 -193 1 -224 19 -19 11 -34 24 -33 30 1 5 48 15 104 23 210 26 350 78
579 214 257 154 527 272 764 334 94 24 130 28 245 29 l135 0 165 -66 c300
-121 447 -154 649 -147 141 6 227 29 343 94 74 42 146 100 135 110 -4 4 -80
-7 -170 -24 -180 -36 -248 -39 -352 -17 -122 26 -203 65 -425 205 -258 163
-400 210 -635 210 -212 0 -325 -31 -545 -148 -449 -239 -741 -344 -950 -341
-155 2 -152 26 9 78 89 29 165 63 242 107 113 64 148 90 295 220 268 237 641
454 874 510 72 17 189 17 270 -1 330 -74 486 -88 671 -60 134 20 236 60 339
132 58 40 175 159 164 166 -9 5 -78 -18 -218 -72 -110 -42 -176 -55 -286 -55
-138 1 -202 18 -471 128 -179 73 -300 104 -441 112 -245 14 -467 -61 -690
-233 -329 -254 -466 -344 -652 -434 -139 -66 -248 -99 -329 -99 -70 0 -75 17
-13 43 150 62 380 243 474 372 172 237 458 521 671 664 76 52 207 114 273 130
28 6 142 11 280 11 128 0 265 5 303 10 303 43 504 158 640 365 35 54 42 71 30
73 -16 4 -41 -10 -155 -83 -158 -102 -250 -134 -405 -142 -101 -5 -127 -2
-315 37 -377 76 -583 65 -810 -43 -144 -69 -247 -156 -422 -356 -186 -213
-407 -420 -551 -515 -119 -79 -297 -142 -297 -105 0 8 24 30 53 49 76 50 235
208 299 297 31 43 83 128 116 189 234 432 510 757 742 874 58 30 78 34 332 75
344 56 535 140 694 306 33 35 73 84 89 109 32 50 88 181 80 188 -7 7 -43 -20
-122 -91 -107 -97 -171 -143 -254 -181 -122 -57 -206 -67 -510 -64 -220 3
-280 0 -359 -15 -196 -37 -375 -132 -518 -275 -87 -87 -117 -129 -241 -331
-225 -368 -445 -619 -617 -705 -49 -25 -104 -34 -104 -19 0 4 29 37 64 73 138
140 224 287 301 515 95 280 221 545 352 743 70 106 200 243 266 281 55 31 75
39 262 102 430 145 657 335 745 626 12 39 20 86 18 105 l-3 33 -70 -90 c-38
-49 -108 -128 -155 -175 -68 -68 -102 -94 -170 -127 -104 -51 -159 -65 -375
-98 -204 -30 -288 -48 -377 -80 -145 -52 -258 -123 -364 -229 -118 -119 -189
-238 -274 -461 -66 -174 -199 -453 -270 -565 -69 -108 -159 -220 -213 -263
-38 -31 -98 -67 -112 -67 -13 0 -2 25 33 78 62 92 92 149 132 247 47 116 64
184 90 359 75 501 242 933 423 1092 25 22 109 75 188 118 79 43 180 103 225
133 221 146 362 319 422 514 26 85 41 264 22 257 -8 -2 -44 -61 -81 -130 -152
-284 -252 -365 -584 -474 -88 -28 -173 -58 -190 -65 -196 -84 -281 -138 -391
-251 -157 -160 -237 -326 -289 -598 -94 -487 -217 -809 -364 -955 -66 -64 -93
-67 -62 -5 36 74 70 169 96 270 26 100 28 122 36 445 4 187 13 378 19 425 35
280 110 527 198 654 15 22 95 93 177 159 264 212 420 391 488 560 37 92 61
235 53 318 -8 85 -17 129 -26 129 -9 0 -38 -73 -71 -175 -47 -149 -109 -254
-206 -346 -67 -65 -121 -100 -288 -189 -234 -124 -306 -174 -411 -282 -129
-132 -205 -270 -249 -450 -20 -83 -27 -146 -35 -328 -16 -357 -33 -505 -80
-694 -44 -173 -131 -346 -176 -346 -17 0 -17 2 2 70 22 80 43 243 44 338 0 73
-21 257 -35 293 -9 28 -36 197 -50 324 -19 170 -19 471 0 598 17 111 55 236
89 287 13 20 80 101 150 180 147 168 232 288 286 403 70 151 75 173 75 362 0
154 -3 176 -23 228 -34 83 -42 77 -57 -48 -45 -356 -125 -485 -450 -725 -276
-204 -429 -435 -471 -710 -20 -134 -18 -220 11 -415 37 -256 48 -418 42 -630
-6 -210 -23 -304 -74 -398 -45 -82 -54 -74 -47 40 13 192 -25 397 -110 610
-152 379 -224 709 -213 982 3 74 11 147 21 176 8 28 55 116 102 195 94 157
179 328 213 428 53 156 62 335 26 477 -17 68 -91 225 -105 225 -6 0 -10 -78
-10 -193z"/>
</g>
</svg>
